<?xml version="1.0" standalone="no"?><!-- Generator: Gravit.io --><svg xmlns="http://www.w3.org/2000/svg" xmlns:xlink="http://www.w3.org/1999/xlink" style="isolation:isolate" viewBox="0 0 512 512" width="512" height="512"><defs><clipPath id="_clipPath_ReEcucWSJIqESm2xov2Ie9uyX4G5DjXq"><rect width="512" height="512"/></clipPath></defs><g clip-path="url(#_clipPath_ReEcucWSJIqESm2xov2Ie9uyX4G5DjXq)"><rect x="0" y="0" width="512" height="512" transform="matrix(1,0,0,1,0,0)" fill="rgb(41,121,255)"/><path d=" M 262.251 311.32 L 245.405 255.656 L 173.335 255.656 L 156.782 311.32 L 129.243 311.32 L 197.944 98.039 L 220.942 98.039 L 289.79 311.32 L 262.251 311.32 L 262.251 311.32 Z  M 209.37 135.539 L 180.366 232.512 L 238.521 232.512 L 209.37 135.539 L 209.37 135.539 Z  M 380.464 151.945 L 380.61 177.141 L 380.61 177.141 Q 375.19 176.115 368.892 176.115 L 368.892 176.115 L 368.892 176.115 Q 348.97 176.115 341.06 197.941 L 341.06 197.941 L 341.06 311.32 L 315.132 311.32 L 315.132 152.824 L 340.327 152.824 L 340.767 168.938 L 340.767 168.938 Q 351.167 149.895 370.21 149.895 L 370.21 149.895 L 370.21 149.895 Q 376.362 149.895 380.464 151.945 L 380.464 151.945 L 380.464 151.945 Z " fill-rule="evenodd" fill="rgb(255,255,225)"/><path d=" M 206.484 423.445 L 199.699 423.445 L 199.699 423.445 Q 199.313 422.707 199.084 421.6 L 199.084 421.6 L 199.084 421.6 Q 198.855 420.492 198.75 419.297 L 198.75 419.297 L 198.75 419.297 Q 197.766 420.281 196.553 421.16 L 196.553 421.16 L 196.553 421.16 Q 195.34 422.039 193.881 422.707 L 193.881 422.707 L 193.881 422.707 Q 192.422 423.375 190.77 423.762 L 190.77 423.762 L 190.77 423.762 Q 189.117 424.148 187.254 424.148 L 187.254 424.148 L 187.254 424.148 Q 184.23 424.148 181.787 423.27 L 181.787 423.27 L 181.787 423.27 Q 179.344 422.391 177.639 420.896 L 177.639 420.896 L 177.639 420.896 Q 175.934 419.402 175.002 417.346 L 175.002 417.346 L 175.002 417.346 Q 174.07 415.289 174.07 412.898 L 174.07 412.898 L 174.07 412.898 Q 174.07 409.77 175.318 407.414 L 175.318 407.414 L 175.318 407.414 Q 176.566 405.059 178.852 403.494 L 178.852 403.494 L 178.852 403.494 Q 181.137 401.93 184.354 401.156 L 184.354 401.156 L 184.354 401.156 Q 187.57 400.383 191.543 400.383 L 191.543 400.383 L 198.645 400.383 L 198.645 397.395 L 198.645 397.395 Q 198.645 395.672 198.012 394.301 L 198.012 394.301 L 198.012 394.301 Q 197.379 392.93 196.219 391.963 L 196.219 391.963 L 196.219 391.963 Q 195.059 390.996 193.389 390.469 L 193.389 390.469 L 193.389 390.469 Q 191.719 389.941 189.645 389.941 L 189.645 389.941 L 189.645 389.941 Q 187.711 389.941 186.182 390.434 L 186.182 390.434 L 186.182 390.434 Q 184.652 390.926 183.598 391.734 L 183.598 391.734 L 183.598 391.734 Q 182.543 392.543 181.963 393.65 L 181.963 393.65 L 181.963 393.65 Q 181.383 394.758 181.383 395.953 L 181.383 395.953 L 174.844 395.953 L 174.844 395.953 Q 174.879 393.879 175.916 391.875 L 175.916 391.875 L 175.916 391.875 Q 176.953 389.871 178.904 388.271 L 178.904 388.271 L 178.904 388.271 Q 180.855 386.672 183.65 385.688 L 183.65 385.688 L 183.65 385.688 Q 186.445 384.703 189.996 384.703 L 189.996 384.703 L 189.996 384.703 Q 193.23 384.703 196.008 385.494 L 196.008 385.494 L 196.008 385.494 Q 198.785 386.285 200.807 387.885 L 200.807 387.885 L 200.807 387.885 Q 202.828 389.484 203.988 391.875 L 203.988 391.875 L 203.988 391.875 Q 205.148 394.266 205.148 397.465 L 205.148 397.465 L 205.148 415.148 L 205.148 415.148 Q 205.148 417.047 205.5 419.174 L 205.5 419.174 L 205.5 419.174 Q 205.852 421.301 206.484 422.883 L 206.484 422.883 L 206.484 423.445 L 206.484 423.445 Z  M 188.203 418.488 L 188.203 418.488 L 188.203 418.488 Q 190.102 418.488 191.754 417.996 L 191.754 417.996 L 191.754 417.996 Q 193.406 417.504 194.76 416.695 L 194.76 416.695 L 194.76 416.695 Q 196.113 415.887 197.098 414.85 L 197.098 414.85 L 197.098 414.85 Q 198.082 413.813 198.645 412.688 L 198.645 412.688 L 198.645 404.988 L 192.598 404.988 L 192.598 404.988 Q 186.902 404.988 183.738 406.676 L 183.738 406.676 L 183.738 406.676 Q 180.574 408.363 180.574 411.984 L 180.574 411.984 L 180.574 411.984 Q 180.574 413.391 181.049 414.586 L 181.049 414.586 L 181.049 414.586 Q 181.523 415.781 182.473 416.643 L 182.473 416.643 L 182.473 416.643 Q 183.422 417.504 184.863 417.996 L 184.863 417.996 L 184.863 417.996 Q 186.305 418.488 188.203 418.488 Z  M 242.836 384.703 L 242.836 384.703 L 242.836 384.703 Q 243.75 384.703 244.734 384.756 L 244.734 384.756 L 244.734 384.756 Q 245.719 384.809 246.615 384.932 L 246.615 384.932 L 246.615 384.932 Q 247.512 385.055 248.268 385.23 L 248.268 385.23 L 248.268 385.23 Q 249.023 385.406 249.516 385.617 L 249.516 385.617 L 248.637 391.98 L 248.637 391.98 Q 246.738 391.559 245.033 391.365 L 245.033 391.365 L 245.033 391.365 Q 243.328 391.172 241.465 391.172 L 241.465 391.172 L 241.465 391.172 Q 236.895 391.172 234.064 393.246 L 234.064 393.246 L 234.064 393.246 Q 231.234 395.32 229.898 399.047 L 229.898 399.047 L 229.898 423.445 L 223.359 423.445 L 223.359 385.406 L 229.547 385.406 L 229.863 391.453 L 229.863 391.453 Q 232.184 388.324 235.436 386.514 L 235.436 386.514 L 235.436 386.514 Q 238.688 384.703 242.836 384.703 Z  M 277.324 418.875 L 277.324 418.875 L 277.324 418.875 Q 279.082 418.875 280.752 418.313 L 280.752 418.313 L 280.752 418.313 Q 282.422 417.75 283.723 416.748 L 283.723 416.748 L 283.723 416.748 Q 285.023 415.746 285.814 414.393 L 285.814 414.393 L 285.814 414.393 Q 286.605 413.039 286.641 411.457 L 286.641 411.457 L 292.793 411.457 L 292.793 411.457 Q 292.758 413.988 291.475 416.291 L 291.475 416.291 L 291.475 416.291 Q 290.191 418.594 288.047 420.334 L 288.047 420.334 L 288.047 420.334 Q 285.902 422.074 283.125 423.111 L 283.125 423.111 L 283.125 423.111 Q 280.348 424.148 277.324 424.148 L 277.324 424.148 L 277.324 424.148 Q 273 424.148 269.766 422.602 L 269.766 422.602 L 269.766 422.602 Q 266.531 421.055 264.369 418.436 L 264.369 418.436 L 264.369 418.436 Q 262.207 415.816 261.117 412.389 L 261.117 412.389 L 261.117 412.389 Q 260.027 408.961 260.027 405.164 L 260.027 405.164 L 260.027 403.688 L 260.027 403.688 Q 260.027 399.926 261.117 396.48 L 261.117 396.48 L 261.117 396.48 Q 262.207 393.035 264.369 390.416 L 264.369 390.416 L 264.369 390.416 Q 266.531 387.797 269.766 386.25 L 269.766 386.25 L 269.766 386.25 Q 273 384.703 277.324 384.703 L 277.324 384.703 L 277.324 384.703 Q 280.699 384.703 283.529 385.775 L 283.529 385.775 L 283.529 385.775 Q 286.359 386.848 288.416 388.693 L 288.416 388.693 L 288.416 388.693 Q 290.473 390.539 291.633 393.07 L 291.633 393.07 L 291.633 393.07 Q 292.793 395.602 292.793 398.484 L 292.793 398.484 L 286.641 398.484 L 286.641 398.484 Q 286.605 396.762 285.885 395.232 L 285.885 395.232 L 285.885 395.232 Q 285.164 393.703 283.934 392.543 L 283.934 392.543 L 283.934 392.543 Q 282.703 391.383 280.998 390.715 L 280.998 390.715 L 280.998 390.715 Q 279.293 390.047 277.324 390.047 L 277.324 390.047 L 277.324 390.047 Q 274.301 390.047 272.244 391.26 L 272.244 391.26 L 272.244 391.26 Q 270.188 392.473 268.922 394.424 L 268.922 394.424 L 268.922 394.424 Q 267.656 396.375 267.111 398.801 L 267.111 398.801 L 267.111 398.801 Q 266.566 401.227 266.566 403.688 L 266.566 403.688 L 266.566 405.164 L 266.566 405.164 Q 266.566 407.66 267.111 410.104 L 267.111 410.104 L 267.111 410.104 Q 267.656 412.547 268.904 414.498 L 268.904 414.498 L 268.904 414.498 Q 270.152 416.449 272.209 417.662 L 272.209 417.662 L 272.209 417.662 Q 274.266 418.875 277.324 418.875 Z  M 310.828 369.445 L 310.828 391.066 L 310.828 391.066 Q 312.867 388.078 315.855 386.408 L 315.855 386.408 L 315.855 386.408 Q 318.844 384.738 322.57 384.703 L 322.57 384.703 L 322.57 384.703 Q 325.559 384.703 328.002 385.564 L 328.002 385.564 L 328.002 385.564 Q 330.445 386.426 332.168 388.254 L 332.168 388.254 L 332.168 388.254 Q 333.891 390.082 334.822 392.877 L 334.822 392.877 L 334.822 392.877 Q 335.754 395.672 335.754 399.504 L 335.754 399.504 L 335.754 423.445 L 329.25 423.445 L 329.25 399.434 L 329.25 399.434 Q 329.25 394.758 327.018 392.473 L 327.018 392.473 L 327.018 392.473 Q 324.785 390.188 320.637 390.223 L 320.637 390.223 L 320.637 390.223 Q 317.508 390.223 314.959 391.752 L 314.959 391.752 L 314.959 391.752 Q 312.41 393.281 310.828 395.813 L 310.828 395.813 L 310.828 423.445 L 304.324 423.445 L 304.324 369.445 L 310.828 369.445 L 310.828 369.445 Z " fill-rule="evenodd" fill="rgb(255,255,225)"/></g></svg>