<?xml version="1.0" standalone="no"?><!-- Generator: Gravit.io --><svg xmlns="http://www.w3.org/2000/svg" xmlns:xlink="http://www.w3.org/1999/xlink" style="isolation:isolate" viewBox="0 0 512 512" width="512" height="512"><defs><clipPath id="_clipPath_RLa6qBbo69c0cEJAIeeFfzVNIOk1cLp0"><rect width="512" height="512"/></clipPath></defs><g clip-path="url(#_clipPath_RLa6qBbo69c0cEJAIeeFfzVNIOk1cLp0)"><rect x="0" y="0" width="512" height="512" transform="matrix(1,0,0,1,0,0)" fill="rgb(255,202,40)"/><path d=" M 227.168 243.645 L 254.268 243.645 L 254.268 243.645 Q 252.51 277.922 235.005 296.086 L 235.005 296.086 L 235.005 296.086 Q 217.5 314.25 185.566 314.25 L 185.566 314.25 L 185.566 314.25 Q 153.486 314.25 134.59 289.86 L 134.59 289.86 L 134.59 289.86 Q 115.693 265.471 115.693 223.723 L 115.693 223.723 L 115.693 185.051 L 115.693 185.051 Q 115.693 143.449 135.103 119.279 L 135.103 119.279 L 135.103 119.279 Q 154.512 95.109 188.057 95.109 L 188.057 95.109 L 188.057 95.109 Q 218.965 95.109 235.884 113.64 L 235.884 113.64 L 235.884 113.64 Q 252.803 132.17 254.268 166.594 L 254.268 166.594 L 227.168 166.594 L 227.168 166.594 Q 225.41 140.52 216.182 129.387 L 216.182 129.387 L 216.182 129.387 Q 206.953 118.254 188.057 118.254 L 188.057 118.254 L 188.057 118.254 Q 166.23 118.254 154.512 135.319 L 154.512 135.319 L 154.512 135.319 Q 142.793 152.385 142.793 185.344 L 142.793 185.344 L 142.793 224.455 L 142.793 224.455 Q 142.793 256.828 153.706 274.113 L 153.706 274.113 L 153.706 274.113 Q 164.619 291.398 185.566 291.398 L 185.566 291.398 L 185.566 291.398 Q 206.514 291.398 215.742 280.998 L 215.742 280.998 L 215.742 280.998 Q 224.971 270.598 227.168 243.645 L 227.168 243.645 L 227.168 243.645 Z  M 312.861 86.32 L 312.861 169.084 L 312.861 169.084 Q 327.656 149.895 350.654 149.895 L 350.654 149.895 L 350.654 149.895 Q 392.695 149.895 393.281 205.998 L 393.281 205.998 L 393.281 311.32 L 367.5 311.32 L 367.5 207.17 L 367.5 207.17 Q 367.5 188.566 361.274 180.729 L 361.274 180.729 L 361.274 180.729 Q 355.049 172.893 342.598 172.893 L 342.598 172.893 L 342.598 172.893 Q 332.93 172.893 325.239 179.338 L 325.239 179.338 L 325.239 179.338 Q 317.549 185.783 312.861 196.184 L 312.861 196.184 L 312.861 311.32 L 286.934 311.32 L 286.934 86.32 L 312.861 86.32 L 312.861 86.32 Z " fill-rule="evenodd" fill="rgb(255,255,225)"/><path d=" M 147.703 418.875 L 147.703 418.875 L 147.703 418.875 Q 149.461 418.875 151.131 418.313 L 151.131 418.313 L 151.131 418.313 Q 152.801 417.75 154.102 416.748 L 154.102 416.748 L 154.102 416.748 Q 155.402 415.746 156.193 414.393 L 156.193 414.393 L 156.193 414.393 Q 156.984 413.039 157.02 411.457 L 157.02 411.457 L 163.172 411.457 L 163.172 411.457 Q 163.137 413.988 161.854 416.291 L 161.854 416.291 L 161.854 416.291 Q 160.57 418.594 158.426 420.334 L 158.426 420.334 L 158.426 420.334 Q 156.281 422.074 153.504 423.111 L 153.504 423.111 L 153.504 423.111 Q 150.727 424.148 147.703 424.148 L 147.703 424.148 L 147.703 424.148 Q 143.379 424.148 140.145 422.602 L 140.145 422.602 L 140.145 422.602 Q 136.91 421.055 134.748 418.436 L 134.748 418.436 L 134.748 418.436 Q 132.586 415.816 131.496 412.389 L 131.496 412.389 L 131.496 412.389 Q 130.406 408.961 130.406 405.164 L 130.406 405.164 L 130.406 403.688 L 130.406 403.688 Q 130.406 399.926 131.496 396.48 L 131.496 396.48 L 131.496 396.48 Q 132.586 393.035 134.748 390.416 L 134.748 390.416 L 134.748 390.416 Q 136.91 387.797 140.145 386.25 L 140.145 386.25 L 140.145 386.25 Q 143.379 384.703 147.703 384.703 L 147.703 384.703 L 147.703 384.703 Q 151.078 384.703 153.908 385.775 L 153.908 385.775 L 153.908 385.775 Q 156.738 386.848 158.795 388.693 L 158.795 388.693 L 158.795 388.693 Q 160.852 390.539 162.012 393.07 L 162.012 393.07 L 162.012 393.07 Q 163.172 395.602 163.172 398.484 L 163.172 398.484 L 157.02 398.484 L 157.02 398.484 Q 156.984 396.762 156.264 395.232 L 156.264 395.232 L 156.264 395.232 Q 155.543 393.703 154.313 392.543 L 154.313 392.543 L 154.313 392.543 Q 153.082 391.383 151.377 390.715 L 151.377 390.715 L 151.377 390.715 Q 149.672 390.047 147.703 390.047 L 147.703 390.047 L 147.703 390.047 Q 144.68 390.047 142.623 391.26 L 142.623 391.26 L 142.623 391.26 Q 140.566 392.473 139.301 394.424 L 139.301 394.424 L 139.301 394.424 Q 138.035 396.375 137.49 398.801 L 137.49 398.801 L 137.49 398.801 Q 136.945 401.227 136.945 403.688 L 136.945 403.688 L 136.945 405.164 L 136.945 405.164 Q 136.945 407.66 137.49 410.104 L 137.49 410.104 L 137.49 410.104 Q 138.035 412.547 139.283 414.498 L 139.283 414.498 L 139.283 414.498 Q 140.531 416.449 142.588 417.662 L 142.588 417.662 L 142.588 417.662 Q 144.645 418.875 147.703 418.875 Z  M 181.207 369.445 L 181.207 391.066 L 181.207 391.066 Q 183.246 388.078 186.234 386.408 L 186.234 386.408 L 186.234 386.408 Q 189.223 384.738 192.949 384.703 L 192.949 384.703 L 192.949 384.703 Q 195.938 384.703 198.381 385.564 L 198.381 385.564 L 198.381 385.564 Q 200.824 386.426 202.547 388.254 L 202.547 388.254 L 202.547 388.254 Q 204.27 390.082 205.201 392.877 L 205.201 392.877 L 205.201 392.877 Q 206.133 395.672 206.133 399.504 L 206.133 399.504 L 206.133 423.445 L 199.629 423.445 L 199.629 399.434 L 199.629 399.434 Q 199.629 394.758 197.396 392.473 L 197.396 392.473 L 197.396 392.473 Q 195.164 390.188 191.016 390.223 L 191.016 390.223 L 191.016 390.223 Q 187.887 390.223 185.338 391.752 L 185.338 391.752 L 185.338 391.752 Q 182.789 393.281 181.207 395.813 L 181.207 395.813 L 181.207 423.445 L 174.703 423.445 L 174.703 369.445 L 181.207 369.445 L 181.207 369.445 Z  M 242.836 384.703 L 242.836 384.703 L 242.836 384.703 Q 243.75 384.703 244.734 384.756 L 244.734 384.756 L 244.734 384.756 Q 245.719 384.809 246.615 384.932 L 246.615 384.932 L 246.615 384.932 Q 247.512 385.055 248.268 385.23 L 248.268 385.23 L 248.268 385.23 Q 249.023 385.406 249.516 385.617 L 249.516 385.617 L 248.637 391.98 L 248.637 391.98 Q 246.738 391.559 245.033 391.365 L 245.033 391.365 L 245.033 391.365 Q 243.328 391.172 241.465 391.172 L 241.465 391.172 L 241.465 391.172 Q 236.895 391.172 234.064 393.246 L 234.064 393.246 L 234.064 393.246 Q 231.234 395.32 229.898 399.047 L 229.898 399.047 L 229.898 423.445 L 223.359 423.445 L 223.359 385.406 L 229.547 385.406 L 229.863 391.453 L 229.863 391.453 Q 232.184 388.324 235.436 386.514 L 235.436 386.514 L 235.436 386.514 Q 238.688 384.703 242.836 384.703 Z  M 259.289 404.848 L 259.289 404.074 L 259.289 404.074 Q 259.289 399.961 260.484 396.428 L 260.484 396.428 L 260.484 396.428 Q 261.68 392.895 263.912 390.293 L 263.912 390.293 L 263.912 390.293 Q 266.145 387.691 269.344 386.197 L 269.344 386.197 L 269.344 386.197 Q 272.543 384.703 276.551 384.703 L 276.551 384.703 L 276.551 384.703 Q 280.594 384.703 283.811 386.197 L 283.811 386.197 L 283.811 386.197 Q 287.027 387.691 289.26 390.293 L 289.26 390.293 L 289.26 390.293 Q 291.492 392.895 292.688 396.428 L 292.688 396.428 L 292.688 396.428 Q 293.883 399.961 293.883 404.074 L 293.883 404.074 L 293.883 404.848 L 293.883 404.848 Q 293.883 408.961 292.688 412.477 L 292.688 412.477 L 292.688 412.477 Q 291.492 415.992 289.26 418.594 L 289.26 418.594 L 289.26 418.594 Q 287.027 421.195 283.828 422.672 L 283.828 422.672 L 283.828 422.672 Q 280.629 424.148 276.621 424.148 L 276.621 424.148 L 276.621 424.148 Q 272.578 424.148 269.361 422.672 L 269.361 422.672 L 269.361 422.672 Q 266.145 421.195 263.912 418.594 L 263.912 418.594 L 263.912 418.594 Q 261.68 415.992 260.484 412.477 L 260.484 412.477 L 260.484 412.477 Q 259.289 408.961 259.289 404.848 L 259.289 404.848 L 259.289 404.848 Z  M 265.793 404.074 L 265.793 404.848 L 265.793 404.848 Q 265.793 407.66 266.461 410.209 L 266.461 410.209 L 266.461 410.209 Q 267.129 412.758 268.482 414.691 L 268.482 414.691 L 268.482 414.691 Q 269.836 416.625 271.875 417.75 L 271.875 417.75 L 271.875 417.75 Q 273.914 418.875 276.621 418.875 L 276.621 418.875 L 276.621 418.875 Q 279.293 418.875 281.314 417.75 L 281.314 417.75 L 281.314 417.75 Q 283.336 416.625 284.689 414.691 L 284.689 414.691 L 284.689 414.691 Q 286.043 412.758 286.711 410.209 L 286.711 410.209 L 286.711 410.209 Q 287.379 407.66 287.379 404.848 L 287.379 404.848 L 287.379 404.074 L 287.379 404.074 Q 287.379 401.297 286.693 398.748 L 286.693 398.748 L 286.693 398.748 Q 286.008 396.199 284.654 394.266 L 284.654 394.266 L 284.654 394.266 Q 283.301 392.332 281.279 391.189 L 281.279 391.189 L 281.279 391.189 Q 279.258 390.047 276.551 390.047 L 276.551 390.047 L 276.551 390.047 Q 273.844 390.047 271.84 391.189 L 271.84 391.189 L 271.84 391.189 Q 269.836 392.332 268.482 394.266 L 268.482 394.266 L 268.482 394.266 Q 267.129 396.199 266.461 398.748 L 266.461 398.748 L 266.461 398.748 Q 265.793 401.297 265.793 404.074 L 265.793 404.074 L 265.793 404.074 Z  M 301.477 385.406 L 307.313 385.406 L 307.488 388.992 L 307.488 388.992 Q 308.648 386.988 310.529 385.863 L 310.529 385.863 L 310.529 385.863 Q 312.41 384.738 315.082 384.703 L 315.082 384.703 L 315.082 384.703 Q 320.32 384.703 322.078 388.781 L 322.078 388.781 L 322.078 388.781 Q 323.203 386.953 325.049 385.846 L 325.049 385.846 L 325.049 385.846 Q 326.895 384.738 329.531 384.703 L 329.531 384.703 L 329.531 384.703 Q 333.715 384.703 335.965 387.27 L 335.965 387.27 L 335.965 387.27 Q 338.215 389.836 338.215 395.039 L 338.215 395.039 L 338.215 423.445 L 332.027 423.445 L 332.027 394.969 L 332.027 394.969 Q 332.027 390.188 327.633 390.223 L 327.633 390.223 L 327.633 390.223 Q 326.473 390.223 325.629 390.539 L 325.629 390.539 L 325.629 390.539 Q 324.785 390.855 324.223 391.4 L 324.223 391.4 L 324.223 391.4 Q 323.66 391.945 323.344 392.666 L 323.344 392.666 L 323.344 392.666 Q 323.027 393.387 322.922 394.16 L 322.922 394.16 L 322.922 423.445 L 316.734 423.445 L 316.734 394.934 L 316.734 394.934 Q 316.734 392.648 315.715 391.418 L 315.715 391.418 L 315.715 391.418 Q 314.695 390.188 312.48 390.223 L 312.48 390.223 L 312.48 390.223 Q 310.441 390.223 309.316 391.031 L 309.316 391.031 L 309.316 391.031 Q 308.191 391.84 307.664 393.176 L 307.664 393.176 L 307.664 423.445 L 301.477 423.445 L 301.477 385.406 L 301.477 385.406 Z  M 364.336 424.148 L 364.336 424.148 L 364.336 424.148 Q 360.328 424.148 356.971 422.777 L 356.971 422.777 L 356.971 422.777 Q 353.613 421.406 351.223 418.945 L 351.223 418.945 L 351.223 418.945 Q 348.832 416.484 347.496 413.109 L 347.496 413.109 L 347.496 413.109 Q 346.16 409.734 346.16 405.762 L 346.16 405.762 L 346.16 404.285 L 346.16 404.285 Q 346.16 399.68 347.637 396.041 L 347.637 396.041 L 347.637 396.041 Q 349.113 392.402 351.557 389.889 L 351.557 389.889 L 351.557 389.889 Q 354 387.375 357.111 386.039 L 357.111 386.039 L 357.111 386.039 Q 360.223 384.703 363.492 384.703 L 363.492 384.703 L 363.492 384.703 Q 367.605 384.703 370.682 386.127 L 370.682 386.127 L 370.682 386.127 Q 373.758 387.551 375.797 390.064 L 375.797 390.064 L 375.797 390.064 Q 377.836 392.578 378.838 395.988 L 378.838 395.988 L 378.838 395.988 Q 379.84 399.398 379.84 403.371 L 379.84 403.371 L 379.84 406.289 L 352.664 406.289 L 352.664 406.289 Q 352.77 408.891 353.666 411.176 L 353.666 411.176 L 353.666 411.176 Q 354.563 413.461 356.127 415.166 L 356.127 415.166 L 356.127 415.166 Q 357.691 416.871 359.871 417.855 L 359.871 417.855 L 359.871 417.855 Q 362.051 418.84 364.688 418.84 L 364.688 418.84 L 364.688 418.84 Q 368.168 418.84 370.875 417.434 L 370.875 417.434 L 370.875 417.434 Q 373.582 416.027 375.375 413.707 L 375.375 413.707 L 379.348 416.801 L 379.348 416.801 Q 378.398 418.242 376.975 419.561 L 376.975 419.561 L 376.975 419.561 Q 375.551 420.879 373.688 421.898 L 373.688 421.898 L 373.688 421.898 Q 371.824 422.918 369.469 423.533 L 369.469 423.533 L 369.469 423.533 Q 367.113 424.148 364.336 424.148 Z  M 363.492 390.047 L 363.492 390.047 L 363.492 390.047 Q 361.523 390.047 359.766 390.768 L 359.766 390.768 L 359.766 390.768 Q 358.008 391.488 356.602 392.877 L 356.602 392.877 L 356.602 392.877 Q 355.195 394.266 354.229 396.287 L 354.229 396.287 L 354.229 396.287 Q 353.262 398.309 352.875 400.945 L 352.875 400.945 L 373.336 400.945 L 373.336 400.453 L 373.336 400.453 Q 373.23 398.555 372.615 396.691 L 372.615 396.691 L 372.615 396.691 Q 372 394.828 370.805 393.352 L 370.805 393.352 L 370.805 393.352 Q 369.609 391.875 367.799 390.961 L 367.799 390.961 L 367.799 390.961 Q 365.988 390.047 363.492 390.047 Z " fill-rule="evenodd" fill="rgb(255,255,225)"/></g></svg>