<?xml version="1.0" standalone="no"?><!-- Generator: Gravit.io --><svg xmlns="http://www.w3.org/2000/svg" xmlns:xlink="http://www.w3.org/1999/xlink" style="isolation:isolate" viewBox="0 0 512 512" width="512" height="512"><defs><clipPath id="_clipPath_P8ac6sqVLQYo96L8lQ8RuuQwZlTG2Bz4"><rect width="512" height="512"/></clipPath></defs><g clip-path="url(#_clipPath_P8ac6sqVLQYo96L8lQ8RuuQwZlTG2Bz4)"><rect x="0" y="0" width="512" height="512" transform="matrix(1,0,0,1,0,0)" fill="rgb(49,27,146)"/><path d=" M 232.002 243.645 L 259.102 243.645 L 259.102 243.645 Q 257.344 277.922 239.839 296.086 L 239.839 296.086 L 239.839 296.086 Q 222.334 314.25 190.4 314.25 L 190.4 314.25 L 190.4 314.25 Q 158.32 314.25 139.424 289.86 L 139.424 289.86 L 139.424 289.86 Q 120.527 265.471 120.527 223.723 L 120.527 223.723 L 120.527 185.051 L 120.527 185.051 Q 120.527 143.449 139.937 119.279 L 139.937 119.279 L 139.937 119.279 Q 159.346 95.109 192.891 95.109 L 192.891 95.109 L 192.891 95.109 Q 223.799 95.109 240.718 113.64 L 240.718 113.64 L 240.718 113.64 Q 257.637 132.17 259.102 166.594 L 259.102 166.594 L 232.002 166.594 L 232.002 166.594 Q 230.244 140.52 221.016 129.387 L 221.016 129.387 L 221.016 129.387 Q 211.787 118.254 192.891 118.254 L 192.891 118.254 L 192.891 118.254 Q 171.064 118.254 159.346 135.319 L 159.346 135.319 L 159.346 135.319 Q 147.627 152.385 147.627 185.344 L 147.627 185.344 L 147.627 224.455 L 147.627 224.455 Q 147.627 256.828 158.54 274.113 L 158.54 274.113 L 158.54 274.113 Q 169.453 291.398 190.4 291.398 L 190.4 291.398 L 190.4 291.398 Q 211.348 291.398 220.576 280.998 L 220.576 280.998 L 220.576 280.998 Q 229.805 270.598 232.002 243.645 L 232.002 243.645 L 232.002 243.645 Z  M 374.678 311.32 L 331.611 238.811 L 317.842 254.631 L 317.842 311.32 L 291.914 311.32 L 291.914 86.32 L 317.842 86.32 L 317.842 220.939 L 367.207 152.824 L 398.262 152.824 L 347.871 219.035 L 404.854 311.32 L 374.678 311.32 L 374.678 311.32 Z " fill-rule="evenodd" fill="rgb(255,255,225)"/><path d=" M 147.703 418.875 L 147.703 418.875 L 147.703 418.875 Q 149.461 418.875 151.131 418.313 L 151.131 418.313 L 151.131 418.313 Q 152.801 417.75 154.102 416.748 L 154.102 416.748 L 154.102 416.748 Q 155.402 415.746 156.193 414.393 L 156.193 414.393 L 156.193 414.393 Q 156.984 413.039 157.02 411.457 L 157.02 411.457 L 163.172 411.457 L 163.172 411.457 Q 163.137 413.988 161.854 416.291 L 161.854 416.291 L 161.854 416.291 Q 160.57 418.594 158.426 420.334 L 158.426 420.334 L 158.426 420.334 Q 156.281 422.074 153.504 423.111 L 153.504 423.111 L 153.504 423.111 Q 150.727 424.148 147.703 424.148 L 147.703 424.148 L 147.703 424.148 Q 143.379 424.148 140.145 422.602 L 140.145 422.602 L 140.145 422.602 Q 136.91 421.055 134.748 418.436 L 134.748 418.436 L 134.748 418.436 Q 132.586 415.816 131.496 412.389 L 131.496 412.389 L 131.496 412.389 Q 130.406 408.961 130.406 405.164 L 130.406 405.164 L 130.406 403.688 L 130.406 403.688 Q 130.406 399.926 131.496 396.48 L 131.496 396.48 L 131.496 396.48 Q 132.586 393.035 134.748 390.416 L 134.748 390.416 L 134.748 390.416 Q 136.91 387.797 140.145 386.25 L 140.145 386.25 L 140.145 386.25 Q 143.379 384.703 147.703 384.703 L 147.703 384.703 L 147.703 384.703 Q 151.078 384.703 153.908 385.775 L 153.908 385.775 L 153.908 385.775 Q 156.738 386.848 158.795 388.693 L 158.795 388.693 L 158.795 388.693 Q 160.852 390.539 162.012 393.07 L 162.012 393.07 L 162.012 393.07 Q 163.172 395.602 163.172 398.484 L 163.172 398.484 L 157.02 398.484 L 157.02 398.484 Q 156.984 396.762 156.264 395.232 L 156.264 395.232 L 156.264 395.232 Q 155.543 393.703 154.313 392.543 L 154.313 392.543 L 154.313 392.543 Q 153.082 391.383 151.377 390.715 L 151.377 390.715 L 151.377 390.715 Q 149.672 390.047 147.703 390.047 L 147.703 390.047 L 147.703 390.047 Q 144.68 390.047 142.623 391.26 L 142.623 391.26 L 142.623 391.26 Q 140.566 392.473 139.301 394.424 L 139.301 394.424 L 139.301 394.424 Q 138.035 396.375 137.49 398.801 L 137.49 398.801 L 137.49 398.801 Q 136.945 401.227 136.945 403.688 L 136.945 403.688 L 136.945 405.164 L 136.945 405.164 Q 136.945 407.66 137.49 410.104 L 137.49 410.104 L 137.49 410.104 Q 138.035 412.547 139.283 414.498 L 139.283 414.498 L 139.283 414.498 Q 140.531 416.449 142.588 417.662 L 142.588 417.662 L 142.588 417.662 Q 144.645 418.875 147.703 418.875 Z  M 181.207 369.445 L 181.207 391.066 L 181.207 391.066 Q 183.246 388.078 186.234 386.408 L 186.234 386.408 L 186.234 386.408 Q 189.223 384.738 192.949 384.703 L 192.949 384.703 L 192.949 384.703 Q 195.938 384.703 198.381 385.564 L 198.381 385.564 L 198.381 385.564 Q 200.824 386.426 202.547 388.254 L 202.547 388.254 L 202.547 388.254 Q 204.27 390.082 205.201 392.877 L 205.201 392.877 L 205.201 392.877 Q 206.133 395.672 206.133 399.504 L 206.133 399.504 L 206.133 423.445 L 199.629 423.445 L 199.629 399.434 L 199.629 399.434 Q 199.629 394.758 197.396 392.473 L 197.396 392.473 L 197.396 392.473 Q 195.164 390.188 191.016 390.223 L 191.016 390.223 L 191.016 390.223 Q 187.887 390.223 185.338 391.752 L 185.338 391.752 L 185.338 391.752 Q 182.789 393.281 181.207 395.813 L 181.207 395.813 L 181.207 423.445 L 174.703 423.445 L 174.703 369.445 L 181.207 369.445 L 181.207 369.445 Z  M 249.691 423.445 L 242.906 423.445 L 242.906 423.445 Q 242.52 422.707 242.291 421.6 L 242.291 421.6 L 242.291 421.6 Q 242.063 420.492 241.957 419.297 L 241.957 419.297 L 241.957 419.297 Q 240.973 420.281 239.76 421.16 L 239.76 421.16 L 239.76 421.16 Q 238.547 422.039 237.088 422.707 L 237.088 422.707 L 237.088 422.707 Q 235.629 423.375 233.977 423.762 L 233.977 423.762 L 233.977 423.762 Q 232.324 424.148 230.461 424.148 L 230.461 424.148 L 230.461 424.148 Q 227.438 424.148 224.994 423.27 L 224.994 423.27 L 224.994 423.27 Q 222.551 422.391 220.846 420.896 L 220.846 420.896 L 220.846 420.896 Q 219.141 419.402 218.209 417.346 L 218.209 417.346 L 218.209 417.346 Q 217.277 415.289 217.277 412.898 L 217.277 412.898 L 217.277 412.898 Q 217.277 409.77 218.525 407.414 L 218.525 407.414 L 218.525 407.414 Q 219.773 405.059 222.059 403.494 L 222.059 403.494 L 222.059 403.494 Q 224.344 401.93 227.561 401.156 L 227.561 401.156 L 227.561 401.156 Q 230.777 400.383 234.75 400.383 L 234.75 400.383 L 241.852 400.383 L 241.852 397.395 L 241.852 397.395 Q 241.852 395.672 241.219 394.301 L 241.219 394.301 L 241.219 394.301 Q 240.586 392.93 239.426 391.963 L 239.426 391.963 L 239.426 391.963 Q 238.266 390.996 236.596 390.469 L 236.596 390.469 L 236.596 390.469 Q 234.926 389.941 232.852 389.941 L 232.852 389.941 L 232.852 389.941 Q 230.918 389.941 229.389 390.434 L 229.389 390.434 L 229.389 390.434 Q 227.859 390.926 226.805 391.734 L 226.805 391.734 L 226.805 391.734 Q 225.75 392.543 225.17 393.65 L 225.17 393.65 L 225.17 393.65 Q 224.59 394.758 224.59 395.953 L 224.59 395.953 L 218.051 395.953 L 218.051 395.953 Q 218.086 393.879 219.123 391.875 L 219.123 391.875 L 219.123 391.875 Q 220.16 389.871 222.111 388.271 L 222.111 388.271 L 222.111 388.271 Q 224.063 386.672 226.857 385.688 L 226.857 385.688 L 226.857 385.688 Q 229.652 384.703 233.203 384.703 L 233.203 384.703 L 233.203 384.703 Q 236.438 384.703 239.215 385.494 L 239.215 385.494 L 239.215 385.494 Q 241.992 386.285 244.014 387.885 L 244.014 387.885 L 244.014 387.885 Q 246.035 389.484 247.195 391.875 L 247.195 391.875 L 247.195 391.875 Q 248.355 394.266 248.355 397.465 L 248.355 397.465 L 248.355 415.148 L 248.355 415.148 Q 248.355 417.047 248.707 419.174 L 248.707 419.174 L 248.707 419.174 Q 249.059 421.301 249.691 422.883 L 249.691 422.883 L 249.691 423.445 L 249.691 423.445 Z  M 231.41 418.488 L 231.41 418.488 L 231.41 418.488 Q 233.309 418.488 234.961 417.996 L 234.961 417.996 L 234.961 417.996 Q 236.613 417.504 237.967 416.695 L 237.967 416.695 L 237.967 416.695 Q 239.32 415.887 240.305 414.85 L 240.305 414.85 L 240.305 414.85 Q 241.289 413.813 241.852 412.688 L 241.852 412.688 L 241.852 404.988 L 235.805 404.988 L 235.805 404.988 Q 230.109 404.988 226.945 406.676 L 226.945 406.676 L 226.945 406.676 Q 223.781 408.363 223.781 411.984 L 223.781 411.984 L 223.781 411.984 Q 223.781 413.391 224.256 414.586 L 224.256 414.586 L 224.256 414.586 Q 224.73 415.781 225.68 416.643 L 225.68 416.643 L 225.68 416.643 Q 226.629 417.504 228.07 417.996 L 228.07 417.996 L 228.07 417.996 Q 229.512 418.488 231.41 418.488 Z  M 286.465 423.445 L 272.508 405.691 L 267.727 410.297 L 267.727 423.445 L 261.188 423.445 L 261.188 369.445 L 267.727 369.445 L 267.727 402.492 L 271.98 397.922 L 284.461 385.406 L 292.371 385.406 L 276.973 401.262 L 294.727 423.445 L 286.465 423.445 L 286.465 423.445 Z  M 329.25 384.703 L 329.25 384.703 L 329.25 384.703 Q 330.164 384.703 331.148 384.756 L 331.148 384.756 L 331.148 384.756 Q 332.133 384.809 333.029 384.932 L 333.029 384.932 L 333.029 384.932 Q 333.926 385.055 334.682 385.23 L 334.682 385.23 L 334.682 385.23 Q 335.438 385.406 335.93 385.617 L 335.93 385.617 L 335.051 391.98 L 335.051 391.98 Q 333.152 391.559 331.447 391.365 L 331.447 391.365 L 331.447 391.365 Q 329.742 391.172 327.879 391.172 L 327.879 391.172 L 327.879 391.172 Q 323.309 391.172 320.479 393.246 L 320.479 393.246 L 320.479 393.246 Q 317.648 395.32 316.313 399.047 L 316.313 399.047 L 316.313 423.445 L 309.773 423.445 L 309.773 385.406 L 315.961 385.406 L 316.277 391.453 L 316.277 391.453 Q 318.598 388.324 321.85 386.514 L 321.85 386.514 L 321.85 386.514 Q 325.102 384.703 329.25 384.703 Z  M 379.313 423.445 L 372.527 423.445 L 372.527 423.445 Q 372.141 422.707 371.912 421.6 L 371.912 421.6 L 371.912 421.6 Q 371.684 420.492 371.578 419.297 L 371.578 419.297 L 371.578 419.297 Q 370.594 420.281 369.381 421.16 L 369.381 421.16 L 369.381 421.16 Q 368.168 422.039 366.709 422.707 L 366.709 422.707 L 366.709 422.707 Q 365.25 423.375 363.598 423.762 L 363.598 423.762 L 363.598 423.762 Q 361.945 424.148 360.082 424.148 L 360.082 424.148 L 360.082 424.148 Q 357.059 424.148 354.615 423.27 L 354.615 423.27 L 354.615 423.27 Q 352.172 422.391 350.467 420.896 L 350.467 420.896 L 350.467 420.896 Q 348.762 419.402 347.83 417.346 L 347.83 417.346 L 347.83 417.346 Q 346.898 415.289 346.898 412.898 L 346.898 412.898 L 346.898 412.898 Q 346.898 409.77 348.146 407.414 L 348.146 407.414 L 348.146 407.414 Q 349.395 405.059 351.68 403.494 L 351.68 403.494 L 351.68 403.494 Q 353.965 401.93 357.182 401.156 L 357.182 401.156 L 357.182 401.156 Q 360.398 400.383 364.371 400.383 L 364.371 400.383 L 371.473 400.383 L 371.473 397.395 L 371.473 397.395 Q 371.473 395.672 370.84 394.301 L 370.84 394.301 L 370.84 394.301 Q 370.207 392.93 369.047 391.963 L 369.047 391.963 L 369.047 391.963 Q 367.887 390.996 366.217 390.469 L 366.217 390.469 L 366.217 390.469 Q 364.547 389.941 362.473 389.941 L 362.473 389.941 L 362.473 389.941 Q 360.539 389.941 359.01 390.434 L 359.01 390.434 L 359.01 390.434 Q 357.48 390.926 356.426 391.734 L 356.426 391.734 L 356.426 391.734 Q 355.371 392.543 354.791 393.65 L 354.791 393.65 L 354.791 393.65 Q 354.211 394.758 354.211 395.953 L 354.211 395.953 L 347.672 395.953 L 347.672 395.953 Q 347.707 393.879 348.744 391.875 L 348.744 391.875 L 348.744 391.875 Q 349.781 389.871 351.732 388.271 L 351.732 388.271 L 351.732 388.271 Q 353.684 386.672 356.479 385.688 L 356.479 385.688 L 356.479 385.688 Q 359.273 384.703 362.824 384.703 L 362.824 384.703 L 362.824 384.703 Q 366.059 384.703 368.836 385.494 L 368.836 385.494 L 368.836 385.494 Q 371.613 386.285 373.635 387.885 L 373.635 387.885 L 373.635 387.885 Q 375.656 389.484 376.816 391.875 L 376.816 391.875 L 376.816 391.875 Q 377.977 394.266 377.977 397.465 L 377.977 397.465 L 377.977 415.148 L 377.977 415.148 Q 377.977 417.047 378.328 419.174 L 378.328 419.174 L 378.328 419.174 Q 378.68 421.301 379.313 422.883 L 379.313 422.883 L 379.313 423.445 L 379.313 423.445 Z  M 361.031 418.488 L 361.031 418.488 L 361.031 418.488 Q 362.93 418.488 364.582 417.996 L 364.582 417.996 L 364.582 417.996 Q 366.234 417.504 367.588 416.695 L 367.588 416.695 L 367.588 416.695 Q 368.941 415.887 369.926 414.85 L 369.926 414.85 L 369.926 414.85 Q 370.91 413.813 371.473 412.688 L 371.473 412.688 L 371.473 404.988 L 365.426 404.988 L 365.426 404.988 Q 359.73 404.988 356.566 406.676 L 356.566 406.676 L 356.566 406.676 Q 353.402 408.363 353.402 411.984 L 353.402 411.984 L 353.402 411.984 Q 353.402 413.391 353.877 414.586 L 353.877 414.586 L 353.877 414.586 Q 354.352 415.781 355.301 416.643 L 355.301 416.643 L 355.301 416.643 Q 356.25 417.504 357.691 417.996 L 357.691 417.996 L 357.691 417.996 Q 359.133 418.488 361.031 418.488 Z " fill-rule="evenodd" fill="rgb(255,255,225)"/></g></svg>