<?xml version="1.0" standalone="no"?><!-- Generator: Gravit.io --><svg xmlns="http://www.w3.org/2000/svg" xmlns:xlink="http://www.w3.org/1999/xlink" style="isolation:isolate" viewBox="0 0 512 512" width="512" height="512"><defs><clipPath id="_clipPath_Vdq1ObrnjIEx0sBFq8hTg0tWENDRQDsH"><rect width="512" height="512"/></clipPath></defs><g clip-path="url(#_clipPath_Vdq1ObrnjIEx0sBFq8hTg0tWENDRQDsH)"><rect x="0" y="0" width="512" height="512" transform="matrix(1,0,0,1,0,0)" fill="rgb(102,187,106)"/><path d=" M 175.972 311.32 L 128.218 311.32 L 128.218 98.039 L 179.048 98.039 L 179.048 98.039 Q 216.401 98.039 237.056 121.403 L 237.056 121.403 L 237.056 121.403 Q 257.71 144.768 257.71 187.102 L 257.71 187.102 L 257.71 222.844 L 257.71 222.844 Q 257.71 265.178 236.763 288.249 L 236.763 288.249 L 236.763 288.249 Q 215.815 311.32 175.972 311.32 L 175.972 311.32 L 175.972 311.32 Z  M 179.048 121.184 L 155.024 121.184 L 155.024 288.322 L 176.558 288.322 L 176.558 288.322 Q 204.829 288.322 217.866 272.136 L 217.866 272.136 L 217.866 272.136 Q 230.903 255.949 231.196 224.162 L 231.196 224.162 L 231.196 186.369 L 231.196 186.369 Q 231.196 152.678 218.232 136.931 L 218.232 136.931 L 218.232 136.931 Q 205.269 121.184 179.048 121.184 L 179.048 121.184 L 179.048 121.184 Z  M 309.565 152.824 L 340.767 271.916 L 370.796 152.824 L 397.163 152.824 L 350.142 311.32 L 330.806 311.32 L 283.198 152.824 L 309.565 152.824 L 309.565 152.824 Z " fill-rule="evenodd" fill="rgb(255,255,225)"/><path d=" M 130.266 404.848 L 130.266 404.109 L 130.266 404.109 Q 130.266 399.855 131.338 396.287 L 131.338 396.287 L 131.338 396.287 Q 132.41 392.719 134.396 390.152 L 134.396 390.152 L 134.396 390.152 Q 136.383 387.586 139.195 386.145 L 139.195 386.145 L 139.195 386.145 Q 142.008 384.703 145.488 384.703 L 145.488 384.703 L 145.488 384.703 Q 148.898 384.703 151.447 385.846 L 151.447 385.846 L 151.447 385.846 Q 153.996 386.988 155.859 389.168 L 155.859 389.168 L 155.859 369.445 L 162.363 369.445 L 162.363 423.445 L 156.387 423.445 L 156.105 419.438 L 156.105 419.438 Q 154.207 421.758 151.57 422.953 L 151.57 422.953 L 151.57 422.953 Q 148.934 424.148 145.418 424.148 L 145.418 424.148 L 145.418 424.148 Q 141.973 424.148 139.178 422.672 L 139.178 422.672 L 139.178 422.672 Q 136.383 421.195 134.414 418.594 L 134.414 418.594 L 134.414 418.594 Q 132.445 415.992 131.355 412.459 L 131.355 412.459 L 131.355 412.459 Q 130.266 408.926 130.266 404.848 L 130.266 404.848 L 130.266 404.848 Z  M 136.77 404.109 L 136.77 404.848 L 136.77 404.848 Q 136.77 407.625 137.367 410.121 L 137.367 410.121 L 137.367 410.121 Q 137.965 412.617 139.213 414.516 L 139.213 414.516 L 139.213 414.516 Q 140.461 416.414 142.395 417.521 L 142.395 417.521 L 142.395 417.521 Q 144.328 418.629 147.035 418.629 L 147.035 418.629 L 147.035 418.629 Q 148.688 418.629 150.023 418.242 L 150.023 418.242 L 150.023 418.242 Q 151.359 417.855 152.449 417.135 L 152.449 417.135 L 152.449 417.135 Q 153.539 416.414 154.383 415.412 L 154.383 415.412 L 154.383 415.412 Q 155.227 414.41 155.859 413.18 L 155.859 413.18 L 155.859 395.531 L 155.859 395.531 Q 154.594 393.211 152.449 391.717 L 152.449 391.717 L 152.449 391.717 Q 150.305 390.223 147.105 390.223 L 147.105 390.223 L 147.105 390.223 Q 144.363 390.223 142.412 391.348 L 142.412 391.348 L 142.412 391.348 Q 140.461 392.473 139.213 394.389 L 139.213 394.389 L 139.213 394.389 Q 137.965 396.305 137.367 398.818 L 137.367 398.818 L 137.367 398.818 Q 136.77 401.332 136.77 404.109 L 136.77 404.109 L 136.77 404.109 Z  M 191.508 424.148 L 191.508 424.148 L 191.508 424.148 Q 187.5 424.148 184.143 422.777 L 184.143 422.777 L 184.143 422.777 Q 180.785 421.406 178.395 418.945 L 178.395 418.945 L 178.395 418.945 Q 176.004 416.484 174.668 413.109 L 174.668 413.109 L 174.668 413.109 Q 173.332 409.734 173.332 405.762 L 173.332 405.762 L 173.332 404.285 L 173.332 404.285 Q 173.332 399.68 174.809 396.041 L 174.809 396.041 L 174.809 396.041 Q 176.285 392.402 178.729 389.889 L 178.729 389.889 L 178.729 389.889 Q 181.172 387.375 184.283 386.039 L 184.283 386.039 L 184.283 386.039 Q 187.395 384.703 190.664 384.703 L 190.664 384.703 L 190.664 384.703 Q 194.777 384.703 197.854 386.127 L 197.854 386.127 L 197.854 386.127 Q 200.93 387.551 202.969 390.064 L 202.969 390.064 L 202.969 390.064 Q 205.008 392.578 206.01 395.988 L 206.01 395.988 L 206.01 395.988 Q 207.012 399.398 207.012 403.371 L 207.012 403.371 L 207.012 406.289 L 179.836 406.289 L 179.836 406.289 Q 179.941 408.891 180.838 411.176 L 180.838 411.176 L 180.838 411.176 Q 181.734 413.461 183.299 415.166 L 183.299 415.166 L 183.299 415.166 Q 184.863 416.871 187.043 417.855 L 187.043 417.855 L 187.043 417.855 Q 189.223 418.84 191.859 418.84 L 191.859 418.84 L 191.859 418.84 Q 195.34 418.84 198.047 417.434 L 198.047 417.434 L 198.047 417.434 Q 200.754 416.027 202.547 413.707 L 202.547 413.707 L 206.52 416.801 L 206.52 416.801 Q 205.57 418.242 204.146 419.561 L 204.146 419.561 L 204.146 419.561 Q 202.723 420.879 200.859 421.898 L 200.859 421.898 L 200.859 421.898 Q 198.996 422.918 196.641 423.533 L 196.641 423.533 L 196.641 423.533 Q 194.285 424.148 191.508 424.148 Z  M 190.664 390.047 L 190.664 390.047 L 190.664 390.047 Q 188.695 390.047 186.938 390.768 L 186.938 390.768 L 186.938 390.768 Q 185.18 391.488 183.773 392.877 L 183.773 392.877 L 183.773 392.877 Q 182.367 394.266 181.4 396.287 L 181.4 396.287 L 181.4 396.287 Q 180.434 398.309 180.047 400.945 L 180.047 400.945 L 200.508 400.945 L 200.508 400.453 L 200.508 400.453 Q 200.402 398.555 199.787 396.691 L 199.787 396.691 L 199.787 396.691 Q 199.172 394.828 197.977 393.352 L 197.977 393.352 L 197.977 393.352 Q 196.781 391.875 194.971 390.961 L 194.971 390.961 L 194.971 390.961 Q 193.16 390.047 190.664 390.047 Z  M 221.918 385.406 L 232.816 414.094 L 233.414 416.449 L 234.047 414.094 L 244.699 385.406 L 251.344 385.406 L 235.84 423.445 L 230.883 423.445 L 215.238 385.406 L 221.918 385.406 L 221.918 385.406 Z  M 286.184 423.445 L 285.797 418.207 L 285.797 418.207 Q 283.898 421.02 281.051 422.584 L 281.051 422.584 L 281.051 422.584 Q 278.203 424.148 274.477 424.148 L 274.477 424.148 L 274.477 424.148 Q 271.488 424.148 269.063 423.217 L 269.063 423.217 L 269.063 423.217 Q 266.637 422.285 264.914 420.316 L 264.914 420.316 L 264.914 420.316 Q 263.191 418.348 262.26 415.307 L 262.26 415.307 L 262.26 415.307 Q 261.328 412.266 261.328 408.012 L 261.328 408.012 L 261.328 385.406 L 267.832 385.406 L 267.832 408.082 L 267.832 408.082 Q 267.832 411.176 268.324 413.215 L 268.324 413.215 L 268.324 413.215 Q 268.816 415.254 269.801 416.467 L 269.801 416.467 L 269.801 416.467 Q 270.785 417.68 272.209 418.172 L 272.209 418.172 L 272.209 418.172 Q 273.633 418.664 275.496 418.664 L 275.496 418.664 L 275.496 418.664 Q 279.469 418.664 281.912 417.047 L 281.912 417.047 L 281.912 417.047 Q 284.355 415.43 285.551 412.688 L 285.551 412.688 L 285.551 385.406 L 292.09 385.406 L 292.09 423.445 L 286.184 423.445 L 286.184 423.445 Z  M 336.105 423.445 L 329.32 423.445 L 329.32 423.445 Q 328.934 422.707 328.705 421.6 L 328.705 421.6 L 328.705 421.6 Q 328.477 420.492 328.371 419.297 L 328.371 419.297 L 328.371 419.297 Q 327.387 420.281 326.174 421.16 L 326.174 421.16 L 326.174 421.16 Q 324.961 422.039 323.502 422.707 L 323.502 422.707 L 323.502 422.707 Q 322.043 423.375 320.391 423.762 L 320.391 423.762 L 320.391 423.762 Q 318.738 424.148 316.875 424.148 L 316.875 424.148 L 316.875 424.148 Q 313.852 424.148 311.408 423.27 L 311.408 423.27 L 311.408 423.27 Q 308.965 422.391 307.26 420.896 L 307.26 420.896 L 307.26 420.896 Q 305.555 419.402 304.623 417.346 L 304.623 417.346 L 304.623 417.346 Q 303.691 415.289 303.691 412.898 L 303.691 412.898 L 303.691 412.898 Q 303.691 409.77 304.939 407.414 L 304.939 407.414 L 304.939 407.414 Q 306.188 405.059 308.473 403.494 L 308.473 403.494 L 308.473 403.494 Q 310.758 401.93 313.975 401.156 L 313.975 401.156 L 313.975 401.156 Q 317.191 400.383 321.164 400.383 L 321.164 400.383 L 328.266 400.383 L 328.266 397.395 L 328.266 397.395 Q 328.266 395.672 327.633 394.301 L 327.633 394.301 L 327.633 394.301 Q 327 392.93 325.84 391.963 L 325.84 391.963 L 325.84 391.963 Q 324.68 390.996 323.01 390.469 L 323.01 390.469 L 323.01 390.469 Q 321.34 389.941 319.266 389.941 L 319.266 389.941 L 319.266 389.941 Q 317.332 389.941 315.803 390.434 L 315.803 390.434 L 315.803 390.434 Q 314.273 390.926 313.219 391.734 L 313.219 391.734 L 313.219 391.734 Q 312.164 392.543 311.584 393.65 L 311.584 393.65 L 311.584 393.65 Q 311.004 394.758 311.004 395.953 L 311.004 395.953 L 304.465 395.953 L 304.465 395.953 Q 304.5 393.879 305.537 391.875 L 305.537 391.875 L 305.537 391.875 Q 306.574 389.871 308.525 388.271 L 308.525 388.271 L 308.525 388.271 Q 310.477 386.672 313.271 385.688 L 313.271 385.688 L 313.271 385.688 Q 316.066 384.703 319.617 384.703 L 319.617 384.703 L 319.617 384.703 Q 322.852 384.703 325.629 385.494 L 325.629 385.494 L 325.629 385.494 Q 328.406 386.285 330.428 387.885 L 330.428 387.885 L 330.428 387.885 Q 332.449 389.484 333.609 391.875 L 333.609 391.875 L 333.609 391.875 Q 334.77 394.266 334.77 397.465 L 334.77 397.465 L 334.77 415.148 L 334.77 415.148 Q 334.77 417.047 335.121 419.174 L 335.121 419.174 L 335.121 419.174 Q 335.473 421.301 336.105 422.883 L 336.105 422.883 L 336.105 423.445 L 336.105 423.445 Z  M 317.824 418.488 L 317.824 418.488 L 317.824 418.488 Q 319.723 418.488 321.375 417.996 L 321.375 417.996 L 321.375 417.996 Q 323.027 417.504 324.381 416.695 L 324.381 416.695 L 324.381 416.695 Q 325.734 415.887 326.719 414.85 L 326.719 414.85 L 326.719 414.85 Q 327.703 413.813 328.266 412.688 L 328.266 412.688 L 328.266 404.988 L 322.219 404.988 L 322.219 404.988 Q 316.523 404.988 313.359 406.676 L 313.359 406.676 L 313.359 406.676 Q 310.195 408.363 310.195 411.984 L 310.195 411.984 L 310.195 411.984 Q 310.195 413.391 310.67 414.586 L 310.67 414.586 L 310.67 414.586 Q 311.145 415.781 312.094 416.643 L 312.094 416.643 L 312.094 416.643 Q 313.043 417.504 314.484 417.996 L 314.484 417.996 L 314.484 417.996 Q 315.926 418.488 317.824 418.488 Z  M 347.531 385.406 L 353.367 385.406 L 353.824 391.031 L 353.824 391.031 Q 355.898 388.078 358.922 386.408 L 358.922 386.408 L 358.922 386.408 Q 361.945 384.738 365.672 384.703 L 365.672 384.703 L 365.672 384.703 Q 368.66 384.703 371.104 385.547 L 371.104 385.547 L 371.104 385.547 Q 373.547 386.391 375.27 388.184 L 375.27 388.184 L 375.27 388.184 Q 376.992 389.977 377.924 392.736 L 377.924 392.736 L 377.924 392.736 Q 378.855 395.496 378.855 399.293 L 378.855 399.293 L 378.855 423.445 L 372.352 423.445 L 372.352 399.434 L 372.352 399.434 Q 372.352 396.902 371.789 395.145 L 371.789 395.145 L 371.789 395.145 Q 371.227 393.387 370.119 392.297 L 370.119 392.297 L 370.119 392.297 Q 369.012 391.207 367.412 390.715 L 367.412 390.715 L 367.412 390.715 Q 365.813 390.223 363.738 390.223 L 363.738 390.223 L 363.738 390.223 Q 360.469 390.223 357.99 391.857 L 357.99 391.857 L 357.99 391.857 Q 355.512 393.492 354.035 396.164 L 354.035 396.164 L 354.035 423.445 L 347.531 423.445 L 347.531 385.406 L 347.531 385.406 Z " fill-rule="evenodd" fill="rgb(255,255,225)"/></g></svg>