<?xml version="1.0" standalone="no"?><!-- Generator: Gravit.io --><svg xmlns="http://www.w3.org/2000/svg" xmlns:xlink="http://www.w3.org/1999/xlink" style="isolation:isolate" viewBox="0 0 512 512" width="512" height="512"><defs><clipPath id="_clipPath_fuobNc5qSo4BGSCbvMyNhTQshWGkbSne"><rect width="512" height="512"/></clipPath></defs><g clip-path="url(#_clipPath_fuobNc5qSo4BGSCbvMyNhTQshWGkbSne)"><rect x="0" y="0" width="512" height="512" transform="matrix(1,0,0,1,0,0)" fill="rgb(183,28,28)"/><path d=" M 230.83 194.133 L 230.83 217.131 L 158.76 217.131 L 158.76 311.32 L 131.953 311.32 L 131.953 98.039 L 242.988 98.039 L 242.988 121.184 L 158.76 121.184 L 158.76 194.133 L 230.83 194.133 L 230.83 194.133 Z  M 387.275 224.016 L 387.275 239.689 L 387.275 239.689 Q 387.275 276.75 373.945 295.5 L 373.945 295.5 L 373.945 295.5 Q 360.615 314.25 335.273 314.25 L 335.273 314.25 L 335.273 314.25 Q 310.078 314.25 297.48 292.57 L 297.48 292.57 L 296.162 311.32 L 272.578 311.32 L 272.578 86.32 L 298.359 86.32 L 298.359 170.256 L 298.359 170.256 Q 311.104 149.895 334.98 149.895 L 334.98 149.895 L 334.98 149.895 Q 361.055 149.895 374.092 168.352 L 374.092 168.352 L 374.092 168.352 Q 387.129 186.809 387.275 224.016 L 387.275 224.016 L 387.275 224.016 Z  M 361.494 240.861 L 361.494 224.895 L 361.494 224.895 Q 361.494 196.77 353.657 184.831 L 353.657 184.831 L 353.657 184.831 Q 345.82 172.893 328.242 172.893 L 328.242 172.893 L 328.242 172.893 Q 308.174 172.893 298.359 194.572 L 298.359 194.572 L 298.359 270.012 L 298.359 270.012 Q 308.027 291.398 328.535 291.398 L 328.535 291.398 L 328.535 291.398 Q 346.113 291.398 353.73 279.094 L 353.73 279.094 L 353.73 279.094 Q 361.348 266.789 361.494 240.861 L 361.494 240.861 L 361.494 240.861 Z " fill-rule="evenodd" fill="rgb(255,255,225)"/><path d=" M 126.117 423.445 L 119.578 423.445 L 119.578 390.434 L 109.102 390.434 L 109.102 385.406 L 119.578 385.406 L 119.578 382.734 L 119.578 382.734 Q 119.578 379.078 120.65 376.318 L 120.65 376.318 L 120.65 376.318 Q 121.723 373.559 123.674 371.695 L 123.674 371.695 L 123.674 371.695 Q 125.625 369.832 128.367 368.883 L 128.367 368.883 L 128.367 368.883 Q 131.109 367.934 134.484 367.934 L 134.484 367.934 L 134.484 367.934 Q 136.805 367.934 139.002 368.32 L 139.002 368.32 L 139.002 368.32 Q 141.199 368.707 143.52 369.305 L 143.52 369.305 L 142.746 374.684 L 142.746 374.684 Q 141.305 374.191 139.389 373.822 L 139.389 373.822 L 139.389 373.822 Q 137.473 373.453 135.293 373.453 L 135.293 373.453 L 135.293 373.453 Q 130.723 373.488 128.42 375.773 L 128.42 375.773 L 128.42 375.773 Q 126.117 378.059 126.117 382.734 L 126.117 382.734 L 126.117 385.406 L 140.777 385.406 L 140.777 390.434 L 126.117 390.434 L 126.117 423.445 L 126.117 423.445 Z  M 178.043 384.703 L 178.043 384.703 L 178.043 384.703 Q 178.957 384.703 179.941 384.756 L 179.941 384.756 L 179.941 384.756 Q 180.926 384.809 181.822 384.932 L 181.822 384.932 L 181.822 384.932 Q 182.719 385.055 183.475 385.23 L 183.475 385.23 L 183.475 385.23 Q 184.23 385.406 184.723 385.617 L 184.723 385.617 L 183.844 391.98 L 183.844 391.98 Q 181.945 391.559 180.24 391.365 L 180.24 391.365 L 180.24 391.365 Q 178.535 391.172 176.672 391.172 L 176.672 391.172 L 176.672 391.172 Q 172.102 391.172 169.271 393.246 L 169.271 393.246 L 169.271 393.246 Q 166.441 395.32 165.105 399.047 L 165.105 399.047 L 165.105 423.445 L 158.566 423.445 L 158.566 385.406 L 164.754 385.406 L 165.07 391.453 L 165.07 391.453 Q 167.391 388.324 170.643 386.514 L 170.643 386.514 L 170.643 386.514 Q 173.895 384.703 178.043 384.703 Z  M 213.129 424.148 L 213.129 424.148 L 213.129 424.148 Q 209.121 424.148 205.764 422.777 L 205.764 422.777 L 205.764 422.777 Q 202.406 421.406 200.016 418.945 L 200.016 418.945 L 200.016 418.945 Q 197.625 416.484 196.289 413.109 L 196.289 413.109 L 196.289 413.109 Q 194.953 409.734 194.953 405.762 L 194.953 405.762 L 194.953 404.285 L 194.953 404.285 Q 194.953 399.68 196.43 396.041 L 196.43 396.041 L 196.43 396.041 Q 197.906 392.402 200.35 389.889 L 200.35 389.889 L 200.35 389.889 Q 202.793 387.375 205.904 386.039 L 205.904 386.039 L 205.904 386.039 Q 209.016 384.703 212.285 384.703 L 212.285 384.703 L 212.285 384.703 Q 216.398 384.703 219.475 386.127 L 219.475 386.127 L 219.475 386.127 Q 222.551 387.551 224.59 390.064 L 224.59 390.064 L 224.59 390.064 Q 226.629 392.578 227.631 395.988 L 227.631 395.988 L 227.631 395.988 Q 228.633 399.398 228.633 403.371 L 228.633 403.371 L 228.633 406.289 L 201.457 406.289 L 201.457 406.289 Q 201.563 408.891 202.459 411.176 L 202.459 411.176 L 202.459 411.176 Q 203.355 413.461 204.92 415.166 L 204.92 415.166 L 204.92 415.166 Q 206.484 416.871 208.664 417.855 L 208.664 417.855 L 208.664 417.855 Q 210.844 418.84 213.48 418.84 L 213.48 418.84 L 213.48 418.84 Q 216.961 418.84 219.668 417.434 L 219.668 417.434 L 219.668 417.434 Q 222.375 416.027 224.168 413.707 L 224.168 413.707 L 228.141 416.801 L 228.141 416.801 Q 227.191 418.242 225.768 419.561 L 225.768 419.561 L 225.768 419.561 Q 224.344 420.879 222.48 421.898 L 222.48 421.898 L 222.48 421.898 Q 220.617 422.918 218.262 423.533 L 218.262 423.533 L 218.262 423.533 Q 215.906 424.148 213.129 424.148 Z  M 212.285 390.047 L 212.285 390.047 L 212.285 390.047 Q 210.316 390.047 208.559 390.768 L 208.559 390.768 L 208.559 390.768 Q 206.801 391.488 205.395 392.877 L 205.395 392.877 L 205.395 392.877 Q 203.988 394.266 203.021 396.287 L 203.021 396.287 L 203.021 396.287 Q 202.055 398.309 201.668 400.945 L 201.668 400.945 L 222.129 400.945 L 222.129 400.453 L 222.129 400.453 Q 222.023 398.555 221.408 396.691 L 221.408 396.691 L 221.408 396.691 Q 220.793 394.828 219.598 393.352 L 219.598 393.352 L 219.598 393.352 Q 218.402 391.875 216.592 390.961 L 216.592 390.961 L 216.592 390.961 Q 214.781 390.047 212.285 390.047 Z  M 256.336 424.148 L 256.336 424.148 L 256.336 424.148 Q 252.328 424.148 248.971 422.777 L 248.971 422.777 L 248.971 422.777 Q 245.613 421.406 243.223 418.945 L 243.223 418.945 L 243.223 418.945 Q 240.832 416.484 239.496 413.109 L 239.496 413.109 L 239.496 413.109 Q 238.16 409.734 238.16 405.762 L 238.16 405.762 L 238.16 404.285 L 238.16 404.285 Q 238.16 399.68 239.637 396.041 L 239.637 396.041 L 239.637 396.041 Q 241.113 392.402 243.557 389.889 L 243.557 389.889 L 243.557 389.889 Q 246 387.375 249.111 386.039 L 249.111 386.039 L 249.111 386.039 Q 252.223 384.703 255.492 384.703 L 255.492 384.703 L 255.492 384.703 Q 259.605 384.703 262.682 386.127 L 262.682 386.127 L 262.682 386.127 Q 265.758 387.551 267.797 390.064 L 267.797 390.064 L 267.797 390.064 Q 269.836 392.578 270.838 395.988 L 270.838 395.988 L 270.838 395.988 Q 271.84 399.398 271.84 403.371 L 271.84 403.371 L 271.84 406.289 L 244.664 406.289 L 244.664 406.289 Q 244.77 408.891 245.666 411.176 L 245.666 411.176 L 245.666 411.176 Q 246.563 413.461 248.127 415.166 L 248.127 415.166 L 248.127 415.166 Q 249.691 416.871 251.871 417.855 L 251.871 417.855 L 251.871 417.855 Q 254.051 418.84 256.688 418.84 L 256.688 418.84 L 256.688 418.84 Q 260.168 418.84 262.875 417.434 L 262.875 417.434 L 262.875 417.434 Q 265.582 416.027 267.375 413.707 L 267.375 413.707 L 271.348 416.801 L 271.348 416.801 Q 270.398 418.242 268.975 419.561 L 268.975 419.561 L 268.975 419.561 Q 267.551 420.879 265.688 421.898 L 265.688 421.898 L 265.688 421.898 Q 263.824 422.918 261.469 423.533 L 261.469 423.533 L 261.469 423.533 Q 259.113 424.148 256.336 424.148 Z  M 255.492 390.047 L 255.492 390.047 L 255.492 390.047 Q 253.523 390.047 251.766 390.768 L 251.766 390.768 L 251.766 390.768 Q 250.008 391.488 248.602 392.877 L 248.602 392.877 L 248.602 392.877 Q 247.195 394.266 246.229 396.287 L 246.229 396.287 L 246.229 396.287 Q 245.262 398.309 244.875 400.945 L 244.875 400.945 L 265.336 400.945 L 265.336 400.453 L 265.336 400.453 Q 265.23 398.555 264.615 396.691 L 264.615 396.691 L 264.615 396.691 Q 264 394.828 262.805 393.352 L 262.805 393.352 L 262.805 393.352 Q 261.609 391.875 259.799 390.961 L 259.799 390.961 L 259.799 390.961 Q 257.988 390.047 255.492 390.047 Z  M 314.977 404.109 L 314.977 404.848 L 314.977 404.848 Q 314.977 408.926 313.992 412.459 L 313.992 412.459 L 313.992 412.459 Q 313.008 415.992 311.109 418.594 L 311.109 418.594 L 311.109 418.594 Q 309.211 421.195 306.416 422.672 L 306.416 422.672 L 306.416 422.672 Q 303.621 424.148 300 424.148 L 300 424.148 L 300 424.148 Q 296.344 424.148 293.654 422.848 L 293.654 422.848 L 293.654 422.848 Q 290.965 421.547 289.066 419.121 L 289.066 419.121 L 288.75 423.445 L 282.773 423.445 L 282.773 369.445 L 289.277 369.445 L 289.277 389.484 L 289.277 389.484 Q 291.141 387.164 293.777 385.934 L 293.777 385.934 L 293.777 385.934 Q 296.414 384.703 299.93 384.703 L 299.93 384.703 L 299.93 384.703 Q 303.586 384.703 306.398 386.145 L 306.398 386.145 L 306.398 386.145 Q 309.211 387.586 311.109 390.152 L 311.109 390.152 L 311.109 390.152 Q 313.008 392.719 313.992 396.287 L 313.992 396.287 L 313.992 396.287 Q 314.977 399.855 314.977 404.109 L 314.977 404.109 L 314.977 404.109 Z  M 308.473 404.848 L 308.473 404.109 L 308.473 404.109 Q 308.473 401.332 307.928 398.818 L 307.928 398.818 L 307.928 398.818 Q 307.383 396.305 306.188 394.389 L 306.188 394.389 L 306.188 394.389 Q 304.992 392.473 303.059 391.348 L 303.059 391.348 L 303.059 391.348 Q 301.125 390.223 298.313 390.223 L 298.313 390.223 L 298.313 390.223 Q 296.625 390.223 295.219 390.662 L 295.219 390.662 L 295.219 390.662 Q 293.813 391.102 292.705 391.893 L 292.705 391.893 L 292.705 391.893 Q 291.598 392.684 290.736 393.756 L 290.736 393.756 L 290.736 393.756 Q 289.875 394.828 289.277 396.094 L 289.277 396.094 L 289.277 412.723 L 289.277 412.723 Q 289.91 413.988 290.771 415.061 L 290.771 415.061 L 290.771 415.061 Q 291.633 416.133 292.758 416.941 L 292.758 416.941 L 292.758 416.941 Q 293.883 417.75 295.289 418.189 L 295.289 418.189 L 295.289 418.189 Q 296.695 418.629 298.383 418.629 L 298.383 418.629 L 298.383 418.629 Q 301.055 418.629 302.971 417.521 L 302.971 417.521 L 302.971 417.521 Q 304.887 416.414 306.1 414.516 L 306.1 414.516 L 306.1 414.516 Q 307.313 412.617 307.893 410.121 L 307.893 410.121 L 307.893 410.121 Q 308.473 407.625 308.473 404.848 L 308.473 404.848 L 308.473 404.848 Z  M 351.223 413.355 L 351.223 413.355 L 351.223 413.355 Q 351.223 412.195 350.766 411.264 L 350.766 411.264 L 350.766 411.264 Q 350.309 410.332 349.219 409.559 L 349.219 409.559 L 349.219 409.559 Q 348.129 408.785 346.336 408.135 L 346.336 408.135 L 346.336 408.135 Q 344.543 407.484 341.871 406.957 L 341.871 406.957 L 341.871 406.957 Q 338.602 406.289 335.912 405.34 L 335.912 405.34 L 335.912 405.34 Q 333.223 404.391 331.307 403.072 L 331.307 403.072 L 331.307 403.072 Q 329.391 401.754 328.336 399.979 L 328.336 399.979 L 328.336 399.979 Q 327.281 398.203 327.281 395.848 L 327.281 395.848 L 327.281 395.848 Q 327.281 393.527 328.371 391.506 L 328.371 391.506 L 328.371 391.506 Q 329.461 389.484 331.43 387.973 L 331.43 387.973 L 331.43 387.973 Q 333.398 386.461 336.123 385.582 L 336.123 385.582 L 336.123 385.582 Q 338.848 384.703 342.117 384.703 L 342.117 384.703 L 342.117 384.703 Q 345.633 384.703 348.445 385.617 L 348.445 385.617 L 348.445 385.617 Q 351.258 386.531 353.227 388.148 L 353.227 388.148 L 353.227 388.148 Q 355.195 389.766 356.268 391.928 L 356.268 391.928 L 356.268 391.928 Q 357.34 394.09 357.34 396.586 L 357.34 396.586 L 350.836 396.586 L 350.836 396.586 Q 350.836 395.355 350.203 394.178 L 350.203 394.178 L 350.203 394.178 Q 349.57 393 348.445 392.086 L 348.445 392.086 L 348.445 392.086 Q 347.32 391.172 345.721 390.609 L 345.721 390.609 L 345.721 390.609 Q 344.121 390.047 342.117 390.047 L 342.117 390.047 L 342.117 390.047 Q 340.043 390.047 338.479 390.504 L 338.479 390.504 L 338.479 390.504 Q 336.914 390.961 335.877 391.734 L 335.877 391.734 L 335.877 391.734 Q 334.84 392.508 334.313 393.527 L 334.313 393.527 L 334.313 393.527 Q 333.785 394.547 333.785 395.637 L 333.785 395.637 L 333.785 395.637 Q 333.785 396.762 334.207 397.641 L 334.207 397.641 L 334.207 397.641 Q 334.629 398.52 335.666 399.223 L 335.666 399.223 L 335.666 399.223 Q 336.703 399.926 338.443 400.488 L 338.443 400.488 L 338.443 400.488 Q 340.184 401.051 342.855 401.578 L 342.855 401.578 L 342.855 401.578 Q 346.371 402.316 349.148 403.283 L 349.148 403.283 L 349.148 403.283 Q 351.926 404.25 353.824 405.604 L 353.824 405.604 L 353.824 405.604 Q 355.723 406.957 356.725 408.75 L 356.725 408.75 L 356.725 408.75 Q 357.727 410.543 357.727 412.898 L 357.727 412.898 L 357.727 412.898 Q 357.727 415.43 356.584 417.504 L 356.584 417.504 L 356.584 417.504 Q 355.441 419.578 353.402 421.055 L 353.402 421.055 L 353.402 421.055 Q 351.363 422.531 348.516 423.34 L 348.516 423.34 L 348.516 423.34 Q 345.668 424.148 342.293 424.148 L 342.293 424.148 L 342.293 424.148 Q 338.426 424.148 335.402 423.111 L 335.402 423.111 L 335.402 423.111 Q 332.379 422.074 330.287 420.369 L 330.287 420.369 L 330.287 420.369 Q 328.195 418.664 327.088 416.414 L 327.088 416.414 L 327.088 416.414 Q 325.98 414.164 325.98 411.738 L 325.98 411.738 L 332.484 411.738 L 332.484 411.738 Q 332.625 413.742 333.557 415.113 L 333.557 415.113 L 333.557 415.113 Q 334.488 416.484 335.877 417.328 L 335.877 417.328 L 335.877 417.328 Q 337.266 418.172 338.953 418.523 L 338.953 418.523 L 338.953 418.523 Q 340.641 418.875 342.293 418.875 L 342.293 418.875 L 342.293 418.875 Q 346.406 418.875 348.797 417.363 L 348.797 417.363 L 348.797 417.363 Q 351.188 415.852 351.223 413.355 Z  M 367.922 404.848 L 367.922 404.109 L 367.922 404.109 Q 367.922 399.855 368.994 396.287 L 368.994 396.287 L 368.994 396.287 Q 370.066 392.719 372.053 390.152 L 372.053 390.152 L 372.053 390.152 Q 374.039 387.586 376.852 386.145 L 376.852 386.145 L 376.852 386.145 Q 379.664 384.703 383.145 384.703 L 383.145 384.703 L 383.145 384.703 Q 386.555 384.703 389.104 385.846 L 389.104 385.846 L 389.104 385.846 Q 391.652 386.988 393.516 389.168 L 393.516 389.168 L 393.516 369.445 L 400.02 369.445 L 400.02 423.445 L 394.043 423.445 L 393.762 419.438 L 393.762 419.438 Q 391.863 421.758 389.227 422.953 L 389.227 422.953 L 389.227 422.953 Q 386.59 424.148 383.074 424.148 L 383.074 424.148 L 383.074 424.148 Q 379.629 424.148 376.834 422.672 L 376.834 422.672 L 376.834 422.672 Q 374.039 421.195 372.07 418.594 L 372.07 418.594 L 372.07 418.594 Q 370.102 415.992 369.012 412.459 L 369.012 412.459 L 369.012 412.459 Q 367.922 408.926 367.922 404.848 L 367.922 404.848 L 367.922 404.848 Z  M 374.426 404.109 L 374.426 404.848 L 374.426 404.848 Q 374.426 407.625 375.023 410.121 L 375.023 410.121 L 375.023 410.121 Q 375.621 412.617 376.869 414.516 L 376.869 414.516 L 376.869 414.516 Q 378.117 416.414 380.051 417.521 L 380.051 417.521 L 380.051 417.521 Q 381.984 418.629 384.691 418.629 L 384.691 418.629 L 384.691 418.629 Q 386.344 418.629 387.68 418.242 L 387.68 418.242 L 387.68 418.242 Q 389.016 417.855 390.105 417.135 L 390.105 417.135 L 390.105 417.135 Q 391.195 416.414 392.039 415.412 L 392.039 415.412 L 392.039 415.412 Q 392.883 414.41 393.516 413.18 L 393.516 413.18 L 393.516 395.531 L 393.516 395.531 Q 392.25 393.211 390.105 391.717 L 390.105 391.717 L 390.105 391.717 Q 387.961 390.223 384.762 390.223 L 384.762 390.223 L 384.762 390.223 Q 382.02 390.223 380.068 391.348 L 380.068 391.348 L 380.068 391.348 Q 378.117 392.473 376.869 394.389 L 376.869 394.389 L 376.869 394.389 Q 375.621 396.305 375.023 398.818 L 375.023 398.818 L 375.023 398.818 Q 374.426 401.332 374.426 404.109 L 374.426 404.109 L 374.426 404.109 Z " fill-rule="evenodd" fill="rgb(255,255,225)"/></g></svg>