<?xml version="1.0" standalone="no"?><!-- Generator: Gravit.io --><svg xmlns="http://www.w3.org/2000/svg" xmlns:xlink="http://www.w3.org/1999/xlink" style="isolation:isolate" viewBox="0 0 512 512" width="512" height="512"><defs><clipPath id="_clipPath_1ABTkATZTc1uHfkX70rJWMwqLu81rwto"><rect width="512" height="512"/></clipPath></defs><g clip-path="url(#_clipPath_1ABTkATZTc1uHfkX70rJWMwqLu81rwto)"><rect x="0" y="0" width="512" height="512" transform="matrix(1,0,0,1,0,0)" fill="rgb(123,31,162)"/><path d=" M 252.583 205.119 L 252.583 284.807 L 247.896 290.666 L 247.896 290.666 Q 227.681 314.25 188.716 314.25 L 188.716 314.25 L 188.716 314.25 Q 154.146 314.25 134.443 291.325 L 134.443 291.325 L 134.443 291.325 Q 114.741 268.4 114.302 226.506 L 114.302 226.506 L 114.302 184.611 L 114.302 184.611 Q 114.302 139.787 132.246 117.448 L 132.246 117.448 L 132.246 117.448 Q 150.19 95.109 185.933 95.109 L 185.933 95.109 L 185.933 95.109 Q 216.401 95.109 233.613 112.102 L 233.613 112.102 L 233.613 112.102 Q 250.825 129.094 252.583 160.588 L 252.583 160.588 L 225.776 160.588 L 225.776 160.588 Q 224.165 140.666 214.717 129.46 L 214.717 129.46 L 214.717 129.46 Q 205.269 118.254 186.079 118.254 L 186.079 118.254 L 186.079 118.254 Q 163.081 118.254 152.388 133.269 L 152.388 133.269 L 152.388 133.269 Q 141.694 148.283 141.255 181.242 L 141.255 181.242 L 141.255 224.748 L 141.255 224.748 Q 141.255 256.975 153.56 274.187 L 153.56 274.187 L 153.56 274.187 Q 165.864 291.398 188.862 291.398 L 188.862 291.398 L 188.862 291.398 Q 210.542 291.398 221.821 280.852 L 221.821 280.852 L 225.776 277.189 L 225.776 227.971 L 186.812 227.971 L 186.812 205.119 L 252.583 205.119 L 252.583 205.119 Z  M 349.409 314.25 L 349.409 314.25 L 349.409 314.25 Q 319.819 314.25 303.999 296.599 L 303.999 296.599 L 303.999 296.599 Q 288.179 278.947 287.886 244.816 L 287.886 244.816 L 287.886 225.627 L 287.886 225.627 Q 287.886 190.178 303.34 170.036 L 303.34 170.036 L 303.34 170.036 Q 318.794 149.895 346.479 149.895 L 346.479 149.895 L 346.479 149.895 Q 374.312 149.895 388.081 167.619 L 388.081 167.619 L 388.081 167.619 Q 401.851 185.344 402.144 222.844 L 402.144 222.844 L 402.144 239.836 L 313.667 239.836 L 313.667 243.498 L 313.667 243.498 Q 313.667 268.986 323.262 280.559 L 323.262 280.559 L 323.262 280.559 Q 332.856 292.131 350.874 292.131 L 350.874 292.131 L 350.874 292.131 Q 362.3 292.131 371.016 287.81 L 371.016 287.81 L 371.016 287.81 Q 379.731 283.488 387.349 274.113 L 387.349 274.113 L 400.825 290.52 L 400.825 290.52 Q 383.979 314.25 349.409 314.25 Z  M 346.479 172.16 L 346.479 172.16 L 346.479 172.16 Q 330.366 172.16 322.603 183.22 L 322.603 183.22 L 322.603 183.22 Q 314.839 194.279 313.813 217.57 L 313.813 217.57 L 376.216 217.57 L 376.216 214.055 L 376.216 214.055 Q 375.19 191.496 368.086 181.828 L 368.086 181.828 L 368.086 181.828 Q 360.981 172.16 346.479 172.16 Z " fill-rule="evenodd" fill="rgb(255,255,225)"/><path d=" M 130.301 402.848 L 130.301 402.109 L 130.301 402.109 Q 130.301 397.855 131.338 394.287 L 131.338 394.287 L 131.338 394.287 Q 132.375 390.719 134.344 388.152 L 134.344 388.152 L 134.344 388.152 Q 136.313 385.586 139.125 384.145 L 139.125 384.145 L 139.125 384.145 Q 141.938 382.703 145.488 382.703 L 145.488 382.703 L 145.488 382.703 Q 149.004 382.703 151.658 383.951 L 151.658 383.951 L 151.658 383.951 Q 154.313 385.199 156.176 387.555 L 156.176 387.555 L 156.492 383.406 L 162.398 383.406 L 162.398 420.637 L 162.398 420.637 Q 162.398 424.398 161.221 427.316 L 161.221 427.316 L 161.221 427.316 Q 160.043 430.234 157.916 432.273 L 157.916 432.273 L 157.916 432.273 Q 155.789 434.313 152.836 435.367 L 152.836 435.367 L 152.836 435.367 Q 149.883 436.422 146.297 436.422 L 146.297 436.422 L 146.297 436.422 Q 144.82 436.422 142.922 436.088 L 142.922 436.088 L 142.922 436.088 Q 141.023 435.754 139.072 434.998 L 139.072 434.998 L 139.072 434.998 Q 137.121 434.242 135.311 432.977 L 135.311 432.977 L 135.311 432.977 Q 133.5 431.711 132.199 429.848 L 132.199 429.848 L 135.574 425.945 L 135.574 425.945 Q 136.77 427.387 138.035 428.389 L 138.035 428.389 L 138.035 428.389 Q 139.301 429.391 140.602 429.988 L 140.602 429.988 L 140.602 429.988 Q 141.902 430.586 143.203 430.85 L 143.203 430.85 L 143.203 430.85 Q 144.504 431.113 145.805 431.113 L 145.805 431.113 L 145.805 431.113 Q 148.125 431.113 149.988 430.445 L 149.988 430.445 L 149.988 430.445 Q 151.852 429.777 153.17 428.494 L 153.17 428.494 L 153.17 428.494 Q 154.488 427.211 155.191 425.313 L 155.191 425.313 L 155.191 425.313 Q 155.895 423.414 155.895 420.953 L 155.895 420.953 L 155.895 417.684 L 155.895 417.684 Q 153.996 419.863 151.412 421.006 L 151.412 421.006 L 151.412 421.006 Q 148.828 422.148 145.418 422.148 L 145.418 422.148 L 145.418 422.148 Q 141.938 422.148 139.125 420.672 L 139.125 420.672 L 139.125 420.672 Q 136.313 419.195 134.361 416.594 L 134.361 416.594 L 134.361 416.594 Q 132.41 413.992 131.355 410.459 L 131.355 410.459 L 131.355 410.459 Q 130.301 406.926 130.301 402.848 L 130.301 402.848 L 130.301 402.848 Z  M 136.805 402.109 L 136.805 402.848 L 136.805 402.848 Q 136.805 405.625 137.385 408.121 L 137.385 408.121 L 137.385 408.121 Q 137.965 410.617 139.213 412.516 L 139.213 412.516 L 139.213 412.516 Q 140.461 414.414 142.395 415.521 L 142.395 415.521 L 142.395 415.521 Q 144.328 416.629 147.035 416.629 L 147.035 416.629 L 147.035 416.629 Q 148.723 416.629 150.076 416.225 L 150.076 416.225 L 150.076 416.225 Q 151.43 415.82 152.502 415.082 L 152.502 415.082 L 152.502 415.082 Q 153.574 414.344 154.418 413.324 L 154.418 413.324 L 154.418 413.324 Q 155.262 412.305 155.895 411.074 L 155.895 411.074 L 155.895 393.637 L 155.895 393.637 Q 155.262 392.441 154.418 391.457 L 154.418 391.457 L 154.418 391.457 Q 153.574 390.473 152.484 389.752 L 152.484 389.752 L 152.484 389.752 Q 151.395 389.031 150.059 388.627 L 150.059 388.627 L 150.059 388.627 Q 148.723 388.223 147.105 388.223 L 147.105 388.223 L 147.105 388.223 Q 144.363 388.223 142.412 389.348 L 142.412 389.348 L 142.412 389.348 Q 140.461 390.473 139.213 392.389 L 139.213 392.389 L 139.213 392.389 Q 137.965 394.305 137.385 396.818 L 137.385 396.818 L 137.385 396.818 Q 136.805 399.332 136.805 402.109 L 136.805 402.109 L 136.805 402.109 Z  M 191.508 422.148 L 191.508 422.148 L 191.508 422.148 Q 187.5 422.148 184.143 420.777 L 184.143 420.777 L 184.143 420.777 Q 180.785 419.406 178.395 416.945 L 178.395 416.945 L 178.395 416.945 Q 176.004 414.484 174.668 411.109 L 174.668 411.109 L 174.668 411.109 Q 173.332 407.734 173.332 403.762 L 173.332 403.762 L 173.332 402.285 L 173.332 402.285 Q 173.332 397.68 174.809 394.041 L 174.809 394.041 L 174.809 394.041 Q 176.285 390.402 178.729 387.889 L 178.729 387.889 L 178.729 387.889 Q 181.172 385.375 184.283 384.039 L 184.283 384.039 L 184.283 384.039 Q 187.395 382.703 190.664 382.703 L 190.664 382.703 L 190.664 382.703 Q 194.777 382.703 197.854 384.127 L 197.854 384.127 L 197.854 384.127 Q 200.93 385.551 202.969 388.064 L 202.969 388.064 L 202.969 388.064 Q 205.008 390.578 206.01 393.988 L 206.01 393.988 L 206.01 393.988 Q 207.012 397.398 207.012 401.371 L 207.012 401.371 L 207.012 404.289 L 179.836 404.289 L 179.836 404.289 Q 179.941 406.891 180.838 409.176 L 180.838 409.176 L 180.838 409.176 Q 181.734 411.461 183.299 413.166 L 183.299 413.166 L 183.299 413.166 Q 184.863 414.871 187.043 415.855 L 187.043 415.855 L 187.043 415.855 Q 189.223 416.84 191.859 416.84 L 191.859 416.84 L 191.859 416.84 Q 195.34 416.84 198.047 415.434 L 198.047 415.434 L 198.047 415.434 Q 200.754 414.027 202.547 411.707 L 202.547 411.707 L 206.52 414.801 L 206.52 414.801 Q 205.57 416.242 204.146 417.561 L 204.146 417.561 L 204.146 417.561 Q 202.723 418.879 200.859 419.898 L 200.859 419.898 L 200.859 419.898 Q 198.996 420.918 196.641 421.533 L 196.641 421.533 L 196.641 421.533 Q 194.285 422.148 191.508 422.148 Z  M 190.664 388.047 L 190.664 388.047 L 190.664 388.047 Q 188.695 388.047 186.938 388.768 L 186.938 388.768 L 186.938 388.768 Q 185.18 389.488 183.773 390.877 L 183.773 390.877 L 183.773 390.877 Q 182.367 392.266 181.4 394.287 L 181.4 394.287 L 181.4 394.287 Q 180.434 396.309 180.047 398.945 L 180.047 398.945 L 200.508 398.945 L 200.508 398.453 L 200.508 398.453 Q 200.402 396.555 199.787 394.691 L 199.787 394.691 L 199.787 394.691 Q 199.172 392.828 197.977 391.352 L 197.977 391.352 L 197.977 391.352 Q 196.781 389.875 194.971 388.961 L 194.971 388.961 L 194.971 388.961 Q 193.16 388.047 190.664 388.047 Z  M 217.91 383.406 L 223.746 383.406 L 224.203 389.031 L 224.203 389.031 Q 226.277 386.078 229.301 384.408 L 229.301 384.408 L 229.301 384.408 Q 232.324 382.738 236.051 382.703 L 236.051 382.703 L 236.051 382.703 Q 239.039 382.703 241.482 383.547 L 241.482 383.547 L 241.482 383.547 Q 243.926 384.391 245.648 386.184 L 245.648 386.184 L 245.648 386.184 Q 247.371 387.977 248.303 390.736 L 248.303 390.736 L 248.303 390.736 Q 249.234 393.496 249.234 397.293 L 249.234 397.293 L 249.234 421.445 L 242.73 421.445 L 242.73 397.434 L 242.73 397.434 Q 242.73 394.902 242.168 393.145 L 242.168 393.145 L 242.168 393.145 Q 241.605 391.387 240.498 390.297 L 240.498 390.297 L 240.498 390.297 Q 239.391 389.207 237.791 388.715 L 237.791 388.715 L 237.791 388.715 Q 236.191 388.223 234.117 388.223 L 234.117 388.223 L 234.117 388.223 Q 230.848 388.223 228.369 389.857 L 228.369 389.857 L 228.369 389.857 Q 225.891 391.492 224.414 394.164 L 224.414 394.164 L 224.414 421.445 L 217.91 421.445 L 217.91 383.406 L 217.91 383.406 Z  M 269.977 374.195 L 276.516 374.195 L 276.516 383.406 L 291 383.406 L 291 388.434 L 276.516 388.434 L 276.516 409.105 L 276.516 409.105 Q 276.516 411.32 277.078 412.762 L 277.078 412.762 L 277.078 412.762 Q 277.641 414.203 278.625 415.064 L 278.625 415.064 L 278.625 415.064 Q 279.609 415.926 280.893 416.277 L 280.893 416.277 L 280.893 416.277 Q 282.176 416.629 283.617 416.629 L 283.617 416.629 L 283.617 416.629 Q 284.672 416.629 285.797 416.506 L 285.797 416.506 L 285.797 416.506 Q 286.922 416.383 287.994 416.207 L 287.994 416.207 L 287.994 416.207 Q 289.066 416.031 289.998 415.838 L 289.998 415.838 L 289.998 415.838 Q 290.93 415.645 291.527 415.504 L 291.527 415.504 L 292.441 420.109 L 292.441 420.109 Q 291.633 420.602 290.473 420.971 L 290.473 420.971 L 290.473 420.971 Q 289.313 421.34 287.941 421.604 L 287.941 421.604 L 287.941 421.604 Q 286.57 421.867 285.041 422.008 L 285.041 422.008 L 285.041 422.008 Q 283.512 422.148 282 422.148 L 282 422.148 L 282 422.148 Q 279.469 422.148 277.271 421.428 L 277.271 421.428 L 277.271 421.428 Q 275.074 420.707 273.457 419.143 L 273.457 419.143 L 273.457 419.143 Q 271.84 417.578 270.908 415.1 L 270.908 415.1 L 270.908 415.1 Q 269.977 412.621 269.977 409.105 L 269.977 409.105 L 269.977 388.434 L 259.992 388.434 L 259.992 383.406 L 269.977 383.406 L 269.977 374.195 L 269.977 374.195 Z  M 302.496 402.848 L 302.496 402.074 L 302.496 402.074 Q 302.496 397.961 303.691 394.428 L 303.691 394.428 L 303.691 394.428 Q 304.887 390.895 307.119 388.293 L 307.119 388.293 L 307.119 388.293 Q 309.352 385.691 312.551 384.197 L 312.551 384.197 L 312.551 384.197 Q 315.75 382.703 319.758 382.703 L 319.758 382.703 L 319.758 382.703 Q 323.801 382.703 327.018 384.197 L 327.018 384.197 L 327.018 384.197 Q 330.234 385.691 332.467 388.293 L 332.467 388.293 L 332.467 388.293 Q 334.699 390.895 335.895 394.428 L 335.895 394.428 L 335.895 394.428 Q 337.09 397.961 337.09 402.074 L 337.09 402.074 L 337.09 402.848 L 337.09 402.848 Q 337.09 406.961 335.895 410.477 L 335.895 410.477 L 335.895 410.477 Q 334.699 413.992 332.467 416.594 L 332.467 416.594 L 332.467 416.594 Q 330.234 419.195 327.035 420.672 L 327.035 420.672 L 327.035 420.672 Q 323.836 422.148 319.828 422.148 L 319.828 422.148 L 319.828 422.148 Q 315.785 422.148 312.568 420.672 L 312.568 420.672 L 312.568 420.672 Q 309.352 419.195 307.119 416.594 L 307.119 416.594 L 307.119 416.594 Q 304.887 413.992 303.691 410.477 L 303.691 410.477 L 303.691 410.477 Q 302.496 406.961 302.496 402.848 L 302.496 402.848 L 302.496 402.848 Z  M 309 402.074 L 309 402.848 L 309 402.848 Q 309 405.66 309.668 408.209 L 309.668 408.209 L 309.668 408.209 Q 310.336 410.758 311.689 412.691 L 311.689 412.691 L 311.689 412.691 Q 313.043 414.625 315.082 415.75 L 315.082 415.75 L 315.082 415.75 Q 317.121 416.875 319.828 416.875 L 319.828 416.875 L 319.828 416.875 Q 322.5 416.875 324.521 415.75 L 324.521 415.75 L 324.521 415.75 Q 326.543 414.625 327.896 412.691 L 327.896 412.691 L 327.896 412.691 Q 329.25 410.758 329.918 408.209 L 329.918 408.209 L 329.918 408.209 Q 330.586 405.66 330.586 402.848 L 330.586 402.848 L 330.586 402.074 L 330.586 402.074 Q 330.586 399.297 329.9 396.748 L 329.9 396.748 L 329.9 396.748 Q 329.215 394.199 327.861 392.266 L 327.861 392.266 L 327.861 392.266 Q 326.508 390.332 324.486 389.189 L 324.486 389.189 L 324.486 389.189 Q 322.465 388.047 319.758 388.047 L 319.758 388.047 L 319.758 388.047 Q 317.051 388.047 315.047 389.189 L 315.047 389.189 L 315.047 389.189 Q 313.043 390.332 311.689 392.266 L 311.689 392.266 L 311.689 392.266 Q 310.336 394.199 309.668 396.748 L 309.668 396.748 L 309.668 396.748 Q 309 399.297 309 402.074 L 309 402.074 L 309 402.074 Z  M 345.703 402.848 L 345.703 402.074 L 345.703 402.074 Q 345.703 397.961 346.898 394.428 L 346.898 394.428 L 346.898 394.428 Q 348.094 390.895 350.326 388.293 L 350.326 388.293 L 350.326 388.293 Q 352.559 385.691 355.758 384.197 L 355.758 384.197 L 355.758 384.197 Q 358.957 382.703 362.965 382.703 L 362.965 382.703 L 362.965 382.703 Q 367.008 382.703 370.225 384.197 L 370.225 384.197 L 370.225 384.197 Q 373.441 385.691 375.674 388.293 L 375.674 388.293 L 375.674 388.293 Q 377.906 390.895 379.102 394.428 L 379.102 394.428 L 379.102 394.428 Q 380.297 397.961 380.297 402.074 L 380.297 402.074 L 380.297 402.848 L 380.297 402.848 Q 380.297 406.961 379.102 410.477 L 379.102 410.477 L 379.102 410.477 Q 377.906 413.992 375.674 416.594 L 375.674 416.594 L 375.674 416.594 Q 373.441 419.195 370.242 420.672 L 370.242 420.672 L 370.242 420.672 Q 367.043 422.148 363.035 422.148 L 363.035 422.148 L 363.035 422.148 Q 358.992 422.148 355.775 420.672 L 355.775 420.672 L 355.775 420.672 Q 352.559 419.195 350.326 416.594 L 350.326 416.594 L 350.326 416.594 Q 348.094 413.992 346.898 410.477 L 346.898 410.477 L 346.898 410.477 Q 345.703 406.961 345.703 402.848 L 345.703 402.848 L 345.703 402.848 Z  M 352.207 402.074 L 352.207 402.848 L 352.207 402.848 Q 352.207 405.66 352.875 408.209 L 352.875 408.209 L 352.875 408.209 Q 353.543 410.758 354.896 412.691 L 354.896 412.691 L 354.896 412.691 Q 356.25 414.625 358.289 415.75 L 358.289 415.75 L 358.289 415.75 Q 360.328 416.875 363.035 416.875 L 363.035 416.875 L 363.035 416.875 Q 365.707 416.875 367.729 415.75 L 367.729 415.75 L 367.729 415.75 Q 369.75 414.625 371.104 412.691 L 371.104 412.691 L 371.104 412.691 Q 372.457 410.758 373.125 408.209 L 373.125 408.209 L 373.125 408.209 Q 373.793 405.66 373.793 402.848 L 373.793 402.848 L 373.793 402.074 L 373.793 402.074 Q 373.793 399.297 373.107 396.748 L 373.107 396.748 L 373.107 396.748 Q 372.422 394.199 371.068 392.266 L 371.068 392.266 L 371.068 392.266 Q 369.715 390.332 367.693 389.189 L 367.693 389.189 L 367.693 389.189 Q 365.672 388.047 362.965 388.047 L 362.965 388.047 L 362.965 388.047 Q 360.258 388.047 358.254 389.189 L 358.254 389.189 L 358.254 389.189 Q 356.25 390.332 354.896 392.266 L 354.896 392.266 L 354.896 392.266 Q 353.543 394.199 352.875 396.748 L 352.875 396.748 L 352.875 396.748 Q 352.207 399.297 352.207 402.074 L 352.207 402.074 L 352.207 402.074 Z " fill-rule="evenodd" fill="rgb(255,255,225)"/></g></svg>