<?xml version="1.0" standalone="no"?><!-- Generator: Gravit.io --><svg xmlns="http://www.w3.org/2000/svg" xmlns:xlink="http://www.w3.org/1999/xlink" style="isolation:isolate" viewBox="0 0 512 512" width="512" height="512"><defs><clipPath id="_clipPath_yVQpuGgXsqQOIFr3tv8OsO7wpOVUZVyg"><rect width="512" height="512"/></clipPath></defs><g clip-path="url(#_clipPath_yVQpuGgXsqQOIFr3tv8OsO7wpOVUZVyg)"><rect x="0" y="0" width="512" height="512" transform="matrix(1,0,0,1,0,0)" fill="rgb(102,187,106)"/><path d=" M 130.342 98.039 L 164.912 98.039 L 220.576 272.063 L 276.24 98.039 L 310.811 98.039 L 310.811 311.32 L 284.004 311.32 L 284.004 228.264 L 286.494 145.061 L 230.684 311.32 L 210.176 311.32 L 154.658 145.646 L 157.148 228.264 L 157.148 311.32 L 130.342 311.32 L 130.342 98.039 L 130.342 98.039 Z  M 381.27 152.824 L 381.27 311.32 L 355.342 311.32 L 355.342 152.824 L 381.27 152.824 L 381.27 152.824 Z  M 383.32 110.783 L 383.32 110.783 L 383.32 110.783 Q 383.32 117.375 379.658 121.77 L 379.658 121.77 L 379.658 121.77 Q 375.996 126.164 368.525 126.164 L 368.525 126.164 L 368.525 126.164 Q 361.201 126.164 357.539 121.77 L 357.539 121.77 L 357.539 121.77 Q 353.877 117.375 353.877 110.783 L 353.877 110.783 L 353.877 110.783 Q 353.877 104.191 357.539 99.65 L 357.539 99.65 L 357.539 99.65 Q 361.201 95.109 368.525 95.109 L 368.525 95.109 L 368.525 95.109 Q 375.85 95.109 379.585 99.724 L 379.585 99.724 L 379.585 99.724 Q 383.32 104.338 383.32 110.783 Z " fill-rule="evenodd" fill="rgb(255,255,225)"/><path d=" M 171.855 385.406 L 177.691 385.406 L 177.867 388.992 L 177.867 388.992 Q 179.027 386.988 180.908 385.863 L 180.908 385.863 L 180.908 385.863 Q 182.789 384.738 185.461 384.703 L 185.461 384.703 L 185.461 384.703 Q 190.699 384.703 192.457 388.781 L 192.457 388.781 L 192.457 388.781 Q 193.582 386.953 195.428 385.846 L 195.428 385.846 L 195.428 385.846 Q 197.273 384.738 199.91 384.703 L 199.91 384.703 L 199.91 384.703 Q 204.094 384.703 206.344 387.27 L 206.344 387.27 L 206.344 387.27 Q 208.594 389.836 208.594 395.039 L 208.594 395.039 L 208.594 423.445 L 202.406 423.445 L 202.406 394.969 L 202.406 394.969 Q 202.406 390.188 198.012 390.223 L 198.012 390.223 L 198.012 390.223 Q 196.852 390.223 196.008 390.539 L 196.008 390.539 L 196.008 390.539 Q 195.164 390.855 194.602 391.4 L 194.602 391.4 L 194.602 391.4 Q 194.039 391.945 193.723 392.666 L 193.723 392.666 L 193.723 392.666 Q 193.406 393.387 193.301 394.16 L 193.301 394.16 L 193.301 423.445 L 187.113 423.445 L 187.113 394.934 L 187.113 394.934 Q 187.113 392.648 186.094 391.418 L 186.094 391.418 L 186.094 391.418 Q 185.074 390.188 182.859 390.223 L 182.859 390.223 L 182.859 390.223 Q 180.82 390.223 179.695 391.031 L 179.695 391.031 L 179.695 391.031 Q 178.57 391.84 178.043 393.176 L 178.043 393.176 L 178.043 423.445 L 171.855 423.445 L 171.855 385.406 L 171.855 385.406 Z  M 218.93 391.066 L 218.93 385.406 L 238.371 385.406 L 238.371 417.82 L 250.781 417.82 L 250.781 423.445 L 218.93 423.445 L 218.93 417.82 L 231.867 417.82 L 231.867 391.066 L 218.93 391.066 L 218.93 391.066 Z  M 231.023 375.422 L 231.023 375.422 L 231.023 375.422 Q 231.023 373.805 231.99 372.697 L 231.99 372.697 L 231.99 372.697 Q 232.957 371.59 234.926 371.59 L 234.926 371.59 L 234.926 371.59 Q 236.859 371.59 237.844 372.697 L 237.844 372.697 L 237.844 372.697 Q 238.828 373.805 238.828 375.422 L 238.828 375.422 L 238.828 375.422 Q 238.828 377.004 237.844 378.059 L 237.844 378.059 L 237.844 378.059 Q 236.859 379.113 234.926 379.113 L 234.926 379.113 L 234.926 379.113 Q 232.957 379.113 231.99 378.059 L 231.99 378.059 L 231.99 378.059 Q 231.023 377.004 231.023 375.422 Z  M 261.117 385.406 L 266.953 385.406 L 267.41 391.031 L 267.41 391.031 Q 269.484 388.078 272.508 386.408 L 272.508 386.408 L 272.508 386.408 Q 275.531 384.738 279.258 384.703 L 279.258 384.703 L 279.258 384.703 Q 282.246 384.703 284.689 385.547 L 284.689 385.547 L 284.689 385.547 Q 287.133 386.391 288.855 388.184 L 288.855 388.184 L 288.855 388.184 Q 290.578 389.977 291.51 392.736 L 291.51 392.736 L 291.51 392.736 Q 292.441 395.496 292.441 399.293 L 292.441 399.293 L 292.441 423.445 L 285.938 423.445 L 285.938 399.434 L 285.938 399.434 Q 285.938 396.902 285.375 395.145 L 285.375 395.145 L 285.375 395.145 Q 284.813 393.387 283.705 392.297 L 283.705 392.297 L 283.705 392.297 Q 282.598 391.207 280.998 390.715 L 280.998 390.715 L 280.998 390.715 Q 279.398 390.223 277.324 390.223 L 277.324 390.223 L 277.324 390.223 Q 274.055 390.223 271.576 391.857 L 271.576 391.857 L 271.576 391.857 Q 269.098 393.492 267.621 396.164 L 267.621 396.164 L 267.621 423.445 L 261.117 423.445 L 261.117 385.406 L 261.117 385.406 Z  M 313.184 376.195 L 319.723 376.195 L 319.723 385.406 L 334.207 385.406 L 334.207 390.434 L 319.723 390.434 L 319.723 411.105 L 319.723 411.105 Q 319.723 413.32 320.285 414.762 L 320.285 414.762 L 320.285 414.762 Q 320.848 416.203 321.832 417.064 L 321.832 417.064 L 321.832 417.064 Q 322.816 417.926 324.1 418.277 L 324.1 418.277 L 324.1 418.277 Q 325.383 418.629 326.824 418.629 L 326.824 418.629 L 326.824 418.629 Q 327.879 418.629 329.004 418.506 L 329.004 418.506 L 329.004 418.506 Q 330.129 418.383 331.201 418.207 L 331.201 418.207 L 331.201 418.207 Q 332.273 418.031 333.205 417.838 L 333.205 417.838 L 333.205 417.838 Q 334.137 417.645 334.734 417.504 L 334.734 417.504 L 335.648 422.109 L 335.648 422.109 Q 334.84 422.602 333.68 422.971 L 333.68 422.971 L 333.68 422.971 Q 332.52 423.34 331.148 423.604 L 331.148 423.604 L 331.148 423.604 Q 329.777 423.867 328.248 424.008 L 328.248 424.008 L 328.248 424.008 Q 326.719 424.148 325.207 424.148 L 325.207 424.148 L 325.207 424.148 Q 322.676 424.148 320.479 423.428 L 320.479 423.428 L 320.479 423.428 Q 318.281 422.707 316.664 421.143 L 316.664 421.143 L 316.664 421.143 Q 315.047 419.578 314.115 417.1 L 314.115 417.1 L 314.115 417.1 Q 313.184 414.621 313.184 411.105 L 313.184 411.105 L 313.184 390.434 L 303.199 390.434 L 303.199 385.406 L 313.184 385.406 L 313.184 376.195 L 313.184 376.195 Z " fill-rule="evenodd" fill="rgb(255,255,225)"/></g></svg>