<?xml version="1.0" standalone="no"?><!-- Generator: Gravit.io --><svg xmlns="http://www.w3.org/2000/svg" xmlns:xlink="http://www.w3.org/1999/xlink" style="isolation:isolate" viewBox="0 0 512 512" width="512" height="512"><defs><clipPath id="_clipPath_9LGwfYIqeVh2vwDsrD3S1DYAjhz6E9GC"><rect width="512" height="512"/></clipPath></defs><g clip-path="url(#_clipPath_9LGwfYIqeVh2vwDsrD3S1DYAjhz6E9GC)"><rect x="0" y="0" width="512" height="512" transform="matrix(1,0,0,1,0,0)" fill="rgb(255,87,34)"/><path d=" M 219.99 98.039 L 246.943 98.039 L 246.943 249.65 L 246.943 249.65 Q 246.65 279.973 229.365 297.111 L 229.365 297.111 L 229.365 297.111 Q 212.08 314.25 181.172 314.25 L 181.172 314.25 L 181.172 314.25 Q 149.531 314.25 132.832 297.478 L 132.832 297.478 L 132.832 297.478 Q 116.133 280.705 115.84 249.65 L 115.84 249.65 L 115.84 98.039 L 142.5 98.039 L 142.5 248.625 L 142.5 248.625 Q 142.5 270.158 151.655 280.778 L 151.655 280.778 L 151.655 280.778 Q 160.811 291.398 181.172 291.398 L 181.172 291.398 L 181.172 291.398 Q 201.68 291.398 210.835 280.778 L 210.835 280.778 L 210.835 280.778 Q 219.99 270.158 219.99 248.625 L 219.99 248.625 L 219.99 98.039 L 219.99 98.039 Z  M 399.434 224.016 L 399.434 239.689 L 399.434 239.689 Q 399.434 276.75 386.104 295.5 L 386.104 295.5 L 386.104 295.5 Q 372.773 314.25 347.432 314.25 L 347.432 314.25 L 347.432 314.25 Q 322.236 314.25 309.639 292.57 L 309.639 292.57 L 308.32 311.32 L 284.736 311.32 L 284.736 86.32 L 310.518 86.32 L 310.518 170.256 L 310.518 170.256 Q 323.262 149.895 347.139 149.895 L 347.139 149.895 L 347.139 149.895 Q 373.213 149.895 386.25 168.352 L 386.25 168.352 L 386.25 168.352 Q 399.287 186.809 399.434 224.016 L 399.434 224.016 L 399.434 224.016 Z  M 373.652 240.861 L 373.652 224.895 L 373.652 224.895 Q 373.652 196.77 365.815 184.831 L 365.815 184.831 L 365.815 184.831 Q 357.979 172.893 340.4 172.893 L 340.4 172.893 L 340.4 172.893 Q 320.332 172.893 310.518 194.572 L 310.518 194.572 L 310.518 270.012 L 310.518 270.012 Q 320.186 291.398 340.693 291.398 L 340.693 291.398 L 340.693 291.398 Q 358.271 291.398 365.889 279.094 L 365.889 279.094 L 365.889 279.094 Q 373.506 266.789 373.652 240.861 L 373.652 240.861 L 373.652 240.861 Z " fill-rule="evenodd" fill="rgb(255,255,225)"/><path d=" M 156.563 423.445 L 156.176 418.207 L 156.176 418.207 Q 154.277 421.02 151.43 422.584 L 151.43 422.584 L 151.43 422.584 Q 148.582 424.148 144.855 424.148 L 144.855 424.148 L 144.855 424.148 Q 141.867 424.148 139.441 423.217 L 139.441 423.217 L 139.441 423.217 Q 137.016 422.285 135.293 420.316 L 135.293 420.316 L 135.293 420.316 Q 133.57 418.348 132.639 415.307 L 132.639 415.307 L 132.639 415.307 Q 131.707 412.266 131.707 408.012 L 131.707 408.012 L 131.707 385.406 L 138.211 385.406 L 138.211 408.082 L 138.211 408.082 Q 138.211 411.176 138.703 413.215 L 138.703 413.215 L 138.703 413.215 Q 139.195 415.254 140.18 416.467 L 140.18 416.467 L 140.18 416.467 Q 141.164 417.68 142.588 418.172 L 142.588 418.172 L 142.588 418.172 Q 144.012 418.664 145.875 418.664 L 145.875 418.664 L 145.875 418.664 Q 149.848 418.664 152.291 417.047 L 152.291 417.047 L 152.291 417.047 Q 154.734 415.43 155.93 412.688 L 155.93 412.688 L 155.93 385.406 L 162.469 385.406 L 162.469 423.445 L 156.563 423.445 L 156.563 423.445 Z  M 206.941 404.109 L 206.941 404.848 L 206.941 404.848 Q 206.941 408.926 205.957 412.459 L 205.957 412.459 L 205.957 412.459 Q 204.973 415.992 203.074 418.594 L 203.074 418.594 L 203.074 418.594 Q 201.176 421.195 198.381 422.672 L 198.381 422.672 L 198.381 422.672 Q 195.586 424.148 191.965 424.148 L 191.965 424.148 L 191.965 424.148 Q 188.309 424.148 185.619 422.848 L 185.619 422.848 L 185.619 422.848 Q 182.93 421.547 181.031 419.121 L 181.031 419.121 L 180.715 423.445 L 174.738 423.445 L 174.738 369.445 L 181.242 369.445 L 181.242 389.484 L 181.242 389.484 Q 183.105 387.164 185.742 385.934 L 185.742 385.934 L 185.742 385.934 Q 188.379 384.703 191.895 384.703 L 191.895 384.703 L 191.895 384.703 Q 195.551 384.703 198.363 386.145 L 198.363 386.145 L 198.363 386.145 Q 201.176 387.586 203.074 390.152 L 203.074 390.152 L 203.074 390.152 Q 204.973 392.719 205.957 396.287 L 205.957 396.287 L 205.957 396.287 Q 206.941 399.855 206.941 404.109 L 206.941 404.109 L 206.941 404.109 Z  M 200.438 404.848 L 200.438 404.109 L 200.438 404.109 Q 200.438 401.332 199.893 398.818 L 199.893 398.818 L 199.893 398.818 Q 199.348 396.305 198.152 394.389 L 198.152 394.389 L 198.152 394.389 Q 196.957 392.473 195.023 391.348 L 195.023 391.348 L 195.023 391.348 Q 193.09 390.223 190.277 390.223 L 190.277 390.223 L 190.277 390.223 Q 188.59 390.223 187.184 390.662 L 187.184 390.662 L 187.184 390.662 Q 185.777 391.102 184.67 391.893 L 184.67 391.893 L 184.67 391.893 Q 183.563 392.684 182.701 393.756 L 182.701 393.756 L 182.701 393.756 Q 181.84 394.828 181.242 396.094 L 181.242 396.094 L 181.242 412.723 L 181.242 412.723 Q 181.875 413.988 182.736 415.061 L 182.736 415.061 L 182.736 415.061 Q 183.598 416.133 184.723 416.941 L 184.723 416.941 L 184.723 416.941 Q 185.848 417.75 187.254 418.189 L 187.254 418.189 L 187.254 418.189 Q 188.66 418.629 190.348 418.629 L 190.348 418.629 L 190.348 418.629 Q 193.02 418.629 194.936 417.521 L 194.936 417.521 L 194.936 417.521 Q 196.852 416.414 198.064 414.516 L 198.064 414.516 L 198.064 414.516 Q 199.277 412.617 199.857 410.121 L 199.857 410.121 L 199.857 410.121 Q 200.438 407.625 200.438 404.848 L 200.438 404.848 L 200.438 404.848 Z  M 242.977 423.445 L 242.59 418.207 L 242.59 418.207 Q 240.691 421.02 237.844 422.584 L 237.844 422.584 L 237.844 422.584 Q 234.996 424.148 231.27 424.148 L 231.27 424.148 L 231.27 424.148 Q 228.281 424.148 225.855 423.217 L 225.855 423.217 L 225.855 423.217 Q 223.43 422.285 221.707 420.316 L 221.707 420.316 L 221.707 420.316 Q 219.984 418.348 219.053 415.307 L 219.053 415.307 L 219.053 415.307 Q 218.121 412.266 218.121 408.012 L 218.121 408.012 L 218.121 385.406 L 224.625 385.406 L 224.625 408.082 L 224.625 408.082 Q 224.625 411.176 225.117 413.215 L 225.117 413.215 L 225.117 413.215 Q 225.609 415.254 226.594 416.467 L 226.594 416.467 L 226.594 416.467 Q 227.578 417.68 229.002 418.172 L 229.002 418.172 L 229.002 418.172 Q 230.426 418.664 232.289 418.664 L 232.289 418.664 L 232.289 418.664 Q 236.262 418.664 238.705 417.047 L 238.705 417.047 L 238.705 417.047 Q 241.148 415.43 242.344 412.688 L 242.344 412.688 L 242.344 385.406 L 248.883 385.406 L 248.883 423.445 L 242.977 423.445 L 242.977 423.445 Z  M 261.117 385.406 L 266.953 385.406 L 267.41 391.031 L 267.41 391.031 Q 269.484 388.078 272.508 386.408 L 272.508 386.408 L 272.508 386.408 Q 275.531 384.738 279.258 384.703 L 279.258 384.703 L 279.258 384.703 Q 282.246 384.703 284.689 385.547 L 284.689 385.547 L 284.689 385.547 Q 287.133 386.391 288.855 388.184 L 288.855 388.184 L 288.855 388.184 Q 290.578 389.977 291.51 392.736 L 291.51 392.736 L 291.51 392.736 Q 292.441 395.496 292.441 399.293 L 292.441 399.293 L 292.441 423.445 L 285.938 423.445 L 285.938 399.434 L 285.938 399.434 Q 285.938 396.902 285.375 395.145 L 285.375 395.145 L 285.375 395.145 Q 284.813 393.387 283.705 392.297 L 283.705 392.297 L 283.705 392.297 Q 282.598 391.207 280.998 390.715 L 280.998 390.715 L 280.998 390.715 Q 279.398 390.223 277.324 390.223 L 277.324 390.223 L 277.324 390.223 Q 274.055 390.223 271.576 391.857 L 271.576 391.857 L 271.576 391.857 Q 269.098 393.492 267.621 396.164 L 267.621 396.164 L 267.621 423.445 L 261.117 423.445 L 261.117 385.406 L 261.117 385.406 Z  M 313.184 376.195 L 319.723 376.195 L 319.723 385.406 L 334.207 385.406 L 334.207 390.434 L 319.723 390.434 L 319.723 411.105 L 319.723 411.105 Q 319.723 413.32 320.285 414.762 L 320.285 414.762 L 320.285 414.762 Q 320.848 416.203 321.832 417.064 L 321.832 417.064 L 321.832 417.064 Q 322.816 417.926 324.1 418.277 L 324.1 418.277 L 324.1 418.277 Q 325.383 418.629 326.824 418.629 L 326.824 418.629 L 326.824 418.629 Q 327.879 418.629 329.004 418.506 L 329.004 418.506 L 329.004 418.506 Q 330.129 418.383 331.201 418.207 L 331.201 418.207 L 331.201 418.207 Q 332.273 418.031 333.205 417.838 L 333.205 417.838 L 333.205 417.838 Q 334.137 417.645 334.734 417.504 L 334.734 417.504 L 335.648 422.109 L 335.648 422.109 Q 334.84 422.602 333.68 422.971 L 333.68 422.971 L 333.68 422.971 Q 332.52 423.34 331.148 423.604 L 331.148 423.604 L 331.148 423.604 Q 329.777 423.867 328.248 424.008 L 328.248 424.008 L 328.248 424.008 Q 326.719 424.148 325.207 424.148 L 325.207 424.148 L 325.207 424.148 Q 322.676 424.148 320.479 423.428 L 320.479 423.428 L 320.479 423.428 Q 318.281 422.707 316.664 421.143 L 316.664 421.143 L 316.664 421.143 Q 315.047 419.578 314.115 417.1 L 314.115 417.1 L 314.115 417.1 Q 313.184 414.621 313.184 411.105 L 313.184 411.105 L 313.184 390.434 L 303.199 390.434 L 303.199 385.406 L 313.184 385.406 L 313.184 376.195 L 313.184 376.195 Z  M 372.598 423.445 L 372.211 418.207 L 372.211 418.207 Q 370.313 421.02 367.465 422.584 L 367.465 422.584 L 367.465 422.584 Q 364.617 424.148 360.891 424.148 L 360.891 424.148 L 360.891 424.148 Q 357.902 424.148 355.477 423.217 L 355.477 423.217 L 355.477 423.217 Q 353.051 422.285 351.328 420.316 L 351.328 420.316 L 351.328 420.316 Q 349.605 418.348 348.674 415.307 L 348.674 415.307 L 348.674 415.307 Q 347.742 412.266 347.742 408.012 L 347.742 408.012 L 347.742 385.406 L 354.246 385.406 L 354.246 408.082 L 354.246 408.082 Q 354.246 411.176 354.738 413.215 L 354.738 413.215 L 354.738 413.215 Q 355.23 415.254 356.215 416.467 L 356.215 416.467 L 356.215 416.467 Q 357.199 417.68 358.623 418.172 L 358.623 418.172 L 358.623 418.172 Q 360.047 418.664 361.91 418.664 L 361.91 418.664 L 361.91 418.664 Q 365.883 418.664 368.326 417.047 L 368.326 417.047 L 368.326 417.047 Q 370.77 415.43 371.965 412.688 L 371.965 412.688 L 371.965 385.406 L 378.504 385.406 L 378.504 423.445 L 372.598 423.445 L 372.598 423.445 Z " fill-rule="evenodd" fill="rgb(255,255,225)"/></g></svg>