<?xml version="1.0" standalone="no"?><!-- Generator: Gravit.io --><svg xmlns="http://www.w3.org/2000/svg" xmlns:xlink="http://www.w3.org/1999/xlink" style="isolation:isolate" viewBox="0 0 512 512" width="512" height="512"><defs><clipPath id="_clipPath_0RcS74byOwqgecwyGW4iQ4cOX8tBEVj7"><rect width="512" height="512"/></clipPath></defs><g clip-path="url(#_clipPath_0RcS74byOwqgecwyGW4iQ4cOX8tBEVj7)"><rect x="0" y="0" width="512" height="512" transform="matrix(1,0,0,1,0,0)" fill="rgb(3,155,229)"/><path d=" M 143.599 98.039 L 170.112 244.084 L 172.896 267.961 L 177.144 246.867 L 211.274 98.039 L 233.687 98.039 L 266.792 246.867 L 271.04 268.547 L 274.116 243.938 L 300.19 98.039 L 326.997 98.039 L 284.517 311.32 L 260.347 311.32 L 224.751 155.9 L 222.554 143.303 L 220.356 155.9 L 183.442 311.32 L 159.126 311.32 L 116.792 98.039 L 143.599 98.039 L 143.599 98.039 Z  M 382.222 152.824 L 382.222 311.32 L 356.294 311.32 L 356.294 152.824 L 382.222 152.824 L 382.222 152.824 Z  M 384.272 110.783 L 384.272 110.783 L 384.272 110.783 Q 384.272 117.375 380.61 121.77 L 380.61 121.77 L 380.61 121.77 Q 376.948 126.164 369.478 126.164 L 369.478 126.164 L 369.478 126.164 Q 362.153 126.164 358.491 121.77 L 358.491 121.77 L 358.491 121.77 Q 354.829 117.375 354.829 110.783 L 354.829 110.783 L 354.829 110.783 Q 354.829 104.191 358.491 99.65 L 358.491 99.65 L 358.491 99.65 Q 362.153 95.109 369.478 95.109 L 369.478 95.109 L 369.478 95.109 Q 376.802 95.109 380.537 99.724 L 380.537 99.724 L 380.537 99.724 Q 384.272 104.338 384.272 110.783 Z " fill-rule="evenodd" fill="rgb(255,255,225)"/><path d=" M 314.959 404.109 L 314.959 404.848 L 314.959 404.848 Q 314.959 408.926 313.975 412.459 L 313.975 412.459 L 313.975 412.459 Q 312.99 415.992 311.092 418.594 L 311.092 418.594 L 311.092 418.594 Q 309.193 421.195 306.398 422.672 L 306.398 422.672 L 306.398 422.672 Q 303.604 424.148 299.982 424.148 L 299.982 424.148 L 299.982 424.148 Q 296.326 424.148 293.637 422.848 L 293.637 422.848 L 293.637 422.848 Q 290.947 421.547 289.049 419.121 L 289.049 419.121 L 288.732 423.445 L 282.756 423.445 L 282.756 369.445 L 289.26 369.445 L 289.26 389.484 L 289.26 389.484 Q 291.123 387.164 293.76 385.934 L 293.76 385.934 L 293.76 385.934 Q 296.396 384.703 299.912 384.703 L 299.912 384.703 L 299.912 384.703 Q 303.568 384.703 306.381 386.145 L 306.381 386.145 L 306.381 386.145 Q 309.193 387.586 311.092 390.152 L 311.092 390.152 L 311.092 390.152 Q 312.99 392.719 313.975 396.287 L 313.975 396.287 L 313.975 396.287 Q 314.959 399.855 314.959 404.109 L 314.959 404.109 L 314.959 404.109 Z  M 308.455 404.848 L 308.455 404.109 L 308.455 404.109 Q 308.455 401.332 307.91 398.818 L 307.91 398.818 L 307.91 398.818 Q 307.365 396.305 306.17 394.389 L 306.17 394.389 L 306.17 394.389 Q 304.975 392.473 303.041 391.348 L 303.041 391.348 L 303.041 391.348 Q 301.107 390.223 298.295 390.223 L 298.295 390.223 L 298.295 390.223 Q 296.607 390.223 295.201 390.662 L 295.201 390.662 L 295.201 390.662 Q 293.795 391.102 292.688 391.893 L 292.688 391.893 L 292.688 391.893 Q 291.58 392.684 290.719 393.756 L 290.719 393.756 L 290.719 393.756 Q 289.857 394.828 289.26 396.094 L 289.26 396.094 L 289.26 412.723 L 289.26 412.723 Q 289.893 413.988 290.754 415.061 L 290.754 415.061 L 290.754 415.061 Q 291.615 416.133 292.74 416.941 L 292.74 416.941 L 292.74 416.941 Q 293.865 417.75 295.271 418.189 L 295.271 418.189 L 295.271 418.189 Q 296.678 418.629 298.365 418.629 L 298.365 418.629 L 298.365 418.629 Q 301.037 418.629 302.953 417.521 L 302.953 417.521 L 302.953 417.521 Q 304.869 416.414 306.082 414.516 L 306.082 414.516 L 306.082 414.516 Q 307.295 412.617 307.875 410.121 L 307.875 410.121 L 307.875 410.121 Q 308.455 407.625 308.455 404.848 L 308.455 404.848 L 308.455 404.848 Z  M 324.1 404.848 L 324.1 404.074 L 324.1 404.074 Q 324.1 399.961 325.295 396.428 L 325.295 396.428 L 325.295 396.428 Q 326.49 392.895 328.723 390.293 L 328.723 390.293 L 328.723 390.293 Q 330.955 387.691 334.154 386.197 L 334.154 386.197 L 334.154 386.197 Q 337.354 384.703 341.361 384.703 L 341.361 384.703 L 341.361 384.703 Q 345.404 384.703 348.621 386.197 L 348.621 386.197 L 348.621 386.197 Q 351.838 387.691 354.07 390.293 L 354.07 390.293 L 354.07 390.293 Q 356.303 392.895 357.498 396.428 L 357.498 396.428 L 357.498 396.428 Q 358.693 399.961 358.693 404.074 L 358.693 404.074 L 358.693 404.848 L 358.693 404.848 Q 358.693 408.961 357.498 412.477 L 357.498 412.477 L 357.498 412.477 Q 356.303 415.992 354.07 418.594 L 354.07 418.594 L 354.07 418.594 Q 351.838 421.195 348.639 422.672 L 348.639 422.672 L 348.639 422.672 Q 345.439 424.148 341.432 424.148 L 341.432 424.148 L 341.432 424.148 Q 337.389 424.148 334.172 422.672 L 334.172 422.672 L 334.172 422.672 Q 330.955 421.195 328.723 418.594 L 328.723 418.594 L 328.723 418.594 Q 326.49 415.992 325.295 412.477 L 325.295 412.477 L 325.295 412.477 Q 324.1 408.961 324.1 404.848 L 324.1 404.848 L 324.1 404.848 Z  M 330.604 404.074 L 330.604 404.848 L 330.604 404.848 Q 330.604 407.66 331.271 410.209 L 331.271 410.209 L 331.271 410.209 Q 331.939 412.758 333.293 414.691 L 333.293 414.691 L 333.293 414.691 Q 334.646 416.625 336.686 417.75 L 336.686 417.75 L 336.686 417.75 Q 338.725 418.875 341.432 418.875 L 341.432 418.875 L 341.432 418.875 Q 344.104 418.875 346.125 417.75 L 346.125 417.75 L 346.125 417.75 Q 348.146 416.625 349.5 414.691 L 349.5 414.691 L 349.5 414.691 Q 350.854 412.758 351.521 410.209 L 351.521 410.209 L 351.521 410.209 Q 352.189 407.66 352.189 404.848 L 352.189 404.848 L 352.189 404.074 L 352.189 404.074 Q 352.189 401.297 351.504 398.748 L 351.504 398.748 L 351.504 398.748 Q 350.818 396.199 349.465 394.266 L 349.465 394.266 L 349.465 394.266 Q 348.111 392.332 346.09 391.189 L 346.09 391.189 L 346.09 391.189 Q 344.068 390.047 341.361 390.047 L 341.361 390.047 L 341.361 390.047 Q 338.654 390.047 336.65 391.189 L 336.65 391.189 L 336.65 391.189 Q 334.646 392.332 333.293 394.266 L 333.293 394.266 L 333.293 394.266 Q 331.939 396.199 331.271 398.748 L 331.271 398.748 L 331.271 398.748 Q 330.604 401.297 330.604 404.074 L 330.604 404.074 L 330.604 404.074 Z  M 367.307 404.848 L 367.307 404.074 L 367.307 404.074 Q 367.307 399.961 368.502 396.428 L 368.502 396.428 L 368.502 396.428 Q 369.697 392.895 371.93 390.293 L 371.93 390.293 L 371.93 390.293 Q 374.162 387.691 377.361 386.197 L 377.361 386.197 L 377.361 386.197 Q 380.561 384.703 384.568 384.703 L 384.568 384.703 L 384.568 384.703 Q 388.611 384.703 391.828 386.197 L 391.828 386.197 L 391.828 386.197 Q 395.045 387.691 397.277 390.293 L 397.277 390.293 L 397.277 390.293 Q 399.51 392.895 400.705 396.428 L 400.705 396.428 L 400.705 396.428 Q 401.9 399.961 401.9 404.074 L 401.9 404.074 L 401.9 404.848 L 401.9 404.848 Q 401.9 408.961 400.705 412.477 L 400.705 412.477 L 400.705 412.477 Q 399.51 415.992 397.277 418.594 L 397.277 418.594 L 397.277 418.594 Q 395.045 421.195 391.846 422.672 L 391.846 422.672 L 391.846 422.672 Q 388.646 424.148 384.639 424.148 L 384.639 424.148 L 384.639 424.148 Q 380.596 424.148 377.379 422.672 L 377.379 422.672 L 377.379 422.672 Q 374.162 421.195 371.93 418.594 L 371.93 418.594 L 371.93 418.594 Q 369.697 415.992 368.502 412.477 L 368.502 412.477 L 368.502 412.477 Q 367.307 408.961 367.307 404.848 L 367.307 404.848 L 367.307 404.848 Z  M 373.811 404.074 L 373.811 404.848 L 373.811 404.848 Q 373.811 407.66 374.479 410.209 L 374.479 410.209 L 374.479 410.209 Q 375.146 412.758 376.5 414.691 L 376.5 414.691 L 376.5 414.691 Q 377.854 416.625 379.893 417.75 L 379.893 417.75 L 379.893 417.75 Q 381.932 418.875 384.639 418.875 L 384.639 418.875 L 384.639 418.875 Q 387.311 418.875 389.332 417.75 L 389.332 417.75 L 389.332 417.75 Q 391.354 416.625 392.707 414.691 L 392.707 414.691 L 392.707 414.691 Q 394.061 412.758 394.729 410.209 L 394.729 410.209 L 394.729 410.209 Q 395.396 407.66 395.396 404.848 L 395.396 404.848 L 395.396 404.074 L 395.396 404.074 Q 395.396 401.297 394.711 398.748 L 394.711 398.748 L 394.711 398.748 Q 394.025 396.199 392.672 394.266 L 392.672 394.266 L 392.672 394.266 Q 391.318 392.332 389.297 391.189 L 389.297 391.189 L 389.297 391.189 Q 387.275 390.047 384.568 390.047 L 384.568 390.047 L 384.568 390.047 Q 381.861 390.047 379.857 391.189 L 379.857 391.189 L 379.857 391.189 Q 377.854 392.332 376.5 394.266 L 376.5 394.266 L 376.5 394.266 Q 375.146 396.199 374.479 398.748 L 374.479 398.748 L 374.479 398.748 Q 373.811 401.297 373.811 404.074 L 373.811 404.074 L 373.811 404.074 Z  M 421.201 376.195 L 427.74 376.195 L 427.74 385.406 L 442.225 385.406 L 442.225 390.434 L 427.74 390.434 L 427.74 411.105 L 427.74 411.105 Q 427.74 413.32 428.303 414.762 L 428.303 414.762 L 428.303 414.762 Q 428.865 416.203 429.85 417.064 L 429.85 417.064 L 429.85 417.064 Q 430.834 417.926 432.117 418.277 L 432.117 418.277 L 432.117 418.277 Q 433.4 418.629 434.842 418.629 L 434.842 418.629 L 434.842 418.629 Q 435.896 418.629 437.021 418.506 L 437.021 418.506 L 437.021 418.506 Q 438.146 418.383 439.219 418.207 L 439.219 418.207 L 439.219 418.207 Q 440.291 418.031 441.223 417.838 L 441.223 417.838 L 441.223 417.838 Q 442.154 417.645 442.752 417.504 L 442.752 417.504 L 443.666 422.109 L 443.666 422.109 Q 442.857 422.602 441.697 422.971 L 441.697 422.971 L 441.697 422.971 Q 440.537 423.34 439.166 423.604 L 439.166 423.604 L 439.166 423.604 Q 437.795 423.867 436.266 424.008 L 436.266 424.008 L 436.266 424.008 Q 434.736 424.148 433.225 424.148 L 433.225 424.148 L 433.225 424.148 Q 430.693 424.148 428.496 423.428 L 428.496 423.428 L 428.496 423.428 Q 426.299 422.707 424.682 421.143 L 424.682 421.143 L 424.682 421.143 Q 423.064 419.578 422.133 417.1 L 422.133 417.1 L 422.133 417.1 Q 421.201 414.621 421.201 411.105 L 421.201 411.105 L 421.201 390.434 L 411.217 390.434 L 411.217 385.406 L 421.201 385.406 L 421.201 376.195 L 421.201 376.195 Z  M 68.021 385.406 L 72.451 409.664 L 73.225 415.113 L 74.174 409.664 L 80.256 385.406 L 84.439 385.406 L 90.486 409.664 L 91.506 415.641 L 92.455 409.664 L 96.674 385.406 L 102.439 385.406 L 94.354 423.445 L 89.221 423.445 L 83.279 400.137 L 82.295 394.23 L 81.346 400.137 L 75.475 423.445 L 70.342 423.445 L 62.256 385.406 L 68.021 385.406 L 68.021 385.406 Z  M 110.912 391.066 L 110.912 385.406 L 130.354 385.406 L 130.354 417.82 L 142.764 417.82 L 142.764 423.445 L 110.912 423.445 L 110.912 417.82 L 123.85 417.82 L 123.85 391.066 L 110.912 391.066 L 110.912 391.066 Z  M 123.006 375.422 L 123.006 375.422 L 123.006 375.422 Q 123.006 373.805 123.973 372.697 L 123.973 372.697 L 123.973 372.697 Q 124.939 371.59 126.908 371.59 L 126.908 371.59 L 126.908 371.59 Q 128.842 371.59 129.826 372.697 L 129.826 372.697 L 129.826 372.697 Q 130.811 373.805 130.811 375.422 L 130.811 375.422 L 130.811 375.422 Q 130.811 377.004 129.826 378.059 L 129.826 378.059 L 129.826 378.059 Q 128.842 379.113 126.908 379.113 L 126.908 379.113 L 126.908 379.113 Q 124.939 379.113 123.973 378.059 L 123.973 378.059 L 123.973 378.059 Q 123.006 377.004 123.006 375.422 Z  M 153.1 385.406 L 158.936 385.406 L 159.393 391.031 L 159.393 391.031 Q 161.467 388.078 164.49 386.408 L 164.49 386.408 L 164.49 386.408 Q 167.514 384.738 171.24 384.703 L 171.24 384.703 L 171.24 384.703 Q 174.229 384.703 176.672 385.547 L 176.672 385.547 L 176.672 385.547 Q 179.115 386.391 180.838 388.184 L 180.838 388.184 L 180.838 388.184 Q 182.561 389.977 183.492 392.736 L 183.492 392.736 L 183.492 392.736 Q 184.424 395.496 184.424 399.293 L 184.424 399.293 L 184.424 423.445 L 177.92 423.445 L 177.92 399.434 L 177.92 399.434 Q 177.92 396.902 177.357 395.145 L 177.357 395.145 L 177.357 395.145 Q 176.795 393.387 175.688 392.297 L 175.688 392.297 L 175.688 392.297 Q 174.58 391.207 172.98 390.715 L 172.98 390.715 L 172.98 390.715 Q 171.381 390.223 169.307 390.223 L 169.307 390.223 L 169.307 390.223 Q 166.037 390.223 163.559 391.857 L 163.559 391.857 L 163.559 391.857 Q 161.08 393.492 159.604 396.164 L 159.604 396.164 L 159.604 423.445 L 153.1 423.445 L 153.1 385.406 L 153.1 385.406 Z  M 207.627 419.227 L 207.627 419.227 L 207.627 419.227 Q 207.627 418.172 207.961 417.258 L 207.961 417.258 L 207.961 417.258 Q 208.295 416.344 208.928 415.658 L 208.928 415.658 L 208.928 415.658 Q 209.561 414.973 210.51 414.586 L 210.51 414.586 L 210.51 414.586 Q 211.459 414.199 212.725 414.199 L 212.725 414.199 L 212.725 414.199 Q 213.99 414.199 214.957 414.586 L 214.957 414.586 L 214.957 414.586 Q 215.924 414.973 216.574 415.658 L 216.574 415.658 L 216.574 415.658 Q 217.225 416.344 217.559 417.258 L 217.559 417.258 L 217.559 417.258 Q 217.893 418.172 217.893 419.227 L 217.893 419.227 L 217.893 419.227 Q 217.893 420.246 217.559 421.143 L 217.559 421.143 L 217.559 421.143 Q 217.225 422.039 216.574 422.707 L 216.574 422.707 L 216.574 422.707 Q 215.924 423.375 214.957 423.744 L 214.957 423.744 L 214.957 423.744 Q 213.99 424.113 212.725 424.113 L 212.725 424.113 L 212.725 424.113 Q 211.459 424.113 210.51 423.744 L 210.51 423.744 L 210.51 423.744 Q 209.561 423.375 208.928 422.707 L 208.928 422.707 L 208.928 422.707 Q 208.295 422.039 207.961 421.143 L 207.961 421.143 L 207.961 421.143 Q 207.627 420.246 207.627 419.227 Z " fill-rule="evenodd" fill="rgb(255,255,225)"/></g></svg>