<?xml version="1.0" standalone="no"?><!-- Generator: Gravit.io --><svg xmlns="http://www.w3.org/2000/svg" xmlns:xlink="http://www.w3.org/1999/xlink" style="isolation:isolate" viewBox="0 0 512 512" width="512" height="512"><defs><clipPath id="_clipPath_hwhxUpQlTC9EsSdtrAZo6dcFcjGuc5ax"><rect width="512" height="512"/></clipPath></defs><g clip-path="url(#_clipPath_hwhxUpQlTC9EsSdtrAZo6dcFcjGuc5ax)"><rect x="0" y="0" width="512" height="512" transform="matrix(1,0,0,1,0,0)" fill="rgb(255,171,64)"/><path d=" M 199.336 98.039 L 199.336 288.322 L 282.979 288.322 L 282.979 311.32 L 172.383 311.32 L 172.383 98.039 L 199.336 98.039 L 199.336 98.039 Z  M 339.229 152.824 L 339.229 311.32 L 313.301 311.32 L 313.301 152.824 L 339.229 152.824 L 339.229 152.824 Z  M 341.279 110.783 L 341.279 110.783 L 341.279 110.783 Q 341.279 117.375 337.617 121.77 L 337.617 121.77 L 337.617 121.77 Q 333.955 126.164 326.484 126.164 L 326.484 126.164 L 326.484 126.164 Q 319.16 126.164 315.498 121.77 L 315.498 121.77 L 315.498 121.77 Q 311.836 117.375 311.836 110.783 L 311.836 110.783 L 311.836 110.783 Q 311.836 104.191 315.498 99.65 L 315.498 99.65 L 315.498 99.65 Q 319.16 95.109 326.484 95.109 L 326.484 95.109 L 326.484 95.109 Q 333.809 95.109 337.544 99.724 L 337.544 99.724 L 337.544 99.724 Q 341.279 104.338 341.279 110.783 Z " fill-rule="evenodd" fill="rgb(255,255,225)"/><path d=" M 293.355 404.109 L 293.355 404.848 L 293.355 404.848 Q 293.355 408.926 292.371 412.459 L 292.371 412.459 L 292.371 412.459 Q 291.387 415.992 289.488 418.594 L 289.488 418.594 L 289.488 418.594 Q 287.59 421.195 284.795 422.672 L 284.795 422.672 L 284.795 422.672 Q 282 424.148 278.379 424.148 L 278.379 424.148 L 278.379 424.148 Q 274.723 424.148 272.033 422.848 L 272.033 422.848 L 272.033 422.848 Q 269.344 421.547 267.445 419.121 L 267.445 419.121 L 267.129 423.445 L 261.152 423.445 L 261.152 369.445 L 267.656 369.445 L 267.656 389.484 L 267.656 389.484 Q 269.52 387.164 272.156 385.934 L 272.156 385.934 L 272.156 385.934 Q 274.793 384.703 278.309 384.703 L 278.309 384.703 L 278.309 384.703 Q 281.965 384.703 284.777 386.145 L 284.777 386.145 L 284.777 386.145 Q 287.59 387.586 289.488 390.152 L 289.488 390.152 L 289.488 390.152 Q 291.387 392.719 292.371 396.287 L 292.371 396.287 L 292.371 396.287 Q 293.355 399.855 293.355 404.109 L 293.355 404.109 L 293.355 404.109 Z  M 286.852 404.848 L 286.852 404.109 L 286.852 404.109 Q 286.852 401.332 286.307 398.818 L 286.307 398.818 L 286.307 398.818 Q 285.762 396.305 284.566 394.389 L 284.566 394.389 L 284.566 394.389 Q 283.371 392.473 281.438 391.348 L 281.438 391.348 L 281.438 391.348 Q 279.504 390.223 276.691 390.223 L 276.691 390.223 L 276.691 390.223 Q 275.004 390.223 273.598 390.662 L 273.598 390.662 L 273.598 390.662 Q 272.191 391.102 271.084 391.893 L 271.084 391.893 L 271.084 391.893 Q 269.977 392.684 269.115 393.756 L 269.115 393.756 L 269.115 393.756 Q 268.254 394.828 267.656 396.094 L 267.656 396.094 L 267.656 412.723 L 267.656 412.723 Q 268.289 413.988 269.15 415.061 L 269.15 415.061 L 269.15 415.061 Q 270.012 416.133 271.137 416.941 L 271.137 416.941 L 271.137 416.941 Q 272.262 417.75 273.668 418.189 L 273.668 418.189 L 273.668 418.189 Q 275.074 418.629 276.762 418.629 L 276.762 418.629 L 276.762 418.629 Q 279.434 418.629 281.35 417.521 L 281.35 417.521 L 281.35 417.521 Q 283.266 416.414 284.479 414.516 L 284.479 414.516 L 284.479 414.516 Q 285.691 412.617 286.271 410.121 L 286.271 410.121 L 286.271 410.121 Q 286.852 407.625 286.852 404.848 L 286.852 404.848 L 286.852 404.848 Z  M 302.496 404.848 L 302.496 404.074 L 302.496 404.074 Q 302.496 399.961 303.691 396.428 L 303.691 396.428 L 303.691 396.428 Q 304.887 392.895 307.119 390.293 L 307.119 390.293 L 307.119 390.293 Q 309.352 387.691 312.551 386.197 L 312.551 386.197 L 312.551 386.197 Q 315.75 384.703 319.758 384.703 L 319.758 384.703 L 319.758 384.703 Q 323.801 384.703 327.018 386.197 L 327.018 386.197 L 327.018 386.197 Q 330.234 387.691 332.467 390.293 L 332.467 390.293 L 332.467 390.293 Q 334.699 392.895 335.895 396.428 L 335.895 396.428 L 335.895 396.428 Q 337.09 399.961 337.09 404.074 L 337.09 404.074 L 337.09 404.848 L 337.09 404.848 Q 337.09 408.961 335.895 412.477 L 335.895 412.477 L 335.895 412.477 Q 334.699 415.992 332.467 418.594 L 332.467 418.594 L 332.467 418.594 Q 330.234 421.195 327.035 422.672 L 327.035 422.672 L 327.035 422.672 Q 323.836 424.148 319.828 424.148 L 319.828 424.148 L 319.828 424.148 Q 315.785 424.148 312.568 422.672 L 312.568 422.672 L 312.568 422.672 Q 309.352 421.195 307.119 418.594 L 307.119 418.594 L 307.119 418.594 Q 304.887 415.992 303.691 412.477 L 303.691 412.477 L 303.691 412.477 Q 302.496 408.961 302.496 404.848 L 302.496 404.848 L 302.496 404.848 Z  M 309 404.074 L 309 404.848 L 309 404.848 Q 309 407.66 309.668 410.209 L 309.668 410.209 L 309.668 410.209 Q 310.336 412.758 311.689 414.691 L 311.689 414.691 L 311.689 414.691 Q 313.043 416.625 315.082 417.75 L 315.082 417.75 L 315.082 417.75 Q 317.121 418.875 319.828 418.875 L 319.828 418.875 L 319.828 418.875 Q 322.5 418.875 324.521 417.75 L 324.521 417.75 L 324.521 417.75 Q 326.543 416.625 327.896 414.691 L 327.896 414.691 L 327.896 414.691 Q 329.25 412.758 329.918 410.209 L 329.918 410.209 L 329.918 410.209 Q 330.586 407.66 330.586 404.848 L 330.586 404.848 L 330.586 404.074 L 330.586 404.074 Q 330.586 401.297 329.9 398.748 L 329.9 398.748 L 329.9 398.748 Q 329.215 396.199 327.861 394.266 L 327.861 394.266 L 327.861 394.266 Q 326.508 392.332 324.486 391.189 L 324.486 391.189 L 324.486 391.189 Q 322.465 390.047 319.758 390.047 L 319.758 390.047 L 319.758 390.047 Q 317.051 390.047 315.047 391.189 L 315.047 391.189 L 315.047 391.189 Q 313.043 392.332 311.689 394.266 L 311.689 394.266 L 311.689 394.266 Q 310.336 396.199 309.668 398.748 L 309.668 398.748 L 309.668 398.748 Q 309 401.297 309 404.074 L 309 404.074 L 309 404.074 Z  M 345.703 404.848 L 345.703 404.074 L 345.703 404.074 Q 345.703 399.961 346.898 396.428 L 346.898 396.428 L 346.898 396.428 Q 348.094 392.895 350.326 390.293 L 350.326 390.293 L 350.326 390.293 Q 352.559 387.691 355.758 386.197 L 355.758 386.197 L 355.758 386.197 Q 358.957 384.703 362.965 384.703 L 362.965 384.703 L 362.965 384.703 Q 367.008 384.703 370.225 386.197 L 370.225 386.197 L 370.225 386.197 Q 373.441 387.691 375.674 390.293 L 375.674 390.293 L 375.674 390.293 Q 377.906 392.895 379.102 396.428 L 379.102 396.428 L 379.102 396.428 Q 380.297 399.961 380.297 404.074 L 380.297 404.074 L 380.297 404.848 L 380.297 404.848 Q 380.297 408.961 379.102 412.477 L 379.102 412.477 L 379.102 412.477 Q 377.906 415.992 375.674 418.594 L 375.674 418.594 L 375.674 418.594 Q 373.441 421.195 370.242 422.672 L 370.242 422.672 L 370.242 422.672 Q 367.043 424.148 363.035 424.148 L 363.035 424.148 L 363.035 424.148 Q 358.992 424.148 355.775 422.672 L 355.775 422.672 L 355.775 422.672 Q 352.559 421.195 350.326 418.594 L 350.326 418.594 L 350.326 418.594 Q 348.094 415.992 346.898 412.477 L 346.898 412.477 L 346.898 412.477 Q 345.703 408.961 345.703 404.848 L 345.703 404.848 L 345.703 404.848 Z  M 352.207 404.074 L 352.207 404.848 L 352.207 404.848 Q 352.207 407.66 352.875 410.209 L 352.875 410.209 L 352.875 410.209 Q 353.543 412.758 354.896 414.691 L 354.896 414.691 L 354.896 414.691 Q 356.25 416.625 358.289 417.75 L 358.289 417.75 L 358.289 417.75 Q 360.328 418.875 363.035 418.875 L 363.035 418.875 L 363.035 418.875 Q 365.707 418.875 367.729 417.75 L 367.729 417.75 L 367.729 417.75 Q 369.75 416.625 371.104 414.691 L 371.104 414.691 L 371.104 414.691 Q 372.457 412.758 373.125 410.209 L 373.125 410.209 L 373.125 410.209 Q 373.793 407.66 373.793 404.848 L 373.793 404.848 L 373.793 404.074 L 373.793 404.074 Q 373.793 401.297 373.107 398.748 L 373.107 398.748 L 373.107 398.748 Q 372.422 396.199 371.068 394.266 L 371.068 394.266 L 371.068 394.266 Q 369.715 392.332 367.693 391.189 L 367.693 391.189 L 367.693 391.189 Q 365.672 390.047 362.965 390.047 L 362.965 390.047 L 362.965 390.047 Q 360.258 390.047 358.254 391.189 L 358.254 391.189 L 358.254 391.189 Q 356.25 392.332 354.896 394.266 L 354.896 394.266 L 354.896 394.266 Q 353.543 396.199 352.875 398.748 L 352.875 398.748 L 352.875 398.748 Q 352.207 401.297 352.207 404.074 L 352.207 404.074 L 352.207 404.074 Z  M 399.598 376.195 L 406.137 376.195 L 406.137 385.406 L 420.621 385.406 L 420.621 390.434 L 406.137 390.434 L 406.137 411.105 L 406.137 411.105 Q 406.137 413.32 406.699 414.762 L 406.699 414.762 L 406.699 414.762 Q 407.262 416.203 408.246 417.064 L 408.246 417.064 L 408.246 417.064 Q 409.23 417.926 410.514 418.277 L 410.514 418.277 L 410.514 418.277 Q 411.797 418.629 413.238 418.629 L 413.238 418.629 L 413.238 418.629 Q 414.293 418.629 415.418 418.506 L 415.418 418.506 L 415.418 418.506 Q 416.543 418.383 417.615 418.207 L 417.615 418.207 L 417.615 418.207 Q 418.688 418.031 419.619 417.838 L 419.619 417.838 L 419.619 417.838 Q 420.551 417.645 421.148 417.504 L 421.148 417.504 L 422.063 422.109 L 422.063 422.109 Q 421.254 422.602 420.094 422.971 L 420.094 422.971 L 420.094 422.971 Q 418.934 423.34 417.563 423.604 L 417.563 423.604 L 417.563 423.604 Q 416.191 423.867 414.662 424.008 L 414.662 424.008 L 414.662 424.008 Q 413.133 424.148 411.621 424.148 L 411.621 424.148 L 411.621 424.148 Q 409.09 424.148 406.893 423.428 L 406.893 423.428 L 406.893 423.428 Q 404.695 422.707 403.078 421.143 L 403.078 421.143 L 403.078 421.143 Q 401.461 419.578 400.529 417.1 L 400.529 417.1 L 400.529 417.1 Q 399.598 414.621 399.598 411.105 L 399.598 411.105 L 399.598 390.434 L 389.613 390.434 L 389.613 385.406 L 399.598 385.406 L 399.598 376.195 L 399.598 376.195 Z  M 89.309 375.105 L 89.309 369.445 L 108.75 369.445 L 108.75 417.82 L 121.16 417.82 L 121.16 423.445 L 89.309 423.445 L 89.309 417.82 L 102.246 417.82 L 102.246 375.105 L 89.309 375.105 L 89.309 375.105 Z  M 132.516 391.066 L 132.516 385.406 L 151.957 385.406 L 151.957 417.82 L 164.367 417.82 L 164.367 423.445 L 132.516 423.445 L 132.516 417.82 L 145.453 417.82 L 145.453 391.066 L 132.516 391.066 L 132.516 391.066 Z  M 144.609 375.422 L 144.609 375.422 L 144.609 375.422 Q 144.609 373.805 145.576 372.697 L 145.576 372.697 L 145.576 372.697 Q 146.543 371.59 148.512 371.59 L 148.512 371.59 L 148.512 371.59 Q 150.445 371.59 151.43 372.697 L 151.43 372.697 L 151.43 372.697 Q 152.414 373.805 152.414 375.422 L 152.414 375.422 L 152.414 375.422 Q 152.414 377.004 151.43 378.059 L 151.43 378.059 L 151.43 378.059 Q 150.445 379.113 148.512 379.113 L 148.512 379.113 L 148.512 379.113 Q 146.543 379.113 145.576 378.059 L 145.576 378.059 L 145.576 378.059 Q 144.609 377.004 144.609 375.422 Z  M 186.023 419.227 L 186.023 419.227 L 186.023 419.227 Q 186.023 418.172 186.357 417.258 L 186.357 417.258 L 186.357 417.258 Q 186.691 416.344 187.324 415.658 L 187.324 415.658 L 187.324 415.658 Q 187.957 414.973 188.906 414.586 L 188.906 414.586 L 188.906 414.586 Q 189.855 414.199 191.121 414.199 L 191.121 414.199 L 191.121 414.199 Q 192.387 414.199 193.354 414.586 L 193.354 414.586 L 193.354 414.586 Q 194.32 414.973 194.971 415.658 L 194.971 415.658 L 194.971 415.658 Q 195.621 416.344 195.955 417.258 L 195.955 417.258 L 195.955 417.258 Q 196.289 418.172 196.289 419.227 L 196.289 419.227 L 196.289 419.227 Q 196.289 420.246 195.955 421.143 L 195.955 421.143 L 195.955 421.143 Q 195.621 422.039 194.971 422.707 L 194.971 422.707 L 194.971 422.707 Q 194.32 423.375 193.354 423.744 L 193.354 423.744 L 193.354 423.744 Q 192.387 424.113 191.121 424.113 L 191.121 424.113 L 191.121 424.113 Q 189.855 424.113 188.906 423.744 L 188.906 423.744 L 188.906 423.744 Q 187.957 423.375 187.324 422.707 L 187.324 422.707 L 187.324 422.707 Q 186.691 422.039 186.357 421.143 L 186.357 421.143 L 186.357 421.143 Q 186.023 420.246 186.023 419.227 Z " fill-rule="evenodd" fill="rgb(255,255,225)"/></g></svg>