<?xml version="1.0" standalone="no"?><!-- Generator: Gravit.io --><svg xmlns="http://www.w3.org/2000/svg" xmlns:xlink="http://www.w3.org/1999/xlink" style="isolation:isolate" viewBox="0 0 128 128" width="128" height="128"><defs><clipPath id="_clipPath_Okbd449BexQRTnmqyd5k0Lzu2dG5HYS3"><rect width="128" height="128"/></clipPath></defs><g clip-path="url(#_clipPath_Okbd449BexQRTnmqyd5k0Lzu2dG5HYS3)"><rect width="128" height="128" style="fill:rgb(183,28,28)"/><path d=" M 82.75 80.992 L 93.59 80.992 L 93.59 80.992 Q 92.828 86.91 90.543 91.861 L 90.543 91.861 L 90.543 91.861 Q 88.258 96.813 84.596 100.357 L 84.596 100.357 L 84.596 100.357 Q 80.934 103.902 75.924 105.865 L 75.924 105.865 L 75.924 105.865 Q 70.914 107.828 64.762 107.828 L 64.762 107.828 L 64.762 107.828 Q 59.488 107.828 55.182 106.334 L 55.182 106.334 L 55.182 106.334 Q 50.875 104.84 47.506 102.203 L 47.506 102.203 L 47.506 102.203 Q 44.137 99.566 41.705 95.992 L 41.705 95.992 L 41.705 95.992 Q 39.273 92.418 37.662 88.199 L 37.662 88.199 L 37.662 88.199 Q 36.051 83.98 35.26 79.352 L 35.26 79.352 L 35.26 79.352 Q 34.469 74.723 34.41 69.977 L 34.41 69.977 L 34.41 58.082 L 34.41 58.082 Q 34.469 53.336 35.26 48.707 L 35.26 48.707 L 35.26 48.707 Q 36.051 44.078 37.662 39.859 L 37.662 39.859 L 37.662 39.859 Q 39.273 35.641 41.705 32.037 L 41.705 32.037 L 41.705 32.037 Q 44.137 28.434 47.506 25.797 L 47.506 25.797 L 47.506 25.797 Q 50.875 23.16 55.152 21.666 L 55.152 21.666 L 55.152 21.666 Q 59.43 20.172 64.762 20.172 L 64.762 20.172 L 64.762 20.172 Q 71.148 20.172 76.188 22.135 L 76.188 22.135 L 76.188 22.135 Q 81.227 24.098 84.859 27.701 L 84.859 27.701 L 84.859 27.701 Q 88.492 31.305 90.689 36.344 L 90.689 36.344 L 90.689 36.344 Q 92.887 41.383 93.59 47.477 L 93.59 47.477 L 82.75 47.477 L 82.75 47.477 Q 82.223 43.609 80.934 40.27 L 80.934 40.27 L 80.934 40.27 Q 79.645 36.93 77.477 34.41 L 77.477 34.41 L 77.477 34.41 Q 75.309 31.891 72.174 30.455 L 72.174 30.455 L 72.174 30.455 Q 69.039 29.02 64.762 29.02 L 64.762 29.02 L 64.762 29.02 Q 60.895 29.02 57.936 30.279 L 57.936 30.279 L 57.936 30.279 Q 54.977 31.539 52.838 33.707 L 52.838 33.707 L 52.838 33.707 Q 50.699 35.875 49.264 38.746 L 49.264 38.746 L 49.264 38.746 Q 47.828 41.617 46.949 44.84 L 46.949 44.84 L 46.949 44.84 Q 46.07 48.063 45.689 51.432 L 45.689 51.432 L 45.689 51.432 Q 45.309 54.801 45.309 57.965 L 45.309 57.965 L 45.309 69.977 L 45.309 69.977 Q 45.309 73.141 45.689 76.51 L 45.689 76.51 L 45.689 76.51 Q 46.07 79.879 46.949 83.131 L 46.949 83.131 L 46.949 83.131 Q 47.828 86.383 49.234 89.254 L 49.234 89.254 L 49.234 89.254 Q 50.641 92.125 52.809 94.322 L 52.809 94.322 L 52.809 94.322 Q 54.977 96.52 57.906 97.779 L 57.906 97.779 L 57.906 97.779 Q 60.836 99.039 64.762 99.039 L 64.762 99.039 L 64.762 99.039 Q 69.039 99.039 72.174 97.691 L 72.174 97.691 L 72.174 97.691 Q 75.309 96.344 77.477 93.912 L 77.477 93.912 L 77.477 93.912 Q 79.645 91.48 80.934 88.17 L 80.934 88.17 L 80.934 88.17 Q 82.223 84.859 82.75 80.992 L 82.75 80.992 Z " fill="rgb(255,255,255)"/></g></svg>