<?xml version="1.0" standalone="no"?><!-- Generator: Gravit.io --><svg xmlns="http://www.w3.org/2000/svg" xmlns:xlink="http://www.w3.org/1999/xlink" style="isolation:isolate" viewBox="0 0 128 128" width="128" height="128"><defs><clipPath id="_clipPath_PSxYnBT8oaCcBFYeU9uyCNyUDHWsKUEZ"><rect width="128" height="128"/></clipPath></defs><g clip-path="url(#_clipPath_PSxYnBT8oaCcBFYeU9uyCNyUDHWsKUEZ)"><rect width="128" height="128" style="fill:rgb(255,143,0)"/><path d=" M 80.553 106.656 L 63.795 71.852 L 46.744 71.852 L 46.744 106.656 L 35.963 106.656 L 35.963 21.344 L 60.982 21.344 L 60.982 21.344 Q 66.959 21.461 72.232 23.043 L 72.232 23.043 L 72.232 23.043 Q 77.506 24.625 81.461 27.789 L 81.461 27.789 L 81.461 27.789 Q 85.416 30.953 87.672 35.729 L 87.672 35.729 L 87.672 35.729 Q 89.928 40.504 89.928 46.949 L 89.928 46.949 L 89.928 46.949 Q 89.928 51.109 88.727 54.566 L 88.727 54.566 L 88.727 54.566 Q 87.525 58.023 85.416 60.836 L 85.416 60.836 L 85.416 60.836 Q 83.307 63.648 80.377 65.816 L 80.377 65.816 L 80.377 65.816 Q 77.447 67.984 73.932 69.508 L 73.932 69.508 L 92.037 105.953 L 91.979 106.656 L 80.553 106.656 Z  M 46.744 30.25 L 46.744 62.945 L 61.275 62.945 L 61.275 62.945 Q 64.908 62.887 68.131 61.803 L 68.131 61.803 L 68.131 61.803 Q 71.354 60.719 73.785 58.668 L 73.785 58.668 L 73.785 58.668 Q 76.217 56.617 77.623 53.658 L 77.623 53.658 L 77.623 53.658 Q 79.029 50.699 79.029 46.832 L 79.029 46.832 L 79.029 46.832 Q 79.029 42.73 77.682 39.654 L 77.682 39.654 L 77.682 39.654 Q 76.334 36.578 73.932 34.498 L 73.932 34.498 L 73.932 34.498 Q 71.529 32.418 68.219 31.363 L 68.219 31.363 L 68.219 31.363 Q 64.908 30.309 60.982 30.25 L 60.982 30.25 L 46.744 30.25 Z " fill-rule="evenodd" fill="rgb(255,255,255)"/></g></svg>