<?xml version="1.0" standalone="no"?><!-- Generator: Gravit.io --><svg xmlns="http://www.w3.org/2000/svg" xmlns:xlink="http://www.w3.org/1999/xlink" style="isolation:isolate" viewBox="0 0 128 128" width="128" height="128"><defs><clipPath id="_clipPath_7mLn8icmBqJVL7xeYPl9RxwJhW2pOOKw"><rect width="128" height="128"/></clipPath></defs><g clip-path="url(#_clipPath_7mLn8icmBqJVL7xeYPl9RxwJhW2pOOKw)"><rect width="128" height="128" style="fill:rgb(255,61,0)"/><path d=" M 82.311 85.094 L 82.311 85.094 L 82.311 85.094 Q 82.311 81.168 80.523 78.473 L 80.523 78.473 L 80.523 78.473 Q 78.736 75.777 75.924 73.932 L 75.924 73.932 L 75.924 73.932 Q 73.111 72.086 69.742 70.855 L 69.742 70.855 L 69.742 70.855 Q 66.373 69.625 63.268 68.629 L 63.268 68.629 L 63.268 68.629 Q 58.756 67.164 54.098 65.113 L 54.098 65.113 L 54.098 65.113 Q 49.439 63.063 45.602 60.074 L 45.602 60.074 L 45.602 60.074 Q 41.764 57.086 39.332 53.014 L 39.332 53.014 L 39.332 53.014 Q 36.9 48.941 36.9 43.434 L 36.9 43.434 L 36.9 43.434 Q 36.9 37.926 39.332 33.59 L 39.332 33.59 L 39.332 33.59 Q 41.764 29.254 45.689 26.266 L 45.689 26.266 L 45.689 26.266 Q 49.615 23.277 54.596 21.725 L 54.596 21.725 L 54.596 21.725 Q 59.576 20.172 64.615 20.172 L 64.615 20.172 L 64.615 20.172 Q 70.182 20.172 75.338 22.018 L 75.338 22.018 L 75.338 22.018 Q 80.494 23.863 84.479 27.203 L 84.479 27.203 L 84.479 27.203 Q 88.463 30.543 90.865 35.289 L 90.865 35.289 L 90.865 35.289 Q 93.268 40.035 93.385 45.895 L 93.385 45.895 L 82.252 45.895 L 82.252 45.895 Q 81.783 42.203 80.436 39.186 L 80.436 39.186 L 80.436 39.186 Q 79.088 36.168 76.861 34 L 76.861 34 L 76.861 34 Q 74.635 31.832 71.559 30.631 L 71.559 30.631 L 71.559 30.631 Q 68.482 29.43 64.615 29.43 L 64.615 29.43 L 64.615 29.43 Q 61.51 29.43 58.551 30.309 L 58.551 30.309 L 58.551 30.309 Q 55.592 31.188 53.277 32.945 L 53.277 32.945 L 53.277 32.945 Q 50.963 34.703 49.586 37.281 L 49.586 37.281 L 49.586 37.281 Q 48.209 39.859 48.209 43.258 L 48.209 43.258 L 48.209 43.258 Q 48.268 46.949 50.084 49.498 L 50.084 49.498 L 50.084 49.498 Q 51.9 52.047 54.684 53.805 L 54.684 53.805 L 54.684 53.805 Q 57.467 55.563 60.719 56.734 L 60.719 56.734 L 60.719 56.734 Q 63.971 57.906 66.842 58.785 L 66.842 58.785 L 66.842 58.785 Q 70.006 59.781 73.229 61.041 L 73.229 61.041 L 73.229 61.041 Q 76.451 62.301 79.439 63.941 L 79.439 63.941 L 79.439 63.941 Q 82.428 65.582 85.006 67.633 L 85.006 67.633 L 85.006 67.633 Q 87.584 69.684 89.518 72.291 L 89.518 72.291 L 89.518 72.291 Q 91.451 74.898 92.535 78.033 L 92.535 78.033 L 92.535 78.033 Q 93.619 81.168 93.619 84.977 L 93.619 84.977 L 93.619 84.977 Q 93.619 90.719 91.07 94.996 L 91.07 94.996 L 91.07 94.996 Q 88.521 99.273 84.479 102.115 L 84.479 102.115 L 84.479 102.115 Q 80.436 104.957 75.338 106.393 L 75.338 106.393 L 75.338 106.393 Q 70.24 107.828 65.143 107.828 L 65.143 107.828 L 65.143 107.828 Q 59.459 107.828 54.01 106.07 L 54.01 106.07 L 54.01 106.07 Q 48.561 104.313 44.254 101.002 L 44.254 101.002 L 44.254 101.002 Q 39.947 97.691 37.252 92.916 L 37.252 92.916 L 37.252 92.916 Q 34.557 88.141 34.381 82.047 L 34.381 82.047 L 45.455 82.047 L 45.455 82.047 Q 45.982 86.031 47.623 89.107 L 47.623 89.107 L 47.623 89.107 Q 49.264 92.184 51.842 94.322 L 51.842 94.322 L 51.842 94.322 Q 54.42 96.461 57.789 97.545 L 57.789 97.545 L 57.789 97.545 Q 61.158 98.629 65.143 98.629 L 65.143 98.629 L 65.143 98.629 Q 68.307 98.629 71.383 97.838 L 71.383 97.838 L 71.383 97.838 Q 74.459 97.047 76.861 95.377 L 76.861 95.377 L 76.861 95.377 Q 79.264 93.707 80.787 91.158 L 80.787 91.158 L 80.787 91.158 Q 82.311 88.609 82.311 85.094 Z " fill="rgb(255,255,255)"/></g></svg>