<?xml version="1.0" standalone="no"?><!-- Generator: Gravit.io --><svg xmlns="http://www.w3.org/2000/svg" xmlns:xlink="http://www.w3.org/1999/xlink" style="isolation:isolate" viewBox="0 0 512 512" width="512" height="512"><defs><clipPath id="_clipPath_BJZylMrAiUL64eUtpYvDJ6dp22JS8cde"><rect width="512" height="512"/></clipPath></defs><g clip-path="url(#_clipPath_BJZylMrAiUL64eUtpYvDJ6dp22JS8cde)"><rect x="0" y="0" width="512" height="512" transform="matrix(1,0,0,1,0,0)" fill="rgb(100,221,23)"/><path d=" M 265.254 243.645 L 292.354 243.645 L 292.354 243.645 Q 290.596 277.922 273.091 296.086 L 273.091 296.086 L 273.091 296.086 Q 255.586 314.25 223.652 314.25 L 223.652 314.25 L 223.652 314.25 Q 191.572 314.25 172.676 289.86 L 172.676 289.86 L 172.676 289.86 Q 153.779 265.471 153.779 223.723 L 153.779 223.723 L 153.779 185.051 L 153.779 185.051 Q 153.779 143.449 173.188 119.279 L 173.188 119.279 L 173.188 119.279 Q 192.598 95.109 226.143 95.109 L 226.143 95.109 L 226.143 95.109 Q 257.051 95.109 273.97 113.64 L 273.97 113.64 L 273.97 113.64 Q 290.889 132.17 292.354 166.594 L 292.354 166.594 L 265.254 166.594 L 265.254 166.594 Q 263.496 140.52 254.268 129.387 L 254.268 129.387 L 254.268 129.387 Q 245.039 118.254 226.143 118.254 L 226.143 118.254 L 226.143 118.254 Q 204.316 118.254 192.598 135.319 L 192.598 135.319 L 192.598 135.319 Q 180.879 152.385 180.879 185.344 L 180.879 185.344 L 180.879 224.455 L 180.879 224.455 Q 180.879 256.828 191.792 274.113 L 191.792 274.113 L 191.792 274.113 Q 202.705 291.398 223.652 291.398 L 223.652 291.398 L 223.652 291.398 Q 244.6 291.398 253.828 280.998 L 253.828 280.998 L 253.828 280.998 Q 263.057 270.598 265.254 243.645 L 265.254 243.645 L 265.254 243.645 Z  M 352.998 86.32 L 352.998 311.32 L 327.07 311.32 L 327.07 86.32 L 352.998 86.32 L 352.998 86.32 Z " fill-rule="evenodd" fill="rgb(255,255,225)"/><path d=" M 147.703 418.875 L 147.703 418.875 L 147.703 418.875 Q 149.461 418.875 151.131 418.313 L 151.131 418.313 L 151.131 418.313 Q 152.801 417.75 154.102 416.748 L 154.102 416.748 L 154.102 416.748 Q 155.402 415.746 156.193 414.393 L 156.193 414.393 L 156.193 414.393 Q 156.984 413.039 157.02 411.457 L 157.02 411.457 L 163.172 411.457 L 163.172 411.457 Q 163.137 413.988 161.854 416.291 L 161.854 416.291 L 161.854 416.291 Q 160.57 418.594 158.426 420.334 L 158.426 420.334 L 158.426 420.334 Q 156.281 422.074 153.504 423.111 L 153.504 423.111 L 153.504 423.111 Q 150.727 424.148 147.703 424.148 L 147.703 424.148 L 147.703 424.148 Q 143.379 424.148 140.145 422.602 L 140.145 422.602 L 140.145 422.602 Q 136.91 421.055 134.748 418.436 L 134.748 418.436 L 134.748 418.436 Q 132.586 415.816 131.496 412.389 L 131.496 412.389 L 131.496 412.389 Q 130.406 408.961 130.406 405.164 L 130.406 405.164 L 130.406 403.688 L 130.406 403.688 Q 130.406 399.926 131.496 396.48 L 131.496 396.48 L 131.496 396.48 Q 132.586 393.035 134.748 390.416 L 134.748 390.416 L 134.748 390.416 Q 136.91 387.797 140.145 386.25 L 140.145 386.25 L 140.145 386.25 Q 143.379 384.703 147.703 384.703 L 147.703 384.703 L 147.703 384.703 Q 151.078 384.703 153.908 385.775 L 153.908 385.775 L 153.908 385.775 Q 156.738 386.848 158.795 388.693 L 158.795 388.693 L 158.795 388.693 Q 160.852 390.539 162.012 393.07 L 162.012 393.07 L 162.012 393.07 Q 163.172 395.602 163.172 398.484 L 163.172 398.484 L 157.02 398.484 L 157.02 398.484 Q 156.984 396.762 156.264 395.232 L 156.264 395.232 L 156.264 395.232 Q 155.543 393.703 154.313 392.543 L 154.313 392.543 L 154.313 392.543 Q 153.082 391.383 151.377 390.715 L 151.377 390.715 L 151.377 390.715 Q 149.672 390.047 147.703 390.047 L 147.703 390.047 L 147.703 390.047 Q 144.68 390.047 142.623 391.26 L 142.623 391.26 L 142.623 391.26 Q 140.566 392.473 139.301 394.424 L 139.301 394.424 L 139.301 394.424 Q 138.035 396.375 137.49 398.801 L 137.49 398.801 L 137.49 398.801 Q 136.945 401.227 136.945 403.688 L 136.945 403.688 L 136.945 405.164 L 136.945 405.164 Q 136.945 407.66 137.49 410.104 L 137.49 410.104 L 137.49 410.104 Q 138.035 412.547 139.283 414.498 L 139.283 414.498 L 139.283 414.498 Q 140.531 416.449 142.588 417.662 L 142.588 417.662 L 142.588 417.662 Q 144.645 418.875 147.703 418.875 Z  M 175.723 375.105 L 175.723 369.445 L 195.164 369.445 L 195.164 417.82 L 207.574 417.82 L 207.574 423.445 L 175.723 423.445 L 175.723 417.82 L 188.66 417.82 L 188.66 375.105 L 175.723 375.105 L 175.723 375.105 Z  M 216.082 404.848 L 216.082 404.074 L 216.082 404.074 Q 216.082 399.961 217.277 396.428 L 217.277 396.428 L 217.277 396.428 Q 218.473 392.895 220.705 390.293 L 220.705 390.293 L 220.705 390.293 Q 222.938 387.691 226.137 386.197 L 226.137 386.197 L 226.137 386.197 Q 229.336 384.703 233.344 384.703 L 233.344 384.703 L 233.344 384.703 Q 237.387 384.703 240.604 386.197 L 240.604 386.197 L 240.604 386.197 Q 243.82 387.691 246.053 390.293 L 246.053 390.293 L 246.053 390.293 Q 248.285 392.895 249.48 396.428 L 249.48 396.428 L 249.48 396.428 Q 250.676 399.961 250.676 404.074 L 250.676 404.074 L 250.676 404.848 L 250.676 404.848 Q 250.676 408.961 249.48 412.477 L 249.48 412.477 L 249.48 412.477 Q 248.285 415.992 246.053 418.594 L 246.053 418.594 L 246.053 418.594 Q 243.82 421.195 240.621 422.672 L 240.621 422.672 L 240.621 422.672 Q 237.422 424.148 233.414 424.148 L 233.414 424.148 L 233.414 424.148 Q 229.371 424.148 226.154 422.672 L 226.154 422.672 L 226.154 422.672 Q 222.938 421.195 220.705 418.594 L 220.705 418.594 L 220.705 418.594 Q 218.473 415.992 217.277 412.477 L 217.277 412.477 L 217.277 412.477 Q 216.082 408.961 216.082 404.848 L 216.082 404.848 L 216.082 404.848 Z  M 222.586 404.074 L 222.586 404.848 L 222.586 404.848 Q 222.586 407.66 223.254 410.209 L 223.254 410.209 L 223.254 410.209 Q 223.922 412.758 225.275 414.691 L 225.275 414.691 L 225.275 414.691 Q 226.629 416.625 228.668 417.75 L 228.668 417.75 L 228.668 417.75 Q 230.707 418.875 233.414 418.875 L 233.414 418.875 L 233.414 418.875 Q 236.086 418.875 238.107 417.75 L 238.107 417.75 L 238.107 417.75 Q 240.129 416.625 241.482 414.691 L 241.482 414.691 L 241.482 414.691 Q 242.836 412.758 243.504 410.209 L 243.504 410.209 L 243.504 410.209 Q 244.172 407.66 244.172 404.848 L 244.172 404.848 L 244.172 404.074 L 244.172 404.074 Q 244.172 401.297 243.486 398.748 L 243.486 398.748 L 243.486 398.748 Q 242.801 396.199 241.447 394.266 L 241.447 394.266 L 241.447 394.266 Q 240.094 392.332 238.072 391.189 L 238.072 391.189 L 238.072 391.189 Q 236.051 390.047 233.344 390.047 L 233.344 390.047 L 233.344 390.047 Q 230.637 390.047 228.633 391.189 L 228.633 391.189 L 228.633 391.189 Q 226.629 392.332 225.275 394.266 L 225.275 394.266 L 225.275 394.266 Q 223.922 396.199 223.254 398.748 L 223.254 398.748 L 223.254 398.748 Q 222.586 401.297 222.586 404.074 L 222.586 404.074 L 222.586 404.074 Z  M 265.125 385.406 L 276.023 414.094 L 276.621 416.449 L 277.254 414.094 L 287.906 385.406 L 294.551 385.406 L 279.047 423.445 L 274.09 423.445 L 258.445 385.406 L 265.125 385.406 L 265.125 385.406 Z  M 321.129 424.148 L 321.129 424.148 L 321.129 424.148 Q 317.121 424.148 313.764 422.777 L 313.764 422.777 L 313.764 422.777 Q 310.406 421.406 308.016 418.945 L 308.016 418.945 L 308.016 418.945 Q 305.625 416.484 304.289 413.109 L 304.289 413.109 L 304.289 413.109 Q 302.953 409.734 302.953 405.762 L 302.953 405.762 L 302.953 404.285 L 302.953 404.285 Q 302.953 399.68 304.43 396.041 L 304.43 396.041 L 304.43 396.041 Q 305.906 392.402 308.35 389.889 L 308.35 389.889 L 308.35 389.889 Q 310.793 387.375 313.904 386.039 L 313.904 386.039 L 313.904 386.039 Q 317.016 384.703 320.285 384.703 L 320.285 384.703 L 320.285 384.703 Q 324.398 384.703 327.475 386.127 L 327.475 386.127 L 327.475 386.127 Q 330.551 387.551 332.59 390.064 L 332.59 390.064 L 332.59 390.064 Q 334.629 392.578 335.631 395.988 L 335.631 395.988 L 335.631 395.988 Q 336.633 399.398 336.633 403.371 L 336.633 403.371 L 336.633 406.289 L 309.457 406.289 L 309.457 406.289 Q 309.563 408.891 310.459 411.176 L 310.459 411.176 L 310.459 411.176 Q 311.355 413.461 312.92 415.166 L 312.92 415.166 L 312.92 415.166 Q 314.484 416.871 316.664 417.855 L 316.664 417.855 L 316.664 417.855 Q 318.844 418.84 321.48 418.84 L 321.48 418.84 L 321.48 418.84 Q 324.961 418.84 327.668 417.434 L 327.668 417.434 L 327.668 417.434 Q 330.375 416.027 332.168 413.707 L 332.168 413.707 L 336.141 416.801 L 336.141 416.801 Q 335.191 418.242 333.768 419.561 L 333.768 419.561 L 333.768 419.561 Q 332.344 420.879 330.48 421.898 L 330.48 421.898 L 330.48 421.898 Q 328.617 422.918 326.262 423.533 L 326.262 423.533 L 326.262 423.533 Q 323.906 424.148 321.129 424.148 Z  M 320.285 390.047 L 320.285 390.047 L 320.285 390.047 Q 318.316 390.047 316.559 390.768 L 316.559 390.768 L 316.559 390.768 Q 314.801 391.488 313.395 392.877 L 313.395 392.877 L 313.395 392.877 Q 311.988 394.266 311.021 396.287 L 311.021 396.287 L 311.021 396.287 Q 310.055 398.309 309.668 400.945 L 309.668 400.945 L 330.129 400.945 L 330.129 400.453 L 330.129 400.453 Q 330.023 398.555 329.408 396.691 L 329.408 396.691 L 329.408 396.691 Q 328.793 394.828 327.598 393.352 L 327.598 393.352 L 327.598 393.352 Q 326.402 391.875 324.592 390.961 L 324.592 390.961 L 324.592 390.961 Q 322.781 390.047 320.285 390.047 Z  M 372.457 384.703 L 372.457 384.703 L 372.457 384.703 Q 373.371 384.703 374.355 384.756 L 374.355 384.756 L 374.355 384.756 Q 375.34 384.809 376.236 384.932 L 376.236 384.932 L 376.236 384.932 Q 377.133 385.055 377.889 385.23 L 377.889 385.23 L 377.889 385.23 Q 378.645 385.406 379.137 385.617 L 379.137 385.617 L 378.258 391.98 L 378.258 391.98 Q 376.359 391.559 374.654 391.365 L 374.654 391.365 L 374.654 391.365 Q 372.949 391.172 371.086 391.172 L 371.086 391.172 L 371.086 391.172 Q 366.516 391.172 363.686 393.246 L 363.686 393.246 L 363.686 393.246 Q 360.855 395.32 359.52 399.047 L 359.52 399.047 L 359.52 423.445 L 352.98 423.445 L 352.98 385.406 L 359.168 385.406 L 359.484 391.453 L 359.484 391.453 Q 361.805 388.324 365.057 386.514 L 365.057 386.514 L 365.057 386.514 Q 368.309 384.703 372.457 384.703 Z " fill-rule="evenodd" fill="rgb(255,255,225)"/></g></svg>