<?xml version="1.0" standalone="no"?><!-- Generator: Gravit.io --><svg xmlns="http://www.w3.org/2000/svg" xmlns:xlink="http://www.w3.org/1999/xlink" style="isolation:isolate" viewBox="0 0 512 512" width="512" height="512"><defs><clipPath id="_clipPath_EYIQs0cRUhyoH6A8lxUgmbx1YTDcTeAX"><rect width="512" height="512"/></clipPath></defs><g clip-path="url(#_clipPath_EYIQs0cRUhyoH6A8lxUgmbx1YTDcTeAX)"><rect x="0" y="0" width="512" height="512" transform="matrix(1,0,0,1,0,0)" fill="rgb(255,143,0)"/><path d=" M 229.365 243.645 L 256.465 243.645 L 256.465 243.645 Q 254.707 277.922 237.202 296.086 L 237.202 296.086 L 237.202 296.086 Q 219.697 314.25 187.764 314.25 L 187.764 314.25 L 187.764 314.25 Q 155.684 314.25 136.787 289.86 L 136.787 289.86 L 136.787 289.86 Q 117.891 265.471 117.891 223.723 L 117.891 223.723 L 117.891 185.051 L 117.891 185.051 Q 117.891 143.449 137.3 119.279 L 137.3 119.279 L 137.3 119.279 Q 156.709 95.109 190.254 95.109 L 190.254 95.109 L 190.254 95.109 Q 221.162 95.109 238.081 113.64 L 238.081 113.64 L 238.081 113.64 Q 255 132.17 256.465 166.594 L 256.465 166.594 L 229.365 166.594 L 229.365 166.594 Q 227.607 140.52 218.379 129.387 L 218.379 129.387 L 218.379 129.387 Q 209.15 118.254 190.254 118.254 L 190.254 118.254 L 190.254 118.254 Q 168.428 118.254 156.709 135.319 L 156.709 135.319 L 156.709 135.319 Q 144.99 152.385 144.99 185.344 L 144.99 185.344 L 144.99 224.455 L 144.99 224.455 Q 144.99 256.828 155.903 274.113 L 155.903 274.113 L 155.903 274.113 Q 166.816 291.398 187.764 291.398 L 187.764 291.398 L 187.764 291.398 Q 208.711 291.398 217.939 280.998 L 217.939 280.998 L 217.939 280.998 Q 227.168 270.598 229.365 243.645 L 229.365 243.645 L 229.365 243.645 Z  M 345.82 314.25 L 345.82 314.25 L 345.82 314.25 Q 316.23 314.25 300.41 296.599 L 300.41 296.599 L 300.41 296.599 Q 284.59 278.947 284.297 244.816 L 284.297 244.816 L 284.297 225.627 L 284.297 225.627 Q 284.297 190.178 299.751 170.036 L 299.751 170.036 L 299.751 170.036 Q 315.205 149.895 342.891 149.895 L 342.891 149.895 L 342.891 149.895 Q 370.723 149.895 384.492 167.619 L 384.492 167.619 L 384.492 167.619 Q 398.262 185.344 398.555 222.844 L 398.555 222.844 L 398.555 239.836 L 310.078 239.836 L 310.078 243.498 L 310.078 243.498 Q 310.078 268.986 319.673 280.559 L 319.673 280.559 L 319.673 280.559 Q 329.268 292.131 347.285 292.131 L 347.285 292.131 L 347.285 292.131 Q 358.711 292.131 367.427 287.81 L 367.427 287.81 L 367.427 287.81 Q 376.143 283.488 383.76 274.113 L 383.76 274.113 L 397.236 290.52 L 397.236 290.52 Q 380.391 314.25 345.82 314.25 Z  M 342.891 172.16 L 342.891 172.16 L 342.891 172.16 Q 326.777 172.16 319.014 183.22 L 319.014 183.22 L 319.014 183.22 Q 311.25 194.279 310.225 217.57 L 310.225 217.57 L 372.627 217.57 L 372.627 214.055 L 372.627 214.055 Q 371.602 191.496 364.497 181.828 L 364.497 181.828 L 364.497 181.828 Q 357.393 172.16 342.891 172.16 Z " fill-rule="evenodd" fill="rgb(255,255,225)"/><path d=" M 147.703 418.875 L 147.703 418.875 L 147.703 418.875 Q 149.461 418.875 151.131 418.313 L 151.131 418.313 L 151.131 418.313 Q 152.801 417.75 154.102 416.748 L 154.102 416.748 L 154.102 416.748 Q 155.402 415.746 156.193 414.393 L 156.193 414.393 L 156.193 414.393 Q 156.984 413.039 157.02 411.457 L 157.02 411.457 L 163.172 411.457 L 163.172 411.457 Q 163.137 413.988 161.854 416.291 L 161.854 416.291 L 161.854 416.291 Q 160.57 418.594 158.426 420.334 L 158.426 420.334 L 158.426 420.334 Q 156.281 422.074 153.504 423.111 L 153.504 423.111 L 153.504 423.111 Q 150.727 424.148 147.703 424.148 L 147.703 424.148 L 147.703 424.148 Q 143.379 424.148 140.145 422.602 L 140.145 422.602 L 140.145 422.602 Q 136.91 421.055 134.748 418.436 L 134.748 418.436 L 134.748 418.436 Q 132.586 415.816 131.496 412.389 L 131.496 412.389 L 131.496 412.389 Q 130.406 408.961 130.406 405.164 L 130.406 405.164 L 130.406 403.688 L 130.406 403.688 Q 130.406 399.926 131.496 396.48 L 131.496 396.48 L 131.496 396.48 Q 132.586 393.035 134.748 390.416 L 134.748 390.416 L 134.748 390.416 Q 136.91 387.797 140.145 386.25 L 140.145 386.25 L 140.145 386.25 Q 143.379 384.703 147.703 384.703 L 147.703 384.703 L 147.703 384.703 Q 151.078 384.703 153.908 385.775 L 153.908 385.775 L 153.908 385.775 Q 156.738 386.848 158.795 388.693 L 158.795 388.693 L 158.795 388.693 Q 160.852 390.539 162.012 393.07 L 162.012 393.07 L 162.012 393.07 Q 163.172 395.602 163.172 398.484 L 163.172 398.484 L 157.02 398.484 L 157.02 398.484 Q 156.984 396.762 156.264 395.232 L 156.264 395.232 L 156.264 395.232 Q 155.543 393.703 154.313 392.543 L 154.313 392.543 L 154.313 392.543 Q 153.082 391.383 151.377 390.715 L 151.377 390.715 L 151.377 390.715 Q 149.672 390.047 147.703 390.047 L 147.703 390.047 L 147.703 390.047 Q 144.68 390.047 142.623 391.26 L 142.623 391.26 L 142.623 391.26 Q 140.566 392.473 139.301 394.424 L 139.301 394.424 L 139.301 394.424 Q 138.035 396.375 137.49 398.801 L 137.49 398.801 L 137.49 398.801 Q 136.945 401.227 136.945 403.688 L 136.945 403.688 L 136.945 405.164 L 136.945 405.164 Q 136.945 407.66 137.49 410.104 L 137.49 410.104 L 137.49 410.104 Q 138.035 412.547 139.283 414.498 L 139.283 414.498 L 139.283 414.498 Q 140.531 416.449 142.588 417.662 L 142.588 417.662 L 142.588 417.662 Q 144.645 418.875 147.703 418.875 Z  M 191.508 424.148 L 191.508 424.148 L 191.508 424.148 Q 187.5 424.148 184.143 422.777 L 184.143 422.777 L 184.143 422.777 Q 180.785 421.406 178.395 418.945 L 178.395 418.945 L 178.395 418.945 Q 176.004 416.484 174.668 413.109 L 174.668 413.109 L 174.668 413.109 Q 173.332 409.734 173.332 405.762 L 173.332 405.762 L 173.332 404.285 L 173.332 404.285 Q 173.332 399.68 174.809 396.041 L 174.809 396.041 L 174.809 396.041 Q 176.285 392.402 178.729 389.889 L 178.729 389.889 L 178.729 389.889 Q 181.172 387.375 184.283 386.039 L 184.283 386.039 L 184.283 386.039 Q 187.395 384.703 190.664 384.703 L 190.664 384.703 L 190.664 384.703 Q 194.777 384.703 197.854 386.127 L 197.854 386.127 L 197.854 386.127 Q 200.93 387.551 202.969 390.064 L 202.969 390.064 L 202.969 390.064 Q 205.008 392.578 206.01 395.988 L 206.01 395.988 L 206.01 395.988 Q 207.012 399.398 207.012 403.371 L 207.012 403.371 L 207.012 406.289 L 179.836 406.289 L 179.836 406.289 Q 179.941 408.891 180.838 411.176 L 180.838 411.176 L 180.838 411.176 Q 181.734 413.461 183.299 415.166 L 183.299 415.166 L 183.299 415.166 Q 184.863 416.871 187.043 417.855 L 187.043 417.855 L 187.043 417.855 Q 189.223 418.84 191.859 418.84 L 191.859 418.84 L 191.859 418.84 Q 195.34 418.84 198.047 417.434 L 198.047 417.434 L 198.047 417.434 Q 200.754 416.027 202.547 413.707 L 202.547 413.707 L 206.52 416.801 L 206.52 416.801 Q 205.57 418.242 204.146 419.561 L 204.146 419.561 L 204.146 419.561 Q 202.723 420.879 200.859 421.898 L 200.859 421.898 L 200.859 421.898 Q 198.996 422.918 196.641 423.533 L 196.641 423.533 L 196.641 423.533 Q 194.285 424.148 191.508 424.148 Z  M 190.664 390.047 L 190.664 390.047 L 190.664 390.047 Q 188.695 390.047 186.938 390.768 L 186.938 390.768 L 186.938 390.768 Q 185.18 391.488 183.773 392.877 L 183.773 392.877 L 183.773 392.877 Q 182.367 394.266 181.4 396.287 L 181.4 396.287 L 181.4 396.287 Q 180.434 398.309 180.047 400.945 L 180.047 400.945 L 200.508 400.945 L 200.508 400.453 L 200.508 400.453 Q 200.402 398.555 199.787 396.691 L 199.787 396.691 L 199.787 396.691 Q 199.172 394.828 197.977 393.352 L 197.977 393.352 L 197.977 393.352 Q 196.781 391.875 194.971 390.961 L 194.971 390.961 L 194.971 390.961 Q 193.16 390.047 190.664 390.047 Z  M 217.91 385.406 L 223.746 385.406 L 224.203 391.031 L 224.203 391.031 Q 226.277 388.078 229.301 386.408 L 229.301 386.408 L 229.301 386.408 Q 232.324 384.738 236.051 384.703 L 236.051 384.703 L 236.051 384.703 Q 239.039 384.703 241.482 385.547 L 241.482 385.547 L 241.482 385.547 Q 243.926 386.391 245.648 388.184 L 245.648 388.184 L 245.648 388.184 Q 247.371 389.977 248.303 392.736 L 248.303 392.736 L 248.303 392.736 Q 249.234 395.496 249.234 399.293 L 249.234 399.293 L 249.234 423.445 L 242.73 423.445 L 242.73 399.434 L 242.73 399.434 Q 242.73 396.902 242.168 395.145 L 242.168 395.145 L 242.168 395.145 Q 241.605 393.387 240.498 392.297 L 240.498 392.297 L 240.498 392.297 Q 239.391 391.207 237.791 390.715 L 237.791 390.715 L 237.791 390.715 Q 236.191 390.223 234.117 390.223 L 234.117 390.223 L 234.117 390.223 Q 230.848 390.223 228.369 391.857 L 228.369 391.857 L 228.369 391.857 Q 225.891 393.492 224.414 396.164 L 224.414 396.164 L 224.414 423.445 L 217.91 423.445 L 217.91 385.406 L 217.91 385.406 Z  M 269.977 376.195 L 276.516 376.195 L 276.516 385.406 L 291 385.406 L 291 390.434 L 276.516 390.434 L 276.516 411.105 L 276.516 411.105 Q 276.516 413.32 277.078 414.762 L 277.078 414.762 L 277.078 414.762 Q 277.641 416.203 278.625 417.064 L 278.625 417.064 L 278.625 417.064 Q 279.609 417.926 280.893 418.277 L 280.893 418.277 L 280.893 418.277 Q 282.176 418.629 283.617 418.629 L 283.617 418.629 L 283.617 418.629 Q 284.672 418.629 285.797 418.506 L 285.797 418.506 L 285.797 418.506 Q 286.922 418.383 287.994 418.207 L 287.994 418.207 L 287.994 418.207 Q 289.066 418.031 289.998 417.838 L 289.998 417.838 L 289.998 417.838 Q 290.93 417.645 291.527 417.504 L 291.527 417.504 L 292.441 422.109 L 292.441 422.109 Q 291.633 422.602 290.473 422.971 L 290.473 422.971 L 290.473 422.971 Q 289.313 423.34 287.941 423.604 L 287.941 423.604 L 287.941 423.604 Q 286.57 423.867 285.041 424.008 L 285.041 424.008 L 285.041 424.008 Q 283.512 424.148 282 424.148 L 282 424.148 L 282 424.148 Q 279.469 424.148 277.271 423.428 L 277.271 423.428 L 277.271 423.428 Q 275.074 422.707 273.457 421.143 L 273.457 421.143 L 273.457 421.143 Q 271.84 419.578 270.908 417.1 L 270.908 417.1 L 270.908 417.1 Q 269.977 414.621 269.977 411.105 L 269.977 411.105 L 269.977 390.434 L 259.992 390.434 L 259.992 385.406 L 269.977 385.406 L 269.977 376.195 L 269.977 376.195 Z  M 302.496 404.848 L 302.496 404.074 L 302.496 404.074 Q 302.496 399.961 303.691 396.428 L 303.691 396.428 L 303.691 396.428 Q 304.887 392.895 307.119 390.293 L 307.119 390.293 L 307.119 390.293 Q 309.352 387.691 312.551 386.197 L 312.551 386.197 L 312.551 386.197 Q 315.75 384.703 319.758 384.703 L 319.758 384.703 L 319.758 384.703 Q 323.801 384.703 327.018 386.197 L 327.018 386.197 L 327.018 386.197 Q 330.234 387.691 332.467 390.293 L 332.467 390.293 L 332.467 390.293 Q 334.699 392.895 335.895 396.428 L 335.895 396.428 L 335.895 396.428 Q 337.09 399.961 337.09 404.074 L 337.09 404.074 L 337.09 404.848 L 337.09 404.848 Q 337.09 408.961 335.895 412.477 L 335.895 412.477 L 335.895 412.477 Q 334.699 415.992 332.467 418.594 L 332.467 418.594 L 332.467 418.594 Q 330.234 421.195 327.035 422.672 L 327.035 422.672 L 327.035 422.672 Q 323.836 424.148 319.828 424.148 L 319.828 424.148 L 319.828 424.148 Q 315.785 424.148 312.568 422.672 L 312.568 422.672 L 312.568 422.672 Q 309.352 421.195 307.119 418.594 L 307.119 418.594 L 307.119 418.594 Q 304.887 415.992 303.691 412.477 L 303.691 412.477 L 303.691 412.477 Q 302.496 408.961 302.496 404.848 L 302.496 404.848 L 302.496 404.848 Z  M 309 404.074 L 309 404.848 L 309 404.848 Q 309 407.66 309.668 410.209 L 309.668 410.209 L 309.668 410.209 Q 310.336 412.758 311.689 414.691 L 311.689 414.691 L 311.689 414.691 Q 313.043 416.625 315.082 417.75 L 315.082 417.75 L 315.082 417.75 Q 317.121 418.875 319.828 418.875 L 319.828 418.875 L 319.828 418.875 Q 322.5 418.875 324.521 417.75 L 324.521 417.75 L 324.521 417.75 Q 326.543 416.625 327.896 414.691 L 327.896 414.691 L 327.896 414.691 Q 329.25 412.758 329.918 410.209 L 329.918 410.209 L 329.918 410.209 Q 330.586 407.66 330.586 404.848 L 330.586 404.848 L 330.586 404.074 L 330.586 404.074 Q 330.586 401.297 329.9 398.748 L 329.9 398.748 L 329.9 398.748 Q 329.215 396.199 327.861 394.266 L 327.861 394.266 L 327.861 394.266 Q 326.508 392.332 324.486 391.189 L 324.486 391.189 L 324.486 391.189 Q 322.465 390.047 319.758 390.047 L 319.758 390.047 L 319.758 390.047 Q 317.051 390.047 315.047 391.189 L 315.047 391.189 L 315.047 391.189 Q 313.043 392.332 311.689 394.266 L 311.689 394.266 L 311.689 394.266 Q 310.336 396.199 309.668 398.748 L 309.668 398.748 L 309.668 398.748 Q 309 401.297 309 404.074 L 309 404.074 L 309 404.074 Z  M 372.809 413.355 L 372.809 413.355 L 372.809 413.355 Q 372.809 412.195 372.352 411.264 L 372.352 411.264 L 372.352 411.264 Q 371.895 410.332 370.805 409.559 L 370.805 409.559 L 370.805 409.559 Q 369.715 408.785 367.922 408.135 L 367.922 408.135 L 367.922 408.135 Q 366.129 407.484 363.457 406.957 L 363.457 406.957 L 363.457 406.957 Q 360.188 406.289 357.498 405.34 L 357.498 405.34 L 357.498 405.34 Q 354.809 404.391 352.893 403.072 L 352.893 403.072 L 352.893 403.072 Q 350.977 401.754 349.922 399.979 L 349.922 399.979 L 349.922 399.979 Q 348.867 398.203 348.867 395.848 L 348.867 395.848 L 348.867 395.848 Q 348.867 393.527 349.957 391.506 L 349.957 391.506 L 349.957 391.506 Q 351.047 389.484 353.016 387.973 L 353.016 387.973 L 353.016 387.973 Q 354.984 386.461 357.709 385.582 L 357.709 385.582 L 357.709 385.582 Q 360.434 384.703 363.703 384.703 L 363.703 384.703 L 363.703 384.703 Q 367.219 384.703 370.031 385.617 L 370.031 385.617 L 370.031 385.617 Q 372.844 386.531 374.813 388.148 L 374.813 388.148 L 374.813 388.148 Q 376.781 389.766 377.854 391.928 L 377.854 391.928 L 377.854 391.928 Q 378.926 394.09 378.926 396.586 L 378.926 396.586 L 372.422 396.586 L 372.422 396.586 Q 372.422 395.355 371.789 394.178 L 371.789 394.178 L 371.789 394.178 Q 371.156 393 370.031 392.086 L 370.031 392.086 L 370.031 392.086 Q 368.906 391.172 367.307 390.609 L 367.307 390.609 L 367.307 390.609 Q 365.707 390.047 363.703 390.047 L 363.703 390.047 L 363.703 390.047 Q 361.629 390.047 360.064 390.504 L 360.064 390.504 L 360.064 390.504 Q 358.5 390.961 357.463 391.734 L 357.463 391.734 L 357.463 391.734 Q 356.426 392.508 355.898 393.527 L 355.898 393.527 L 355.898 393.527 Q 355.371 394.547 355.371 395.637 L 355.371 395.637 L 355.371 395.637 Q 355.371 396.762 355.793 397.641 L 355.793 397.641 L 355.793 397.641 Q 356.215 398.52 357.252 399.223 L 357.252 399.223 L 357.252 399.223 Q 358.289 399.926 360.029 400.488 L 360.029 400.488 L 360.029 400.488 Q 361.77 401.051 364.441 401.578 L 364.441 401.578 L 364.441 401.578 Q 367.957 402.316 370.734 403.283 L 370.734 403.283 L 370.734 403.283 Q 373.512 404.25 375.41 405.604 L 375.41 405.604 L 375.41 405.604 Q 377.309 406.957 378.311 408.75 L 378.311 408.75 L 378.311 408.75 Q 379.313 410.543 379.313 412.898 L 379.313 412.898 L 379.313 412.898 Q 379.313 415.43 378.17 417.504 L 378.17 417.504 L 378.17 417.504 Q 377.027 419.578 374.988 421.055 L 374.988 421.055 L 374.988 421.055 Q 372.949 422.531 370.102 423.34 L 370.102 423.34 L 370.102 423.34 Q 367.254 424.148 363.879 424.148 L 363.879 424.148 L 363.879 424.148 Q 360.012 424.148 356.988 423.111 L 356.988 423.111 L 356.988 423.111 Q 353.965 422.074 351.873 420.369 L 351.873 420.369 L 351.873 420.369 Q 349.781 418.664 348.674 416.414 L 348.674 416.414 L 348.674 416.414 Q 347.566 414.164 347.566 411.738 L 347.566 411.738 L 354.07 411.738 L 354.07 411.738 Q 354.211 413.742 355.143 415.113 L 355.143 415.113 L 355.143 415.113 Q 356.074 416.484 357.463 417.328 L 357.463 417.328 L 357.463 417.328 Q 358.852 418.172 360.539 418.523 L 360.539 418.523 L 360.539 418.523 Q 362.227 418.875 363.879 418.875 L 363.879 418.875 L 363.879 418.875 Q 367.992 418.875 370.383 417.363 L 370.383 417.363 L 370.383 417.363 Q 372.773 415.852 372.809 413.355 Z " fill-rule="evenodd" fill="rgb(255,255,225)"/></g></svg>