<?xml version="1.0" standalone="no"?><!-- Generator: Gravit.io --><svg xmlns="http://www.w3.org/2000/svg" xmlns:xlink="http://www.w3.org/1999/xlink" style="isolation:isolate" viewBox="0 0 512 512" width="512" height="512"><defs><clipPath id="_clipPath_pSpfVOsGhBCMKp8Jame2DhPOYNCsTGs5"><rect width="512" height="512"/></clipPath></defs><g clip-path="url(#_clipPath_pSpfVOsGhBCMKp8Jame2DhPOYNCsTGs5)"><rect x="0" y="0" width="512" height="512" transform="matrix(1,0,0,1,0,0)" fill="rgb(33,33,33)"/><path d=" M 225.63 243.645 L 252.729 243.645 L 252.729 243.645 Q 250.972 277.922 233.467 296.086 L 233.467 296.086 L 233.467 296.086 Q 215.962 314.25 184.028 314.25 L 184.028 314.25 L 184.028 314.25 Q 151.948 314.25 133.052 289.86 L 133.052 289.86 L 133.052 289.86 Q 114.155 265.471 114.155 223.723 L 114.155 223.723 L 114.155 185.051 L 114.155 185.051 Q 114.155 143.449 133.564 119.279 L 133.564 119.279 L 133.564 119.279 Q 152.974 95.109 186.519 95.109 L 186.519 95.109 L 186.519 95.109 Q 217.427 95.109 234.346 113.64 L 234.346 113.64 L 234.346 113.64 Q 251.265 132.17 252.729 166.594 L 252.729 166.594 L 225.63 166.594 L 225.63 166.594 Q 223.872 140.52 214.644 129.387 L 214.644 129.387 L 214.644 129.387 Q 205.415 118.254 186.519 118.254 L 186.519 118.254 L 186.519 118.254 Q 164.692 118.254 152.974 135.319 L 152.974 135.319 L 152.974 135.319 Q 141.255 152.385 141.255 185.344 L 141.255 185.344 L 141.255 224.455 L 141.255 224.455 Q 141.255 256.828 152.168 274.113 L 152.168 274.113 L 152.168 274.113 Q 163.081 291.398 184.028 291.398 L 184.028 291.398 L 184.028 291.398 Q 204.976 291.398 214.204 280.998 L 214.204 280.998 L 214.204 280.998 Q 223.433 270.598 225.63 243.645 L 225.63 243.645 L 225.63 243.645 Z  M 400.239 224.016 L 400.239 239.689 L 400.239 239.689 Q 400.239 276.75 386.909 295.5 L 386.909 295.5 L 386.909 295.5 Q 373.579 314.25 348.237 314.25 L 348.237 314.25 L 348.237 314.25 Q 323.042 314.25 310.444 292.57 L 310.444 292.57 L 309.126 311.32 L 285.542 311.32 L 285.542 86.32 L 311.323 86.32 L 311.323 170.256 L 311.323 170.256 Q 324.067 149.895 347.944 149.895 L 347.944 149.895 L 347.944 149.895 Q 374.019 149.895 387.056 168.352 L 387.056 168.352 L 387.056 168.352 Q 400.093 186.809 400.239 224.016 L 400.239 224.016 L 400.239 224.016 Z  M 374.458 240.861 L 374.458 224.895 L 374.458 224.895 Q 374.458 196.77 366.621 184.831 L 366.621 184.831 L 366.621 184.831 Q 358.784 172.893 341.206 172.893 L 341.206 172.893 L 341.206 172.893 Q 321.138 172.893 311.323 194.572 L 311.323 194.572 L 311.323 270.012 L 311.323 270.012 Q 320.991 291.398 341.499 291.398 L 341.499 291.398 L 341.499 291.398 Q 359.077 291.398 366.694 279.094 L 366.694 279.094 L 366.694 279.094 Q 374.312 266.789 374.458 240.861 L 374.458 240.861 L 374.458 240.861 Z " fill-rule="evenodd" fill="rgb(255,255,225)"/><path d=" M 61.289 418.875 L 61.289 418.875 L 61.289 418.875 Q 63.047 418.875 64.717 418.313 L 64.717 418.313 L 64.717 418.313 Q 66.387 417.75 67.688 416.748 L 67.688 416.748 L 67.688 416.748 Q 68.988 415.746 69.779 414.393 L 69.779 414.393 L 69.779 414.393 Q 70.57 413.039 70.605 411.457 L 70.605 411.457 L 76.758 411.457 L 76.758 411.457 Q 76.723 413.988 75.439 416.291 L 75.439 416.291 L 75.439 416.291 Q 74.156 418.594 72.012 420.334 L 72.012 420.334 L 72.012 420.334 Q 69.867 422.074 67.09 423.111 L 67.09 423.111 L 67.09 423.111 Q 64.313 424.148 61.289 424.148 L 61.289 424.148 L 61.289 424.148 Q 56.965 424.148 53.73 422.602 L 53.73 422.602 L 53.73 422.602 Q 50.496 421.055 48.334 418.436 L 48.334 418.436 L 48.334 418.436 Q 46.172 415.816 45.082 412.389 L 45.082 412.389 L 45.082 412.389 Q 43.992 408.961 43.992 405.164 L 43.992 405.164 L 43.992 403.688 L 43.992 403.688 Q 43.992 399.926 45.082 396.48 L 45.082 396.48 L 45.082 396.48 Q 46.172 393.035 48.334 390.416 L 48.334 390.416 L 48.334 390.416 Q 50.496 387.797 53.73 386.25 L 53.73 386.25 L 53.73 386.25 Q 56.965 384.703 61.289 384.703 L 61.289 384.703 L 61.289 384.703 Q 64.664 384.703 67.494 385.775 L 67.494 385.775 L 67.494 385.775 Q 70.324 386.848 72.381 388.693 L 72.381 388.693 L 72.381 388.693 Q 74.438 390.539 75.598 393.07 L 75.598 393.07 L 75.598 393.07 Q 76.758 395.602 76.758 398.484 L 76.758 398.484 L 70.605 398.484 L 70.605 398.484 Q 70.57 396.762 69.85 395.232 L 69.85 395.232 L 69.85 395.232 Q 69.129 393.703 67.898 392.543 L 67.898 392.543 L 67.898 392.543 Q 66.668 391.383 64.963 390.715 L 64.963 390.715 L 64.963 390.715 Q 63.258 390.047 61.289 390.047 L 61.289 390.047 L 61.289 390.047 Q 58.266 390.047 56.209 391.26 L 56.209 391.26 L 56.209 391.26 Q 54.152 392.473 52.887 394.424 L 52.887 394.424 L 52.887 394.424 Q 51.621 396.375 51.076 398.801 L 51.076 398.801 L 51.076 398.801 Q 50.531 401.227 50.531 403.688 L 50.531 403.688 L 50.531 405.164 L 50.531 405.164 Q 50.531 407.66 51.076 410.104 L 51.076 410.104 L 51.076 410.104 Q 51.621 412.547 52.869 414.498 L 52.869 414.498 L 52.869 414.498 Q 54.117 416.449 56.174 417.662 L 56.174 417.662 L 56.174 417.662 Q 58.23 418.875 61.289 418.875 Z  M 113.215 384.703 L 113.215 384.703 L 113.215 384.703 Q 114.129 384.703 115.113 384.756 L 115.113 384.756 L 115.113 384.756 Q 116.098 384.809 116.994 384.932 L 116.994 384.932 L 116.994 384.932 Q 117.891 385.055 118.646 385.23 L 118.646 385.23 L 118.646 385.23 Q 119.402 385.406 119.895 385.617 L 119.895 385.617 L 119.016 391.98 L 119.016 391.98 Q 117.117 391.559 115.412 391.365 L 115.412 391.365 L 115.412 391.365 Q 113.707 391.172 111.844 391.172 L 111.844 391.172 L 111.844 391.172 Q 107.273 391.172 104.443 393.246 L 104.443 393.246 L 104.443 393.246 Q 101.613 395.32 100.277 399.047 L 100.277 399.047 L 100.277 423.445 L 93.738 423.445 L 93.738 385.406 L 99.926 385.406 L 100.242 391.453 L 100.242 391.453 Q 102.563 388.324 105.814 386.514 L 105.814 386.514 L 105.814 386.514 Q 109.066 384.703 113.215 384.703 Z  M 156.563 423.445 L 156.176 418.207 L 156.176 418.207 Q 154.277 421.02 151.43 422.584 L 151.43 422.584 L 151.43 422.584 Q 148.582 424.148 144.855 424.148 L 144.855 424.148 L 144.855 424.148 Q 141.867 424.148 139.441 423.217 L 139.441 423.217 L 139.441 423.217 Q 137.016 422.285 135.293 420.316 L 135.293 420.316 L 135.293 420.316 Q 133.57 418.348 132.639 415.307 L 132.639 415.307 L 132.639 415.307 Q 131.707 412.266 131.707 408.012 L 131.707 408.012 L 131.707 385.406 L 138.211 385.406 L 138.211 408.082 L 138.211 408.082 Q 138.211 411.176 138.703 413.215 L 138.703 413.215 L 138.703 413.215 Q 139.195 415.254 140.18 416.467 L 140.18 416.467 L 140.18 416.467 Q 141.164 417.68 142.588 418.172 L 142.588 418.172 L 142.588 418.172 Q 144.012 418.664 145.875 418.664 L 145.875 418.664 L 145.875 418.664 Q 149.848 418.664 152.291 417.047 L 152.291 417.047 L 152.291 417.047 Q 154.734 415.43 155.93 412.688 L 155.93 412.688 L 155.93 385.406 L 162.469 385.406 L 162.469 423.445 L 156.563 423.445 L 156.563 423.445 Z  M 174.703 385.406 L 180.539 385.406 L 180.996 391.031 L 180.996 391.031 Q 183.07 388.078 186.094 386.408 L 186.094 386.408 L 186.094 386.408 Q 189.117 384.738 192.844 384.703 L 192.844 384.703 L 192.844 384.703 Q 195.832 384.703 198.275 385.547 L 198.275 385.547 L 198.275 385.547 Q 200.719 386.391 202.441 388.184 L 202.441 388.184 L 202.441 388.184 Q 204.164 389.977 205.096 392.736 L 205.096 392.736 L 205.096 392.736 Q 206.027 395.496 206.027 399.293 L 206.027 399.293 L 206.027 423.445 L 199.523 423.445 L 199.523 399.434 L 199.523 399.434 Q 199.523 396.902 198.961 395.145 L 198.961 395.145 L 198.961 395.145 Q 198.398 393.387 197.291 392.297 L 197.291 392.297 L 197.291 392.297 Q 196.184 391.207 194.584 390.715 L 194.584 390.715 L 194.584 390.715 Q 192.984 390.223 190.91 390.223 L 190.91 390.223 L 190.91 390.223 Q 187.641 390.223 185.162 391.857 L 185.162 391.857 L 185.162 391.857 Q 182.684 393.492 181.207 396.164 L 181.207 396.164 L 181.207 423.445 L 174.703 423.445 L 174.703 385.406 L 174.703 385.406 Z  M 234.117 418.875 L 234.117 418.875 L 234.117 418.875 Q 235.875 418.875 237.545 418.313 L 237.545 418.313 L 237.545 418.313 Q 239.215 417.75 240.516 416.748 L 240.516 416.748 L 240.516 416.748 Q 241.816 415.746 242.607 414.393 L 242.607 414.393 L 242.607 414.393 Q 243.398 413.039 243.434 411.457 L 243.434 411.457 L 249.586 411.457 L 249.586 411.457 Q 249.551 413.988 248.268 416.291 L 248.268 416.291 L 248.268 416.291 Q 246.984 418.594 244.84 420.334 L 244.84 420.334 L 244.84 420.334 Q 242.695 422.074 239.918 423.111 L 239.918 423.111 L 239.918 423.111 Q 237.141 424.148 234.117 424.148 L 234.117 424.148 L 234.117 424.148 Q 229.793 424.148 226.559 422.602 L 226.559 422.602 L 226.559 422.602 Q 223.324 421.055 221.162 418.436 L 221.162 418.436 L 221.162 418.436 Q 219 415.816 217.91 412.389 L 217.91 412.389 L 217.91 412.389 Q 216.82 408.961 216.82 405.164 L 216.82 405.164 L 216.82 403.688 L 216.82 403.688 Q 216.82 399.926 217.91 396.48 L 217.91 396.48 L 217.91 396.48 Q 219 393.035 221.162 390.416 L 221.162 390.416 L 221.162 390.416 Q 223.324 387.797 226.559 386.25 L 226.559 386.25 L 226.559 386.25 Q 229.793 384.703 234.117 384.703 L 234.117 384.703 L 234.117 384.703 Q 237.492 384.703 240.322 385.775 L 240.322 385.775 L 240.322 385.775 Q 243.152 386.848 245.209 388.693 L 245.209 388.693 L 245.209 388.693 Q 247.266 390.539 248.426 393.07 L 248.426 393.07 L 248.426 393.07 Q 249.586 395.602 249.586 398.484 L 249.586 398.484 L 243.434 398.484 L 243.434 398.484 Q 243.398 396.762 242.678 395.232 L 242.678 395.232 L 242.678 395.232 Q 241.957 393.703 240.727 392.543 L 240.727 392.543 L 240.727 392.543 Q 239.496 391.383 237.791 390.715 L 237.791 390.715 L 237.791 390.715 Q 236.086 390.047 234.117 390.047 L 234.117 390.047 L 234.117 390.047 Q 231.094 390.047 229.037 391.26 L 229.037 391.26 L 229.037 391.26 Q 226.98 392.473 225.715 394.424 L 225.715 394.424 L 225.715 394.424 Q 224.449 396.375 223.904 398.801 L 223.904 398.801 L 223.904 398.801 Q 223.359 401.227 223.359 403.688 L 223.359 403.688 L 223.359 405.164 L 223.359 405.164 Q 223.359 407.66 223.904 410.104 L 223.904 410.104 L 223.904 410.104 Q 224.449 412.547 225.697 414.498 L 225.697 414.498 L 225.697 414.498 Q 226.945 416.449 229.002 417.662 L 229.002 417.662 L 229.002 417.662 Q 231.059 418.875 234.117 418.875 Z  M 267.621 369.445 L 267.621 391.066 L 267.621 391.066 Q 269.66 388.078 272.648 386.408 L 272.648 386.408 L 272.648 386.408 Q 275.637 384.738 279.363 384.703 L 279.363 384.703 L 279.363 384.703 Q 282.352 384.703 284.795 385.564 L 284.795 385.564 L 284.795 385.564 Q 287.238 386.426 288.961 388.254 L 288.961 388.254 L 288.961 388.254 Q 290.684 390.082 291.615 392.877 L 291.615 392.877 L 291.615 392.877 Q 292.547 395.672 292.547 399.504 L 292.547 399.504 L 292.547 423.445 L 286.043 423.445 L 286.043 399.434 L 286.043 399.434 Q 286.043 394.758 283.811 392.473 L 283.811 392.473 L 283.811 392.473 Q 281.578 390.188 277.43 390.223 L 277.43 390.223 L 277.43 390.223 Q 274.301 390.223 271.752 391.752 L 271.752 391.752 L 271.752 391.752 Q 269.203 393.281 267.621 395.813 L 267.621 395.813 L 267.621 423.445 L 261.117 423.445 L 261.117 369.445 L 267.621 369.445 L 267.621 369.445 Z  M 336.563 404.109 L 336.563 404.848 L 336.563 404.848 Q 336.563 408.926 335.578 412.459 L 335.578 412.459 L 335.578 412.459 Q 334.594 415.992 332.695 418.594 L 332.695 418.594 L 332.695 418.594 Q 330.797 421.195 328.002 422.672 L 328.002 422.672 L 328.002 422.672 Q 325.207 424.148 321.586 424.148 L 321.586 424.148 L 321.586 424.148 Q 317.93 424.148 315.24 422.848 L 315.24 422.848 L 315.24 422.848 Q 312.551 421.547 310.652 419.121 L 310.652 419.121 L 310.336 423.445 L 304.359 423.445 L 304.359 369.445 L 310.863 369.445 L 310.863 389.484 L 310.863 389.484 Q 312.727 387.164 315.363 385.934 L 315.363 385.934 L 315.363 385.934 Q 318 384.703 321.516 384.703 L 321.516 384.703 L 321.516 384.703 Q 325.172 384.703 327.984 386.145 L 327.984 386.145 L 327.984 386.145 Q 330.797 387.586 332.695 390.152 L 332.695 390.152 L 332.695 390.152 Q 334.594 392.719 335.578 396.287 L 335.578 396.287 L 335.578 396.287 Q 336.563 399.855 336.563 404.109 L 336.563 404.109 L 336.563 404.109 Z  M 330.059 404.848 L 330.059 404.109 L 330.059 404.109 Q 330.059 401.332 329.514 398.818 L 329.514 398.818 L 329.514 398.818 Q 328.969 396.305 327.773 394.389 L 327.773 394.389 L 327.773 394.389 Q 326.578 392.473 324.645 391.348 L 324.645 391.348 L 324.645 391.348 Q 322.711 390.223 319.898 390.223 L 319.898 390.223 L 319.898 390.223 Q 318.211 390.223 316.805 390.662 L 316.805 390.662 L 316.805 390.662 Q 315.398 391.102 314.291 391.893 L 314.291 391.893 L 314.291 391.893 Q 313.184 392.684 312.322 393.756 L 312.322 393.756 L 312.322 393.756 Q 311.461 394.828 310.863 396.094 L 310.863 396.094 L 310.863 412.723 L 310.863 412.723 Q 311.496 413.988 312.357 415.061 L 312.357 415.061 L 312.357 415.061 Q 313.219 416.133 314.344 416.941 L 314.344 416.941 L 314.344 416.941 Q 315.469 417.75 316.875 418.189 L 316.875 418.189 L 316.875 418.189 Q 318.281 418.629 319.969 418.629 L 319.969 418.629 L 319.969 418.629 Q 322.641 418.629 324.557 417.521 L 324.557 417.521 L 324.557 417.521 Q 326.473 416.414 327.686 414.516 L 327.686 414.516 L 327.686 414.516 Q 328.898 412.617 329.479 410.121 L 329.479 410.121 L 329.479 410.121 Q 330.059 407.625 330.059 404.848 L 330.059 404.848 L 330.059 404.848 Z  M 379.313 423.445 L 372.527 423.445 L 372.527 423.445 Q 372.141 422.707 371.912 421.6 L 371.912 421.6 L 371.912 421.6 Q 371.684 420.492 371.578 419.297 L 371.578 419.297 L 371.578 419.297 Q 370.594 420.281 369.381 421.16 L 369.381 421.16 L 369.381 421.16 Q 368.168 422.039 366.709 422.707 L 366.709 422.707 L 366.709 422.707 Q 365.25 423.375 363.598 423.762 L 363.598 423.762 L 363.598 423.762 Q 361.945 424.148 360.082 424.148 L 360.082 424.148 L 360.082 424.148 Q 357.059 424.148 354.615 423.27 L 354.615 423.27 L 354.615 423.27 Q 352.172 422.391 350.467 420.896 L 350.467 420.896 L 350.467 420.896 Q 348.762 419.402 347.83 417.346 L 347.83 417.346 L 347.83 417.346 Q 346.898 415.289 346.898 412.898 L 346.898 412.898 L 346.898 412.898 Q 346.898 409.77 348.146 407.414 L 348.146 407.414 L 348.146 407.414 Q 349.395 405.059 351.68 403.494 L 351.68 403.494 L 351.68 403.494 Q 353.965 401.93 357.182 401.156 L 357.182 401.156 L 357.182 401.156 Q 360.398 400.383 364.371 400.383 L 364.371 400.383 L 371.473 400.383 L 371.473 397.395 L 371.473 397.395 Q 371.473 395.672 370.84 394.301 L 370.84 394.301 L 370.84 394.301 Q 370.207 392.93 369.047 391.963 L 369.047 391.963 L 369.047 391.963 Q 367.887 390.996 366.217 390.469 L 366.217 390.469 L 366.217 390.469 Q 364.547 389.941 362.473 389.941 L 362.473 389.941 L 362.473 389.941 Q 360.539 389.941 359.01 390.434 L 359.01 390.434 L 359.01 390.434 Q 357.48 390.926 356.426 391.734 L 356.426 391.734 L 356.426 391.734 Q 355.371 392.543 354.791 393.65 L 354.791 393.65 L 354.791 393.65 Q 354.211 394.758 354.211 395.953 L 354.211 395.953 L 347.672 395.953 L 347.672 395.953 Q 347.707 393.879 348.744 391.875 L 348.744 391.875 L 348.744 391.875 Q 349.781 389.871 351.732 388.271 L 351.732 388.271 L 351.732 388.271 Q 353.684 386.672 356.479 385.688 L 356.479 385.688 L 356.479 385.688 Q 359.273 384.703 362.824 384.703 L 362.824 384.703 L 362.824 384.703 Q 366.059 384.703 368.836 385.494 L 368.836 385.494 L 368.836 385.494 Q 371.613 386.285 373.635 387.885 L 373.635 387.885 L 373.635 387.885 Q 375.656 389.484 376.816 391.875 L 376.816 391.875 L 376.816 391.875 Q 377.977 394.266 377.977 397.465 L 377.977 397.465 L 377.977 415.148 L 377.977 415.148 Q 377.977 417.047 378.328 419.174 L 378.328 419.174 L 378.328 419.174 Q 378.68 421.301 379.313 422.883 L 379.313 422.883 L 379.313 423.445 L 379.313 423.445 Z  M 361.031 418.488 L 361.031 418.488 L 361.031 418.488 Q 362.93 418.488 364.582 417.996 L 364.582 417.996 L 364.582 417.996 Q 366.234 417.504 367.588 416.695 L 367.588 416.695 L 367.588 416.695 Q 368.941 415.887 369.926 414.85 L 369.926 414.85 L 369.926 414.85 Q 370.91 413.813 371.473 412.688 L 371.473 412.688 L 371.473 404.988 L 365.426 404.988 L 365.426 404.988 Q 359.73 404.988 356.566 406.676 L 356.566 406.676 L 356.566 406.676 Q 353.402 408.363 353.402 411.984 L 353.402 411.984 L 353.402 411.984 Q 353.402 413.391 353.877 414.586 L 353.877 414.586 L 353.877 414.586 Q 354.352 415.781 355.301 416.643 L 355.301 416.643 L 355.301 416.643 Q 356.25 417.504 357.691 417.996 L 357.691 417.996 L 357.691 417.996 Q 359.133 418.488 361.031 418.488 Z  M 390.738 385.406 L 396.574 385.406 L 397.031 391.031 L 397.031 391.031 Q 399.105 388.078 402.129 386.408 L 402.129 386.408 L 402.129 386.408 Q 405.152 384.738 408.879 384.703 L 408.879 384.703 L 408.879 384.703 Q 411.867 384.703 414.311 385.547 L 414.311 385.547 L 414.311 385.547 Q 416.754 386.391 418.477 388.184 L 418.477 388.184 L 418.477 388.184 Q 420.199 389.977 421.131 392.736 L 421.131 392.736 L 421.131 392.736 Q 422.063 395.496 422.063 399.293 L 422.063 399.293 L 422.063 423.445 L 415.559 423.445 L 415.559 399.434 L 415.559 399.434 Q 415.559 396.902 414.996 395.145 L 414.996 395.145 L 414.996 395.145 Q 414.434 393.387 413.326 392.297 L 413.326 392.297 L 413.326 392.297 Q 412.219 391.207 410.619 390.715 L 410.619 390.715 L 410.619 390.715 Q 409.02 390.223 406.945 390.223 L 406.945 390.223 L 406.945 390.223 Q 403.676 390.223 401.197 391.857 L 401.197 391.857 L 401.197 391.857 Q 398.719 393.492 397.242 396.164 L 397.242 396.164 L 397.242 423.445 L 390.738 423.445 L 390.738 385.406 L 390.738 385.406 Z  M 432.75 404.848 L 432.75 404.109 L 432.75 404.109 Q 432.75 399.855 433.787 396.287 L 433.787 396.287 L 433.787 396.287 Q 434.824 392.719 436.793 390.152 L 436.793 390.152 L 436.793 390.152 Q 438.762 387.586 441.574 386.145 L 441.574 386.145 L 441.574 386.145 Q 444.387 384.703 447.938 384.703 L 447.938 384.703 L 447.938 384.703 Q 451.453 384.703 454.107 385.951 L 454.107 385.951 L 454.107 385.951 Q 456.762 387.199 458.625 389.555 L 458.625 389.555 L 458.941 385.406 L 464.848 385.406 L 464.848 422.637 L 464.848 422.637 Q 464.848 426.398 463.67 429.316 L 463.67 429.316 L 463.67 429.316 Q 462.492 432.234 460.365 434.273 L 460.365 434.273 L 460.365 434.273 Q 458.238 436.313 455.285 437.367 L 455.285 437.367 L 455.285 437.367 Q 452.332 438.422 448.746 438.422 L 448.746 438.422 L 448.746 438.422 Q 447.27 438.422 445.371 438.088 L 445.371 438.088 L 445.371 438.088 Q 443.473 437.754 441.521 436.998 L 441.521 436.998 L 441.521 436.998 Q 439.57 436.242 437.76 434.977 L 437.76 434.977 L 437.76 434.977 Q 435.949 433.711 434.648 431.848 L 434.648 431.848 L 438.023 427.945 L 438.023 427.945 Q 439.219 429.387 440.484 430.389 L 440.484 430.389 L 440.484 430.389 Q 441.75 431.391 443.051 431.988 L 443.051 431.988 L 443.051 431.988 Q 444.352 432.586 445.652 432.85 L 445.652 432.85 L 445.652 432.85 Q 446.953 433.113 448.254 433.113 L 448.254 433.113 L 448.254 433.113 Q 450.574 433.113 452.438 432.445 L 452.438 432.445 L 452.438 432.445 Q 454.301 431.777 455.619 430.494 L 455.619 430.494 L 455.619 430.494 Q 456.938 429.211 457.641 427.313 L 457.641 427.313 L 457.641 427.313 Q 458.344 425.414 458.344 422.953 L 458.344 422.953 L 458.344 419.684 L 458.344 419.684 Q 456.445 421.863 453.861 423.006 L 453.861 423.006 L 453.861 423.006 Q 451.277 424.148 447.867 424.148 L 447.867 424.148 L 447.867 424.148 Q 444.387 424.148 441.574 422.672 L 441.574 422.672 L 441.574 422.672 Q 438.762 421.195 436.811 418.594 L 436.811 418.594 L 436.811 418.594 Q 434.859 415.992 433.805 412.459 L 433.805 412.459 L 433.805 412.459 Q 432.75 408.926 432.75 404.848 L 432.75 404.848 L 432.75 404.848 Z  M 439.254 404.109 L 439.254 404.848 L 439.254 404.848 Q 439.254 407.625 439.834 410.121 L 439.834 410.121 L 439.834 410.121 Q 440.414 412.617 441.662 414.516 L 441.662 414.516 L 441.662 414.516 Q 442.91 416.414 444.844 417.521 L 444.844 417.521 L 444.844 417.521 Q 446.777 418.629 449.484 418.629 L 449.484 418.629 L 449.484 418.629 Q 451.172 418.629 452.525 418.225 L 452.525 418.225 L 452.525 418.225 Q 453.879 417.82 454.951 417.082 L 454.951 417.082 L 454.951 417.082 Q 456.023 416.344 456.867 415.324 L 456.867 415.324 L 456.867 415.324 Q 457.711 414.305 458.344 413.074 L 458.344 413.074 L 458.344 395.637 L 458.344 395.637 Q 457.711 394.441 456.867 393.457 L 456.867 393.457 L 456.867 393.457 Q 456.023 392.473 454.934 391.752 L 454.934 391.752 L 454.934 391.752 Q 453.844 391.031 452.508 390.627 L 452.508 390.627 L 452.508 390.627 Q 451.172 390.223 449.555 390.223 L 449.555 390.223 L 449.555 390.223 Q 446.813 390.223 444.861 391.348 L 444.861 391.348 L 444.861 391.348 Q 442.91 392.473 441.662 394.389 L 441.662 394.389 L 441.662 394.389 Q 440.414 396.305 439.834 398.818 L 439.834 398.818 L 439.834 398.818 Q 439.254 401.332 439.254 404.109 L 439.254 404.109 L 439.254 404.109 Z " fill-rule="evenodd" fill="rgb(255,255,225)"/></g></svg>