<?xml version="1.0" standalone="no"?><!-- Generator: Gravit.io --><svg xmlns="http://www.w3.org/2000/svg" xmlns:xlink="http://www.w3.org/1999/xlink" style="isolation:isolate" viewBox="0 0 512 512" width="512" height="512"><defs><clipPath id="_clipPath_GfxkYzjQY4qe2lGA4TdWJY9x8sqXnKbC"><rect width="512" height="512"/></clipPath></defs><g clip-path="url(#_clipPath_GfxkYzjQY4qe2lGA4TdWJY9x8sqXnKbC)"><rect x="0" y="0" width="512" height="512" transform="matrix(1,0,0,1,0,0)" fill="rgb(68,138,255)"/><path d=" M 271.406 189.738 L 271.406 212.736 L 195.967 212.736 L 195.967 288.322 L 283.857 288.322 L 283.857 311.32 L 169.16 311.32 L 169.16 98.039 L 282.393 98.039 L 282.393 121.184 L 195.967 121.184 L 195.967 189.738 L 271.406 189.738 L 271.406 189.738 Z  M 342.451 86.32 L 342.451 311.32 L 316.523 311.32 L 316.523 86.32 L 342.451 86.32 L 342.451 86.32 Z " fill-rule="evenodd" fill="rgb(255,255,225)"/><path d=" M 61.887 424.148 L 61.887 424.148 L 61.887 424.148 Q 57.879 424.148 54.521 422.777 L 54.521 422.777 L 54.521 422.777 Q 51.164 421.406 48.773 418.945 L 48.773 418.945 L 48.773 418.945 Q 46.383 416.484 45.047 413.109 L 45.047 413.109 L 45.047 413.109 Q 43.711 409.734 43.711 405.762 L 43.711 405.762 L 43.711 404.285 L 43.711 404.285 Q 43.711 399.68 45.188 396.041 L 45.188 396.041 L 45.188 396.041 Q 46.664 392.402 49.107 389.889 L 49.107 389.889 L 49.107 389.889 Q 51.551 387.375 54.662 386.039 L 54.662 386.039 L 54.662 386.039 Q 57.773 384.703 61.043 384.703 L 61.043 384.703 L 61.043 384.703 Q 65.156 384.703 68.232 386.127 L 68.232 386.127 L 68.232 386.127 Q 71.309 387.551 73.348 390.064 L 73.348 390.064 L 73.348 390.064 Q 75.387 392.578 76.389 395.988 L 76.389 395.988 L 76.389 395.988 Q 77.391 399.398 77.391 403.371 L 77.391 403.371 L 77.391 406.289 L 50.215 406.289 L 50.215 406.289 Q 50.32 408.891 51.217 411.176 L 51.217 411.176 L 51.217 411.176 Q 52.113 413.461 53.678 415.166 L 53.678 415.166 L 53.678 415.166 Q 55.242 416.871 57.422 417.855 L 57.422 417.855 L 57.422 417.855 Q 59.602 418.84 62.238 418.84 L 62.238 418.84 L 62.238 418.84 Q 65.719 418.84 68.426 417.434 L 68.426 417.434 L 68.426 417.434 Q 71.133 416.027 72.926 413.707 L 72.926 413.707 L 76.898 416.801 L 76.898 416.801 Q 75.949 418.242 74.525 419.561 L 74.525 419.561 L 74.525 419.561 Q 73.102 420.879 71.238 421.898 L 71.238 421.898 L 71.238 421.898 Q 69.375 422.918 67.02 423.533 L 67.02 423.533 L 67.02 423.533 Q 64.664 424.148 61.887 424.148 Z  M 61.043 390.047 L 61.043 390.047 L 61.043 390.047 Q 59.074 390.047 57.316 390.768 L 57.316 390.768 L 57.316 390.768 Q 55.559 391.488 54.152 392.877 L 54.152 392.877 L 54.152 392.877 Q 52.746 394.266 51.779 396.287 L 51.779 396.287 L 51.779 396.287 Q 50.813 398.309 50.426 400.945 L 50.426 400.945 L 70.887 400.945 L 70.887 400.453 L 70.887 400.453 Q 70.781 398.555 70.166 396.691 L 70.166 396.691 L 70.166 396.691 Q 69.551 394.828 68.355 393.352 L 68.355 393.352 L 68.355 393.352 Q 67.16 391.875 65.35 390.961 L 65.35 390.961 L 65.35 390.961 Q 63.539 390.047 61.043 390.047 Z  M 89.309 375.105 L 89.309 369.445 L 108.75 369.445 L 108.75 417.82 L 121.16 417.82 L 121.16 423.445 L 89.309 423.445 L 89.309 417.82 L 102.246 417.82 L 102.246 375.105 L 89.309 375.105 L 89.309 375.105 Z  M 148.301 424.148 L 148.301 424.148 L 148.301 424.148 Q 144.293 424.148 140.936 422.777 L 140.936 422.777 L 140.936 422.777 Q 137.578 421.406 135.188 418.945 L 135.188 418.945 L 135.188 418.945 Q 132.797 416.484 131.461 413.109 L 131.461 413.109 L 131.461 413.109 Q 130.125 409.734 130.125 405.762 L 130.125 405.762 L 130.125 404.285 L 130.125 404.285 Q 130.125 399.68 131.602 396.041 L 131.602 396.041 L 131.602 396.041 Q 133.078 392.402 135.521 389.889 L 135.521 389.889 L 135.521 389.889 Q 137.965 387.375 141.076 386.039 L 141.076 386.039 L 141.076 386.039 Q 144.188 384.703 147.457 384.703 L 147.457 384.703 L 147.457 384.703 Q 151.57 384.703 154.646 386.127 L 154.646 386.127 L 154.646 386.127 Q 157.723 387.551 159.762 390.064 L 159.762 390.064 L 159.762 390.064 Q 161.801 392.578 162.803 395.988 L 162.803 395.988 L 162.803 395.988 Q 163.805 399.398 163.805 403.371 L 163.805 403.371 L 163.805 406.289 L 136.629 406.289 L 136.629 406.289 Q 136.734 408.891 137.631 411.176 L 137.631 411.176 L 137.631 411.176 Q 138.527 413.461 140.092 415.166 L 140.092 415.166 L 140.092 415.166 Q 141.656 416.871 143.836 417.855 L 143.836 417.855 L 143.836 417.855 Q 146.016 418.84 148.652 418.84 L 148.652 418.84 L 148.652 418.84 Q 152.133 418.84 154.84 417.434 L 154.84 417.434 L 154.84 417.434 Q 157.547 416.027 159.34 413.707 L 159.34 413.707 L 163.313 416.801 L 163.313 416.801 Q 162.363 418.242 160.939 419.561 L 160.939 419.561 L 160.939 419.561 Q 159.516 420.879 157.652 421.898 L 157.652 421.898 L 157.652 421.898 Q 155.789 422.918 153.434 423.533 L 153.434 423.533 L 153.434 423.533 Q 151.078 424.148 148.301 424.148 Z  M 147.457 390.047 L 147.457 390.047 L 147.457 390.047 Q 145.488 390.047 143.73 390.768 L 143.73 390.768 L 143.73 390.768 Q 141.973 391.488 140.566 392.877 L 140.566 392.877 L 140.566 392.877 Q 139.16 394.266 138.193 396.287 L 138.193 396.287 L 138.193 396.287 Q 137.227 398.309 136.84 400.945 L 136.84 400.945 L 157.301 400.945 L 157.301 400.453 L 157.301 400.453 Q 157.195 398.555 156.58 396.691 L 156.58 396.691 L 156.58 396.691 Q 155.965 394.828 154.77 393.352 L 154.77 393.352 L 154.77 393.352 Q 153.574 391.875 151.764 390.961 L 151.764 390.961 L 151.764 390.961 Q 149.953 390.047 147.457 390.047 Z  M 171.855 385.406 L 177.691 385.406 L 177.867 388.992 L 177.867 388.992 Q 179.027 386.988 180.908 385.863 L 180.908 385.863 L 180.908 385.863 Q 182.789 384.738 185.461 384.703 L 185.461 384.703 L 185.461 384.703 Q 190.699 384.703 192.457 388.781 L 192.457 388.781 L 192.457 388.781 Q 193.582 386.953 195.428 385.846 L 195.428 385.846 L 195.428 385.846 Q 197.273 384.738 199.91 384.703 L 199.91 384.703 L 199.91 384.703 Q 204.094 384.703 206.344 387.27 L 206.344 387.27 L 206.344 387.27 Q 208.594 389.836 208.594 395.039 L 208.594 395.039 L 208.594 423.445 L 202.406 423.445 L 202.406 394.969 L 202.406 394.969 Q 202.406 390.188 198.012 390.223 L 198.012 390.223 L 198.012 390.223 Q 196.852 390.223 196.008 390.539 L 196.008 390.539 L 196.008 390.539 Q 195.164 390.855 194.602 391.4 L 194.602 391.4 L 194.602 391.4 Q 194.039 391.945 193.723 392.666 L 193.723 392.666 L 193.723 392.666 Q 193.406 393.387 193.301 394.16 L 193.301 394.16 L 193.301 423.445 L 187.113 423.445 L 187.113 394.934 L 187.113 394.934 Q 187.113 392.648 186.094 391.418 L 186.094 391.418 L 186.094 391.418 Q 185.074 390.188 182.859 390.223 L 182.859 390.223 L 182.859 390.223 Q 180.82 390.223 179.695 391.031 L 179.695 391.031 L 179.695 391.031 Q 178.57 391.84 178.043 393.176 L 178.043 393.176 L 178.043 423.445 L 171.855 423.445 L 171.855 385.406 L 171.855 385.406 Z  M 234.715 424.148 L 234.715 424.148 L 234.715 424.148 Q 230.707 424.148 227.35 422.777 L 227.35 422.777 L 227.35 422.777 Q 223.992 421.406 221.602 418.945 L 221.602 418.945 L 221.602 418.945 Q 219.211 416.484 217.875 413.109 L 217.875 413.109 L 217.875 413.109 Q 216.539 409.734 216.539 405.762 L 216.539 405.762 L 216.539 404.285 L 216.539 404.285 Q 216.539 399.68 218.016 396.041 L 218.016 396.041 L 218.016 396.041 Q 219.492 392.402 221.936 389.889 L 221.936 389.889 L 221.936 389.889 Q 224.379 387.375 227.49 386.039 L 227.49 386.039 L 227.49 386.039 Q 230.602 384.703 233.871 384.703 L 233.871 384.703 L 233.871 384.703 Q 237.984 384.703 241.061 386.127 L 241.061 386.127 L 241.061 386.127 Q 244.137 387.551 246.176 390.064 L 246.176 390.064 L 246.176 390.064 Q 248.215 392.578 249.217 395.988 L 249.217 395.988 L 249.217 395.988 Q 250.219 399.398 250.219 403.371 L 250.219 403.371 L 250.219 406.289 L 223.043 406.289 L 223.043 406.289 Q 223.148 408.891 224.045 411.176 L 224.045 411.176 L 224.045 411.176 Q 224.941 413.461 226.506 415.166 L 226.506 415.166 L 226.506 415.166 Q 228.07 416.871 230.25 417.855 L 230.25 417.855 L 230.25 417.855 Q 232.43 418.84 235.066 418.84 L 235.066 418.84 L 235.066 418.84 Q 238.547 418.84 241.254 417.434 L 241.254 417.434 L 241.254 417.434 Q 243.961 416.027 245.754 413.707 L 245.754 413.707 L 249.727 416.801 L 249.727 416.801 Q 248.777 418.242 247.354 419.561 L 247.354 419.561 L 247.354 419.561 Q 245.93 420.879 244.066 421.898 L 244.066 421.898 L 244.066 421.898 Q 242.203 422.918 239.848 423.533 L 239.848 423.533 L 239.848 423.533 Q 237.492 424.148 234.715 424.148 Z  M 233.871 390.047 L 233.871 390.047 L 233.871 390.047 Q 231.902 390.047 230.145 390.768 L 230.145 390.768 L 230.145 390.768 Q 228.387 391.488 226.98 392.877 L 226.98 392.877 L 226.98 392.877 Q 225.574 394.266 224.607 396.287 L 224.607 396.287 L 224.607 396.287 Q 223.641 398.309 223.254 400.945 L 223.254 400.945 L 243.715 400.945 L 243.715 400.453 L 243.715 400.453 Q 243.609 398.555 242.994 396.691 L 242.994 396.691 L 242.994 396.691 Q 242.379 394.828 241.184 393.352 L 241.184 393.352 L 241.184 393.352 Q 239.988 391.875 238.178 390.961 L 238.178 390.961 L 238.178 390.961 Q 236.367 390.047 233.871 390.047 Z  M 261.117 385.406 L 266.953 385.406 L 267.41 391.031 L 267.41 391.031 Q 269.484 388.078 272.508 386.408 L 272.508 386.408 L 272.508 386.408 Q 275.531 384.738 279.258 384.703 L 279.258 384.703 L 279.258 384.703 Q 282.246 384.703 284.689 385.547 L 284.689 385.547 L 284.689 385.547 Q 287.133 386.391 288.855 388.184 L 288.855 388.184 L 288.855 388.184 Q 290.578 389.977 291.51 392.736 L 291.51 392.736 L 291.51 392.736 Q 292.441 395.496 292.441 399.293 L 292.441 399.293 L 292.441 423.445 L 285.938 423.445 L 285.938 399.434 L 285.938 399.434 Q 285.938 396.902 285.375 395.145 L 285.375 395.145 L 285.375 395.145 Q 284.813 393.387 283.705 392.297 L 283.705 392.297 L 283.705 392.297 Q 282.598 391.207 280.998 390.715 L 280.998 390.715 L 280.998 390.715 Q 279.398 390.223 277.324 390.223 L 277.324 390.223 L 277.324 390.223 Q 274.055 390.223 271.576 391.857 L 271.576 391.857 L 271.576 391.857 Q 269.098 393.492 267.621 396.164 L 267.621 396.164 L 267.621 423.445 L 261.117 423.445 L 261.117 385.406 L 261.117 385.406 Z  M 313.184 376.195 L 319.723 376.195 L 319.723 385.406 L 334.207 385.406 L 334.207 390.434 L 319.723 390.434 L 319.723 411.105 L 319.723 411.105 Q 319.723 413.32 320.285 414.762 L 320.285 414.762 L 320.285 414.762 Q 320.848 416.203 321.832 417.064 L 321.832 417.064 L 321.832 417.064 Q 322.816 417.926 324.1 418.277 L 324.1 418.277 L 324.1 418.277 Q 325.383 418.629 326.824 418.629 L 326.824 418.629 L 326.824 418.629 Q 327.879 418.629 329.004 418.506 L 329.004 418.506 L 329.004 418.506 Q 330.129 418.383 331.201 418.207 L 331.201 418.207 L 331.201 418.207 Q 332.273 418.031 333.205 417.838 L 333.205 417.838 L 333.205 417.838 Q 334.137 417.645 334.734 417.504 L 334.734 417.504 L 335.648 422.109 L 335.648 422.109 Q 334.84 422.602 333.68 422.971 L 333.68 422.971 L 333.68 422.971 Q 332.52 423.34 331.148 423.604 L 331.148 423.604 L 331.148 423.604 Q 329.777 423.867 328.248 424.008 L 328.248 424.008 L 328.248 424.008 Q 326.719 424.148 325.207 424.148 L 325.207 424.148 L 325.207 424.148 Q 322.676 424.148 320.479 423.428 L 320.479 423.428 L 320.479 423.428 Q 318.281 422.707 316.664 421.143 L 316.664 421.143 L 316.664 421.143 Q 315.047 419.578 314.115 417.1 L 314.115 417.1 L 314.115 417.1 Q 313.184 414.621 313.184 411.105 L 313.184 411.105 L 313.184 390.434 L 303.199 390.434 L 303.199 385.406 L 313.184 385.406 L 313.184 376.195 L 313.184 376.195 Z  M 379.313 423.445 L 372.527 423.445 L 372.527 423.445 Q 372.141 422.707 371.912 421.6 L 371.912 421.6 L 371.912 421.6 Q 371.684 420.492 371.578 419.297 L 371.578 419.297 L 371.578 419.297 Q 370.594 420.281 369.381 421.16 L 369.381 421.16 L 369.381 421.16 Q 368.168 422.039 366.709 422.707 L 366.709 422.707 L 366.709 422.707 Q 365.25 423.375 363.598 423.762 L 363.598 423.762 L 363.598 423.762 Q 361.945 424.148 360.082 424.148 L 360.082 424.148 L 360.082 424.148 Q 357.059 424.148 354.615 423.27 L 354.615 423.27 L 354.615 423.27 Q 352.172 422.391 350.467 420.896 L 350.467 420.896 L 350.467 420.896 Q 348.762 419.402 347.83 417.346 L 347.83 417.346 L 347.83 417.346 Q 346.898 415.289 346.898 412.898 L 346.898 412.898 L 346.898 412.898 Q 346.898 409.77 348.146 407.414 L 348.146 407.414 L 348.146 407.414 Q 349.395 405.059 351.68 403.494 L 351.68 403.494 L 351.68 403.494 Q 353.965 401.93 357.182 401.156 L 357.182 401.156 L 357.182 401.156 Q 360.398 400.383 364.371 400.383 L 364.371 400.383 L 371.473 400.383 L 371.473 397.395 L 371.473 397.395 Q 371.473 395.672 370.84 394.301 L 370.84 394.301 L 370.84 394.301 Q 370.207 392.93 369.047 391.963 L 369.047 391.963 L 369.047 391.963 Q 367.887 390.996 366.217 390.469 L 366.217 390.469 L 366.217 390.469 Q 364.547 389.941 362.473 389.941 L 362.473 389.941 L 362.473 389.941 Q 360.539 389.941 359.01 390.434 L 359.01 390.434 L 359.01 390.434 Q 357.48 390.926 356.426 391.734 L 356.426 391.734 L 356.426 391.734 Q 355.371 392.543 354.791 393.65 L 354.791 393.65 L 354.791 393.65 Q 354.211 394.758 354.211 395.953 L 354.211 395.953 L 347.672 395.953 L 347.672 395.953 Q 347.707 393.879 348.744 391.875 L 348.744 391.875 L 348.744 391.875 Q 349.781 389.871 351.732 388.271 L 351.732 388.271 L 351.732 388.271 Q 353.684 386.672 356.479 385.688 L 356.479 385.688 L 356.479 385.688 Q 359.273 384.703 362.824 384.703 L 362.824 384.703 L 362.824 384.703 Q 366.059 384.703 368.836 385.494 L 368.836 385.494 L 368.836 385.494 Q 371.613 386.285 373.635 387.885 L 373.635 387.885 L 373.635 387.885 Q 375.656 389.484 376.816 391.875 L 376.816 391.875 L 376.816 391.875 Q 377.977 394.266 377.977 397.465 L 377.977 397.465 L 377.977 415.148 L 377.977 415.148 Q 377.977 417.047 378.328 419.174 L 378.328 419.174 L 378.328 419.174 Q 378.68 421.301 379.313 422.883 L 379.313 422.883 L 379.313 423.445 L 379.313 423.445 Z  M 361.031 418.488 L 361.031 418.488 L 361.031 418.488 Q 362.93 418.488 364.582 417.996 L 364.582 417.996 L 364.582 417.996 Q 366.234 417.504 367.588 416.695 L 367.588 416.695 L 367.588 416.695 Q 368.941 415.887 369.926 414.85 L 369.926 414.85 L 369.926 414.85 Q 370.91 413.813 371.473 412.688 L 371.473 412.688 L 371.473 404.988 L 365.426 404.988 L 365.426 404.988 Q 359.73 404.988 356.566 406.676 L 356.566 406.676 L 356.566 406.676 Q 353.402 408.363 353.402 411.984 L 353.402 411.984 L 353.402 411.984 Q 353.402 413.391 353.877 414.586 L 353.877 414.586 L 353.877 414.586 Q 354.352 415.781 355.301 416.643 L 355.301 416.643 L 355.301 416.643 Q 356.25 417.504 357.691 417.996 L 357.691 417.996 L 357.691 417.996 Q 359.133 418.488 361.031 418.488 Z  M 415.664 384.703 L 415.664 384.703 L 415.664 384.703 Q 416.578 384.703 417.563 384.756 L 417.563 384.756 L 417.563 384.756 Q 418.547 384.809 419.443 384.932 L 419.443 384.932 L 419.443 384.932 Q 420.34 385.055 421.096 385.23 L 421.096 385.23 L 421.096 385.23 Q 421.852 385.406 422.344 385.617 L 422.344 385.617 L 421.465 391.98 L 421.465 391.98 Q 419.566 391.559 417.861 391.365 L 417.861 391.365 L 417.861 391.365 Q 416.156 391.172 414.293 391.172 L 414.293 391.172 L 414.293 391.172 Q 409.723 391.172 406.893 393.246 L 406.893 393.246 L 406.893 393.246 Q 404.063 395.32 402.727 399.047 L 402.727 399.047 L 402.727 423.445 L 396.188 423.445 L 396.188 385.406 L 402.375 385.406 L 402.691 391.453 L 402.691 391.453 Q 405.012 388.324 408.264 386.514 L 408.264 386.514 L 408.264 386.514 Q 411.516 384.703 415.664 384.703 Z  M 437.496 385.406 L 447.938 409.945 L 449.625 414.551 L 461.227 385.406 L 468.504 385.406 L 449.203 429.316 L 449.203 429.316 Q 448.535 430.793 447.498 432.445 L 447.498 432.445 L 447.498 432.445 Q 446.461 434.098 444.984 435.504 L 444.984 435.504 L 444.984 435.504 Q 443.508 436.91 441.539 437.859 L 441.539 437.859 L 441.539 437.859 Q 439.57 438.809 437.004 438.809 L 437.004 438.809 L 437.004 438.809 Q 436.547 438.809 435.984 438.756 L 435.984 438.756 L 435.984 438.756 Q 435.422 438.703 434.859 438.615 L 434.859 438.615 L 434.859 438.615 Q 434.297 438.527 433.805 438.422 L 433.805 438.422 L 433.805 438.422 Q 433.313 438.316 432.996 438.246 L 432.996 438.246 L 434.051 432.938 L 434.051 432.938 Q 434.297 432.938 434.719 432.973 L 434.719 432.973 L 434.719 432.973 Q 435.141 433.008 435.598 433.043 L 435.598 433.043 L 435.598 433.043 Q 436.055 433.078 436.477 433.096 L 436.477 433.096 L 436.477 433.096 Q 436.898 433.113 437.145 433.113 L 437.145 433.113 L 437.145 433.113 Q 438.48 433.113 439.588 432.375 L 439.588 432.375 L 439.588 432.375 Q 440.695 431.637 441.557 430.617 L 441.557 430.617 L 441.557 430.617 Q 442.418 429.598 443.033 428.508 L 443.033 428.508 L 443.033 428.508 Q 443.648 427.418 444 426.715 L 444 426.715 L 446.602 421.652 L 430.219 385.406 L 437.496 385.406 L 437.496 385.406 Z " fill-rule="evenodd" fill="rgb(255,255,225)"/></g></svg>