<?xml version="1.0" standalone="no"?><!-- Generator: Gravit.io --><svg xmlns="http://www.w3.org/2000/svg" xmlns:xlink="http://www.w3.org/1999/xlink" style="isolation:isolate" viewBox="0 0 512 512" width="512" height="512"><defs><clipPath id="_clipPath_UtMGq1Bp9vPGxdyFi1MXl1YuNn9ZOrY1"><rect width="512" height="512"/></clipPath></defs><g clip-path="url(#_clipPath_UtMGq1Bp9vPGxdyFi1MXl1YuNn9ZOrY1)"><rect x="0" y="0" width="512" height="512" transform="matrix(1,0,0,1,0,0)" fill="rgb(69,39,160)"/><path d=" M 234.565 194.133 L 234.565 217.131 L 162.495 217.131 L 162.495 311.32 L 135.688 311.32 L 135.688 98.039 L 246.724 98.039 L 246.724 121.184 L 162.495 121.184 L 162.495 194.133 L 234.565 194.133 L 234.565 194.133 Z  M 332.856 314.25 L 332.856 314.25 L 332.856 314.25 Q 303.267 314.25 287.446 296.599 L 287.446 296.599 L 287.446 296.599 Q 271.626 278.947 271.333 244.816 L 271.333 244.816 L 271.333 225.627 L 271.333 225.627 Q 271.333 190.178 286.787 170.036 L 286.787 170.036 L 286.787 170.036 Q 302.241 149.895 329.927 149.895 L 329.927 149.895 L 329.927 149.895 Q 357.759 149.895 371.528 167.619 L 371.528 167.619 L 371.528 167.619 Q 385.298 185.344 385.591 222.844 L 385.591 222.844 L 385.591 239.836 L 297.114 239.836 L 297.114 243.498 L 297.114 243.498 Q 297.114 268.986 306.709 280.559 L 306.709 280.559 L 306.709 280.559 Q 316.304 292.131 334.321 292.131 L 334.321 292.131 L 334.321 292.131 Q 345.747 292.131 354.463 287.81 L 354.463 287.81 L 354.463 287.81 Q 363.179 283.488 370.796 274.113 L 370.796 274.113 L 384.272 290.52 L 384.272 290.52 Q 367.427 314.25 332.856 314.25 Z  M 329.927 172.16 L 329.927 172.16 L 329.927 172.16 Q 313.813 172.16 306.05 183.22 L 306.05 183.22 L 306.05 183.22 Q 298.286 194.279 297.261 217.57 L 297.261 217.57 L 359.663 217.57 L 359.663 214.055 L 359.663 214.055 Q 358.638 191.496 351.533 181.828 L 351.533 181.828 L 351.533 181.828 Q 344.429 172.16 329.927 172.16 Z " fill-rule="evenodd" fill="rgb(255,255,225)"/><path d=" M 147.721 423.445 L 141.182 423.445 L 141.182 390.434 L 130.705 390.434 L 130.705 385.406 L 141.182 385.406 L 141.182 382.734 L 141.182 382.734 Q 141.182 379.078 142.254 376.318 L 142.254 376.318 L 142.254 376.318 Q 143.326 373.559 145.277 371.695 L 145.277 371.695 L 145.277 371.695 Q 147.229 369.832 149.971 368.883 L 149.971 368.883 L 149.971 368.883 Q 152.713 367.934 156.088 367.934 L 156.088 367.934 L 156.088 367.934 Q 158.408 367.934 160.605 368.32 L 160.605 368.32 L 160.605 368.32 Q 162.803 368.707 165.123 369.305 L 165.123 369.305 L 164.35 374.684 L 164.35 374.684 Q 162.908 374.191 160.992 373.822 L 160.992 373.822 L 160.992 373.822 Q 159.076 373.453 156.896 373.453 L 156.896 373.453 L 156.896 373.453 Q 152.326 373.488 150.023 375.773 L 150.023 375.773 L 150.023 375.773 Q 147.721 378.059 147.721 382.734 L 147.721 382.734 L 147.721 385.406 L 162.381 385.406 L 162.381 390.434 L 147.721 390.434 L 147.721 423.445 L 147.721 423.445 Z  M 191.525 424.148 L 191.525 424.148 L 191.525 424.148 Q 187.518 424.148 184.16 422.777 L 184.16 422.777 L 184.16 422.777 Q 180.803 421.406 178.412 418.945 L 178.412 418.945 L 178.412 418.945 Q 176.021 416.484 174.686 413.109 L 174.686 413.109 L 174.686 413.109 Q 173.35 409.734 173.35 405.762 L 173.35 405.762 L 173.35 404.285 L 173.35 404.285 Q 173.35 399.68 174.826 396.041 L 174.826 396.041 L 174.826 396.041 Q 176.303 392.402 178.746 389.889 L 178.746 389.889 L 178.746 389.889 Q 181.189 387.375 184.301 386.039 L 184.301 386.039 L 184.301 386.039 Q 187.412 384.703 190.682 384.703 L 190.682 384.703 L 190.682 384.703 Q 194.795 384.703 197.871 386.127 L 197.871 386.127 L 197.871 386.127 Q 200.947 387.551 202.986 390.064 L 202.986 390.064 L 202.986 390.064 Q 205.025 392.578 206.027 395.988 L 206.027 395.988 L 206.027 395.988 Q 207.029 399.398 207.029 403.371 L 207.029 403.371 L 207.029 406.289 L 179.854 406.289 L 179.854 406.289 Q 179.959 408.891 180.855 411.176 L 180.855 411.176 L 180.855 411.176 Q 181.752 413.461 183.316 415.166 L 183.316 415.166 L 183.316 415.166 Q 184.881 416.871 187.061 417.855 L 187.061 417.855 L 187.061 417.855 Q 189.24 418.84 191.877 418.84 L 191.877 418.84 L 191.877 418.84 Q 195.357 418.84 198.064 417.434 L 198.064 417.434 L 198.064 417.434 Q 200.771 416.027 202.564 413.707 L 202.564 413.707 L 206.537 416.801 L 206.537 416.801 Q 205.588 418.242 204.164 419.561 L 204.164 419.561 L 204.164 419.561 Q 202.74 420.879 200.877 421.898 L 200.877 421.898 L 200.877 421.898 Q 199.014 422.918 196.658 423.533 L 196.658 423.533 L 196.658 423.533 Q 194.303 424.148 191.525 424.148 Z  M 190.682 390.047 L 190.682 390.047 L 190.682 390.047 Q 188.713 390.047 186.955 390.768 L 186.955 390.768 L 186.955 390.768 Q 185.197 391.488 183.791 392.877 L 183.791 392.877 L 183.791 392.877 Q 182.385 394.266 181.418 396.287 L 181.418 396.287 L 181.418 396.287 Q 180.451 398.309 180.064 400.945 L 180.064 400.945 L 200.525 400.945 L 200.525 400.453 L 200.525 400.453 Q 200.42 398.555 199.805 396.691 L 199.805 396.691 L 199.805 396.691 Q 199.189 394.828 197.994 393.352 L 197.994 393.352 L 197.994 393.352 Q 196.799 391.875 194.988 390.961 L 194.988 390.961 L 194.988 390.961 Q 193.178 390.047 190.682 390.047 Z  M 216.697 404.848 L 216.697 404.109 L 216.697 404.109 Q 216.697 399.855 217.77 396.287 L 217.77 396.287 L 217.77 396.287 Q 218.842 392.719 220.828 390.152 L 220.828 390.152 L 220.828 390.152 Q 222.814 387.586 225.627 386.145 L 225.627 386.145 L 225.627 386.145 Q 228.439 384.703 231.92 384.703 L 231.92 384.703 L 231.92 384.703 Q 235.33 384.703 237.879 385.846 L 237.879 385.846 L 237.879 385.846 Q 240.428 386.988 242.291 389.168 L 242.291 389.168 L 242.291 369.445 L 248.795 369.445 L 248.795 423.445 L 242.818 423.445 L 242.537 419.438 L 242.537 419.438 Q 240.639 421.758 238.002 422.953 L 238.002 422.953 L 238.002 422.953 Q 235.365 424.148 231.85 424.148 L 231.85 424.148 L 231.85 424.148 Q 228.404 424.148 225.609 422.672 L 225.609 422.672 L 225.609 422.672 Q 222.814 421.195 220.846 418.594 L 220.846 418.594 L 220.846 418.594 Q 218.877 415.992 217.787 412.459 L 217.787 412.459 L 217.787 412.459 Q 216.697 408.926 216.697 404.848 L 216.697 404.848 L 216.697 404.848 Z  M 223.201 404.109 L 223.201 404.848 L 223.201 404.848 Q 223.201 407.625 223.799 410.121 L 223.799 410.121 L 223.799 410.121 Q 224.396 412.617 225.645 414.516 L 225.645 414.516 L 225.645 414.516 Q 226.893 416.414 228.826 417.521 L 228.826 417.521 L 228.826 417.521 Q 230.76 418.629 233.467 418.629 L 233.467 418.629 L 233.467 418.629 Q 235.119 418.629 236.455 418.242 L 236.455 418.242 L 236.455 418.242 Q 237.791 417.855 238.881 417.135 L 238.881 417.135 L 238.881 417.135 Q 239.971 416.414 240.814 415.412 L 240.814 415.412 L 240.814 415.412 Q 241.658 414.41 242.291 413.18 L 242.291 413.18 L 242.291 395.531 L 242.291 395.531 Q 241.025 393.211 238.881 391.717 L 238.881 391.717 L 238.881 391.717 Q 236.736 390.223 233.537 390.223 L 233.537 390.223 L 233.537 390.223 Q 230.795 390.223 228.844 391.348 L 228.844 391.348 L 228.844 391.348 Q 226.893 392.473 225.645 394.389 L 225.645 394.389 L 225.645 394.389 Q 224.396 396.305 223.799 398.818 L 223.799 398.818 L 223.799 398.818 Q 223.201 401.332 223.201 404.109 L 223.201 404.109 L 223.201 404.109 Z  M 259.307 404.848 L 259.307 404.074 L 259.307 404.074 Q 259.307 399.961 260.502 396.428 L 260.502 396.428 L 260.502 396.428 Q 261.697 392.895 263.93 390.293 L 263.93 390.293 L 263.93 390.293 Q 266.162 387.691 269.361 386.197 L 269.361 386.197 L 269.361 386.197 Q 272.561 384.703 276.568 384.703 L 276.568 384.703 L 276.568 384.703 Q 280.611 384.703 283.828 386.197 L 283.828 386.197 L 283.828 386.197 Q 287.045 387.691 289.277 390.293 L 289.277 390.293 L 289.277 390.293 Q 291.51 392.895 292.705 396.428 L 292.705 396.428 L 292.705 396.428 Q 293.9 399.961 293.9 404.074 L 293.9 404.074 L 293.9 404.848 L 293.9 404.848 Q 293.9 408.961 292.705 412.477 L 292.705 412.477 L 292.705 412.477 Q 291.51 415.992 289.277 418.594 L 289.277 418.594 L 289.277 418.594 Q 287.045 421.195 283.846 422.672 L 283.846 422.672 L 283.846 422.672 Q 280.646 424.148 276.639 424.148 L 276.639 424.148 L 276.639 424.148 Q 272.596 424.148 269.379 422.672 L 269.379 422.672 L 269.379 422.672 Q 266.162 421.195 263.93 418.594 L 263.93 418.594 L 263.93 418.594 Q 261.697 415.992 260.502 412.477 L 260.502 412.477 L 260.502 412.477 Q 259.307 408.961 259.307 404.848 L 259.307 404.848 L 259.307 404.848 Z  M 265.811 404.074 L 265.811 404.848 L 265.811 404.848 Q 265.811 407.66 266.479 410.209 L 266.479 410.209 L 266.479 410.209 Q 267.146 412.758 268.5 414.691 L 268.5 414.691 L 268.5 414.691 Q 269.854 416.625 271.893 417.75 L 271.893 417.75 L 271.893 417.75 Q 273.932 418.875 276.639 418.875 L 276.639 418.875 L 276.639 418.875 Q 279.311 418.875 281.332 417.75 L 281.332 417.75 L 281.332 417.75 Q 283.354 416.625 284.707 414.691 L 284.707 414.691 L 284.707 414.691 Q 286.061 412.758 286.729 410.209 L 286.729 410.209 L 286.729 410.209 Q 287.396 407.66 287.396 404.848 L 287.396 404.848 L 287.396 404.074 L 287.396 404.074 Q 287.396 401.297 286.711 398.748 L 286.711 398.748 L 286.711 398.748 Q 286.025 396.199 284.672 394.266 L 284.672 394.266 L 284.672 394.266 Q 283.318 392.332 281.297 391.189 L 281.297 391.189 L 281.297 391.189 Q 279.275 390.047 276.568 390.047 L 276.568 390.047 L 276.568 390.047 Q 273.861 390.047 271.857 391.189 L 271.857 391.189 L 271.857 391.189 Q 269.854 392.332 268.5 394.266 L 268.5 394.266 L 268.5 394.266 Q 267.146 396.199 266.479 398.748 L 266.479 398.748 L 266.479 398.748 Q 265.811 401.297 265.811 404.074 L 265.811 404.074 L 265.811 404.074 Z  M 329.268 384.703 L 329.268 384.703 L 329.268 384.703 Q 330.182 384.703 331.166 384.756 L 331.166 384.756 L 331.166 384.756 Q 332.15 384.809 333.047 384.932 L 333.047 384.932 L 333.047 384.932 Q 333.943 385.055 334.699 385.23 L 334.699 385.23 L 334.699 385.23 Q 335.455 385.406 335.947 385.617 L 335.947 385.617 L 335.068 391.98 L 335.068 391.98 Q 333.17 391.559 331.465 391.365 L 331.465 391.365 L 331.465 391.365 Q 329.76 391.172 327.896 391.172 L 327.896 391.172 L 327.896 391.172 Q 323.326 391.172 320.496 393.246 L 320.496 393.246 L 320.496 393.246 Q 317.666 395.32 316.33 399.047 L 316.33 399.047 L 316.33 423.445 L 309.791 423.445 L 309.791 385.406 L 315.979 385.406 L 316.295 391.453 L 316.295 391.453 Q 318.615 388.324 321.867 386.514 L 321.867 386.514 L 321.867 386.514 Q 325.119 384.703 329.268 384.703 Z  M 379.33 423.445 L 372.545 423.445 L 372.545 423.445 Q 372.158 422.707 371.93 421.6 L 371.93 421.6 L 371.93 421.6 Q 371.701 420.492 371.596 419.297 L 371.596 419.297 L 371.596 419.297 Q 370.611 420.281 369.398 421.16 L 369.398 421.16 L 369.398 421.16 Q 368.186 422.039 366.727 422.707 L 366.727 422.707 L 366.727 422.707 Q 365.268 423.375 363.615 423.762 L 363.615 423.762 L 363.615 423.762 Q 361.963 424.148 360.1 424.148 L 360.1 424.148 L 360.1 424.148 Q 357.076 424.148 354.633 423.27 L 354.633 423.27 L 354.633 423.27 Q 352.189 422.391 350.484 420.896 L 350.484 420.896 L 350.484 420.896 Q 348.779 419.402 347.848 417.346 L 347.848 417.346 L 347.848 417.346 Q 346.916 415.289 346.916 412.898 L 346.916 412.898 L 346.916 412.898 Q 346.916 409.77 348.164 407.414 L 348.164 407.414 L 348.164 407.414 Q 349.412 405.059 351.697 403.494 L 351.697 403.494 L 351.697 403.494 Q 353.982 401.93 357.199 401.156 L 357.199 401.156 L 357.199 401.156 Q 360.416 400.383 364.389 400.383 L 364.389 400.383 L 371.49 400.383 L 371.49 397.395 L 371.49 397.395 Q 371.49 395.672 370.857 394.301 L 370.857 394.301 L 370.857 394.301 Q 370.225 392.93 369.064 391.963 L 369.064 391.963 L 369.064 391.963 Q 367.904 390.996 366.234 390.469 L 366.234 390.469 L 366.234 390.469 Q 364.564 389.941 362.49 389.941 L 362.49 389.941 L 362.49 389.941 Q 360.557 389.941 359.027 390.434 L 359.027 390.434 L 359.027 390.434 Q 357.498 390.926 356.443 391.734 L 356.443 391.734 L 356.443 391.734 Q 355.389 392.543 354.809 393.65 L 354.809 393.65 L 354.809 393.65 Q 354.229 394.758 354.229 395.953 L 354.229 395.953 L 347.689 395.953 L 347.689 395.953 Q 347.725 393.879 348.762 391.875 L 348.762 391.875 L 348.762 391.875 Q 349.799 389.871 351.75 388.271 L 351.75 388.271 L 351.75 388.271 Q 353.701 386.672 356.496 385.688 L 356.496 385.688 L 356.496 385.688 Q 359.291 384.703 362.842 384.703 L 362.842 384.703 L 362.842 384.703 Q 366.076 384.703 368.854 385.494 L 368.854 385.494 L 368.854 385.494 Q 371.631 386.285 373.652 387.885 L 373.652 387.885 L 373.652 387.885 Q 375.674 389.484 376.834 391.875 L 376.834 391.875 L 376.834 391.875 Q 377.994 394.266 377.994 397.465 L 377.994 397.465 L 377.994 415.148 L 377.994 415.148 Q 377.994 417.047 378.346 419.174 L 378.346 419.174 L 378.346 419.174 Q 378.697 421.301 379.33 422.883 L 379.33 422.883 L 379.33 423.445 L 379.33 423.445 Z  M 361.049 418.488 L 361.049 418.488 L 361.049 418.488 Q 362.947 418.488 364.6 417.996 L 364.6 417.996 L 364.6 417.996 Q 366.252 417.504 367.605 416.695 L 367.605 416.695 L 367.605 416.695 Q 368.959 415.887 369.943 414.85 L 369.943 414.85 L 369.943 414.85 Q 370.928 413.813 371.49 412.688 L 371.49 412.688 L 371.49 404.988 L 365.443 404.988 L 365.443 404.988 Q 359.748 404.988 356.584 406.676 L 356.584 406.676 L 356.584 406.676 Q 353.42 408.363 353.42 411.984 L 353.42 411.984 L 353.42 411.984 Q 353.42 413.391 353.895 414.586 L 353.895 414.586 L 353.895 414.586 Q 354.369 415.781 355.318 416.643 L 355.318 416.643 L 355.318 416.643 Q 356.268 417.504 357.709 417.996 L 357.709 417.996 L 357.709 417.996 Q 359.15 418.488 361.049 418.488 Z " fill-rule="evenodd" fill="rgb(255,255,225)"/></g></svg>