<?xml version="1.0" standalone="no"?><!-- Generator: Gravit.io --><svg xmlns="http://www.w3.org/2000/svg" xmlns:xlink="http://www.w3.org/1999/xlink" style="isolation:isolate" viewBox="0 0 512 512" width="512" height="512"><defs><clipPath id="_clipPath_CAbG0to5vXgK4yi9BDE5YsGpidTOxXTo"><rect width="512" height="512"/></clipPath></defs><g clip-path="url(#_clipPath_CAbG0to5vXgK4yi9BDE5YsGpidTOxXTo)"><rect x="0" y="0" width="512" height="512" transform="matrix(1,0,0,1,0,0)" fill="rgb(124,77,255)"/><path d=" M 232.295 194.133 L 232.295 217.131 L 160.225 217.131 L 160.225 311.32 L 133.418 311.32 L 133.418 98.039 L 244.453 98.039 L 244.453 121.184 L 160.225 121.184 L 160.225 194.133 L 232.295 194.133 L 232.295 194.133 Z  M 355.342 311.32 L 354.756 297.404 L 354.756 297.404 Q 341.865 314.25 317.109 314.25 L 317.109 314.25 L 317.109 314.25 Q 295.576 314.25 284.59 299.382 L 284.59 299.382 L 284.59 299.382 Q 273.604 284.514 273.457 256.096 L 273.457 256.096 L 273.457 152.824 L 299.238 152.824 L 299.238 254.191 L 299.238 254.191 Q 299.238 291.252 321.504 291.252 L 321.504 291.252 L 321.504 291.252 Q 345.088 291.252 354.023 270.158 L 354.023 270.158 L 354.023 152.824 L 379.951 152.824 L 379.951 311.32 L 355.342 311.32 L 355.342 311.32 Z " fill-rule="evenodd" fill="rgb(255,255,225)"/><path d=" M 61.307 423.445 L 54.768 423.445 L 54.768 390.434 L 44.291 390.434 L 44.291 385.406 L 54.768 385.406 L 54.768 382.734 L 54.768 382.734 Q 54.768 379.078 55.84 376.318 L 55.84 376.318 L 55.84 376.318 Q 56.912 373.559 58.863 371.695 L 58.863 371.695 L 58.863 371.695 Q 60.814 369.832 63.557 368.883 L 63.557 368.883 L 63.557 368.883 Q 66.299 367.934 69.674 367.934 L 69.674 367.934 L 69.674 367.934 Q 71.994 367.934 74.191 368.32 L 74.191 368.32 L 74.191 368.32 Q 76.389 368.707 78.709 369.305 L 78.709 369.305 L 77.936 374.684 L 77.936 374.684 Q 76.494 374.191 74.578 373.822 L 74.578 373.822 L 74.578 373.822 Q 72.662 373.453 70.482 373.453 L 70.482 373.453 L 70.482 373.453 Q 65.912 373.488 63.609 375.773 L 63.609 375.773 L 63.609 375.773 Q 61.307 378.059 61.307 382.734 L 61.307 382.734 L 61.307 385.406 L 75.967 385.406 L 75.967 390.434 L 61.307 390.434 L 61.307 423.445 L 61.307 423.445 Z  M 113.232 384.703 L 113.232 384.703 L 113.232 384.703 Q 114.146 384.703 115.131 384.756 L 115.131 384.756 L 115.131 384.756 Q 116.115 384.809 117.012 384.932 L 117.012 384.932 L 117.012 384.932 Q 117.908 385.055 118.664 385.23 L 118.664 385.23 L 118.664 385.23 Q 119.42 385.406 119.912 385.617 L 119.912 385.617 L 119.033 391.98 L 119.033 391.98 Q 117.135 391.559 115.43 391.365 L 115.43 391.365 L 115.43 391.365 Q 113.725 391.172 111.861 391.172 L 111.861 391.172 L 111.861 391.172 Q 107.291 391.172 104.461 393.246 L 104.461 393.246 L 104.461 393.246 Q 101.631 395.32 100.295 399.047 L 100.295 399.047 L 100.295 423.445 L 93.756 423.445 L 93.756 385.406 L 99.943 385.406 L 100.26 391.453 L 100.26 391.453 Q 102.58 388.324 105.832 386.514 L 105.832 386.514 L 105.832 386.514 Q 109.084 384.703 113.232 384.703 Z  M 156.58 423.445 L 156.193 418.207 L 156.193 418.207 Q 154.295 421.02 151.447 422.584 L 151.447 422.584 L 151.447 422.584 Q 148.6 424.148 144.873 424.148 L 144.873 424.148 L 144.873 424.148 Q 141.885 424.148 139.459 423.217 L 139.459 423.217 L 139.459 423.217 Q 137.033 422.285 135.311 420.316 L 135.311 420.316 L 135.311 420.316 Q 133.588 418.348 132.656 415.307 L 132.656 415.307 L 132.656 415.307 Q 131.725 412.266 131.725 408.012 L 131.725 408.012 L 131.725 385.406 L 138.229 385.406 L 138.229 408.082 L 138.229 408.082 Q 138.229 411.176 138.721 413.215 L 138.721 413.215 L 138.721 413.215 Q 139.213 415.254 140.197 416.467 L 140.197 416.467 L 140.197 416.467 Q 141.182 417.68 142.605 418.172 L 142.605 418.172 L 142.605 418.172 Q 144.029 418.664 145.893 418.664 L 145.893 418.664 L 145.893 418.664 Q 149.865 418.664 152.309 417.047 L 152.309 417.047 L 152.309 417.047 Q 154.752 415.43 155.947 412.688 L 155.947 412.688 L 155.947 385.406 L 162.486 385.406 L 162.486 423.445 L 156.58 423.445 L 156.58 423.445 Z  M 173.525 404.848 L 173.525 404.109 L 173.525 404.109 Q 173.525 399.855 174.563 396.287 L 174.563 396.287 L 174.563 396.287 Q 175.6 392.719 177.568 390.152 L 177.568 390.152 L 177.568 390.152 Q 179.537 387.586 182.35 386.145 L 182.35 386.145 L 182.35 386.145 Q 185.162 384.703 188.713 384.703 L 188.713 384.703 L 188.713 384.703 Q 192.229 384.703 194.883 385.951 L 194.883 385.951 L 194.883 385.951 Q 197.537 387.199 199.4 389.555 L 199.4 389.555 L 199.717 385.406 L 205.623 385.406 L 205.623 422.637 L 205.623 422.637 Q 205.623 426.398 204.445 429.316 L 204.445 429.316 L 204.445 429.316 Q 203.268 432.234 201.141 434.273 L 201.141 434.273 L 201.141 434.273 Q 199.014 436.313 196.061 437.367 L 196.061 437.367 L 196.061 437.367 Q 193.107 438.422 189.521 438.422 L 189.521 438.422 L 189.521 438.422 Q 188.045 438.422 186.146 438.088 L 186.146 438.088 L 186.146 438.088 Q 184.248 437.754 182.297 436.998 L 182.297 436.998 L 182.297 436.998 Q 180.346 436.242 178.535 434.977 L 178.535 434.977 L 178.535 434.977 Q 176.725 433.711 175.424 431.848 L 175.424 431.848 L 178.799 427.945 L 178.799 427.945 Q 179.994 429.387 181.26 430.389 L 181.26 430.389 L 181.26 430.389 Q 182.525 431.391 183.826 431.988 L 183.826 431.988 L 183.826 431.988 Q 185.127 432.586 186.428 432.85 L 186.428 432.85 L 186.428 432.85 Q 187.729 433.113 189.029 433.113 L 189.029 433.113 L 189.029 433.113 Q 191.35 433.113 193.213 432.445 L 193.213 432.445 L 193.213 432.445 Q 195.076 431.777 196.395 430.494 L 196.395 430.494 L 196.395 430.494 Q 197.713 429.211 198.416 427.313 L 198.416 427.313 L 198.416 427.313 Q 199.119 425.414 199.119 422.953 L 199.119 422.953 L 199.119 419.684 L 199.119 419.684 Q 197.221 421.863 194.637 423.006 L 194.637 423.006 L 194.637 423.006 Q 192.053 424.148 188.643 424.148 L 188.643 424.148 L 188.643 424.148 Q 185.162 424.148 182.35 422.672 L 182.35 422.672 L 182.35 422.672 Q 179.537 421.195 177.586 418.594 L 177.586 418.594 L 177.586 418.594 Q 175.635 415.992 174.58 412.459 L 174.58 412.459 L 174.58 412.459 Q 173.525 408.926 173.525 404.848 L 173.525 404.848 L 173.525 404.848 Z  M 180.029 404.109 L 180.029 404.848 L 180.029 404.848 Q 180.029 407.625 180.609 410.121 L 180.609 410.121 L 180.609 410.121 Q 181.189 412.617 182.438 414.516 L 182.438 414.516 L 182.438 414.516 Q 183.686 416.414 185.619 417.521 L 185.619 417.521 L 185.619 417.521 Q 187.553 418.629 190.26 418.629 L 190.26 418.629 L 190.26 418.629 Q 191.947 418.629 193.301 418.225 L 193.301 418.225 L 193.301 418.225 Q 194.654 417.82 195.727 417.082 L 195.727 417.082 L 195.727 417.082 Q 196.799 416.344 197.643 415.324 L 197.643 415.324 L 197.643 415.324 Q 198.486 414.305 199.119 413.074 L 199.119 413.074 L 199.119 395.637 L 199.119 395.637 Q 198.486 394.441 197.643 393.457 L 197.643 393.457 L 197.643 393.457 Q 196.799 392.473 195.709 391.752 L 195.709 391.752 L 195.709 391.752 Q 194.619 391.031 193.283 390.627 L 193.283 390.627 L 193.283 390.627 Q 191.947 390.223 190.33 390.223 L 190.33 390.223 L 190.33 390.223 Q 187.588 390.223 185.637 391.348 L 185.637 391.348 L 185.637 391.348 Q 183.686 392.473 182.438 394.389 L 182.438 394.389 L 182.438 394.389 Q 181.189 396.305 180.609 398.818 L 180.609 398.818 L 180.609 398.818 Q 180.029 401.332 180.029 404.109 L 180.029 404.109 L 180.029 404.109 Z  M 249.709 423.445 L 242.924 423.445 L 242.924 423.445 Q 242.537 422.707 242.309 421.6 L 242.309 421.6 L 242.309 421.6 Q 242.08 420.492 241.975 419.297 L 241.975 419.297 L 241.975 419.297 Q 240.99 420.281 239.777 421.16 L 239.777 421.16 L 239.777 421.16 Q 238.564 422.039 237.105 422.707 L 237.105 422.707 L 237.105 422.707 Q 235.646 423.375 233.994 423.762 L 233.994 423.762 L 233.994 423.762 Q 232.342 424.148 230.479 424.148 L 230.479 424.148 L 230.479 424.148 Q 227.455 424.148 225.012 423.27 L 225.012 423.27 L 225.012 423.27 Q 222.568 422.391 220.863 420.896 L 220.863 420.896 L 220.863 420.896 Q 219.158 419.402 218.227 417.346 L 218.227 417.346 L 218.227 417.346 Q 217.295 415.289 217.295 412.898 L 217.295 412.898 L 217.295 412.898 Q 217.295 409.77 218.543 407.414 L 218.543 407.414 L 218.543 407.414 Q 219.791 405.059 222.076 403.494 L 222.076 403.494 L 222.076 403.494 Q 224.361 401.93 227.578 401.156 L 227.578 401.156 L 227.578 401.156 Q 230.795 400.383 234.768 400.383 L 234.768 400.383 L 241.869 400.383 L 241.869 397.395 L 241.869 397.395 Q 241.869 395.672 241.236 394.301 L 241.236 394.301 L 241.236 394.301 Q 240.604 392.93 239.443 391.963 L 239.443 391.963 L 239.443 391.963 Q 238.283 390.996 236.613 390.469 L 236.613 390.469 L 236.613 390.469 Q 234.943 389.941 232.869 389.941 L 232.869 389.941 L 232.869 389.941 Q 230.936 389.941 229.406 390.434 L 229.406 390.434 L 229.406 390.434 Q 227.877 390.926 226.822 391.734 L 226.822 391.734 L 226.822 391.734 Q 225.768 392.543 225.188 393.65 L 225.188 393.65 L 225.188 393.65 Q 224.607 394.758 224.607 395.953 L 224.607 395.953 L 218.068 395.953 L 218.068 395.953 Q 218.104 393.879 219.141 391.875 L 219.141 391.875 L 219.141 391.875 Q 220.178 389.871 222.129 388.271 L 222.129 388.271 L 222.129 388.271 Q 224.08 386.672 226.875 385.688 L 226.875 385.688 L 226.875 385.688 Q 229.67 384.703 233.221 384.703 L 233.221 384.703 L 233.221 384.703 Q 236.455 384.703 239.232 385.494 L 239.232 385.494 L 239.232 385.494 Q 242.01 386.285 244.031 387.885 L 244.031 387.885 L 244.031 387.885 Q 246.053 389.484 247.213 391.875 L 247.213 391.875 L 247.213 391.875 Q 248.373 394.266 248.373 397.465 L 248.373 397.465 L 248.373 415.148 L 248.373 415.148 Q 248.373 417.047 248.725 419.174 L 248.725 419.174 L 248.725 419.174 Q 249.076 421.301 249.709 422.883 L 249.709 422.883 L 249.709 423.445 L 249.709 423.445 Z  M 231.428 418.488 L 231.428 418.488 L 231.428 418.488 Q 233.326 418.488 234.979 417.996 L 234.979 417.996 L 234.979 417.996 Q 236.631 417.504 237.984 416.695 L 237.984 416.695 L 237.984 416.695 Q 239.338 415.887 240.322 414.85 L 240.322 414.85 L 240.322 414.85 Q 241.307 413.813 241.869 412.688 L 241.869 412.688 L 241.869 404.988 L 235.822 404.988 L 235.822 404.988 Q 230.127 404.988 226.963 406.676 L 226.963 406.676 L 226.963 406.676 Q 223.799 408.363 223.799 411.984 L 223.799 411.984 L 223.799 411.984 Q 223.799 413.391 224.273 414.586 L 224.273 414.586 L 224.273 414.586 Q 224.748 415.781 225.697 416.643 L 225.697 416.643 L 225.697 416.643 Q 226.646 417.504 228.088 417.996 L 228.088 417.996 L 228.088 417.996 Q 229.529 418.488 231.428 418.488 Z  M 262.154 375.105 L 262.154 369.445 L 281.596 369.445 L 281.596 417.82 L 294.006 417.82 L 294.006 423.445 L 262.154 423.445 L 262.154 417.82 L 275.092 417.82 L 275.092 375.105 L 262.154 375.105 L 262.154 375.105 Z  M 305.678 385.406 L 310.107 409.664 L 310.881 415.113 L 311.83 409.664 L 317.912 385.406 L 322.096 385.406 L 328.143 409.664 L 329.162 415.641 L 330.111 409.664 L 334.33 385.406 L 340.096 385.406 L 332.01 423.445 L 326.877 423.445 L 320.936 400.137 L 319.951 394.23 L 319.002 400.137 L 313.131 423.445 L 307.998 423.445 L 299.912 385.406 L 305.678 385.406 L 305.678 385.406 Z  M 379.33 423.445 L 372.545 423.445 L 372.545 423.445 Q 372.158 422.707 371.93 421.6 L 371.93 421.6 L 371.93 421.6 Q 371.701 420.492 371.596 419.297 L 371.596 419.297 L 371.596 419.297 Q 370.611 420.281 369.398 421.16 L 369.398 421.16 L 369.398 421.16 Q 368.186 422.039 366.727 422.707 L 366.727 422.707 L 366.727 422.707 Q 365.268 423.375 363.615 423.762 L 363.615 423.762 L 363.615 423.762 Q 361.963 424.148 360.1 424.148 L 360.1 424.148 L 360.1 424.148 Q 357.076 424.148 354.633 423.27 L 354.633 423.27 L 354.633 423.27 Q 352.189 422.391 350.484 420.896 L 350.484 420.896 L 350.484 420.896 Q 348.779 419.402 347.848 417.346 L 347.848 417.346 L 347.848 417.346 Q 346.916 415.289 346.916 412.898 L 346.916 412.898 L 346.916 412.898 Q 346.916 409.77 348.164 407.414 L 348.164 407.414 L 348.164 407.414 Q 349.412 405.059 351.697 403.494 L 351.697 403.494 L 351.697 403.494 Q 353.982 401.93 357.199 401.156 L 357.199 401.156 L 357.199 401.156 Q 360.416 400.383 364.389 400.383 L 364.389 400.383 L 371.49 400.383 L 371.49 397.395 L 371.49 397.395 Q 371.49 395.672 370.857 394.301 L 370.857 394.301 L 370.857 394.301 Q 370.225 392.93 369.064 391.963 L 369.064 391.963 L 369.064 391.963 Q 367.904 390.996 366.234 390.469 L 366.234 390.469 L 366.234 390.469 Q 364.564 389.941 362.49 389.941 L 362.49 389.941 L 362.49 389.941 Q 360.557 389.941 359.027 390.434 L 359.027 390.434 L 359.027 390.434 Q 357.498 390.926 356.443 391.734 L 356.443 391.734 L 356.443 391.734 Q 355.389 392.543 354.809 393.65 L 354.809 393.65 L 354.809 393.65 Q 354.229 394.758 354.229 395.953 L 354.229 395.953 L 347.689 395.953 L 347.689 395.953 Q 347.725 393.879 348.762 391.875 L 348.762 391.875 L 348.762 391.875 Q 349.799 389.871 351.75 388.271 L 351.75 388.271 L 351.75 388.271 Q 353.701 386.672 356.496 385.688 L 356.496 385.688 L 356.496 385.688 Q 359.291 384.703 362.842 384.703 L 362.842 384.703 L 362.842 384.703 Q 366.076 384.703 368.854 385.494 L 368.854 385.494 L 368.854 385.494 Q 371.631 386.285 373.652 387.885 L 373.652 387.885 L 373.652 387.885 Q 375.674 389.484 376.834 391.875 L 376.834 391.875 L 376.834 391.875 Q 377.994 394.266 377.994 397.465 L 377.994 397.465 L 377.994 415.148 L 377.994 415.148 Q 377.994 417.047 378.346 419.174 L 378.346 419.174 L 378.346 419.174 Q 378.697 421.301 379.33 422.883 L 379.33 422.883 L 379.33 423.445 L 379.33 423.445 Z  M 361.049 418.488 L 361.049 418.488 L 361.049 418.488 Q 362.947 418.488 364.6 417.996 L 364.6 417.996 L 364.6 417.996 Q 366.252 417.504 367.605 416.695 L 367.605 416.695 L 367.605 416.695 Q 368.959 415.887 369.943 414.85 L 369.943 414.85 L 369.943 414.85 Q 370.928 413.813 371.49 412.688 L 371.49 412.688 L 371.49 404.988 L 365.443 404.988 L 365.443 404.988 Q 359.748 404.988 356.584 406.676 L 356.584 406.676 L 356.584 406.676 Q 353.42 408.363 353.42 411.984 L 353.42 411.984 L 353.42 411.984 Q 353.42 413.391 353.895 414.586 L 353.895 414.586 L 353.895 414.586 Q 354.369 415.781 355.318 416.643 L 355.318 416.643 L 355.318 416.643 Q 356.268 417.504 357.709 417.996 L 357.709 417.996 L 357.709 417.996 Q 359.15 418.488 361.049 418.488 Z  M 415.682 384.703 L 415.682 384.703 L 415.682 384.703 Q 416.596 384.703 417.58 384.756 L 417.58 384.756 L 417.58 384.756 Q 418.564 384.809 419.461 384.932 L 419.461 384.932 L 419.461 384.932 Q 420.357 385.055 421.113 385.23 L 421.113 385.23 L 421.113 385.23 Q 421.869 385.406 422.361 385.617 L 422.361 385.617 L 421.482 391.98 L 421.482 391.98 Q 419.584 391.559 417.879 391.365 L 417.879 391.365 L 417.879 391.365 Q 416.174 391.172 414.311 391.172 L 414.311 391.172 L 414.311 391.172 Q 409.74 391.172 406.91 393.246 L 406.91 393.246 L 406.91 393.246 Q 404.08 395.32 402.744 399.047 L 402.744 399.047 L 402.744 423.445 L 396.205 423.445 L 396.205 385.406 L 402.393 385.406 L 402.709 391.453 L 402.709 391.453 Q 405.029 388.324 408.281 386.514 L 408.281 386.514 L 408.281 386.514 Q 411.533 384.703 415.682 384.703 Z  M 450.768 424.148 L 450.768 424.148 L 450.768 424.148 Q 446.76 424.148 443.402 422.777 L 443.402 422.777 L 443.402 422.777 Q 440.045 421.406 437.654 418.945 L 437.654 418.945 L 437.654 418.945 Q 435.264 416.484 433.928 413.109 L 433.928 413.109 L 433.928 413.109 Q 432.592 409.734 432.592 405.762 L 432.592 405.762 L 432.592 404.285 L 432.592 404.285 Q 432.592 399.68 434.068 396.041 L 434.068 396.041 L 434.068 396.041 Q 435.545 392.402 437.988 389.889 L 437.988 389.889 L 437.988 389.889 Q 440.432 387.375 443.543 386.039 L 443.543 386.039 L 443.543 386.039 Q 446.654 384.703 449.924 384.703 L 449.924 384.703 L 449.924 384.703 Q 454.037 384.703 457.113 386.127 L 457.113 386.127 L 457.113 386.127 Q 460.189 387.551 462.229 390.064 L 462.229 390.064 L 462.229 390.064 Q 464.268 392.578 465.27 395.988 L 465.27 395.988 L 465.27 395.988 Q 466.271 399.398 466.271 403.371 L 466.271 403.371 L 466.271 406.289 L 439.096 406.289 L 439.096 406.289 Q 439.201 408.891 440.098 411.176 L 440.098 411.176 L 440.098 411.176 Q 440.994 413.461 442.559 415.166 L 442.559 415.166 L 442.559 415.166 Q 444.123 416.871 446.303 417.855 L 446.303 417.855 L 446.303 417.855 Q 448.482 418.84 451.119 418.84 L 451.119 418.84 L 451.119 418.84 Q 454.6 418.84 457.307 417.434 L 457.307 417.434 L 457.307 417.434 Q 460.014 416.027 461.807 413.707 L 461.807 413.707 L 465.779 416.801 L 465.779 416.801 Q 464.83 418.242 463.406 419.561 L 463.406 419.561 L 463.406 419.561 Q 461.982 420.879 460.119 421.898 L 460.119 421.898 L 460.119 421.898 Q 458.256 422.918 455.9 423.533 L 455.9 423.533 L 455.9 423.533 Q 453.545 424.148 450.768 424.148 Z  M 449.924 390.047 L 449.924 390.047 L 449.924 390.047 Q 447.955 390.047 446.197 390.768 L 446.197 390.768 L 446.197 390.768 Q 444.439 391.488 443.033 392.877 L 443.033 392.877 L 443.033 392.877 Q 441.627 394.266 440.66 396.287 L 440.66 396.287 L 440.66 396.287 Q 439.693 398.309 439.307 400.945 L 439.307 400.945 L 459.768 400.945 L 459.768 400.453 L 459.768 400.453 Q 459.662 398.555 459.047 396.691 L 459.047 396.691 L 459.047 396.691 Q 458.432 394.828 457.236 393.352 L 457.236 393.352 L 457.236 393.352 Q 456.041 391.875 454.23 390.961 L 454.23 390.961 L 454.23 390.961 Q 452.42 390.047 449.924 390.047 Z " fill-rule="evenodd" fill="rgb(255,255,225)"/></g></svg>