<?xml version="1.0" standalone="no"?><!-- Generator: Gravit.io --><svg xmlns="http://www.w3.org/2000/svg" xmlns:xlink="http://www.w3.org/1999/xlink" style="isolation:isolate" viewBox="0 0 512 512" width="512" height="512"><defs><clipPath id="_clipPath_mZPEprjCCcZVx5wSDz6POsxrwjpmveyZ"><rect width="512" height="512"/></clipPath></defs><g clip-path="url(#_clipPath_mZPEprjCCcZVx5wSDz6POsxrwjpmveyZ)"><rect x="0" y="0" width="512" height="512" transform="matrix(1,0,0,1,0,0)" fill="rgb(233,30,99)"/><path d=" M 250.313 205.119 L 250.313 284.807 L 245.625 290.666 L 245.625 290.666 Q 225.41 314.25 186.445 314.25 L 186.445 314.25 L 186.445 314.25 Q 151.875 314.25 132.173 291.325 L 132.173 291.325 L 132.173 291.325 Q 112.471 268.4 112.031 226.506 L 112.031 226.506 L 112.031 184.611 L 112.031 184.611 Q 112.031 139.787 129.976 117.448 L 129.976 117.448 L 129.976 117.448 Q 147.92 95.109 183.662 95.109 L 183.662 95.109 L 183.662 95.109 Q 214.131 95.109 231.343 112.102 L 231.343 112.102 L 231.343 112.102 Q 248.555 129.094 250.313 160.588 L 250.313 160.588 L 223.506 160.588 L 223.506 160.588 Q 221.895 140.666 212.446 129.46 L 212.446 129.46 L 212.446 129.46 Q 202.998 118.254 183.809 118.254 L 183.809 118.254 L 183.809 118.254 Q 160.811 118.254 150.117 133.269 L 150.117 133.269 L 150.117 133.269 Q 139.424 148.283 138.984 181.242 L 138.984 181.242 L 138.984 224.748 L 138.984 224.748 Q 138.984 256.975 151.289 274.187 L 151.289 274.187 L 151.289 274.187 Q 163.594 291.398 186.592 291.398 L 186.592 291.398 L 186.592 291.398 Q 208.271 291.398 219.551 280.852 L 219.551 280.852 L 223.506 277.189 L 223.506 227.971 L 184.541 227.971 L 184.541 205.119 L 250.313 205.119 L 250.313 205.119 Z  M 371.895 311.32 L 371.309 297.404 L 371.309 297.404 Q 358.418 314.25 333.662 314.25 L 333.662 314.25 L 333.662 314.25 Q 312.129 314.25 301.143 299.382 L 301.143 299.382 L 301.143 299.382 Q 290.156 284.514 290.01 256.096 L 290.01 256.096 L 290.01 152.824 L 315.791 152.824 L 315.791 254.191 L 315.791 254.191 Q 315.791 291.252 338.057 291.252 L 338.057 291.252 L 338.057 291.252 Q 361.641 291.252 370.576 270.158 L 370.576 270.158 L 370.576 152.824 L 396.504 152.824 L 396.504 311.32 L 371.895 311.32 L 371.895 311.32 Z " fill-rule="evenodd" fill="rgb(255,255,225)"/><path d=" M 65.49 404.848 L 65.49 404.109 L 65.49 404.109 Q 65.49 399.855 66.527 396.287 L 66.527 396.287 L 66.527 396.287 Q 67.564 392.719 69.533 390.152 L 69.533 390.152 L 69.533 390.152 Q 71.502 387.586 74.314 386.145 L 74.314 386.145 L 74.314 386.145 Q 77.127 384.703 80.678 384.703 L 80.678 384.703 L 80.678 384.703 Q 84.193 384.703 86.848 385.951 L 86.848 385.951 L 86.848 385.951 Q 89.502 387.199 91.365 389.555 L 91.365 389.555 L 91.682 385.406 L 97.588 385.406 L 97.588 422.637 L 97.588 422.637 Q 97.588 426.398 96.41 429.316 L 96.41 429.316 L 96.41 429.316 Q 95.232 432.234 93.105 434.273 L 93.105 434.273 L 93.105 434.273 Q 90.979 436.313 88.025 437.367 L 88.025 437.367 L 88.025 437.367 Q 85.072 438.422 81.486 438.422 L 81.486 438.422 L 81.486 438.422 Q 80.01 438.422 78.111 438.088 L 78.111 438.088 L 78.111 438.088 Q 76.213 437.754 74.262 436.998 L 74.262 436.998 L 74.262 436.998 Q 72.311 436.242 70.5 434.977 L 70.5 434.977 L 70.5 434.977 Q 68.689 433.711 67.389 431.848 L 67.389 431.848 L 70.764 427.945 L 70.764 427.945 Q 71.959 429.387 73.225 430.389 L 73.225 430.389 L 73.225 430.389 Q 74.49 431.391 75.791 431.988 L 75.791 431.988 L 75.791 431.988 Q 77.092 432.586 78.393 432.85 L 78.393 432.85 L 78.393 432.85 Q 79.693 433.113 80.994 433.113 L 80.994 433.113 L 80.994 433.113 Q 83.314 433.113 85.178 432.445 L 85.178 432.445 L 85.178 432.445 Q 87.041 431.777 88.359 430.494 L 88.359 430.494 L 88.359 430.494 Q 89.678 429.211 90.381 427.313 L 90.381 427.313 L 90.381 427.313 Q 91.084 425.414 91.084 422.953 L 91.084 422.953 L 91.084 419.684 L 91.084 419.684 Q 89.186 421.863 86.602 423.006 L 86.602 423.006 L 86.602 423.006 Q 84.018 424.148 80.607 424.148 L 80.607 424.148 L 80.607 424.148 Q 77.127 424.148 74.314 422.672 L 74.314 422.672 L 74.314 422.672 Q 71.502 421.195 69.551 418.594 L 69.551 418.594 L 69.551 418.594 Q 67.6 415.992 66.545 412.459 L 66.545 412.459 L 66.545 412.459 Q 65.49 408.926 65.49 404.848 L 65.49 404.848 L 65.49 404.848 Z  M 71.994 404.109 L 71.994 404.848 L 71.994 404.848 Q 71.994 407.625 72.574 410.121 L 72.574 410.121 L 72.574 410.121 Q 73.154 412.617 74.402 414.516 L 74.402 414.516 L 74.402 414.516 Q 75.65 416.414 77.584 417.521 L 77.584 417.521 L 77.584 417.521 Q 79.518 418.629 82.225 418.629 L 82.225 418.629 L 82.225 418.629 Q 83.912 418.629 85.266 418.225 L 85.266 418.225 L 85.266 418.225 Q 86.619 417.82 87.691 417.082 L 87.691 417.082 L 87.691 417.082 Q 88.764 416.344 89.607 415.324 L 89.607 415.324 L 89.607 415.324 Q 90.451 414.305 91.084 413.074 L 91.084 413.074 L 91.084 395.637 L 91.084 395.637 Q 90.451 394.441 89.607 393.457 L 89.607 393.457 L 89.607 393.457 Q 88.764 392.473 87.674 391.752 L 87.674 391.752 L 87.674 391.752 Q 86.584 391.031 85.248 390.627 L 85.248 390.627 L 85.248 390.627 Q 83.912 390.223 82.295 390.223 L 82.295 390.223 L 82.295 390.223 Q 79.553 390.223 77.602 391.348 L 77.602 391.348 L 77.602 391.348 Q 75.65 392.473 74.402 394.389 L 74.402 394.389 L 74.402 394.389 Q 73.154 396.305 72.574 398.818 L 72.574 398.818 L 72.574 398.818 Q 71.994 401.332 71.994 404.109 L 71.994 404.109 L 71.994 404.109 Z  M 134.959 423.445 L 134.572 418.207 L 134.572 418.207 Q 132.674 421.02 129.826 422.584 L 129.826 422.584 L 129.826 422.584 Q 126.979 424.148 123.252 424.148 L 123.252 424.148 L 123.252 424.148 Q 120.264 424.148 117.838 423.217 L 117.838 423.217 L 117.838 423.217 Q 115.412 422.285 113.689 420.316 L 113.689 420.316 L 113.689 420.316 Q 111.967 418.348 111.035 415.307 L 111.035 415.307 L 111.035 415.307 Q 110.104 412.266 110.104 408.012 L 110.104 408.012 L 110.104 385.406 L 116.607 385.406 L 116.607 408.082 L 116.607 408.082 Q 116.607 411.176 117.1 413.215 L 117.1 413.215 L 117.1 413.215 Q 117.592 415.254 118.576 416.467 L 118.576 416.467 L 118.576 416.467 Q 119.561 417.68 120.984 418.172 L 120.984 418.172 L 120.984 418.172 Q 122.408 418.664 124.271 418.664 L 124.271 418.664 L 124.271 418.664 Q 128.244 418.664 130.688 417.047 L 130.688 417.047 L 130.688 417.047 Q 133.131 415.43 134.326 412.688 L 134.326 412.688 L 134.326 385.406 L 140.865 385.406 L 140.865 423.445 L 134.959 423.445 L 134.959 423.445 Z  M 150.252 385.406 L 156.088 385.406 L 156.264 388.992 L 156.264 388.992 Q 157.424 386.988 159.305 385.863 L 159.305 385.863 L 159.305 385.863 Q 161.186 384.738 163.857 384.703 L 163.857 384.703 L 163.857 384.703 Q 169.096 384.703 170.854 388.781 L 170.854 388.781 L 170.854 388.781 Q 171.979 386.953 173.824 385.846 L 173.824 385.846 L 173.824 385.846 Q 175.67 384.738 178.307 384.703 L 178.307 384.703 L 178.307 384.703 Q 182.49 384.703 184.74 387.27 L 184.74 387.27 L 184.74 387.27 Q 186.99 389.836 186.99 395.039 L 186.99 395.039 L 186.99 423.445 L 180.803 423.445 L 180.803 394.969 L 180.803 394.969 Q 180.803 390.188 176.408 390.223 L 176.408 390.223 L 176.408 390.223 Q 175.248 390.223 174.404 390.539 L 174.404 390.539 L 174.404 390.539 Q 173.561 390.855 172.998 391.4 L 172.998 391.4 L 172.998 391.4 Q 172.436 391.945 172.119 392.666 L 172.119 392.666 L 172.119 392.666 Q 171.803 393.387 171.697 394.16 L 171.697 394.16 L 171.697 423.445 L 165.51 423.445 L 165.51 394.934 L 165.51 394.934 Q 165.51 392.648 164.49 391.418 L 164.49 391.418 L 164.49 391.418 Q 163.471 390.188 161.256 390.223 L 161.256 390.223 L 161.256 390.223 Q 159.217 390.223 158.092 391.031 L 158.092 391.031 L 158.092 391.031 Q 156.967 391.84 156.439 393.176 L 156.439 393.176 L 156.439 423.445 L 150.252 423.445 L 150.252 385.406 L 150.252 385.406 Z  M 193.459 385.406 L 199.295 385.406 L 199.471 388.992 L 199.471 388.992 Q 200.631 386.988 202.512 385.863 L 202.512 385.863 L 202.512 385.863 Q 204.393 384.738 207.064 384.703 L 207.064 384.703 L 207.064 384.703 Q 212.303 384.703 214.061 388.781 L 214.061 388.781 L 214.061 388.781 Q 215.186 386.953 217.031 385.846 L 217.031 385.846 L 217.031 385.846 Q 218.877 384.738 221.514 384.703 L 221.514 384.703 L 221.514 384.703 Q 225.697 384.703 227.947 387.27 L 227.947 387.27 L 227.947 387.27 Q 230.197 389.836 230.197 395.039 L 230.197 395.039 L 230.197 423.445 L 224.01 423.445 L 224.01 394.969 L 224.01 394.969 Q 224.01 390.188 219.615 390.223 L 219.615 390.223 L 219.615 390.223 Q 218.455 390.223 217.611 390.539 L 217.611 390.539 L 217.611 390.539 Q 216.768 390.855 216.205 391.4 L 216.205 391.4 L 216.205 391.4 Q 215.643 391.945 215.326 392.666 L 215.326 392.666 L 215.326 392.666 Q 215.01 393.387 214.904 394.16 L 214.904 394.16 L 214.904 423.445 L 208.717 423.445 L 208.717 394.934 L 208.717 394.934 Q 208.717 392.648 207.697 391.418 L 207.697 391.418 L 207.697 391.418 Q 206.678 390.188 204.463 390.223 L 204.463 390.223 L 204.463 390.223 Q 202.424 390.223 201.299 391.031 L 201.299 391.031 L 201.299 391.031 Q 200.174 391.84 199.646 393.176 L 199.646 393.176 L 199.646 423.445 L 193.459 423.445 L 193.459 385.406 L 193.459 385.406 Z  M 240.533 391.066 L 240.533 385.406 L 259.975 385.406 L 259.975 417.82 L 272.385 417.82 L 272.385 423.445 L 240.533 423.445 L 240.533 417.82 L 253.471 417.82 L 253.471 391.066 L 240.533 391.066 L 240.533 391.066 Z  M 252.627 375.422 L 252.627 375.422 L 252.627 375.422 Q 252.627 373.805 253.594 372.697 L 253.594 372.697 L 253.594 372.697 Q 254.561 371.59 256.529 371.59 L 256.529 371.59 L 256.529 371.59 Q 258.463 371.59 259.447 372.697 L 259.447 372.697 L 259.447 372.697 Q 260.432 373.805 260.432 375.422 L 260.432 375.422 L 260.432 375.422 Q 260.432 377.004 259.447 378.059 L 259.447 378.059 L 259.447 378.059 Q 258.463 379.113 256.529 379.113 L 256.529 379.113 L 256.529 379.113 Q 254.561 379.113 253.594 378.059 L 253.594 378.059 L 253.594 378.059 Q 252.627 377.004 252.627 375.422 Z  M 314.959 404.109 L 314.959 404.848 L 314.959 404.848 Q 314.959 408.926 313.975 412.459 L 313.975 412.459 L 313.975 412.459 Q 312.99 415.992 311.092 418.594 L 311.092 418.594 L 311.092 418.594 Q 309.193 421.195 306.398 422.672 L 306.398 422.672 L 306.398 422.672 Q 303.604 424.148 299.982 424.148 L 299.982 424.148 L 299.982 424.148 Q 296.326 424.148 293.637 422.848 L 293.637 422.848 L 293.637 422.848 Q 290.947 421.547 289.049 419.121 L 289.049 419.121 L 288.732 423.445 L 282.756 423.445 L 282.756 369.445 L 289.26 369.445 L 289.26 389.484 L 289.26 389.484 Q 291.123 387.164 293.76 385.934 L 293.76 385.934 L 293.76 385.934 Q 296.396 384.703 299.912 384.703 L 299.912 384.703 L 299.912 384.703 Q 303.568 384.703 306.381 386.145 L 306.381 386.145 L 306.381 386.145 Q 309.193 387.586 311.092 390.152 L 311.092 390.152 L 311.092 390.152 Q 312.99 392.719 313.975 396.287 L 313.975 396.287 L 313.975 396.287 Q 314.959 399.855 314.959 404.109 L 314.959 404.109 L 314.959 404.109 Z  M 308.455 404.848 L 308.455 404.109 L 308.455 404.109 Q 308.455 401.332 307.91 398.818 L 307.91 398.818 L 307.91 398.818 Q 307.365 396.305 306.17 394.389 L 306.17 394.389 L 306.17 394.389 Q 304.975 392.473 303.041 391.348 L 303.041 391.348 L 303.041 391.348 Q 301.107 390.223 298.295 390.223 L 298.295 390.223 L 298.295 390.223 Q 296.607 390.223 295.201 390.662 L 295.201 390.662 L 295.201 390.662 Q 293.795 391.102 292.688 391.893 L 292.688 391.893 L 292.688 391.893 Q 291.58 392.684 290.719 393.756 L 290.719 393.756 L 290.719 393.756 Q 289.857 394.828 289.26 396.094 L 289.26 396.094 L 289.26 412.723 L 289.26 412.723 Q 289.893 413.988 290.754 415.061 L 290.754 415.061 L 290.754 415.061 Q 291.615 416.133 292.74 416.941 L 292.74 416.941 L 292.74 416.941 Q 293.865 417.75 295.271 418.189 L 295.271 418.189 L 295.271 418.189 Q 296.678 418.629 298.365 418.629 L 298.365 418.629 L 298.365 418.629 Q 301.037 418.629 302.953 417.521 L 302.953 417.521 L 302.953 417.521 Q 304.869 416.414 306.082 414.516 L 306.082 414.516 L 306.082 414.516 Q 307.295 412.617 307.875 410.121 L 307.875 410.121 L 307.875 410.121 Q 308.455 407.625 308.455 404.848 L 308.455 404.848 L 308.455 404.848 Z  M 324.1 404.848 L 324.1 404.074 L 324.1 404.074 Q 324.1 399.961 325.295 396.428 L 325.295 396.428 L 325.295 396.428 Q 326.49 392.895 328.723 390.293 L 328.723 390.293 L 328.723 390.293 Q 330.955 387.691 334.154 386.197 L 334.154 386.197 L 334.154 386.197 Q 337.354 384.703 341.361 384.703 L 341.361 384.703 L 341.361 384.703 Q 345.404 384.703 348.621 386.197 L 348.621 386.197 L 348.621 386.197 Q 351.838 387.691 354.07 390.293 L 354.07 390.293 L 354.07 390.293 Q 356.303 392.895 357.498 396.428 L 357.498 396.428 L 357.498 396.428 Q 358.693 399.961 358.693 404.074 L 358.693 404.074 L 358.693 404.848 L 358.693 404.848 Q 358.693 408.961 357.498 412.477 L 357.498 412.477 L 357.498 412.477 Q 356.303 415.992 354.07 418.594 L 354.07 418.594 L 354.07 418.594 Q 351.838 421.195 348.639 422.672 L 348.639 422.672 L 348.639 422.672 Q 345.439 424.148 341.432 424.148 L 341.432 424.148 L 341.432 424.148 Q 337.389 424.148 334.172 422.672 L 334.172 422.672 L 334.172 422.672 Q 330.955 421.195 328.723 418.594 L 328.723 418.594 L 328.723 418.594 Q 326.49 415.992 325.295 412.477 L 325.295 412.477 L 325.295 412.477 Q 324.1 408.961 324.1 404.848 L 324.1 404.848 L 324.1 404.848 Z  M 330.604 404.074 L 330.604 404.848 L 330.604 404.848 Q 330.604 407.66 331.271 410.209 L 331.271 410.209 L 331.271 410.209 Q 331.939 412.758 333.293 414.691 L 333.293 414.691 L 333.293 414.691 Q 334.646 416.625 336.686 417.75 L 336.686 417.75 L 336.686 417.75 Q 338.725 418.875 341.432 418.875 L 341.432 418.875 L 341.432 418.875 Q 344.104 418.875 346.125 417.75 L 346.125 417.75 L 346.125 417.75 Q 348.146 416.625 349.5 414.691 L 349.5 414.691 L 349.5 414.691 Q 350.854 412.758 351.521 410.209 L 351.521 410.209 L 351.521 410.209 Q 352.189 407.66 352.189 404.848 L 352.189 404.848 L 352.189 404.074 L 352.189 404.074 Q 352.189 401.297 351.504 398.748 L 351.504 398.748 L 351.504 398.748 Q 350.818 396.199 349.465 394.266 L 349.465 394.266 L 349.465 394.266 Q 348.111 392.332 346.09 391.189 L 346.09 391.189 L 346.09 391.189 Q 344.068 390.047 341.361 390.047 L 341.361 390.047 L 341.361 390.047 Q 338.654 390.047 336.65 391.189 L 336.65 391.189 L 336.65 391.189 Q 334.646 392.332 333.293 394.266 L 333.293 394.266 L 333.293 394.266 Q 331.939 396.199 331.271 398.748 L 331.271 398.748 L 331.271 398.748 Q 330.604 401.297 330.604 404.074 L 330.604 404.074 L 330.604 404.074 Z  M 367.307 404.848 L 367.307 404.074 L 367.307 404.074 Q 367.307 399.961 368.502 396.428 L 368.502 396.428 L 368.502 396.428 Q 369.697 392.895 371.93 390.293 L 371.93 390.293 L 371.93 390.293 Q 374.162 387.691 377.361 386.197 L 377.361 386.197 L 377.361 386.197 Q 380.561 384.703 384.568 384.703 L 384.568 384.703 L 384.568 384.703 Q 388.611 384.703 391.828 386.197 L 391.828 386.197 L 391.828 386.197 Q 395.045 387.691 397.277 390.293 L 397.277 390.293 L 397.277 390.293 Q 399.51 392.895 400.705 396.428 L 400.705 396.428 L 400.705 396.428 Q 401.9 399.961 401.9 404.074 L 401.9 404.074 L 401.9 404.848 L 401.9 404.848 Q 401.9 408.961 400.705 412.477 L 400.705 412.477 L 400.705 412.477 Q 399.51 415.992 397.277 418.594 L 397.277 418.594 L 397.277 418.594 Q 395.045 421.195 391.846 422.672 L 391.846 422.672 L 391.846 422.672 Q 388.646 424.148 384.639 424.148 L 384.639 424.148 L 384.639 424.148 Q 380.596 424.148 377.379 422.672 L 377.379 422.672 L 377.379 422.672 Q 374.162 421.195 371.93 418.594 L 371.93 418.594 L 371.93 418.594 Q 369.697 415.992 368.502 412.477 L 368.502 412.477 L 368.502 412.477 Q 367.307 408.961 367.307 404.848 L 367.307 404.848 L 367.307 404.848 Z  M 373.811 404.074 L 373.811 404.848 L 373.811 404.848 Q 373.811 407.66 374.479 410.209 L 374.479 410.209 L 374.479 410.209 Q 375.146 412.758 376.5 414.691 L 376.5 414.691 L 376.5 414.691 Q 377.854 416.625 379.893 417.75 L 379.893 417.75 L 379.893 417.75 Q 381.932 418.875 384.639 418.875 L 384.639 418.875 L 384.639 418.875 Q 387.311 418.875 389.332 417.75 L 389.332 417.75 L 389.332 417.75 Q 391.354 416.625 392.707 414.691 L 392.707 414.691 L 392.707 414.691 Q 394.061 412.758 394.729 410.209 L 394.729 410.209 L 394.729 410.209 Q 395.396 407.66 395.396 404.848 L 395.396 404.848 L 395.396 404.074 L 395.396 404.074 Q 395.396 401.297 394.711 398.748 L 394.711 398.748 L 394.711 398.748 Q 394.025 396.199 392.672 394.266 L 392.672 394.266 L 392.672 394.266 Q 391.318 392.332 389.297 391.189 L 389.297 391.189 L 389.297 391.189 Q 387.275 390.047 384.568 390.047 L 384.568 390.047 L 384.568 390.047 Q 381.861 390.047 379.857 391.189 L 379.857 391.189 L 379.857 391.189 Q 377.854 392.332 376.5 394.266 L 376.5 394.266 L 376.5 394.266 Q 375.146 396.199 374.479 398.748 L 374.479 398.748 L 374.479 398.748 Q 373.811 401.297 373.811 404.074 L 373.811 404.074 L 373.811 404.074 Z  M 421.201 376.195 L 427.74 376.195 L 427.74 385.406 L 442.225 385.406 L 442.225 390.434 L 427.74 390.434 L 427.74 411.105 L 427.74 411.105 Q 427.74 413.32 428.303 414.762 L 428.303 414.762 L 428.303 414.762 Q 428.865 416.203 429.85 417.064 L 429.85 417.064 L 429.85 417.064 Q 430.834 417.926 432.117 418.277 L 432.117 418.277 L 432.117 418.277 Q 433.4 418.629 434.842 418.629 L 434.842 418.629 L 434.842 418.629 Q 435.896 418.629 437.021 418.506 L 437.021 418.506 L 437.021 418.506 Q 438.146 418.383 439.219 418.207 L 439.219 418.207 L 439.219 418.207 Q 440.291 418.031 441.223 417.838 L 441.223 417.838 L 441.223 417.838 Q 442.154 417.645 442.752 417.504 L 442.752 417.504 L 443.666 422.109 L 443.666 422.109 Q 442.857 422.602 441.697 422.971 L 441.697 422.971 L 441.697 422.971 Q 440.537 423.34 439.166 423.604 L 439.166 423.604 L 439.166 423.604 Q 437.795 423.867 436.266 424.008 L 436.266 424.008 L 436.266 424.008 Q 434.736 424.148 433.225 424.148 L 433.225 424.148 L 433.225 424.148 Q 430.693 424.148 428.496 423.428 L 428.496 423.428 L 428.496 423.428 Q 426.299 422.707 424.682 421.143 L 424.682 421.143 L 424.682 421.143 Q 423.064 419.578 422.133 417.1 L 422.133 417.1 L 422.133 417.1 Q 421.201 414.621 421.201 411.105 L 421.201 411.105 L 421.201 390.434 L 411.217 390.434 L 411.217 385.406 L 421.201 385.406 L 421.201 376.195 L 421.201 376.195 Z " fill-rule="evenodd" fill="rgb(255,255,225)"/></g></svg>