<?xml version="1.0" standalone="no"?><!-- Generator: Gravit.io --><svg xmlns="http://www.w3.org/2000/svg" xmlns:xlink="http://www.w3.org/1999/xlink" style="isolation:isolate" viewBox="0 0 512 512" width="512" height="512"><defs><clipPath id="_clipPath_xEZJWEmJcuaz4w2oc7LCMDSNhjPss2zm"><rect width="512" height="512"/></clipPath></defs><g clip-path="url(#_clipPath_xEZJWEmJcuaz4w2oc7LCMDSNhjPss2zm)"><rect x="0" y="0" width="512" height="512" transform="matrix(1,0,0,1,0,0)" fill="rgb(124,190,66)"/><path d=" M 252.729 98.039 L 252.729 311.32 L 225.776 311.32 L 225.776 212.736 L 139.937 212.736 L 139.937 311.32 L 113.13 311.32 L 113.13 98.039 L 139.937 98.039 L 139.937 189.738 L 225.776 189.738 L 225.776 98.039 L 252.729 98.039 L 252.729 98.039 Z  M 404.048 311.32 L 377.095 311.32 L 377.095 311.32 Q 374.751 306.193 373.726 294.035 L 373.726 294.035 L 373.726 294.035 Q 359.956 314.25 338.569 314.25 L 338.569 314.25 L 338.569 314.25 Q 317.036 314.25 304.951 302.165 L 304.951 302.165 L 304.951 302.165 Q 292.866 290.08 292.866 268.107 L 292.866 268.107 L 292.866 268.107 Q 292.866 243.938 309.272 229.729 L 309.272 229.729 L 309.272 229.729 Q 325.679 215.52 354.243 215.227 L 354.243 215.227 L 373.286 215.227 L 373.286 198.381 L 373.286 198.381 Q 373.286 184.172 366.987 178.166 L 366.987 178.166 L 366.987 178.166 Q 360.688 172.16 347.798 172.16 L 347.798 172.16 L 347.798 172.16 Q 336.079 172.16 328.755 179.118 L 328.755 179.118 L 328.755 179.118 Q 321.431 186.076 321.431 196.77 L 321.431 196.77 L 295.503 196.77 L 295.503 196.77 Q 295.503 184.611 302.681 173.552 L 302.681 173.552 L 302.681 173.552 Q 309.858 162.492 322.017 156.193 L 322.017 156.193 L 322.017 156.193 Q 334.175 149.895 349.116 149.895 L 349.116 149.895 L 349.116 149.895 Q 373.433 149.895 386.104 161.979 L 386.104 161.979 L 386.104 161.979 Q 398.774 174.064 399.067 197.209 L 399.067 197.209 L 399.067 277.189 L 399.067 277.189 Q 399.214 295.5 404.048 308.977 L 404.048 308.977 L 404.048 311.32 L 404.048 311.32 Z  M 342.524 290.666 L 342.524 290.666 L 342.524 290.666 Q 352.046 290.666 360.688 285.393 L 360.688 285.393 L 360.688 285.393 Q 369.331 280.119 373.286 272.209 L 373.286 272.209 L 373.286 234.416 L 358.638 234.416 L 358.638 234.416 Q 340.181 234.709 329.487 242.692 L 329.487 242.692 L 329.487 242.692 Q 318.794 250.676 318.794 265.031 L 318.794 265.031 L 318.794 265.031 Q 318.794 278.508 324.214 284.587 L 324.214 284.587 L 324.214 284.587 Q 329.634 290.666 342.524 290.666 Z " fill-rule="evenodd" fill="rgb(255,255,225)"/><path d=" M 159.604 369.445 L 159.604 391.066 L 159.604 391.066 Q 161.643 388.078 164.631 386.408 L 164.631 386.408 L 164.631 386.408 Q 167.619 384.738 171.346 384.703 L 171.346 384.703 L 171.346 384.703 Q 174.334 384.703 176.777 385.564 L 176.777 385.564 L 176.777 385.564 Q 179.221 386.426 180.943 388.254 L 180.943 388.254 L 180.943 388.254 Q 182.666 390.082 183.598 392.877 L 183.598 392.877 L 183.598 392.877 Q 184.529 395.672 184.529 399.504 L 184.529 399.504 L 184.529 423.445 L 178.025 423.445 L 178.025 399.434 L 178.025 399.434 Q 178.025 394.758 175.793 392.473 L 175.793 392.473 L 175.793 392.473 Q 173.561 390.188 169.412 390.223 L 169.412 390.223 L 169.412 390.223 Q 166.283 390.223 163.734 391.752 L 163.734 391.752 L 163.734 391.752 Q 161.186 393.281 159.604 395.813 L 159.604 395.813 L 159.604 423.445 L 153.1 423.445 L 153.1 369.445 L 159.604 369.445 L 159.604 369.445 Z  M 228.088 423.445 L 221.303 423.445 L 221.303 423.445 Q 220.916 422.707 220.688 421.6 L 220.688 421.6 L 220.688 421.6 Q 220.459 420.492 220.354 419.297 L 220.354 419.297 L 220.354 419.297 Q 219.369 420.281 218.156 421.16 L 218.156 421.16 L 218.156 421.16 Q 216.943 422.039 215.484 422.707 L 215.484 422.707 L 215.484 422.707 Q 214.025 423.375 212.373 423.762 L 212.373 423.762 L 212.373 423.762 Q 210.721 424.148 208.857 424.148 L 208.857 424.148 L 208.857 424.148 Q 205.834 424.148 203.391 423.27 L 203.391 423.27 L 203.391 423.27 Q 200.947 422.391 199.242 420.896 L 199.242 420.896 L 199.242 420.896 Q 197.537 419.402 196.605 417.346 L 196.605 417.346 L 196.605 417.346 Q 195.674 415.289 195.674 412.898 L 195.674 412.898 L 195.674 412.898 Q 195.674 409.77 196.922 407.414 L 196.922 407.414 L 196.922 407.414 Q 198.17 405.059 200.455 403.494 L 200.455 403.494 L 200.455 403.494 Q 202.74 401.93 205.957 401.156 L 205.957 401.156 L 205.957 401.156 Q 209.174 400.383 213.146 400.383 L 213.146 400.383 L 220.248 400.383 L 220.248 397.395 L 220.248 397.395 Q 220.248 395.672 219.615 394.301 L 219.615 394.301 L 219.615 394.301 Q 218.982 392.93 217.822 391.963 L 217.822 391.963 L 217.822 391.963 Q 216.662 390.996 214.992 390.469 L 214.992 390.469 L 214.992 390.469 Q 213.322 389.941 211.248 389.941 L 211.248 389.941 L 211.248 389.941 Q 209.314 389.941 207.785 390.434 L 207.785 390.434 L 207.785 390.434 Q 206.256 390.926 205.201 391.734 L 205.201 391.734 L 205.201 391.734 Q 204.146 392.543 203.566 393.65 L 203.566 393.65 L 203.566 393.65 Q 202.986 394.758 202.986 395.953 L 202.986 395.953 L 196.447 395.953 L 196.447 395.953 Q 196.482 393.879 197.52 391.875 L 197.52 391.875 L 197.52 391.875 Q 198.557 389.871 200.508 388.271 L 200.508 388.271 L 200.508 388.271 Q 202.459 386.672 205.254 385.688 L 205.254 385.688 L 205.254 385.688 Q 208.049 384.703 211.6 384.703 L 211.6 384.703 L 211.6 384.703 Q 214.834 384.703 217.611 385.494 L 217.611 385.494 L 217.611 385.494 Q 220.389 386.285 222.41 387.885 L 222.41 387.885 L 222.41 387.885 Q 224.432 389.484 225.592 391.875 L 225.592 391.875 L 225.592 391.875 Q 226.752 394.266 226.752 397.465 L 226.752 397.465 L 226.752 415.148 L 226.752 415.148 Q 226.752 417.047 227.104 419.174 L 227.104 419.174 L 227.104 419.174 Q 227.455 421.301 228.088 422.883 L 228.088 422.883 L 228.088 423.445 L 228.088 423.445 Z  M 209.807 418.488 L 209.807 418.488 L 209.807 418.488 Q 211.705 418.488 213.357 417.996 L 213.357 417.996 L 213.357 417.996 Q 215.01 417.504 216.363 416.695 L 216.363 416.695 L 216.363 416.695 Q 217.717 415.887 218.701 414.85 L 218.701 414.85 L 218.701 414.85 Q 219.686 413.813 220.248 412.688 L 220.248 412.688 L 220.248 404.988 L 214.201 404.988 L 214.201 404.988 Q 208.506 404.988 205.342 406.676 L 205.342 406.676 L 205.342 406.676 Q 202.178 408.363 202.178 411.984 L 202.178 411.984 L 202.178 411.984 Q 202.178 413.391 202.652 414.586 L 202.652 414.586 L 202.652 414.586 Q 203.127 415.781 204.076 416.643 L 204.076 416.643 L 204.076 416.643 Q 205.025 417.504 206.467 417.996 L 206.467 417.996 L 206.467 417.996 Q 207.908 418.488 209.807 418.488 Z  M 240.533 391.066 L 240.533 385.406 L 259.975 385.406 L 259.975 417.82 L 272.385 417.82 L 272.385 423.445 L 240.533 423.445 L 240.533 417.82 L 253.471 417.82 L 253.471 391.066 L 240.533 391.066 L 240.533 391.066 Z  M 252.627 375.422 L 252.627 375.422 L 252.627 375.422 Q 252.627 373.805 253.594 372.697 L 253.594 372.697 L 253.594 372.697 Q 254.561 371.59 256.529 371.59 L 256.529 371.59 L 256.529 371.59 Q 258.463 371.59 259.447 372.697 L 259.447 372.697 L 259.447 372.697 Q 260.432 373.805 260.432 375.422 L 260.432 375.422 L 260.432 375.422 Q 260.432 377.004 259.447 378.059 L 259.447 378.059 L 259.447 378.059 Q 258.463 379.113 256.529 379.113 L 256.529 379.113 L 256.529 379.113 Q 254.561 379.113 253.594 378.059 L 253.594 378.059 L 253.594 378.059 Q 252.627 377.004 252.627 375.422 Z  M 308.068 423.445 L 294.111 405.691 L 289.33 410.297 L 289.33 423.445 L 282.791 423.445 L 282.791 369.445 L 289.33 369.445 L 289.33 402.492 L 293.584 397.922 L 306.064 385.406 L 313.975 385.406 L 298.576 401.262 L 316.33 423.445 L 308.068 423.445 L 308.068 423.445 Z  M 350.994 423.445 L 350.607 418.207 L 350.607 418.207 Q 348.709 421.02 345.861 422.584 L 345.861 422.584 L 345.861 422.584 Q 343.014 424.148 339.287 424.148 L 339.287 424.148 L 339.287 424.148 Q 336.299 424.148 333.873 423.217 L 333.873 423.217 L 333.873 423.217 Q 331.447 422.285 329.725 420.316 L 329.725 420.316 L 329.725 420.316 Q 328.002 418.348 327.07 415.307 L 327.07 415.307 L 327.07 415.307 Q 326.139 412.266 326.139 408.012 L 326.139 408.012 L 326.139 385.406 L 332.643 385.406 L 332.643 408.082 L 332.643 408.082 Q 332.643 411.176 333.135 413.215 L 333.135 413.215 L 333.135 413.215 Q 333.627 415.254 334.611 416.467 L 334.611 416.467 L 334.611 416.467 Q 335.596 417.68 337.02 418.172 L 337.02 418.172 L 337.02 418.172 Q 338.443 418.664 340.307 418.664 L 340.307 418.664 L 340.307 418.664 Q 344.279 418.664 346.723 417.047 L 346.723 417.047 L 346.723 417.047 Q 349.166 415.43 350.361 412.688 L 350.361 412.688 L 350.361 385.406 L 356.9 385.406 L 356.9 423.445 L 350.994 423.445 L 350.994 423.445 Z " fill-rule="evenodd" fill="rgb(255,255,225)"/></g></svg>