<?xml version="1.0" standalone="no"?><!-- Generator: Gravit.io --><svg xmlns="http://www.w3.org/2000/svg" xmlns:xlink="http://www.w3.org/1999/xlink" style="isolation:isolate" viewBox="0 0 512 512" width="512" height="512"><defs><clipPath id="_clipPath_ZqT5m7LDmwb93EwVos0kG1JZrKJd4rFP"><rect width="512" height="512"/></clipPath></defs><g clip-path="url(#_clipPath_ZqT5m7LDmwb93EwVos0kG1JZrKJd4rFP)"><rect x="0" y="0" width="512" height="512" transform="matrix(1,0,0,1,0,0)" fill="rgb(238,68,124)"/><path d=" M 227.095 98.039 L 227.095 311.32 L 200.142 311.32 L 200.142 212.736 L 114.302 212.736 L 114.302 311.32 L 87.495 311.32 L 87.495 98.039 L 114.302 98.039 L 114.302 189.738 L 200.142 189.738 L 200.142 98.039 L 227.095 98.039 L 227.095 98.039 Z  M 357.905 152.824 L 388.081 265.764 L 412.104 152.824 L 437.739 152.824 L 398.921 311.32 L 378.267 311.32 L 347.358 197.941 L 317.183 311.32 L 296.382 311.32 L 257.856 152.824 L 283.345 152.824 L 307.954 262.98 L 337.397 152.824 L 357.905 152.824 L 357.905 152.824 Z " fill-rule="evenodd" fill="rgb(255,255,225)"/><path d=" M 138 369.445 L 138 391.066 L 138 391.066 Q 140.039 388.078 143.027 386.408 L 143.027 386.408 L 143.027 386.408 Q 146.016 384.738 149.742 384.703 L 149.742 384.703 L 149.742 384.703 Q 152.73 384.703 155.174 385.564 L 155.174 385.564 L 155.174 385.564 Q 157.617 386.426 159.34 388.254 L 159.34 388.254 L 159.34 388.254 Q 161.063 390.082 161.994 392.877 L 161.994 392.877 L 161.994 392.877 Q 162.926 395.672 162.926 399.504 L 162.926 399.504 L 162.926 423.445 L 156.422 423.445 L 156.422 399.434 L 156.422 399.434 Q 156.422 394.758 154.189 392.473 L 154.189 392.473 L 154.189 392.473 Q 151.957 390.188 147.809 390.223 L 147.809 390.223 L 147.809 390.223 Q 144.68 390.223 142.131 391.752 L 142.131 391.752 L 142.131 391.752 Q 139.582 393.281 138 395.813 L 138 395.813 L 138 423.445 L 131.496 423.445 L 131.496 369.445 L 138 369.445 L 138 369.445 Z  M 176.039 385.406 L 180.469 409.664 L 181.242 415.113 L 182.191 409.664 L 188.273 385.406 L 192.457 385.406 L 198.504 409.664 L 199.523 415.641 L 200.473 409.664 L 204.691 385.406 L 210.457 385.406 L 202.371 423.445 L 197.238 423.445 L 191.297 400.137 L 190.313 394.23 L 189.363 400.137 L 183.492 423.445 L 178.359 423.445 L 170.273 385.406 L 176.039 385.406 L 176.039 385.406 Z  M 226.77 376.195 L 233.309 376.195 L 233.309 385.406 L 247.793 385.406 L 247.793 390.434 L 233.309 390.434 L 233.309 411.105 L 233.309 411.105 Q 233.309 413.32 233.871 414.762 L 233.871 414.762 L 233.871 414.762 Q 234.434 416.203 235.418 417.064 L 235.418 417.064 L 235.418 417.064 Q 236.402 417.926 237.686 418.277 L 237.686 418.277 L 237.686 418.277 Q 238.969 418.629 240.41 418.629 L 240.41 418.629 L 240.41 418.629 Q 241.465 418.629 242.59 418.506 L 242.59 418.506 L 242.59 418.506 Q 243.715 418.383 244.787 418.207 L 244.787 418.207 L 244.787 418.207 Q 245.859 418.031 246.791 417.838 L 246.791 417.838 L 246.791 417.838 Q 247.723 417.645 248.32 417.504 L 248.32 417.504 L 249.234 422.109 L 249.234 422.109 Q 248.426 422.602 247.266 422.971 L 247.266 422.971 L 247.266 422.971 Q 246.105 423.34 244.734 423.604 L 244.734 423.604 L 244.734 423.604 Q 243.363 423.867 241.834 424.008 L 241.834 424.008 L 241.834 424.008 Q 240.305 424.148 238.793 424.148 L 238.793 424.148 L 238.793 424.148 Q 236.262 424.148 234.064 423.428 L 234.064 423.428 L 234.064 423.428 Q 231.867 422.707 230.25 421.143 L 230.25 421.143 L 230.25 421.143 Q 228.633 419.578 227.701 417.1 L 227.701 417.1 L 227.701 417.1 Q 226.77 414.621 226.77 411.105 L 226.77 411.105 L 226.77 390.434 L 216.785 390.434 L 216.785 385.406 L 226.77 385.406 L 226.77 376.195 L 226.77 376.195 Z  M 277.922 424.148 L 277.922 424.148 L 277.922 424.148 Q 273.914 424.148 270.557 422.777 L 270.557 422.777 L 270.557 422.777 Q 267.199 421.406 264.809 418.945 L 264.809 418.945 L 264.809 418.945 Q 262.418 416.484 261.082 413.109 L 261.082 413.109 L 261.082 413.109 Q 259.746 409.734 259.746 405.762 L 259.746 405.762 L 259.746 404.285 L 259.746 404.285 Q 259.746 399.68 261.223 396.041 L 261.223 396.041 L 261.223 396.041 Q 262.699 392.402 265.143 389.889 L 265.143 389.889 L 265.143 389.889 Q 267.586 387.375 270.697 386.039 L 270.697 386.039 L 270.697 386.039 Q 273.809 384.703 277.078 384.703 L 277.078 384.703 L 277.078 384.703 Q 281.191 384.703 284.268 386.127 L 284.268 386.127 L 284.268 386.127 Q 287.344 387.551 289.383 390.064 L 289.383 390.064 L 289.383 390.064 Q 291.422 392.578 292.424 395.988 L 292.424 395.988 L 292.424 395.988 Q 293.426 399.398 293.426 403.371 L 293.426 403.371 L 293.426 406.289 L 266.25 406.289 L 266.25 406.289 Q 266.355 408.891 267.252 411.176 L 267.252 411.176 L 267.252 411.176 Q 268.148 413.461 269.713 415.166 L 269.713 415.166 L 269.713 415.166 Q 271.277 416.871 273.457 417.855 L 273.457 417.855 L 273.457 417.855 Q 275.637 418.84 278.273 418.84 L 278.273 418.84 L 278.273 418.84 Q 281.754 418.84 284.461 417.434 L 284.461 417.434 L 284.461 417.434 Q 287.168 416.027 288.961 413.707 L 288.961 413.707 L 292.934 416.801 L 292.934 416.801 Q 291.984 418.242 290.561 419.561 L 290.561 419.561 L 290.561 419.561 Q 289.137 420.879 287.273 421.898 L 287.273 421.898 L 287.273 421.898 Q 285.41 422.918 283.055 423.533 L 283.055 423.533 L 283.055 423.533 Q 280.699 424.148 277.922 424.148 Z  M 277.078 390.047 L 277.078 390.047 L 277.078 390.047 Q 275.109 390.047 273.352 390.768 L 273.352 390.768 L 273.352 390.768 Q 271.594 391.488 270.188 392.877 L 270.188 392.877 L 270.188 392.877 Q 268.781 394.266 267.814 396.287 L 267.814 396.287 L 267.814 396.287 Q 266.848 398.309 266.461 400.945 L 266.461 400.945 L 286.922 400.945 L 286.922 400.453 L 286.922 400.453 Q 286.816 398.555 286.201 396.691 L 286.201 396.691 L 286.201 396.691 Q 285.586 394.828 284.391 393.352 L 284.391 393.352 L 284.391 393.352 Q 283.195 391.875 281.385 390.961 L 281.385 390.961 L 281.385 390.961 Q 279.574 390.047 277.078 390.047 Z  M 329.602 413.355 L 329.602 413.355 L 329.602 413.355 Q 329.602 412.195 329.145 411.264 L 329.145 411.264 L 329.145 411.264 Q 328.688 410.332 327.598 409.559 L 327.598 409.559 L 327.598 409.559 Q 326.508 408.785 324.715 408.135 L 324.715 408.135 L 324.715 408.135 Q 322.922 407.484 320.25 406.957 L 320.25 406.957 L 320.25 406.957 Q 316.98 406.289 314.291 405.34 L 314.291 405.34 L 314.291 405.34 Q 311.602 404.391 309.686 403.072 L 309.686 403.072 L 309.686 403.072 Q 307.77 401.754 306.715 399.979 L 306.715 399.979 L 306.715 399.979 Q 305.66 398.203 305.66 395.848 L 305.66 395.848 L 305.66 395.848 Q 305.66 393.527 306.75 391.506 L 306.75 391.506 L 306.75 391.506 Q 307.84 389.484 309.809 387.973 L 309.809 387.973 L 309.809 387.973 Q 311.777 386.461 314.502 385.582 L 314.502 385.582 L 314.502 385.582 Q 317.227 384.703 320.496 384.703 L 320.496 384.703 L 320.496 384.703 Q 324.012 384.703 326.824 385.617 L 326.824 385.617 L 326.824 385.617 Q 329.637 386.531 331.605 388.148 L 331.605 388.148 L 331.605 388.148 Q 333.574 389.766 334.646 391.928 L 334.646 391.928 L 334.646 391.928 Q 335.719 394.09 335.719 396.586 L 335.719 396.586 L 329.215 396.586 L 329.215 396.586 Q 329.215 395.355 328.582 394.178 L 328.582 394.178 L 328.582 394.178 Q 327.949 393 326.824 392.086 L 326.824 392.086 L 326.824 392.086 Q 325.699 391.172 324.1 390.609 L 324.1 390.609 L 324.1 390.609 Q 322.5 390.047 320.496 390.047 L 320.496 390.047 L 320.496 390.047 Q 318.422 390.047 316.857 390.504 L 316.857 390.504 L 316.857 390.504 Q 315.293 390.961 314.256 391.734 L 314.256 391.734 L 314.256 391.734 Q 313.219 392.508 312.691 393.527 L 312.691 393.527 L 312.691 393.527 Q 312.164 394.547 312.164 395.637 L 312.164 395.637 L 312.164 395.637 Q 312.164 396.762 312.586 397.641 L 312.586 397.641 L 312.586 397.641 Q 313.008 398.52 314.045 399.223 L 314.045 399.223 L 314.045 399.223 Q 315.082 399.926 316.822 400.488 L 316.822 400.488 L 316.822 400.488 Q 318.563 401.051 321.234 401.578 L 321.234 401.578 L 321.234 401.578 Q 324.75 402.316 327.527 403.283 L 327.527 403.283 L 327.527 403.283 Q 330.305 404.25 332.203 405.604 L 332.203 405.604 L 332.203 405.604 Q 334.102 406.957 335.104 408.75 L 335.104 408.75 L 335.104 408.75 Q 336.105 410.543 336.105 412.898 L 336.105 412.898 L 336.105 412.898 Q 336.105 415.43 334.963 417.504 L 334.963 417.504 L 334.963 417.504 Q 333.82 419.578 331.781 421.055 L 331.781 421.055 L 331.781 421.055 Q 329.742 422.531 326.895 423.34 L 326.895 423.34 L 326.895 423.34 Q 324.047 424.148 320.672 424.148 L 320.672 424.148 L 320.672 424.148 Q 316.805 424.148 313.781 423.111 L 313.781 423.111 L 313.781 423.111 Q 310.758 422.074 308.666 420.369 L 308.666 420.369 L 308.666 420.369 Q 306.574 418.664 305.467 416.414 L 305.467 416.414 L 305.467 416.414 Q 304.359 414.164 304.359 411.738 L 304.359 411.738 L 310.863 411.738 L 310.863 411.738 Q 311.004 413.742 311.936 415.113 L 311.936 415.113 L 311.936 415.113 Q 312.867 416.484 314.256 417.328 L 314.256 417.328 L 314.256 417.328 Q 315.645 418.172 317.332 418.523 L 317.332 418.523 L 317.332 418.523 Q 319.02 418.875 320.672 418.875 L 320.672 418.875 L 320.672 418.875 Q 324.785 418.875 327.176 417.363 L 327.176 417.363 L 327.176 417.363 Q 329.566 415.852 329.602 413.355 Z  M 356.391 376.195 L 362.93 376.195 L 362.93 385.406 L 377.414 385.406 L 377.414 390.434 L 362.93 390.434 L 362.93 411.105 L 362.93 411.105 Q 362.93 413.32 363.492 414.762 L 363.492 414.762 L 363.492 414.762 Q 364.055 416.203 365.039 417.064 L 365.039 417.064 L 365.039 417.064 Q 366.023 417.926 367.307 418.277 L 367.307 418.277 L 367.307 418.277 Q 368.59 418.629 370.031 418.629 L 370.031 418.629 L 370.031 418.629 Q 371.086 418.629 372.211 418.506 L 372.211 418.506 L 372.211 418.506 Q 373.336 418.383 374.408 418.207 L 374.408 418.207 L 374.408 418.207 Q 375.48 418.031 376.412 417.838 L 376.412 417.838 L 376.412 417.838 Q 377.344 417.645 377.941 417.504 L 377.941 417.504 L 378.855 422.109 L 378.855 422.109 Q 378.047 422.602 376.887 422.971 L 376.887 422.971 L 376.887 422.971 Q 375.727 423.34 374.355 423.604 L 374.355 423.604 L 374.355 423.604 Q 372.984 423.867 371.455 424.008 L 371.455 424.008 L 371.455 424.008 Q 369.926 424.148 368.414 424.148 L 368.414 424.148 L 368.414 424.148 Q 365.883 424.148 363.686 423.428 L 363.686 423.428 L 363.686 423.428 Q 361.488 422.707 359.871 421.143 L 359.871 421.143 L 359.871 421.143 Q 358.254 419.578 357.322 417.1 L 357.322 417.1 L 357.322 417.1 Q 356.391 414.621 356.391 411.105 L 356.391 411.105 L 356.391 390.434 L 346.406 390.434 L 346.406 385.406 L 356.391 385.406 L 356.391 376.195 L 356.391 376.195 Z " fill-rule="evenodd" fill="rgb(255,255,225)"/></g></svg>