<?xml version="1.0" standalone="no"?><!-- Generator: Gravit.io --><svg xmlns="http://www.w3.org/2000/svg" xmlns:xlink="http://www.w3.org/1999/xlink" style="isolation:isolate" viewBox="0 0 512 512" width="512" height="512"><defs><clipPath id="_clipPath_Vkk8AJAY1oivkjYYa7NIOMs9vqxPfhdW"><rect width="512" height="512"/></clipPath></defs><g clip-path="url(#_clipPath_Vkk8AJAY1oivkjYYa7NIOMs9vqxPfhdW)"><rect x="0" y="0" width="512" height="512" transform="matrix(1,0,0,1,0,0)" fill="rgb(255,196,0)"/><path d=" M 199.336 98.039 L 199.336 288.322 L 282.979 288.322 L 282.979 311.32 L 172.383 311.32 L 172.383 98.039 L 199.336 98.039 L 199.336 98.039 Z  M 339.229 152.824 L 339.229 311.32 L 313.301 311.32 L 313.301 152.824 L 339.229 152.824 L 339.229 152.824 Z  M 341.279 110.783 L 341.279 110.783 L 341.279 110.783 Q 341.279 117.375 337.617 121.77 L 337.617 121.77 L 337.617 121.77 Q 333.955 126.164 326.484 126.164 L 326.484 126.164 L 326.484 126.164 Q 319.16 126.164 315.498 121.77 L 315.498 121.77 L 315.498 121.77 Q 311.836 117.375 311.836 110.783 L 311.836 110.783 L 311.836 110.783 Q 311.836 104.191 315.498 99.65 L 315.498 99.65 L 315.498 99.65 Q 319.16 95.109 326.484 95.109 L 326.484 95.109 L 326.484 95.109 Q 333.809 95.109 337.544 99.724 L 337.544 99.724 L 337.544 99.724 Q 341.279 104.338 341.279 110.783 Z " fill-rule="evenodd" fill="rgb(255,255,225)"/><path d=" M 154.119 375.105 L 154.119 369.445 L 173.561 369.445 L 173.561 417.82 L 185.971 417.82 L 185.971 423.445 L 154.119 423.445 L 154.119 417.82 L 167.057 417.82 L 167.057 375.105 L 154.119 375.105 L 154.119 375.105 Z  M 197.326 391.066 L 197.326 385.406 L 216.768 385.406 L 216.768 417.82 L 229.178 417.82 L 229.178 423.445 L 197.326 423.445 L 197.326 417.82 L 210.264 417.82 L 210.264 391.066 L 197.326 391.066 L 197.326 391.066 Z  M 209.42 375.422 L 209.42 375.422 L 209.42 375.422 Q 209.42 373.805 210.387 372.697 L 210.387 372.697 L 210.387 372.697 Q 211.354 371.59 213.322 371.59 L 213.322 371.59 L 213.322 371.59 Q 215.256 371.59 216.24 372.697 L 216.24 372.697 L 216.24 372.697 Q 217.225 373.805 217.225 375.422 L 217.225 375.422 L 217.225 375.422 Q 217.225 377.004 216.24 378.059 L 216.24 378.059 L 216.24 378.059 Q 215.256 379.113 213.322 379.113 L 213.322 379.113 L 213.322 379.113 Q 211.354 379.113 210.387 378.059 L 210.387 378.059 L 210.387 378.059 Q 209.42 377.004 209.42 375.422 Z  M 239.514 385.406 L 245.35 385.406 L 245.807 391.031 L 245.807 391.031 Q 247.881 388.078 250.904 386.408 L 250.904 386.408 L 250.904 386.408 Q 253.928 384.738 257.654 384.703 L 257.654 384.703 L 257.654 384.703 Q 260.643 384.703 263.086 385.547 L 263.086 385.547 L 263.086 385.547 Q 265.529 386.391 267.252 388.184 L 267.252 388.184 L 267.252 388.184 Q 268.975 389.977 269.906 392.736 L 269.906 392.736 L 269.906 392.736 Q 270.838 395.496 270.838 399.293 L 270.838 399.293 L 270.838 423.445 L 264.334 423.445 L 264.334 399.434 L 264.334 399.434 Q 264.334 396.902 263.771 395.145 L 263.771 395.145 L 263.771 395.145 Q 263.209 393.387 262.102 392.297 L 262.102 392.297 L 262.102 392.297 Q 260.994 391.207 259.395 390.715 L 259.395 390.715 L 259.395 390.715 Q 257.795 390.223 255.721 390.223 L 255.721 390.223 L 255.721 390.223 Q 252.451 390.223 249.973 391.857 L 249.973 391.857 L 249.973 391.857 Q 247.494 393.492 246.018 396.164 L 246.018 396.164 L 246.018 423.445 L 239.514 423.445 L 239.514 385.406 L 239.514 385.406 Z  M 307.787 423.445 L 307.4 418.207 L 307.4 418.207 Q 305.502 421.02 302.654 422.584 L 302.654 422.584 L 302.654 422.584 Q 299.807 424.148 296.08 424.148 L 296.08 424.148 L 296.08 424.148 Q 293.092 424.148 290.666 423.217 L 290.666 423.217 L 290.666 423.217 Q 288.24 422.285 286.518 420.316 L 286.518 420.316 L 286.518 420.316 Q 284.795 418.348 283.863 415.307 L 283.863 415.307 L 283.863 415.307 Q 282.932 412.266 282.932 408.012 L 282.932 408.012 L 282.932 385.406 L 289.436 385.406 L 289.436 408.082 L 289.436 408.082 Q 289.436 411.176 289.928 413.215 L 289.928 413.215 L 289.928 413.215 Q 290.42 415.254 291.404 416.467 L 291.404 416.467 L 291.404 416.467 Q 292.389 417.68 293.813 418.172 L 293.813 418.172 L 293.813 418.172 Q 295.236 418.664 297.1 418.664 L 297.1 418.664 L 297.1 418.664 Q 301.072 418.664 303.516 417.047 L 303.516 417.047 L 303.516 417.047 Q 305.959 415.43 307.154 412.688 L 307.154 412.688 L 307.154 385.406 L 313.693 385.406 L 313.693 423.445 L 307.787 423.445 L 307.787 423.445 Z  M 331.588 385.406 L 341.643 399.504 L 351.803 385.406 L 359.432 385.406 L 345.264 404.215 L 359.818 423.445 L 352.295 423.445 L 341.783 408.961 L 331.271 423.445 L 323.678 423.445 L 338.232 404.215 L 324.064 385.406 L 331.588 385.406 L 331.588 385.406 Z " fill-rule="evenodd" fill="rgb(255,255,225)"/></g></svg>