<?xml version="1.0" standalone="no"?><!-- Generator: Gravit.io --><svg xmlns="http://www.w3.org/2000/svg" xmlns:xlink="http://www.w3.org/1999/xlink" style="isolation:isolate" viewBox="0 0 512 512" width="512" height="512"><defs><clipPath id="_clipPath_NbDa2pDWWpuWeCYBh5X2cPBdNR7YzQ02"><rect width="512" height="512"/></clipPath></defs><g clip-path="url(#_clipPath_NbDa2pDWWpuWeCYBh5X2cPBdNR7YzQ02)"><rect x="0" y="0" width="512" height="512" transform="matrix(1,0,0,1,0,0)" fill="rgb(124,179,66)"/><path d=" M 163.447 98.039 L 163.447 288.322 L 247.09 288.322 L 247.09 311.32 L 136.494 311.32 L 136.494 98.039 L 163.447 98.039 L 163.447 98.039 Z  M 332.051 314.25 L 332.051 314.25 L 332.051 314.25 Q 302.461 314.25 286.641 296.599 L 286.641 296.599 L 286.641 296.599 Q 270.82 278.947 270.527 244.816 L 270.527 244.816 L 270.527 225.627 L 270.527 225.627 Q 270.527 190.178 285.981 170.036 L 285.981 170.036 L 285.981 170.036 Q 301.436 149.895 329.121 149.895 L 329.121 149.895 L 329.121 149.895 Q 356.953 149.895 370.723 167.619 L 370.723 167.619 L 370.723 167.619 Q 384.492 185.344 384.785 222.844 L 384.785 222.844 L 384.785 239.836 L 296.309 239.836 L 296.309 243.498 L 296.309 243.498 Q 296.309 268.986 305.903 280.559 L 305.903 280.559 L 305.903 280.559 Q 315.498 292.131 333.516 292.131 L 333.516 292.131 L 333.516 292.131 Q 344.941 292.131 353.657 287.81 L 353.657 287.81 L 353.657 287.81 Q 362.373 283.488 369.99 274.113 L 369.99 274.113 L 383.467 290.52 L 383.467 290.52 Q 366.621 314.25 332.051 314.25 Z  M 329.121 172.16 L 329.121 172.16 L 329.121 172.16 Q 313.008 172.16 305.244 183.22 L 305.244 183.22 L 305.244 183.22 Q 297.48 194.279 296.455 217.57 L 296.455 217.57 L 358.857 217.57 L 358.857 214.055 L 358.857 214.055 Q 357.832 191.496 350.728 181.828 L 350.728 181.828 L 350.728 181.828 Q 343.623 172.16 329.121 172.16 Z " fill-rule="evenodd" fill="rgb(255,255,225)"/><path d=" M 132.516 376.105 L 132.516 370.445 L 151.957 370.445 L 151.957 418.82 L 164.367 418.82 L 164.367 424.445 L 132.516 424.445 L 132.516 418.82 L 145.453 418.82 L 145.453 376.105 L 132.516 376.105 L 132.516 376.105 Z  M 191.508 425.148 L 191.508 425.148 L 191.508 425.148 Q 187.5 425.148 184.143 423.777 L 184.143 423.777 L 184.143 423.777 Q 180.785 422.406 178.395 419.945 L 178.395 419.945 L 178.395 419.945 Q 176.004 417.484 174.668 414.109 L 174.668 414.109 L 174.668 414.109 Q 173.332 410.734 173.332 406.762 L 173.332 406.762 L 173.332 405.285 L 173.332 405.285 Q 173.332 400.68 174.809 397.041 L 174.809 397.041 L 174.809 397.041 Q 176.285 393.402 178.729 390.889 L 178.729 390.889 L 178.729 390.889 Q 181.172 388.375 184.283 387.039 L 184.283 387.039 L 184.283 387.039 Q 187.395 385.703 190.664 385.703 L 190.664 385.703 L 190.664 385.703 Q 194.777 385.703 197.854 387.127 L 197.854 387.127 L 197.854 387.127 Q 200.93 388.551 202.969 391.064 L 202.969 391.064 L 202.969 391.064 Q 205.008 393.578 206.01 396.988 L 206.01 396.988 L 206.01 396.988 Q 207.012 400.398 207.012 404.371 L 207.012 404.371 L 207.012 407.289 L 179.836 407.289 L 179.836 407.289 Q 179.941 409.891 180.838 412.176 L 180.838 412.176 L 180.838 412.176 Q 181.734 414.461 183.299 416.166 L 183.299 416.166 L 183.299 416.166 Q 184.863 417.871 187.043 418.855 L 187.043 418.855 L 187.043 418.855 Q 189.223 419.84 191.859 419.84 L 191.859 419.84 L 191.859 419.84 Q 195.34 419.84 198.047 418.434 L 198.047 418.434 L 198.047 418.434 Q 200.754 417.027 202.547 414.707 L 202.547 414.707 L 206.52 417.801 L 206.52 417.801 Q 205.57 419.242 204.146 420.561 L 204.146 420.561 L 204.146 420.561 Q 202.723 421.879 200.859 422.898 L 200.859 422.898 L 200.859 422.898 Q 198.996 423.918 196.641 424.533 L 196.641 424.533 L 196.641 424.533 Q 194.285 425.148 191.508 425.148 Z  M 190.664 391.047 L 190.664 391.047 L 190.664 391.047 Q 188.695 391.047 186.938 391.768 L 186.938 391.768 L 186.938 391.768 Q 185.18 392.488 183.773 393.877 L 183.773 393.877 L 183.773 393.877 Q 182.367 395.266 181.4 397.287 L 181.4 397.287 L 181.4 397.287 Q 180.434 399.309 180.047 401.945 L 180.047 401.945 L 200.508 401.945 L 200.508 401.453 L 200.508 401.453 Q 200.402 399.555 199.787 397.691 L 199.787 397.691 L 199.787 397.691 Q 199.172 395.828 197.977 394.352 L 197.977 394.352 L 197.977 394.352 Q 196.781 392.875 194.971 391.961 L 194.971 391.961 L 194.971 391.961 Q 193.16 391.047 190.664 391.047 Z  M 216.715 405.848 L 216.715 405.109 L 216.715 405.109 Q 216.715 400.855 217.752 397.287 L 217.752 397.287 L 217.752 397.287 Q 218.789 393.719 220.758 391.152 L 220.758 391.152 L 220.758 391.152 Q 222.727 388.586 225.539 387.145 L 225.539 387.145 L 225.539 387.145 Q 228.352 385.703 231.902 385.703 L 231.902 385.703 L 231.902 385.703 Q 235.418 385.703 238.072 386.951 L 238.072 386.951 L 238.072 386.951 Q 240.727 388.199 242.59 390.555 L 242.59 390.555 L 242.906 386.406 L 248.813 386.406 L 248.813 423.637 L 248.813 423.637 Q 248.813 427.398 247.635 430.316 L 247.635 430.316 L 247.635 430.316 Q 246.457 433.234 244.33 435.273 L 244.33 435.273 L 244.33 435.273 Q 242.203 437.313 239.25 438.367 L 239.25 438.367 L 239.25 438.367 Q 236.297 439.422 232.711 439.422 L 232.711 439.422 L 232.711 439.422 Q 231.234 439.422 229.336 439.088 L 229.336 439.088 L 229.336 439.088 Q 227.438 438.754 225.486 437.998 L 225.486 437.998 L 225.486 437.998 Q 223.535 437.242 221.725 435.977 L 221.725 435.977 L 221.725 435.977 Q 219.914 434.711 218.613 432.848 L 218.613 432.848 L 221.988 428.945 L 221.988 428.945 Q 223.184 430.387 224.449 431.389 L 224.449 431.389 L 224.449 431.389 Q 225.715 432.391 227.016 432.988 L 227.016 432.988 L 227.016 432.988 Q 228.316 433.586 229.617 433.85 L 229.617 433.85 L 229.617 433.85 Q 230.918 434.113 232.219 434.113 L 232.219 434.113 L 232.219 434.113 Q 234.539 434.113 236.402 433.445 L 236.402 433.445 L 236.402 433.445 Q 238.266 432.777 239.584 431.494 L 239.584 431.494 L 239.584 431.494 Q 240.902 430.211 241.605 428.313 L 241.605 428.313 L 241.605 428.313 Q 242.309 426.414 242.309 423.953 L 242.309 423.953 L 242.309 420.684 L 242.309 420.684 Q 240.41 422.863 237.826 424.006 L 237.826 424.006 L 237.826 424.006 Q 235.242 425.148 231.832 425.148 L 231.832 425.148 L 231.832 425.148 Q 228.352 425.148 225.539 423.672 L 225.539 423.672 L 225.539 423.672 Q 222.727 422.195 220.775 419.594 L 220.775 419.594 L 220.775 419.594 Q 218.824 416.992 217.77 413.459 L 217.77 413.459 L 217.77 413.459 Q 216.715 409.926 216.715 405.848 L 216.715 405.848 L 216.715 405.848 Z  M 223.219 405.109 L 223.219 405.848 L 223.219 405.848 Q 223.219 408.625 223.799 411.121 L 223.799 411.121 L 223.799 411.121 Q 224.379 413.617 225.627 415.516 L 225.627 415.516 L 225.627 415.516 Q 226.875 417.414 228.809 418.521 L 228.809 418.521 L 228.809 418.521 Q 230.742 419.629 233.449 419.629 L 233.449 419.629 L 233.449 419.629 Q 235.137 419.629 236.49 419.225 L 236.49 419.225 L 236.49 419.225 Q 237.844 418.82 238.916 418.082 L 238.916 418.082 L 238.916 418.082 Q 239.988 417.344 240.832 416.324 L 240.832 416.324 L 240.832 416.324 Q 241.676 415.305 242.309 414.074 L 242.309 414.074 L 242.309 396.637 L 242.309 396.637 Q 241.676 395.441 240.832 394.457 L 240.832 394.457 L 240.832 394.457 Q 239.988 393.473 238.898 392.752 L 238.898 392.752 L 238.898 392.752 Q 237.809 392.031 236.473 391.627 L 236.473 391.627 L 236.473 391.627 Q 235.137 391.223 233.52 391.223 L 233.52 391.223 L 233.52 391.223 Q 230.777 391.223 228.826 392.348 L 228.826 392.348 L 228.826 392.348 Q 226.875 393.473 225.627 395.389 L 225.627 395.389 L 225.627 395.389 Q 224.379 397.305 223.799 399.818 L 223.799 399.818 L 223.799 399.818 Q 223.219 402.332 223.219 405.109 L 223.219 405.109 L 223.219 405.109 Z  M 292.898 424.445 L 286.113 424.445 L 286.113 424.445 Q 285.727 423.707 285.498 422.6 L 285.498 422.6 L 285.498 422.6 Q 285.27 421.492 285.164 420.297 L 285.164 420.297 L 285.164 420.297 Q 284.18 421.281 282.967 422.16 L 282.967 422.16 L 282.967 422.16 Q 281.754 423.039 280.295 423.707 L 280.295 423.707 L 280.295 423.707 Q 278.836 424.375 277.184 424.762 L 277.184 424.762 L 277.184 424.762 Q 275.531 425.148 273.668 425.148 L 273.668 425.148 L 273.668 425.148 Q 270.645 425.148 268.201 424.27 L 268.201 424.27 L 268.201 424.27 Q 265.758 423.391 264.053 421.896 L 264.053 421.896 L 264.053 421.896 Q 262.348 420.402 261.416 418.346 L 261.416 418.346 L 261.416 418.346 Q 260.484 416.289 260.484 413.898 L 260.484 413.898 L 260.484 413.898 Q 260.484 410.77 261.732 408.414 L 261.732 408.414 L 261.732 408.414 Q 262.98 406.059 265.266 404.494 L 265.266 404.494 L 265.266 404.494 Q 267.551 402.93 270.768 402.156 L 270.768 402.156 L 270.768 402.156 Q 273.984 401.383 277.957 401.383 L 277.957 401.383 L 285.059 401.383 L 285.059 398.395 L 285.059 398.395 Q 285.059 396.672 284.426 395.301 L 284.426 395.301 L 284.426 395.301 Q 283.793 393.93 282.633 392.963 L 282.633 392.963 L 282.633 392.963 Q 281.473 391.996 279.803 391.469 L 279.803 391.469 L 279.803 391.469 Q 278.133 390.941 276.059 390.941 L 276.059 390.941 L 276.059 390.941 Q 274.125 390.941 272.596 391.434 L 272.596 391.434 L 272.596 391.434 Q 271.066 391.926 270.012 392.734 L 270.012 392.734 L 270.012 392.734 Q 268.957 393.543 268.377 394.65 L 268.377 394.65 L 268.377 394.65 Q 267.797 395.758 267.797 396.953 L 267.797 396.953 L 261.258 396.953 L 261.258 396.953 Q 261.293 394.879 262.33 392.875 L 262.33 392.875 L 262.33 392.875 Q 263.367 390.871 265.318 389.271 L 265.318 389.271 L 265.318 389.271 Q 267.27 387.672 270.064 386.688 L 270.064 386.688 L 270.064 386.688 Q 272.859 385.703 276.41 385.703 L 276.41 385.703 L 276.41 385.703 Q 279.645 385.703 282.422 386.494 L 282.422 386.494 L 282.422 386.494 Q 285.199 387.285 287.221 388.885 L 287.221 388.885 L 287.221 388.885 Q 289.242 390.484 290.402 392.875 L 290.402 392.875 L 290.402 392.875 Q 291.563 395.266 291.563 398.465 L 291.563 398.465 L 291.563 416.148 L 291.563 416.148 Q 291.563 418.047 291.914 420.174 L 291.914 420.174 L 291.914 420.174 Q 292.266 422.301 292.898 423.883 L 292.898 423.883 L 292.898 424.445 L 292.898 424.445 Z  M 274.617 419.488 L 274.617 419.488 L 274.617 419.488 Q 276.516 419.488 278.168 418.996 L 278.168 418.996 L 278.168 418.996 Q 279.82 418.504 281.174 417.695 L 281.174 417.695 L 281.174 417.695 Q 282.527 416.887 283.512 415.85 L 283.512 415.85 L 283.512 415.85 Q 284.496 414.813 285.059 413.688 L 285.059 413.688 L 285.059 405.988 L 279.012 405.988 L 279.012 405.988 Q 273.316 405.988 270.152 407.676 L 270.152 407.676 L 270.152 407.676 Q 266.988 409.363 266.988 412.984 L 266.988 412.984 L 266.988 412.984 Q 266.988 414.391 267.463 415.586 L 267.463 415.586 L 267.463 415.586 Q 267.938 416.781 268.887 417.643 L 268.887 417.643 L 268.887 417.643 Q 269.836 418.504 271.277 418.996 L 271.277 418.996 L 271.277 418.996 Q 272.719 419.488 274.617 419.488 Z  M 320.531 419.875 L 320.531 419.875 L 320.531 419.875 Q 322.289 419.875 323.959 419.313 L 323.959 419.313 L 323.959 419.313 Q 325.629 418.75 326.93 417.748 L 326.93 417.748 L 326.93 417.748 Q 328.23 416.746 329.021 415.393 L 329.021 415.393 L 329.021 415.393 Q 329.813 414.039 329.848 412.457 L 329.848 412.457 L 336 412.457 L 336 412.457 Q 335.965 414.988 334.682 417.291 L 334.682 417.291 L 334.682 417.291 Q 333.398 419.594 331.254 421.334 L 331.254 421.334 L 331.254 421.334 Q 329.109 423.074 326.332 424.111 L 326.332 424.111 L 326.332 424.111 Q 323.555 425.148 320.531 425.148 L 320.531 425.148 L 320.531 425.148 Q 316.207 425.148 312.973 423.602 L 312.973 423.602 L 312.973 423.602 Q 309.738 422.055 307.576 419.436 L 307.576 419.436 L 307.576 419.436 Q 305.414 416.816 304.324 413.389 L 304.324 413.389 L 304.324 413.389 Q 303.234 409.961 303.234 406.164 L 303.234 406.164 L 303.234 404.688 L 303.234 404.688 Q 303.234 400.926 304.324 397.48 L 304.324 397.48 L 304.324 397.48 Q 305.414 394.035 307.576 391.416 L 307.576 391.416 L 307.576 391.416 Q 309.738 388.797 312.973 387.25 L 312.973 387.25 L 312.973 387.25 Q 316.207 385.703 320.531 385.703 L 320.531 385.703 L 320.531 385.703 Q 323.906 385.703 326.736 386.775 L 326.736 386.775 L 326.736 386.775 Q 329.566 387.848 331.623 389.693 L 331.623 389.693 L 331.623 389.693 Q 333.68 391.539 334.84 394.07 L 334.84 394.07 L 334.84 394.07 Q 336 396.602 336 399.484 L 336 399.484 L 329.848 399.484 L 329.848 399.484 Q 329.813 397.762 329.092 396.232 L 329.092 396.232 L 329.092 396.232 Q 328.371 394.703 327.141 393.543 L 327.141 393.543 L 327.141 393.543 Q 325.91 392.383 324.205 391.715 L 324.205 391.715 L 324.205 391.715 Q 322.5 391.047 320.531 391.047 L 320.531 391.047 L 320.531 391.047 Q 317.508 391.047 315.451 392.26 L 315.451 392.26 L 315.451 392.26 Q 313.395 393.473 312.129 395.424 L 312.129 395.424 L 312.129 395.424 Q 310.863 397.375 310.318 399.801 L 310.318 399.801 L 310.318 399.801 Q 309.773 402.227 309.773 404.688 L 309.773 404.688 L 309.773 406.164 L 309.773 406.164 Q 309.773 408.66 310.318 411.104 L 310.318 411.104 L 310.318 411.104 Q 310.863 413.547 312.111 415.498 L 312.111 415.498 L 312.111 415.498 Q 313.359 417.449 315.416 418.662 L 315.416 418.662 L 315.416 418.662 Q 317.473 419.875 320.531 419.875 Z  M 351.082 386.406 L 361.523 410.945 L 363.211 415.551 L 374.813 386.406 L 382.09 386.406 L 362.789 430.316 L 362.789 430.316 Q 362.121 431.793 361.084 433.445 L 361.084 433.445 L 361.084 433.445 Q 360.047 435.098 358.57 436.504 L 358.57 436.504 L 358.57 436.504 Q 357.094 437.91 355.125 438.859 L 355.125 438.859 L 355.125 438.859 Q 353.156 439.809 350.59 439.809 L 350.59 439.809 L 350.59 439.809 Q 350.133 439.809 349.57 439.756 L 349.57 439.756 L 349.57 439.756 Q 349.008 439.703 348.445 439.615 L 348.445 439.615 L 348.445 439.615 Q 347.883 439.527 347.391 439.422 L 347.391 439.422 L 347.391 439.422 Q 346.898 439.316 346.582 439.246 L 346.582 439.246 L 347.637 433.938 L 347.637 433.938 Q 347.883 433.938 348.305 433.973 L 348.305 433.973 L 348.305 433.973 Q 348.727 434.008 349.184 434.043 L 349.184 434.043 L 349.184 434.043 Q 349.641 434.078 350.063 434.096 L 350.063 434.096 L 350.063 434.096 Q 350.484 434.113 350.73 434.113 L 350.73 434.113 L 350.73 434.113 Q 352.066 434.113 353.174 433.375 L 353.174 433.375 L 353.174 433.375 Q 354.281 432.637 355.143 431.617 L 355.143 431.617 L 355.143 431.617 Q 356.004 430.598 356.619 429.508 L 356.619 429.508 L 356.619 429.508 Q 357.234 428.418 357.586 427.715 L 357.586 427.715 L 360.188 422.652 L 343.805 386.406 L 351.082 386.406 L 351.082 386.406 Z " fill-rule="evenodd" fill="rgb(255,255,225)"/></g></svg>