<?xml version="1.0" standalone="no"?><!-- Generator: Gravit.io --><svg xmlns="http://www.w3.org/2000/svg" xmlns:xlink="http://www.w3.org/1999/xlink" style="isolation:isolate" viewBox="0 0 512 512" width="512" height="512"><defs><clipPath id="_clipPath_TUFlF47chAfvjybits4lKz9XHKtbvB7A"><rect width="512" height="512"/></clipPath></defs><g clip-path="url(#_clipPath_TUFlF47chAfvjybits4lKz9XHKtbvB7A)"><rect x="0" y="0" width="512" height="512" transform="matrix(1,0,0,1,0,0)" fill="rgb(74,27,217)"/><path d=" M 161.177 98.039 L 161.177 288.322 L 244.819 288.322 L 244.819 311.32 L 134.224 311.32 L 134.224 98.039 L 161.177 98.039 L 161.177 98.039 Z  M 354.536 311.32 L 353.95 297.404 L 353.95 297.404 Q 341.06 314.25 316.304 314.25 L 316.304 314.25 L 316.304 314.25 Q 294.771 314.25 283.784 299.382 L 283.784 299.382 L 283.784 299.382 Q 272.798 284.514 272.651 256.096 L 272.651 256.096 L 272.651 152.824 L 298.433 152.824 L 298.433 254.191 L 298.433 254.191 Q 298.433 291.252 320.698 291.252 L 320.698 291.252 L 320.698 291.252 Q 344.282 291.252 353.218 270.158 L 353.218 270.158 L 353.218 152.824 L 379.146 152.824 L 379.146 311.32 L 354.536 311.32 L 354.536 311.32 Z " fill-rule="evenodd" fill="rgb(255,255,225)"/><path d=" M 110.912 375.105 L 110.912 369.445 L 130.354 369.445 L 130.354 417.82 L 142.764 417.82 L 142.764 423.445 L 110.912 423.445 L 110.912 417.82 L 123.85 417.82 L 123.85 375.105 L 110.912 375.105 L 110.912 375.105 Z  M 178.166 423.445 L 177.779 418.207 L 177.779 418.207 Q 175.881 421.02 173.033 422.584 L 173.033 422.584 L 173.033 422.584 Q 170.186 424.148 166.459 424.148 L 166.459 424.148 L 166.459 424.148 Q 163.471 424.148 161.045 423.217 L 161.045 423.217 L 161.045 423.217 Q 158.619 422.285 156.896 420.316 L 156.896 420.316 L 156.896 420.316 Q 155.174 418.348 154.242 415.307 L 154.242 415.307 L 154.242 415.307 Q 153.311 412.266 153.311 408.012 L 153.311 408.012 L 153.311 385.406 L 159.814 385.406 L 159.814 408.082 L 159.814 408.082 Q 159.814 411.176 160.307 413.215 L 160.307 413.215 L 160.307 413.215 Q 160.799 415.254 161.783 416.467 L 161.783 416.467 L 161.783 416.467 Q 162.768 417.68 164.191 418.172 L 164.191 418.172 L 164.191 418.172 Q 165.615 418.664 167.479 418.664 L 167.479 418.664 L 167.479 418.664 Q 171.451 418.664 173.895 417.047 L 173.895 417.047 L 173.895 417.047 Q 176.338 415.43 177.533 412.688 L 177.533 412.688 L 177.533 385.406 L 184.072 385.406 L 184.072 423.445 L 178.166 423.445 L 178.166 423.445 Z  M 228.545 404.109 L 228.545 404.848 L 228.545 404.848 Q 228.545 408.926 227.561 412.459 L 227.561 412.459 L 227.561 412.459 Q 226.576 415.992 224.678 418.594 L 224.678 418.594 L 224.678 418.594 Q 222.779 421.195 219.984 422.672 L 219.984 422.672 L 219.984 422.672 Q 217.189 424.148 213.568 424.148 L 213.568 424.148 L 213.568 424.148 Q 209.912 424.148 207.223 422.848 L 207.223 422.848 L 207.223 422.848 Q 204.533 421.547 202.635 419.121 L 202.635 419.121 L 202.318 423.445 L 196.342 423.445 L 196.342 369.445 L 202.846 369.445 L 202.846 389.484 L 202.846 389.484 Q 204.709 387.164 207.346 385.934 L 207.346 385.934 L 207.346 385.934 Q 209.982 384.703 213.498 384.703 L 213.498 384.703 L 213.498 384.703 Q 217.154 384.703 219.967 386.145 L 219.967 386.145 L 219.967 386.145 Q 222.779 387.586 224.678 390.152 L 224.678 390.152 L 224.678 390.152 Q 226.576 392.719 227.561 396.287 L 227.561 396.287 L 227.561 396.287 Q 228.545 399.855 228.545 404.109 L 228.545 404.109 L 228.545 404.109 Z  M 222.041 404.848 L 222.041 404.109 L 222.041 404.109 Q 222.041 401.332 221.496 398.818 L 221.496 398.818 L 221.496 398.818 Q 220.951 396.305 219.756 394.389 L 219.756 394.389 L 219.756 394.389 Q 218.561 392.473 216.627 391.348 L 216.627 391.348 L 216.627 391.348 Q 214.693 390.223 211.881 390.223 L 211.881 390.223 L 211.881 390.223 Q 210.193 390.223 208.787 390.662 L 208.787 390.662 L 208.787 390.662 Q 207.381 391.102 206.273 391.893 L 206.273 391.893 L 206.273 391.893 Q 205.166 392.684 204.305 393.756 L 204.305 393.756 L 204.305 393.756 Q 203.443 394.828 202.846 396.094 L 202.846 396.094 L 202.846 412.723 L 202.846 412.723 Q 203.479 413.988 204.34 415.061 L 204.34 415.061 L 204.34 415.061 Q 205.201 416.133 206.326 416.941 L 206.326 416.941 L 206.326 416.941 Q 207.451 417.75 208.857 418.189 L 208.857 418.189 L 208.857 418.189 Q 210.264 418.629 211.951 418.629 L 211.951 418.629 L 211.951 418.629 Q 214.623 418.629 216.539 417.521 L 216.539 417.521 L 216.539 417.521 Q 218.455 416.414 219.668 414.516 L 219.668 414.516 L 219.668 414.516 Q 220.881 412.617 221.461 410.121 L 221.461 410.121 L 221.461 410.121 Q 222.041 407.625 222.041 404.848 L 222.041 404.848 L 222.041 404.848 Z  M 264.58 423.445 L 264.193 418.207 L 264.193 418.207 Q 262.295 421.02 259.447 422.584 L 259.447 422.584 L 259.447 422.584 Q 256.6 424.148 252.873 424.148 L 252.873 424.148 L 252.873 424.148 Q 249.885 424.148 247.459 423.217 L 247.459 423.217 L 247.459 423.217 Q 245.033 422.285 243.311 420.316 L 243.311 420.316 L 243.311 420.316 Q 241.588 418.348 240.656 415.307 L 240.656 415.307 L 240.656 415.307 Q 239.725 412.266 239.725 408.012 L 239.725 408.012 L 239.725 385.406 L 246.229 385.406 L 246.229 408.082 L 246.229 408.082 Q 246.229 411.176 246.721 413.215 L 246.721 413.215 L 246.721 413.215 Q 247.213 415.254 248.197 416.467 L 248.197 416.467 L 248.197 416.467 Q 249.182 417.68 250.605 418.172 L 250.605 418.172 L 250.605 418.172 Q 252.029 418.664 253.893 418.664 L 253.893 418.664 L 253.893 418.664 Q 257.865 418.664 260.309 417.047 L 260.309 417.047 L 260.309 417.047 Q 262.752 415.43 263.947 412.688 L 263.947 412.688 L 263.947 385.406 L 270.486 385.406 L 270.486 423.445 L 264.58 423.445 L 264.58 423.445 Z  M 282.721 385.406 L 288.557 385.406 L 289.014 391.031 L 289.014 391.031 Q 291.088 388.078 294.111 386.408 L 294.111 386.408 L 294.111 386.408 Q 297.135 384.738 300.861 384.703 L 300.861 384.703 L 300.861 384.703 Q 303.85 384.703 306.293 385.547 L 306.293 385.547 L 306.293 385.547 Q 308.736 386.391 310.459 388.184 L 310.459 388.184 L 310.459 388.184 Q 312.182 389.977 313.113 392.736 L 313.113 392.736 L 313.113 392.736 Q 314.045 395.496 314.045 399.293 L 314.045 399.293 L 314.045 423.445 L 307.541 423.445 L 307.541 399.434 L 307.541 399.434 Q 307.541 396.902 306.979 395.145 L 306.979 395.145 L 306.979 395.145 Q 306.416 393.387 305.309 392.297 L 305.309 392.297 L 305.309 392.297 Q 304.201 391.207 302.602 390.715 L 302.602 390.715 L 302.602 390.715 Q 301.002 390.223 298.928 390.223 L 298.928 390.223 L 298.928 390.223 Q 295.658 390.223 293.18 391.857 L 293.18 391.857 L 293.18 391.857 Q 290.701 393.492 289.225 396.164 L 289.225 396.164 L 289.225 423.445 L 282.721 423.445 L 282.721 385.406 L 282.721 385.406 Z  M 334.787 376.195 L 341.326 376.195 L 341.326 385.406 L 355.811 385.406 L 355.811 390.434 L 341.326 390.434 L 341.326 411.105 L 341.326 411.105 Q 341.326 413.32 341.889 414.762 L 341.889 414.762 L 341.889 414.762 Q 342.451 416.203 343.436 417.064 L 343.436 417.064 L 343.436 417.064 Q 344.42 417.926 345.703 418.277 L 345.703 418.277 L 345.703 418.277 Q 346.986 418.629 348.428 418.629 L 348.428 418.629 L 348.428 418.629 Q 349.482 418.629 350.607 418.506 L 350.607 418.506 L 350.607 418.506 Q 351.732 418.383 352.805 418.207 L 352.805 418.207 L 352.805 418.207 Q 353.877 418.031 354.809 417.838 L 354.809 417.838 L 354.809 417.838 Q 355.74 417.645 356.338 417.504 L 356.338 417.504 L 357.252 422.109 L 357.252 422.109 Q 356.443 422.602 355.283 422.971 L 355.283 422.971 L 355.283 422.971 Q 354.123 423.34 352.752 423.604 L 352.752 423.604 L 352.752 423.604 Q 351.381 423.867 349.852 424.008 L 349.852 424.008 L 349.852 424.008 Q 348.322 424.148 346.811 424.148 L 346.811 424.148 L 346.811 424.148 Q 344.279 424.148 342.082 423.428 L 342.082 423.428 L 342.082 423.428 Q 339.885 422.707 338.268 421.143 L 338.268 421.143 L 338.268 421.143 Q 336.65 419.578 335.719 417.1 L 335.719 417.1 L 335.719 417.1 Q 334.787 414.621 334.787 411.105 L 334.787 411.105 L 334.787 390.434 L 324.803 390.434 L 324.803 385.406 L 334.787 385.406 L 334.787 376.195 L 334.787 376.195 Z  M 394.201 423.445 L 393.814 418.207 L 393.814 418.207 Q 391.916 421.02 389.068 422.584 L 389.068 422.584 L 389.068 422.584 Q 386.221 424.148 382.494 424.148 L 382.494 424.148 L 382.494 424.148 Q 379.506 424.148 377.08 423.217 L 377.08 423.217 L 377.08 423.217 Q 374.654 422.285 372.932 420.316 L 372.932 420.316 L 372.932 420.316 Q 371.209 418.348 370.277 415.307 L 370.277 415.307 L 370.277 415.307 Q 369.346 412.266 369.346 408.012 L 369.346 408.012 L 369.346 385.406 L 375.85 385.406 L 375.85 408.082 L 375.85 408.082 Q 375.85 411.176 376.342 413.215 L 376.342 413.215 L 376.342 413.215 Q 376.834 415.254 377.818 416.467 L 377.818 416.467 L 377.818 416.467 Q 378.803 417.68 380.227 418.172 L 380.227 418.172 L 380.227 418.172 Q 381.65 418.664 383.514 418.664 L 383.514 418.664 L 383.514 418.664 Q 387.486 418.664 389.93 417.047 L 389.93 417.047 L 389.93 417.047 Q 392.373 415.43 393.568 412.688 L 393.568 412.688 L 393.568 385.406 L 400.107 385.406 L 400.107 423.445 L 394.201 423.445 L 394.201 423.445 Z " fill-rule="evenodd" fill="rgb(255,255,225)"/></g></svg>