<?xml version="1.0" standalone="no"?><!-- Generator: Gravit.io --><svg xmlns="http://www.w3.org/2000/svg" xmlns:xlink="http://www.w3.org/1999/xlink" style="isolation:isolate" viewBox="0 0 512 512" width="512" height="512"><defs><clipPath id="_clipPath_5r2ZNrbi6n8tT97JPHRKRWRpJegIVUj8"><rect width="512" height="512"/></clipPath></defs><g clip-path="url(#_clipPath_5r2ZNrbi6n8tT97JPHRKRWRpJegIVUj8)"><path d=" M 0 0 L 512 0 L 512 512 L 0 512 L 0 0 Z " fill="rgb(30,136,229)"/><path d=" M 90.791 72.039 L 125.361 72.039 L 181.025 246.063 L 236.689 72.039 L 271.26 72.039 L 271.26 285.32 L 244.453 285.32 L 244.453 202.264 L 246.943 119.061 L 191.133 285.32 L 170.625 285.32 L 115.107 119.646 L 117.598 202.264 L 117.598 285.32 L 90.791 285.32 L 90.791 72.039 L 90.791 72.039 Z  M 308.613 216.473 L 308.613 198.895 L 308.613 198.895 Q 308.613 161.834 322.09 142.864 L 322.09 142.864 L 322.09 142.864 Q 335.566 123.895 361.494 123.895 L 361.494 123.895 L 361.494 123.895 Q 385.664 123.895 398.262 144.549 L 398.262 144.549 L 399.58 126.824 L 423.018 126.824 L 423.018 286.785 L 423.018 286.785 Q 423.018 316.229 407.93 331.976 L 407.93 331.976 L 407.93 331.976 Q 392.842 347.723 365.889 347.723 L 365.889 347.723 L 365.889 347.723 Q 354.17 347.723 339.595 341.937 L 339.595 341.937 L 339.595 341.937 Q 325.02 336.15 317.695 327.654 L 317.695 327.654 L 328.242 309.783 L 328.242 309.783 Q 344.355 325.604 363.838 325.604 L 363.838 325.604 L 363.838 325.604 Q 396.211 325.604 397.09 290.301 L 397.09 290.301 L 397.09 269.646 L 397.09 269.646 Q 384.492 288.25 361.348 288.25 L 361.348 288.25 L 361.348 288.25 Q 336.738 288.25 322.969 269.72 L 322.969 269.72 L 322.969 269.72 Q 309.199 251.189 308.613 216.473 L 308.613 216.473 L 308.613 216.473 Z  M 334.541 197.869 L 334.541 213.689 L 334.541 213.689 Q 334.541 240.35 342.378 252.874 L 342.378 252.874 L 342.378 252.874 Q 350.215 265.398 368.086 265.398 L 368.086 265.398 L 368.086 265.398 Q 387.422 265.398 397.09 245.623 L 397.09 245.623 L 397.09 166.375 L 397.09 166.375 Q 386.982 146.893 368.379 146.893 L 368.379 146.893 L 368.379 146.893 Q 350.508 146.893 342.598 159.417 L 342.598 159.417 L 342.598 159.417 Q 334.688 171.941 334.541 197.869 L 334.541 197.869 L 334.541 197.869 Z " fill-rule="evenodd" fill="rgb(255,255,225)"/><path d=" M 128.648 385.406 L 134.484 385.406 L 134.66 388.992 L 134.66 388.992 Q 135.82 386.988 137.701 385.863 L 137.701 385.863 L 137.701 385.863 Q 139.582 384.738 142.254 384.703 L 142.254 384.703 L 142.254 384.703 Q 147.492 384.703 149.25 388.781 L 149.25 388.781 L 149.25 388.781 Q 150.375 386.953 152.221 385.846 L 152.221 385.846 L 152.221 385.846 Q 154.066 384.738 156.703 384.703 L 156.703 384.703 L 156.703 384.703 Q 160.887 384.703 163.137 387.27 L 163.137 387.27 L 163.137 387.27 Q 165.387 389.836 165.387 395.039 L 165.387 395.039 L 165.387 423.445 L 159.199 423.445 L 159.199 394.969 L 159.199 394.969 Q 159.199 390.188 154.805 390.223 L 154.805 390.223 L 154.805 390.223 Q 153.645 390.223 152.801 390.539 L 152.801 390.539 L 152.801 390.539 Q 151.957 390.855 151.395 391.4 L 151.395 391.4 L 151.395 391.4 Q 150.832 391.945 150.516 392.666 L 150.516 392.666 L 150.516 392.666 Q 150.199 393.387 150.094 394.16 L 150.094 394.16 L 150.094 423.445 L 143.906 423.445 L 143.906 394.934 L 143.906 394.934 Q 143.906 392.648 142.887 391.418 L 142.887 391.418 L 142.887 391.418 Q 141.867 390.188 139.652 390.223 L 139.652 390.223 L 139.652 390.223 Q 137.613 390.223 136.488 391.031 L 136.488 391.031 L 136.488 391.031 Q 135.363 391.84 134.836 393.176 L 134.836 393.176 L 134.836 423.445 L 128.648 423.445 L 128.648 385.406 L 128.648 385.406 Z  M 206.484 423.445 L 199.699 423.445 L 199.699 423.445 Q 199.313 422.707 199.084 421.6 L 199.084 421.6 L 199.084 421.6 Q 198.855 420.492 198.75 419.297 L 198.75 419.297 L 198.75 419.297 Q 197.766 420.281 196.553 421.16 L 196.553 421.16 L 196.553 421.16 Q 195.34 422.039 193.881 422.707 L 193.881 422.707 L 193.881 422.707 Q 192.422 423.375 190.77 423.762 L 190.77 423.762 L 190.77 423.762 Q 189.117 424.148 187.254 424.148 L 187.254 424.148 L 187.254 424.148 Q 184.23 424.148 181.787 423.27 L 181.787 423.27 L 181.787 423.27 Q 179.344 422.391 177.639 420.896 L 177.639 420.896 L 177.639 420.896 Q 175.934 419.402 175.002 417.346 L 175.002 417.346 L 175.002 417.346 Q 174.07 415.289 174.07 412.898 L 174.07 412.898 L 174.07 412.898 Q 174.07 409.77 175.318 407.414 L 175.318 407.414 L 175.318 407.414 Q 176.566 405.059 178.852 403.494 L 178.852 403.494 L 178.852 403.494 Q 181.137 401.93 184.354 401.156 L 184.354 401.156 L 184.354 401.156 Q 187.57 400.383 191.543 400.383 L 191.543 400.383 L 198.645 400.383 L 198.645 397.395 L 198.645 397.395 Q 198.645 395.672 198.012 394.301 L 198.012 394.301 L 198.012 394.301 Q 197.379 392.93 196.219 391.963 L 196.219 391.963 L 196.219 391.963 Q 195.059 390.996 193.389 390.469 L 193.389 390.469 L 193.389 390.469 Q 191.719 389.941 189.645 389.941 L 189.645 389.941 L 189.645 389.941 Q 187.711 389.941 186.182 390.434 L 186.182 390.434 L 186.182 390.434 Q 184.652 390.926 183.598 391.734 L 183.598 391.734 L 183.598 391.734 Q 182.543 392.543 181.963 393.65 L 181.963 393.65 L 181.963 393.65 Q 181.383 394.758 181.383 395.953 L 181.383 395.953 L 174.844 395.953 L 174.844 395.953 Q 174.879 393.879 175.916 391.875 L 175.916 391.875 L 175.916 391.875 Q 176.953 389.871 178.904 388.271 L 178.904 388.271 L 178.904 388.271 Q 180.855 386.672 183.65 385.688 L 183.65 385.688 L 183.65 385.688 Q 186.445 384.703 189.996 384.703 L 189.996 384.703 L 189.996 384.703 Q 193.23 384.703 196.008 385.494 L 196.008 385.494 L 196.008 385.494 Q 198.785 386.285 200.807 387.885 L 200.807 387.885 L 200.807 387.885 Q 202.828 389.484 203.988 391.875 L 203.988 391.875 L 203.988 391.875 Q 205.148 394.266 205.148 397.465 L 205.148 397.465 L 205.148 415.148 L 205.148 415.148 Q 205.148 417.047 205.5 419.174 L 205.5 419.174 L 205.5 419.174 Q 205.852 421.301 206.484 422.883 L 206.484 422.883 L 206.484 423.445 L 206.484 423.445 Z  M 188.203 418.488 L 188.203 418.488 L 188.203 418.488 Q 190.102 418.488 191.754 417.996 L 191.754 417.996 L 191.754 417.996 Q 193.406 417.504 194.76 416.695 L 194.76 416.695 L 194.76 416.695 Q 196.113 415.887 197.098 414.85 L 197.098 414.85 L 197.098 414.85 Q 198.082 413.813 198.645 412.688 L 198.645 412.688 L 198.645 404.988 L 192.598 404.988 L 192.598 404.988 Q 186.902 404.988 183.738 406.676 L 183.738 406.676 L 183.738 406.676 Q 180.574 408.363 180.574 411.984 L 180.574 411.984 L 180.574 411.984 Q 180.574 413.391 181.049 414.586 L 181.049 414.586 L 181.049 414.586 Q 181.523 415.781 182.473 416.643 L 182.473 416.643 L 182.473 416.643 Q 183.422 417.504 184.863 417.996 L 184.863 417.996 L 184.863 417.996 Q 186.305 418.488 188.203 418.488 Z  M 216.715 404.848 L 216.715 404.109 L 216.715 404.109 Q 216.715 399.855 217.752 396.287 L 217.752 396.287 L 217.752 396.287 Q 218.789 392.719 220.758 390.152 L 220.758 390.152 L 220.758 390.152 Q 222.727 387.586 225.539 386.145 L 225.539 386.145 L 225.539 386.145 Q 228.352 384.703 231.902 384.703 L 231.902 384.703 L 231.902 384.703 Q 235.418 384.703 238.072 385.951 L 238.072 385.951 L 238.072 385.951 Q 240.727 387.199 242.59 389.555 L 242.59 389.555 L 242.906 385.406 L 248.813 385.406 L 248.813 422.637 L 248.813 422.637 Q 248.813 426.398 247.635 429.316 L 247.635 429.316 L 247.635 429.316 Q 246.457 432.234 244.33 434.273 L 244.33 434.273 L 244.33 434.273 Q 242.203 436.313 239.25 437.367 L 239.25 437.367 L 239.25 437.367 Q 236.297 438.422 232.711 438.422 L 232.711 438.422 L 232.711 438.422 Q 231.234 438.422 229.336 438.088 L 229.336 438.088 L 229.336 438.088 Q 227.438 437.754 225.486 436.998 L 225.486 436.998 L 225.486 436.998 Q 223.535 436.242 221.725 434.977 L 221.725 434.977 L 221.725 434.977 Q 219.914 433.711 218.613 431.848 L 218.613 431.848 L 221.988 427.945 L 221.988 427.945 Q 223.184 429.387 224.449 430.389 L 224.449 430.389 L 224.449 430.389 Q 225.715 431.391 227.016 431.988 L 227.016 431.988 L 227.016 431.988 Q 228.316 432.586 229.617 432.85 L 229.617 432.85 L 229.617 432.85 Q 230.918 433.113 232.219 433.113 L 232.219 433.113 L 232.219 433.113 Q 234.539 433.113 236.402 432.445 L 236.402 432.445 L 236.402 432.445 Q 238.266 431.777 239.584 430.494 L 239.584 430.494 L 239.584 430.494 Q 240.902 429.211 241.605 427.313 L 241.605 427.313 L 241.605 427.313 Q 242.309 425.414 242.309 422.953 L 242.309 422.953 L 242.309 419.684 L 242.309 419.684 Q 240.41 421.863 237.826 423.006 L 237.826 423.006 L 237.826 423.006 Q 235.242 424.148 231.832 424.148 L 231.832 424.148 L 231.832 424.148 Q 228.352 424.148 225.539 422.672 L 225.539 422.672 L 225.539 422.672 Q 222.727 421.195 220.775 418.594 L 220.775 418.594 L 220.775 418.594 Q 218.824 415.992 217.77 412.459 L 217.77 412.459 L 217.77 412.459 Q 216.715 408.926 216.715 404.848 L 216.715 404.848 L 216.715 404.848 Z  M 223.219 404.109 L 223.219 404.848 L 223.219 404.848 Q 223.219 407.625 223.799 410.121 L 223.799 410.121 L 223.799 410.121 Q 224.379 412.617 225.627 414.516 L 225.627 414.516 L 225.627 414.516 Q 226.875 416.414 228.809 417.521 L 228.809 417.521 L 228.809 417.521 Q 230.742 418.629 233.449 418.629 L 233.449 418.629 L 233.449 418.629 Q 235.137 418.629 236.49 418.225 L 236.49 418.225 L 236.49 418.225 Q 237.844 417.82 238.916 417.082 L 238.916 417.082 L 238.916 417.082 Q 239.988 416.344 240.832 415.324 L 240.832 415.324 L 240.832 415.324 Q 241.676 414.305 242.309 413.074 L 242.309 413.074 L 242.309 395.637 L 242.309 395.637 Q 241.676 394.441 240.832 393.457 L 240.832 393.457 L 240.832 393.457 Q 239.988 392.473 238.898 391.752 L 238.898 391.752 L 238.898 391.752 Q 237.809 391.031 236.473 390.627 L 236.473 390.627 L 236.473 390.627 Q 235.137 390.223 233.52 390.223 L 233.52 390.223 L 233.52 390.223 Q 230.777 390.223 228.826 391.348 L 228.826 391.348 L 228.826 391.348 Q 226.875 392.473 225.627 394.389 L 225.627 394.389 L 225.627 394.389 Q 224.379 396.305 223.799 398.818 L 223.799 398.818 L 223.799 398.818 Q 223.219 401.332 223.219 404.109 L 223.219 404.109 L 223.219 404.109 Z  M 277.922 424.148 L 277.922 424.148 L 277.922 424.148 Q 273.914 424.148 270.557 422.777 L 270.557 422.777 L 270.557 422.777 Q 267.199 421.406 264.809 418.945 L 264.809 418.945 L 264.809 418.945 Q 262.418 416.484 261.082 413.109 L 261.082 413.109 L 261.082 413.109 Q 259.746 409.734 259.746 405.762 L 259.746 405.762 L 259.746 404.285 L 259.746 404.285 Q 259.746 399.68 261.223 396.041 L 261.223 396.041 L 261.223 396.041 Q 262.699 392.402 265.143 389.889 L 265.143 389.889 L 265.143 389.889 Q 267.586 387.375 270.697 386.039 L 270.697 386.039 L 270.697 386.039 Q 273.809 384.703 277.078 384.703 L 277.078 384.703 L 277.078 384.703 Q 281.191 384.703 284.268 386.127 L 284.268 386.127 L 284.268 386.127 Q 287.344 387.551 289.383 390.064 L 289.383 390.064 L 289.383 390.064 Q 291.422 392.578 292.424 395.988 L 292.424 395.988 L 292.424 395.988 Q 293.426 399.398 293.426 403.371 L 293.426 403.371 L 293.426 406.289 L 266.25 406.289 L 266.25 406.289 Q 266.355 408.891 267.252 411.176 L 267.252 411.176 L 267.252 411.176 Q 268.148 413.461 269.713 415.166 L 269.713 415.166 L 269.713 415.166 Q 271.277 416.871 273.457 417.855 L 273.457 417.855 L 273.457 417.855 Q 275.637 418.84 278.273 418.84 L 278.273 418.84 L 278.273 418.84 Q 281.754 418.84 284.461 417.434 L 284.461 417.434 L 284.461 417.434 Q 287.168 416.027 288.961 413.707 L 288.961 413.707 L 292.934 416.801 L 292.934 416.801 Q 291.984 418.242 290.561 419.561 L 290.561 419.561 L 290.561 419.561 Q 289.137 420.879 287.273 421.898 L 287.273 421.898 L 287.273 421.898 Q 285.41 422.918 283.055 423.533 L 283.055 423.533 L 283.055 423.533 Q 280.699 424.148 277.922 424.148 Z  M 277.078 390.047 L 277.078 390.047 L 277.078 390.047 Q 275.109 390.047 273.352 390.768 L 273.352 390.768 L 273.352 390.768 Q 271.594 391.488 270.188 392.877 L 270.188 392.877 L 270.188 392.877 Q 268.781 394.266 267.814 396.287 L 267.814 396.287 L 267.814 396.287 Q 266.848 398.309 266.461 400.945 L 266.461 400.945 L 286.922 400.945 L 286.922 400.453 L 286.922 400.453 Q 286.816 398.555 286.201 396.691 L 286.201 396.691 L 286.201 396.691 Q 285.586 394.828 284.391 393.352 L 284.391 393.352 L 284.391 393.352 Q 283.195 391.875 281.385 390.961 L 281.385 390.961 L 281.385 390.961 Q 279.574 390.047 277.078 390.047 Z  M 305.344 391.066 L 305.344 385.406 L 324.785 385.406 L 324.785 417.82 L 337.195 417.82 L 337.195 423.445 L 305.344 423.445 L 305.344 417.82 L 318.281 417.82 L 318.281 391.066 L 305.344 391.066 L 305.344 391.066 Z  M 317.438 375.422 L 317.438 375.422 L 317.438 375.422 Q 317.438 373.805 318.404 372.697 L 318.404 372.697 L 318.404 372.697 Q 319.371 371.59 321.34 371.59 L 321.34 371.59 L 321.34 371.59 Q 323.273 371.59 324.258 372.697 L 324.258 372.697 L 324.258 372.697 Q 325.242 373.805 325.242 375.422 L 325.242 375.422 L 325.242 375.422 Q 325.242 377.004 324.258 378.059 L 324.258 378.059 L 324.258 378.059 Q 323.273 379.113 321.34 379.113 L 321.34 379.113 L 321.34 379.113 Q 319.371 379.113 318.404 378.059 L 318.404 378.059 L 318.404 378.059 Q 317.438 377.004 317.438 375.422 Z  M 379.313 423.445 L 372.527 423.445 L 372.527 423.445 Q 372.141 422.707 371.912 421.6 L 371.912 421.6 L 371.912 421.6 Q 371.684 420.492 371.578 419.297 L 371.578 419.297 L 371.578 419.297 Q 370.594 420.281 369.381 421.16 L 369.381 421.16 L 369.381 421.16 Q 368.168 422.039 366.709 422.707 L 366.709 422.707 L 366.709 422.707 Q 365.25 423.375 363.598 423.762 L 363.598 423.762 L 363.598 423.762 Q 361.945 424.148 360.082 424.148 L 360.082 424.148 L 360.082 424.148 Q 357.059 424.148 354.615 423.27 L 354.615 423.27 L 354.615 423.27 Q 352.172 422.391 350.467 420.896 L 350.467 420.896 L 350.467 420.896 Q 348.762 419.402 347.83 417.346 L 347.83 417.346 L 347.83 417.346 Q 346.898 415.289 346.898 412.898 L 346.898 412.898 L 346.898 412.898 Q 346.898 409.77 348.146 407.414 L 348.146 407.414 L 348.146 407.414 Q 349.395 405.059 351.68 403.494 L 351.68 403.494 L 351.68 403.494 Q 353.965 401.93 357.182 401.156 L 357.182 401.156 L 357.182 401.156 Q 360.398 400.383 364.371 400.383 L 364.371 400.383 L 371.473 400.383 L 371.473 397.395 L 371.473 397.395 Q 371.473 395.672 370.84 394.301 L 370.84 394.301 L 370.84 394.301 Q 370.207 392.93 369.047 391.963 L 369.047 391.963 L 369.047 391.963 Q 367.887 390.996 366.217 390.469 L 366.217 390.469 L 366.217 390.469 Q 364.547 389.941 362.473 389.941 L 362.473 389.941 L 362.473 389.941 Q 360.539 389.941 359.01 390.434 L 359.01 390.434 L 359.01 390.434 Q 357.48 390.926 356.426 391.734 L 356.426 391.734 L 356.426 391.734 Q 355.371 392.543 354.791 393.65 L 354.791 393.65 L 354.791 393.65 Q 354.211 394.758 354.211 395.953 L 354.211 395.953 L 347.672 395.953 L 347.672 395.953 Q 347.707 393.879 348.744 391.875 L 348.744 391.875 L 348.744 391.875 Q 349.781 389.871 351.732 388.271 L 351.732 388.271 L 351.732 388.271 Q 353.684 386.672 356.479 385.688 L 356.479 385.688 L 356.479 385.688 Q 359.273 384.703 362.824 384.703 L 362.824 384.703 L 362.824 384.703 Q 366.059 384.703 368.836 385.494 L 368.836 385.494 L 368.836 385.494 Q 371.613 386.285 373.635 387.885 L 373.635 387.885 L 373.635 387.885 Q 375.656 389.484 376.816 391.875 L 376.816 391.875 L 376.816 391.875 Q 377.977 394.266 377.977 397.465 L 377.977 397.465 L 377.977 415.148 L 377.977 415.148 Q 377.977 417.047 378.328 419.174 L 378.328 419.174 L 378.328 419.174 Q 378.68 421.301 379.313 422.883 L 379.313 422.883 L 379.313 423.445 L 379.313 423.445 Z  M 361.031 418.488 L 361.031 418.488 L 361.031 418.488 Q 362.93 418.488 364.582 417.996 L 364.582 417.996 L 364.582 417.996 Q 366.234 417.504 367.588 416.695 L 367.588 416.695 L 367.588 416.695 Q 368.941 415.887 369.926 414.85 L 369.926 414.85 L 369.926 414.85 Q 370.91 413.813 371.473 412.688 L 371.473 412.688 L 371.473 404.988 L 365.426 404.988 L 365.426 404.988 Q 359.73 404.988 356.566 406.676 L 356.566 406.676 L 356.566 406.676 Q 353.402 408.363 353.402 411.984 L 353.402 411.984 L 353.402 411.984 Q 353.402 413.391 353.877 414.586 L 353.877 414.586 L 353.877 414.586 Q 354.352 415.781 355.301 416.643 L 355.301 416.643 L 355.301 416.643 Q 356.25 417.504 357.691 417.996 L 357.691 417.996 L 357.691 417.996 Q 359.133 418.488 361.031 418.488 Z " fill-rule="evenodd" fill="rgb(255,255,225)"/></g></svg>