<?xml version="1.0" standalone="no"?><!-- Generator: Gravit.io --><svg xmlns="http://www.w3.org/2000/svg" xmlns:xlink="http://www.w3.org/1999/xlink" style="isolation:isolate" viewBox="0 0 512 512" width="512" height="512"><defs><clipPath id="_clipPath_5jV8YzxVgwhxym5ng4W4VSr5DCvhhnEf"><rect width="512" height="512"/></clipPath></defs><g clip-path="url(#_clipPath_5jV8YzxVgwhxym5ng4W4VSr5DCvhhnEf)"><rect x="0" y="0" width="512" height="512" transform="matrix(1,0,0,1,0,0)" fill="rgb(84,110,122)"/><path d=" M 214.863 98.039 L 255.293 179.777 L 295.43 98.039 L 326.924 98.039 L 271.406 203.801 L 328.096 311.32 L 296.309 311.32 L 255.293 228.117 L 214.131 311.32 L 182.344 311.32 L 239.326 203.801 L 183.516 98.039 L 214.863 98.039 L 214.863 98.039 Z " fill="rgb(255,255,225)"/><path d=" M 193.459 385.406 L 199.295 385.406 L 199.471 388.992 L 199.471 388.992 Q 200.631 386.988 202.512 385.863 L 202.512 385.863 L 202.512 385.863 Q 204.393 384.738 207.064 384.703 L 207.064 384.703 L 207.064 384.703 Q 212.303 384.703 214.061 388.781 L 214.061 388.781 L 214.061 388.781 Q 215.186 386.953 217.031 385.846 L 217.031 385.846 L 217.031 385.846 Q 218.877 384.738 221.514 384.703 L 221.514 384.703 L 221.514 384.703 Q 225.697 384.703 227.947 387.27 L 227.947 387.27 L 227.947 387.27 Q 230.197 389.836 230.197 395.039 L 230.197 395.039 L 230.197 423.445 L 224.01 423.445 L 224.01 394.969 L 224.01 394.969 Q 224.01 390.188 219.615 390.223 L 219.615 390.223 L 219.615 390.223 Q 218.455 390.223 217.611 390.539 L 217.611 390.539 L 217.611 390.539 Q 216.768 390.855 216.205 391.4 L 216.205 391.4 L 216.205 391.4 Q 215.643 391.945 215.326 392.666 L 215.326 392.666 L 215.326 392.666 Q 215.01 393.387 214.904 394.16 L 214.904 394.16 L 214.904 423.445 L 208.717 423.445 L 208.717 394.934 L 208.717 394.934 Q 208.717 392.648 207.697 391.418 L 207.697 391.418 L 207.697 391.418 Q 206.678 390.188 204.463 390.223 L 204.463 390.223 L 204.463 390.223 Q 202.424 390.223 201.299 391.031 L 201.299 391.031 L 201.299 391.031 Q 200.174 391.84 199.646 393.176 L 199.646 393.176 L 199.646 423.445 L 193.459 423.445 L 193.459 385.406 L 193.459 385.406 Z  M 271.295 423.445 L 264.51 423.445 L 264.51 423.445 Q 264.123 422.707 263.895 421.6 L 263.895 421.6 L 263.895 421.6 Q 263.666 420.492 263.561 419.297 L 263.561 419.297 L 263.561 419.297 Q 262.576 420.281 261.363 421.16 L 261.363 421.16 L 261.363 421.16 Q 260.15 422.039 258.691 422.707 L 258.691 422.707 L 258.691 422.707 Q 257.232 423.375 255.58 423.762 L 255.58 423.762 L 255.58 423.762 Q 253.928 424.148 252.064 424.148 L 252.064 424.148 L 252.064 424.148 Q 249.041 424.148 246.598 423.27 L 246.598 423.27 L 246.598 423.27 Q 244.154 422.391 242.449 420.896 L 242.449 420.896 L 242.449 420.896 Q 240.744 419.402 239.813 417.346 L 239.813 417.346 L 239.813 417.346 Q 238.881 415.289 238.881 412.898 L 238.881 412.898 L 238.881 412.898 Q 238.881 409.77 240.129 407.414 L 240.129 407.414 L 240.129 407.414 Q 241.377 405.059 243.662 403.494 L 243.662 403.494 L 243.662 403.494 Q 245.947 401.93 249.164 401.156 L 249.164 401.156 L 249.164 401.156 Q 252.381 400.383 256.354 400.383 L 256.354 400.383 L 263.455 400.383 L 263.455 397.395 L 263.455 397.395 Q 263.455 395.672 262.822 394.301 L 262.822 394.301 L 262.822 394.301 Q 262.189 392.93 261.029 391.963 L 261.029 391.963 L 261.029 391.963 Q 259.869 390.996 258.199 390.469 L 258.199 390.469 L 258.199 390.469 Q 256.529 389.941 254.455 389.941 L 254.455 389.941 L 254.455 389.941 Q 252.521 389.941 250.992 390.434 L 250.992 390.434 L 250.992 390.434 Q 249.463 390.926 248.408 391.734 L 248.408 391.734 L 248.408 391.734 Q 247.354 392.543 246.773 393.65 L 246.773 393.65 L 246.773 393.65 Q 246.193 394.758 246.193 395.953 L 246.193 395.953 L 239.654 395.953 L 239.654 395.953 Q 239.689 393.879 240.727 391.875 L 240.727 391.875 L 240.727 391.875 Q 241.764 389.871 243.715 388.271 L 243.715 388.271 L 243.715 388.271 Q 245.666 386.672 248.461 385.688 L 248.461 385.688 L 248.461 385.688 Q 251.256 384.703 254.807 384.703 L 254.807 384.703 L 254.807 384.703 Q 258.041 384.703 260.818 385.494 L 260.818 385.494 L 260.818 385.494 Q 263.596 386.285 265.617 387.885 L 265.617 387.885 L 265.617 387.885 Q 267.639 389.484 268.799 391.875 L 268.799 391.875 L 268.799 391.875 Q 269.959 394.266 269.959 397.465 L 269.959 397.465 L 269.959 415.148 L 269.959 415.148 Q 269.959 417.047 270.311 419.174 L 270.311 419.174 L 270.311 419.174 Q 270.662 421.301 271.295 422.883 L 271.295 422.883 L 271.295 423.445 L 271.295 423.445 Z  M 253.014 418.488 L 253.014 418.488 L 253.014 418.488 Q 254.912 418.488 256.564 417.996 L 256.564 417.996 L 256.564 417.996 Q 258.217 417.504 259.57 416.695 L 259.57 416.695 L 259.57 416.695 Q 260.924 415.887 261.908 414.85 L 261.908 414.85 L 261.908 414.85 Q 262.893 413.813 263.455 412.688 L 263.455 412.688 L 263.455 404.988 L 257.408 404.988 L 257.408 404.988 Q 251.713 404.988 248.549 406.676 L 248.549 406.676 L 248.549 406.676 Q 245.385 408.363 245.385 411.984 L 245.385 411.984 L 245.385 411.984 Q 245.385 413.391 245.859 414.586 L 245.859 414.586 L 245.859 414.586 Q 246.334 415.781 247.283 416.643 L 247.283 416.643 L 247.283 416.643 Q 248.232 417.504 249.674 417.996 L 249.674 417.996 L 249.674 417.996 Q 251.115 418.488 253.014 418.488 Z  M 298.928 418.875 L 298.928 418.875 L 298.928 418.875 Q 300.686 418.875 302.355 418.313 L 302.355 418.313 L 302.355 418.313 Q 304.025 417.75 305.326 416.748 L 305.326 416.748 L 305.326 416.748 Q 306.627 415.746 307.418 414.393 L 307.418 414.393 L 307.418 414.393 Q 308.209 413.039 308.244 411.457 L 308.244 411.457 L 314.396 411.457 L 314.396 411.457 Q 314.361 413.988 313.078 416.291 L 313.078 416.291 L 313.078 416.291 Q 311.795 418.594 309.65 420.334 L 309.65 420.334 L 309.65 420.334 Q 307.506 422.074 304.729 423.111 L 304.729 423.111 L 304.729 423.111 Q 301.951 424.148 298.928 424.148 L 298.928 424.148 L 298.928 424.148 Q 294.604 424.148 291.369 422.602 L 291.369 422.602 L 291.369 422.602 Q 288.135 421.055 285.973 418.436 L 285.973 418.436 L 285.973 418.436 Q 283.811 415.816 282.721 412.389 L 282.721 412.389 L 282.721 412.389 Q 281.631 408.961 281.631 405.164 L 281.631 405.164 L 281.631 403.688 L 281.631 403.688 Q 281.631 399.926 282.721 396.48 L 282.721 396.48 L 282.721 396.48 Q 283.811 393.035 285.973 390.416 L 285.973 390.416 L 285.973 390.416 Q 288.135 387.797 291.369 386.25 L 291.369 386.25 L 291.369 386.25 Q 294.604 384.703 298.928 384.703 L 298.928 384.703 L 298.928 384.703 Q 302.303 384.703 305.133 385.775 L 305.133 385.775 L 305.133 385.775 Q 307.963 386.848 310.02 388.693 L 310.02 388.693 L 310.02 388.693 Q 312.076 390.539 313.236 393.07 L 313.236 393.07 L 313.236 393.07 Q 314.396 395.602 314.396 398.484 L 314.396 398.484 L 308.244 398.484 L 308.244 398.484 Q 308.209 396.762 307.488 395.232 L 307.488 395.232 L 307.488 395.232 Q 306.768 393.703 305.537 392.543 L 305.537 392.543 L 305.537 392.543 Q 304.307 391.383 302.602 390.715 L 302.602 390.715 L 302.602 390.715 Q 300.896 390.047 298.928 390.047 L 298.928 390.047 L 298.928 390.047 Q 295.904 390.047 293.848 391.26 L 293.848 391.26 L 293.848 391.26 Q 291.791 392.473 290.525 394.424 L 290.525 394.424 L 290.525 394.424 Q 289.26 396.375 288.715 398.801 L 288.715 398.801 L 288.715 398.801 Q 288.17 401.227 288.17 403.688 L 288.17 403.688 L 288.17 405.164 L 288.17 405.164 Q 288.17 407.66 288.715 410.104 L 288.715 410.104 L 288.715 410.104 Q 289.26 412.547 290.508 414.498 L 290.508 414.498 L 290.508 414.498 Q 291.756 416.449 293.813 417.662 L 293.813 417.662 L 293.813 417.662 Q 295.869 418.875 298.928 418.875 Z " fill-rule="evenodd" fill="rgb(255,255,225)"/></g></svg>