<?xml version="1.0" standalone="no"?><!-- Generator: Gravit.io --><svg xmlns="http://www.w3.org/2000/svg" xmlns:xlink="http://www.w3.org/1999/xlink" style="isolation:isolate" viewBox="0 0 512 512" width="512" height="512"><defs><clipPath id="_clipPath_rN4TnsHjSt9Cmy6tIE4tsuFMB9jVuOGS"><rect width="512" height="512"/></clipPath></defs><g clip-path="url(#_clipPath_rN4TnsHjSt9Cmy6tIE4tsuFMB9jVuOGS)"><rect x="0" y="0" width="512" height="512" transform="matrix(1,0,0,1,0,0)" fill="rgb(255,171,0)"/><path d=" M 92.842 98.039 L 127.412 98.039 L 183.076 272.063 L 238.74 98.039 L 273.311 98.039 L 273.311 311.32 L 246.504 311.32 L 246.504 228.264 L 248.994 145.061 L 193.184 311.32 L 172.676 311.32 L 117.158 145.646 L 119.648 228.264 L 119.648 311.32 L 92.842 311.32 L 92.842 98.039 L 92.842 98.039 Z  M 424.336 311.32 L 397.383 311.32 L 397.383 311.32 Q 395.039 306.193 394.014 294.035 L 394.014 294.035 L 394.014 294.035 Q 380.244 314.25 358.857 314.25 L 358.857 314.25 L 358.857 314.25 Q 337.324 314.25 325.239 302.165 L 325.239 302.165 L 325.239 302.165 Q 313.154 290.08 313.154 268.107 L 313.154 268.107 L 313.154 268.107 Q 313.154 243.938 329.561 229.729 L 329.561 229.729 L 329.561 229.729 Q 345.967 215.52 374.531 215.227 L 374.531 215.227 L 393.574 215.227 L 393.574 198.381 L 393.574 198.381 Q 393.574 184.172 387.275 178.166 L 387.275 178.166 L 387.275 178.166 Q 380.977 172.16 368.086 172.16 L 368.086 172.16 L 368.086 172.16 Q 356.367 172.16 349.043 179.118 L 349.043 179.118 L 349.043 179.118 Q 341.719 186.076 341.719 196.77 L 341.719 196.77 L 315.791 196.77 L 315.791 196.77 Q 315.791 184.611 322.969 173.552 L 322.969 173.552 L 322.969 173.552 Q 330.146 162.492 342.305 156.193 L 342.305 156.193 L 342.305 156.193 Q 354.463 149.895 369.404 149.895 L 369.404 149.895 L 369.404 149.895 Q 393.721 149.895 406.392 161.979 L 406.392 161.979 L 406.392 161.979 Q 419.063 174.064 419.355 197.209 L 419.355 197.209 L 419.355 277.189 L 419.355 277.189 Q 419.502 295.5 424.336 308.977 L 424.336 308.977 L 424.336 311.32 L 424.336 311.32 Z  M 362.813 290.666 L 362.813 290.666 L 362.813 290.666 Q 372.334 290.666 380.977 285.393 L 380.977 285.393 L 380.977 285.393 Q 389.619 280.119 393.574 272.209 L 393.574 272.209 L 393.574 234.416 L 378.926 234.416 L 378.926 234.416 Q 360.469 234.709 349.775 242.692 L 349.775 242.692 L 349.775 242.692 Q 339.082 250.676 339.082 265.031 L 339.082 265.031 L 339.082 265.031 Q 339.082 278.508 344.502 284.587 L 344.502 284.587 L 344.502 284.587 Q 349.922 290.666 362.813 290.666 Z " fill-rule="evenodd" fill="rgb(255,255,225)"/><path d=" M 85.441 385.406 L 91.277 385.406 L 91.453 388.992 L 91.453 388.992 Q 92.613 386.988 94.494 385.863 L 94.494 385.863 L 94.494 385.863 Q 96.375 384.738 99.047 384.703 L 99.047 384.703 L 99.047 384.703 Q 104.285 384.703 106.043 388.781 L 106.043 388.781 L 106.043 388.781 Q 107.168 386.953 109.014 385.846 L 109.014 385.846 L 109.014 385.846 Q 110.859 384.738 113.496 384.703 L 113.496 384.703 L 113.496 384.703 Q 117.68 384.703 119.93 387.27 L 119.93 387.27 L 119.93 387.27 Q 122.18 389.836 122.18 395.039 L 122.18 395.039 L 122.18 423.445 L 115.992 423.445 L 115.992 394.969 L 115.992 394.969 Q 115.992 390.188 111.598 390.223 L 111.598 390.223 L 111.598 390.223 Q 110.438 390.223 109.594 390.539 L 109.594 390.539 L 109.594 390.539 Q 108.75 390.855 108.188 391.4 L 108.188 391.4 L 108.188 391.4 Q 107.625 391.945 107.309 392.666 L 107.309 392.666 L 107.309 392.666 Q 106.992 393.387 106.887 394.16 L 106.887 394.16 L 106.887 423.445 L 100.699 423.445 L 100.699 394.934 L 100.699 394.934 Q 100.699 392.648 99.68 391.418 L 99.68 391.418 L 99.68 391.418 Q 98.66 390.188 96.445 390.223 L 96.445 390.223 L 96.445 390.223 Q 94.406 390.223 93.281 391.031 L 93.281 391.031 L 93.281 391.031 Q 92.156 391.84 91.629 393.176 L 91.629 393.176 L 91.629 423.445 L 85.441 423.445 L 85.441 385.406 L 85.441 385.406 Z  M 163.277 423.445 L 156.492 423.445 L 156.492 423.445 Q 156.105 422.707 155.877 421.6 L 155.877 421.6 L 155.877 421.6 Q 155.648 420.492 155.543 419.297 L 155.543 419.297 L 155.543 419.297 Q 154.559 420.281 153.346 421.16 L 153.346 421.16 L 153.346 421.16 Q 152.133 422.039 150.674 422.707 L 150.674 422.707 L 150.674 422.707 Q 149.215 423.375 147.563 423.762 L 147.563 423.762 L 147.563 423.762 Q 145.91 424.148 144.047 424.148 L 144.047 424.148 L 144.047 424.148 Q 141.023 424.148 138.58 423.27 L 138.58 423.27 L 138.58 423.27 Q 136.137 422.391 134.432 420.896 L 134.432 420.896 L 134.432 420.896 Q 132.727 419.402 131.795 417.346 L 131.795 417.346 L 131.795 417.346 Q 130.863 415.289 130.863 412.898 L 130.863 412.898 L 130.863 412.898 Q 130.863 409.77 132.111 407.414 L 132.111 407.414 L 132.111 407.414 Q 133.359 405.059 135.645 403.494 L 135.645 403.494 L 135.645 403.494 Q 137.93 401.93 141.146 401.156 L 141.146 401.156 L 141.146 401.156 Q 144.363 400.383 148.336 400.383 L 148.336 400.383 L 155.438 400.383 L 155.438 397.395 L 155.438 397.395 Q 155.438 395.672 154.805 394.301 L 154.805 394.301 L 154.805 394.301 Q 154.172 392.93 153.012 391.963 L 153.012 391.963 L 153.012 391.963 Q 151.852 390.996 150.182 390.469 L 150.182 390.469 L 150.182 390.469 Q 148.512 389.941 146.438 389.941 L 146.438 389.941 L 146.438 389.941 Q 144.504 389.941 142.975 390.434 L 142.975 390.434 L 142.975 390.434 Q 141.445 390.926 140.391 391.734 L 140.391 391.734 L 140.391 391.734 Q 139.336 392.543 138.756 393.65 L 138.756 393.65 L 138.756 393.65 Q 138.176 394.758 138.176 395.953 L 138.176 395.953 L 131.637 395.953 L 131.637 395.953 Q 131.672 393.879 132.709 391.875 L 132.709 391.875 L 132.709 391.875 Q 133.746 389.871 135.697 388.271 L 135.697 388.271 L 135.697 388.271 Q 137.648 386.672 140.443 385.688 L 140.443 385.688 L 140.443 385.688 Q 143.238 384.703 146.789 384.703 L 146.789 384.703 L 146.789 384.703 Q 150.023 384.703 152.801 385.494 L 152.801 385.494 L 152.801 385.494 Q 155.578 386.285 157.6 387.885 L 157.6 387.885 L 157.6 387.885 Q 159.621 389.484 160.781 391.875 L 160.781 391.875 L 160.781 391.875 Q 161.941 394.266 161.941 397.465 L 161.941 397.465 L 161.941 415.148 L 161.941 415.148 Q 161.941 417.047 162.293 419.174 L 162.293 419.174 L 162.293 419.174 Q 162.645 421.301 163.277 422.883 L 163.277 422.883 L 163.277 423.445 L 163.277 423.445 Z  M 144.996 418.488 L 144.996 418.488 L 144.996 418.488 Q 146.895 418.488 148.547 417.996 L 148.547 417.996 L 148.547 417.996 Q 150.199 417.504 151.553 416.695 L 151.553 416.695 L 151.553 416.695 Q 152.906 415.887 153.891 414.85 L 153.891 414.85 L 153.891 414.85 Q 154.875 413.813 155.438 412.688 L 155.438 412.688 L 155.438 404.988 L 149.391 404.988 L 149.391 404.988 Q 143.695 404.988 140.531 406.676 L 140.531 406.676 L 140.531 406.676 Q 137.367 408.363 137.367 411.984 L 137.367 411.984 L 137.367 411.984 Q 137.367 413.391 137.842 414.586 L 137.842 414.586 L 137.842 414.586 Q 138.316 415.781 139.266 416.643 L 139.266 416.643 L 139.266 416.643 Q 140.215 417.504 141.656 417.996 L 141.656 417.996 L 141.656 417.996 Q 143.098 418.488 144.996 418.488 Z  M 174.703 385.406 L 180.539 385.406 L 180.996 391.031 L 180.996 391.031 Q 183.07 388.078 186.094 386.408 L 186.094 386.408 L 186.094 386.408 Q 189.117 384.738 192.844 384.703 L 192.844 384.703 L 192.844 384.703 Q 195.832 384.703 198.275 385.547 L 198.275 385.547 L 198.275 385.547 Q 200.719 386.391 202.441 388.184 L 202.441 388.184 L 202.441 388.184 Q 204.164 389.977 205.096 392.736 L 205.096 392.736 L 205.096 392.736 Q 206.027 395.496 206.027 399.293 L 206.027 399.293 L 206.027 423.445 L 199.523 423.445 L 199.523 399.434 L 199.523 399.434 Q 199.523 396.902 198.961 395.145 L 198.961 395.145 L 198.961 395.145 Q 198.398 393.387 197.291 392.297 L 197.291 392.297 L 197.291 392.297 Q 196.184 391.207 194.584 390.715 L 194.584 390.715 L 194.584 390.715 Q 192.984 390.223 190.91 390.223 L 190.91 390.223 L 190.91 390.223 Q 187.641 390.223 185.162 391.857 L 185.162 391.857 L 185.162 391.857 Q 182.684 393.492 181.207 396.164 L 181.207 396.164 L 181.207 423.445 L 174.703 423.445 L 174.703 385.406 L 174.703 385.406 Z  M 216.68 404.848 L 216.68 404.109 L 216.68 404.109 Q 216.68 399.855 217.752 396.287 L 217.752 396.287 L 217.752 396.287 Q 218.824 392.719 220.811 390.152 L 220.811 390.152 L 220.811 390.152 Q 222.797 387.586 225.609 386.145 L 225.609 386.145 L 225.609 386.145 Q 228.422 384.703 231.902 384.703 L 231.902 384.703 L 231.902 384.703 Q 235.313 384.703 237.861 385.846 L 237.861 385.846 L 237.861 385.846 Q 240.41 386.988 242.273 389.168 L 242.273 389.168 L 242.273 369.445 L 248.777 369.445 L 248.777 423.445 L 242.801 423.445 L 242.52 419.438 L 242.52 419.438 Q 240.621 421.758 237.984 422.953 L 237.984 422.953 L 237.984 422.953 Q 235.348 424.148 231.832 424.148 L 231.832 424.148 L 231.832 424.148 Q 228.387 424.148 225.592 422.672 L 225.592 422.672 L 225.592 422.672 Q 222.797 421.195 220.828 418.594 L 220.828 418.594 L 220.828 418.594 Q 218.859 415.992 217.77 412.459 L 217.77 412.459 L 217.77 412.459 Q 216.68 408.926 216.68 404.848 L 216.68 404.848 L 216.68 404.848 Z  M 223.184 404.109 L 223.184 404.848 L 223.184 404.848 Q 223.184 407.625 223.781 410.121 L 223.781 410.121 L 223.781 410.121 Q 224.379 412.617 225.627 414.516 L 225.627 414.516 L 225.627 414.516 Q 226.875 416.414 228.809 417.521 L 228.809 417.521 L 228.809 417.521 Q 230.742 418.629 233.449 418.629 L 233.449 418.629 L 233.449 418.629 Q 235.102 418.629 236.438 418.242 L 236.438 418.242 L 236.438 418.242 Q 237.773 417.855 238.863 417.135 L 238.863 417.135 L 238.863 417.135 Q 239.953 416.414 240.797 415.412 L 240.797 415.412 L 240.797 415.412 Q 241.641 414.41 242.273 413.18 L 242.273 413.18 L 242.273 395.531 L 242.273 395.531 Q 241.008 393.211 238.863 391.717 L 238.863 391.717 L 238.863 391.717 Q 236.719 390.223 233.52 390.223 L 233.52 390.223 L 233.52 390.223 Q 230.777 390.223 228.826 391.348 L 228.826 391.348 L 228.826 391.348 Q 226.875 392.473 225.627 394.389 L 225.627 394.389 L 225.627 394.389 Q 224.379 396.305 223.781 398.818 L 223.781 398.818 L 223.781 398.818 Q 223.184 401.332 223.184 404.109 L 223.184 404.109 L 223.184 404.109 Z  M 286.043 384.703 L 286.043 384.703 L 286.043 384.703 Q 286.957 384.703 287.941 384.756 L 287.941 384.756 L 287.941 384.756 Q 288.926 384.809 289.822 384.932 L 289.822 384.932 L 289.822 384.932 Q 290.719 385.055 291.475 385.23 L 291.475 385.23 L 291.475 385.23 Q 292.23 385.406 292.723 385.617 L 292.723 385.617 L 291.844 391.98 L 291.844 391.98 Q 289.945 391.559 288.24 391.365 L 288.24 391.365 L 288.24 391.365 Q 286.535 391.172 284.672 391.172 L 284.672 391.172 L 284.672 391.172 Q 280.102 391.172 277.271 393.246 L 277.271 393.246 L 277.271 393.246 Q 274.441 395.32 273.105 399.047 L 273.105 399.047 L 273.105 423.445 L 266.566 423.445 L 266.566 385.406 L 272.754 385.406 L 273.07 391.453 L 273.07 391.453 Q 275.391 388.324 278.643 386.514 L 278.643 386.514 L 278.643 386.514 Q 281.895 384.703 286.043 384.703 Z  M 305.344 391.066 L 305.344 385.406 L 324.785 385.406 L 324.785 417.82 L 337.195 417.82 L 337.195 423.445 L 305.344 423.445 L 305.344 417.82 L 318.281 417.82 L 318.281 391.066 L 305.344 391.066 L 305.344 391.066 Z  M 317.438 375.422 L 317.438 375.422 L 317.438 375.422 Q 317.438 373.805 318.404 372.697 L 318.404 372.697 L 318.404 372.697 Q 319.371 371.59 321.34 371.59 L 321.34 371.59 L 321.34 371.59 Q 323.273 371.59 324.258 372.697 L 324.258 372.697 L 324.258 372.697 Q 325.242 373.805 325.242 375.422 L 325.242 375.422 L 325.242 375.422 Q 325.242 377.004 324.258 378.059 L 324.258 378.059 L 324.258 378.059 Q 323.273 379.113 321.34 379.113 L 321.34 379.113 L 321.34 379.113 Q 319.371 379.113 318.404 378.059 L 318.404 378.059 L 318.404 378.059 Q 317.438 377.004 317.438 375.422 Z  M 351.539 385.406 L 362.438 414.094 L 363.035 416.449 L 363.668 414.094 L 374.32 385.406 L 380.965 385.406 L 365.461 423.445 L 360.504 423.445 L 344.859 385.406 L 351.539 385.406 L 351.539 385.406 Z  M 422.52 423.445 L 415.734 423.445 L 415.734 423.445 Q 415.348 422.707 415.119 421.6 L 415.119 421.6 L 415.119 421.6 Q 414.891 420.492 414.785 419.297 L 414.785 419.297 L 414.785 419.297 Q 413.801 420.281 412.588 421.16 L 412.588 421.16 L 412.588 421.16 Q 411.375 422.039 409.916 422.707 L 409.916 422.707 L 409.916 422.707 Q 408.457 423.375 406.805 423.762 L 406.805 423.762 L 406.805 423.762 Q 405.152 424.148 403.289 424.148 L 403.289 424.148 L 403.289 424.148 Q 400.266 424.148 397.822 423.27 L 397.822 423.27 L 397.822 423.27 Q 395.379 422.391 393.674 420.896 L 393.674 420.896 L 393.674 420.896 Q 391.969 419.402 391.037 417.346 L 391.037 417.346 L 391.037 417.346 Q 390.105 415.289 390.105 412.898 L 390.105 412.898 L 390.105 412.898 Q 390.105 409.77 391.354 407.414 L 391.354 407.414 L 391.354 407.414 Q 392.602 405.059 394.887 403.494 L 394.887 403.494 L 394.887 403.494 Q 397.172 401.93 400.389 401.156 L 400.389 401.156 L 400.389 401.156 Q 403.605 400.383 407.578 400.383 L 407.578 400.383 L 414.68 400.383 L 414.68 397.395 L 414.68 397.395 Q 414.68 395.672 414.047 394.301 L 414.047 394.301 L 414.047 394.301 Q 413.414 392.93 412.254 391.963 L 412.254 391.963 L 412.254 391.963 Q 411.094 390.996 409.424 390.469 L 409.424 390.469 L 409.424 390.469 Q 407.754 389.941 405.68 389.941 L 405.68 389.941 L 405.68 389.941 Q 403.746 389.941 402.217 390.434 L 402.217 390.434 L 402.217 390.434 Q 400.688 390.926 399.633 391.734 L 399.633 391.734 L 399.633 391.734 Q 398.578 392.543 397.998 393.65 L 397.998 393.65 L 397.998 393.65 Q 397.418 394.758 397.418 395.953 L 397.418 395.953 L 390.879 395.953 L 390.879 395.953 Q 390.914 393.879 391.951 391.875 L 391.951 391.875 L 391.951 391.875 Q 392.988 389.871 394.939 388.271 L 394.939 388.271 L 394.939 388.271 Q 396.891 386.672 399.686 385.688 L 399.686 385.688 L 399.686 385.688 Q 402.48 384.703 406.031 384.703 L 406.031 384.703 L 406.031 384.703 Q 409.266 384.703 412.043 385.494 L 412.043 385.494 L 412.043 385.494 Q 414.82 386.285 416.842 387.885 L 416.842 387.885 L 416.842 387.885 Q 418.863 389.484 420.023 391.875 L 420.023 391.875 L 420.023 391.875 Q 421.184 394.266 421.184 397.465 L 421.184 397.465 L 421.184 415.148 L 421.184 415.148 Q 421.184 417.047 421.535 419.174 L 421.535 419.174 L 421.535 419.174 Q 421.887 421.301 422.52 422.883 L 422.52 422.883 L 422.52 423.445 L 422.52 423.445 Z  M 404.238 418.488 L 404.238 418.488 L 404.238 418.488 Q 406.137 418.488 407.789 417.996 L 407.789 417.996 L 407.789 417.996 Q 409.441 417.504 410.795 416.695 L 410.795 416.695 L 410.795 416.695 Q 412.148 415.887 413.133 414.85 L 413.133 414.85 L 413.133 414.85 Q 414.117 413.813 414.68 412.688 L 414.68 412.688 L 414.68 404.988 L 408.633 404.988 L 408.633 404.988 Q 402.938 404.988 399.773 406.676 L 399.773 406.676 L 399.773 406.676 Q 396.609 408.363 396.609 411.984 L 396.609 411.984 L 396.609 411.984 Q 396.609 413.391 397.084 414.586 L 397.084 414.586 L 397.084 414.586 Q 397.559 415.781 398.508 416.643 L 398.508 416.643 L 398.508 416.643 Q 399.457 417.504 400.898 417.996 L 400.898 417.996 L 400.898 417.996 Q 402.34 418.488 404.238 418.488 Z " fill-rule="evenodd" fill="rgb(255,255,225)"/></g></svg>