<?xml version="1.0" standalone="no"?><!-- Generator: Gravit.io --><svg xmlns="http://www.w3.org/2000/svg" xmlns:xlink="http://www.w3.org/1999/xlink" style="isolation:isolate" viewBox="0 0 512 512" width="512" height="512"><defs><clipPath id="_clipPath_5OqF195trkgB8SWx6WXBPdEDNvmw1fJt"><rect width="512" height="512"/></clipPath></defs><g clip-path="url(#_clipPath_5OqF195trkgB8SWx6WXBPdEDNvmw1fJt)"><rect x="0" y="0" width="512" height="512" transform="matrix(1,0,0,1,0,0)" fill="rgb(255,61,0)"/><path d=" M 250.459 98.039 L 250.459 311.32 L 223.506 311.32 L 138.105 146.965 L 138.105 311.32 L 111.152 311.32 L 111.152 98.039 L 138.105 98.039 L 223.799 263.127 L 223.799 98.039 L 250.459 98.039 L 250.459 98.039 Z  M 408.076 224.016 L 408.076 239.689 L 408.076 239.689 Q 408.076 276.75 394.746 295.5 L 394.746 295.5 L 394.746 295.5 Q 381.416 314.25 356.074 314.25 L 356.074 314.25 L 356.074 314.25 Q 330.879 314.25 318.281 292.57 L 318.281 292.57 L 316.963 311.32 L 293.379 311.32 L 293.379 86.32 L 319.16 86.32 L 319.16 170.256 L 319.16 170.256 Q 331.904 149.895 355.781 149.895 L 355.781 149.895 L 355.781 149.895 Q 381.855 149.895 394.893 168.352 L 394.893 168.352 L 394.893 168.352 Q 407.93 186.809 408.076 224.016 L 408.076 224.016 L 408.076 224.016 Z  M 382.295 240.861 L 382.295 224.895 L 382.295 224.895 Q 382.295 196.77 374.458 184.831 L 374.458 184.831 L 374.458 184.831 Q 366.621 172.893 349.043 172.893 L 349.043 172.893 L 349.043 172.893 Q 328.975 172.893 319.16 194.572 L 319.16 194.572 L 319.16 270.012 L 319.16 270.012 Q 328.828 291.398 349.336 291.398 L 349.336 291.398 L 349.336 291.398 Q 366.914 291.398 374.531 279.094 L 374.531 279.094 L 374.531 279.094 Q 382.148 266.789 382.295 240.861 L 382.295 240.861 L 382.295 240.861 Z " fill-rule="evenodd" fill="rgb(255,255,225)"/><path d=" M 131.496 385.406 L 137.332 385.406 L 137.789 391.031 L 137.789 391.031 Q 139.863 388.078 142.887 386.408 L 142.887 386.408 L 142.887 386.408 Q 145.91 384.738 149.637 384.703 L 149.637 384.703 L 149.637 384.703 Q 152.625 384.703 155.068 385.547 L 155.068 385.547 L 155.068 385.547 Q 157.512 386.391 159.234 388.184 L 159.234 388.184 L 159.234 388.184 Q 160.957 389.977 161.889 392.736 L 161.889 392.736 L 161.889 392.736 Q 162.82 395.496 162.82 399.293 L 162.82 399.293 L 162.82 423.445 L 156.316 423.445 L 156.316 399.434 L 156.316 399.434 Q 156.316 396.902 155.754 395.145 L 155.754 395.145 L 155.754 395.145 Q 155.191 393.387 154.084 392.297 L 154.084 392.297 L 154.084 392.297 Q 152.977 391.207 151.377 390.715 L 151.377 390.715 L 151.377 390.715 Q 149.777 390.223 147.703 390.223 L 147.703 390.223 L 147.703 390.223 Q 144.434 390.223 141.955 391.857 L 141.955 391.857 L 141.955 391.857 Q 139.477 393.492 138 396.164 L 138 396.164 L 138 423.445 L 131.496 423.445 L 131.496 385.406 L 131.496 385.406 Z  M 191.508 424.148 L 191.508 424.148 L 191.508 424.148 Q 187.5 424.148 184.143 422.777 L 184.143 422.777 L 184.143 422.777 Q 180.785 421.406 178.395 418.945 L 178.395 418.945 L 178.395 418.945 Q 176.004 416.484 174.668 413.109 L 174.668 413.109 L 174.668 413.109 Q 173.332 409.734 173.332 405.762 L 173.332 405.762 L 173.332 404.285 L 173.332 404.285 Q 173.332 399.68 174.809 396.041 L 174.809 396.041 L 174.809 396.041 Q 176.285 392.402 178.729 389.889 L 178.729 389.889 L 178.729 389.889 Q 181.172 387.375 184.283 386.039 L 184.283 386.039 L 184.283 386.039 Q 187.395 384.703 190.664 384.703 L 190.664 384.703 L 190.664 384.703 Q 194.777 384.703 197.854 386.127 L 197.854 386.127 L 197.854 386.127 Q 200.93 387.551 202.969 390.064 L 202.969 390.064 L 202.969 390.064 Q 205.008 392.578 206.01 395.988 L 206.01 395.988 L 206.01 395.988 Q 207.012 399.398 207.012 403.371 L 207.012 403.371 L 207.012 406.289 L 179.836 406.289 L 179.836 406.289 Q 179.941 408.891 180.838 411.176 L 180.838 411.176 L 180.838 411.176 Q 181.734 413.461 183.299 415.166 L 183.299 415.166 L 183.299 415.166 Q 184.863 416.871 187.043 417.855 L 187.043 417.855 L 187.043 417.855 Q 189.223 418.84 191.859 418.84 L 191.859 418.84 L 191.859 418.84 Q 195.34 418.84 198.047 417.434 L 198.047 417.434 L 198.047 417.434 Q 200.754 416.027 202.547 413.707 L 202.547 413.707 L 206.52 416.801 L 206.52 416.801 Q 205.57 418.242 204.146 419.561 L 204.146 419.561 L 204.146 419.561 Q 202.723 420.879 200.859 421.898 L 200.859 421.898 L 200.859 421.898 Q 198.996 422.918 196.641 423.533 L 196.641 423.533 L 196.641 423.533 Q 194.285 424.148 191.508 424.148 Z  M 190.664 390.047 L 190.664 390.047 L 190.664 390.047 Q 188.695 390.047 186.938 390.768 L 186.938 390.768 L 186.938 390.768 Q 185.18 391.488 183.773 392.877 L 183.773 392.877 L 183.773 392.877 Q 182.367 394.266 181.4 396.287 L 181.4 396.287 L 181.4 396.287 Q 180.434 398.309 180.047 400.945 L 180.047 400.945 L 200.508 400.945 L 200.508 400.453 L 200.508 400.453 Q 200.402 398.555 199.787 396.691 L 199.787 396.691 L 199.787 396.691 Q 199.172 394.828 197.977 393.352 L 197.977 393.352 L 197.977 393.352 Q 196.781 391.875 194.971 390.961 L 194.971 390.961 L 194.971 390.961 Q 193.16 390.047 190.664 390.047 Z  M 226.77 376.195 L 233.309 376.195 L 233.309 385.406 L 247.793 385.406 L 247.793 390.434 L 233.309 390.434 L 233.309 411.105 L 233.309 411.105 Q 233.309 413.32 233.871 414.762 L 233.871 414.762 L 233.871 414.762 Q 234.434 416.203 235.418 417.064 L 235.418 417.064 L 235.418 417.064 Q 236.402 417.926 237.686 418.277 L 237.686 418.277 L 237.686 418.277 Q 238.969 418.629 240.41 418.629 L 240.41 418.629 L 240.41 418.629 Q 241.465 418.629 242.59 418.506 L 242.59 418.506 L 242.59 418.506 Q 243.715 418.383 244.787 418.207 L 244.787 418.207 L 244.787 418.207 Q 245.859 418.031 246.791 417.838 L 246.791 417.838 L 246.791 417.838 Q 247.723 417.645 248.32 417.504 L 248.32 417.504 L 249.234 422.109 L 249.234 422.109 Q 248.426 422.602 247.266 422.971 L 247.266 422.971 L 247.266 422.971 Q 246.105 423.34 244.734 423.604 L 244.734 423.604 L 244.734 423.604 Q 243.363 423.867 241.834 424.008 L 241.834 424.008 L 241.834 424.008 Q 240.305 424.148 238.793 424.148 L 238.793 424.148 L 238.793 424.148 Q 236.262 424.148 234.064 423.428 L 234.064 423.428 L 234.064 423.428 Q 231.867 422.707 230.25 421.143 L 230.25 421.143 L 230.25 421.143 Q 228.633 419.578 227.701 417.1 L 227.701 417.1 L 227.701 417.1 Q 226.77 414.621 226.77 411.105 L 226.77 411.105 L 226.77 390.434 L 216.785 390.434 L 216.785 385.406 L 226.77 385.406 L 226.77 376.195 L 226.77 376.195 Z  M 293.355 404.109 L 293.355 404.848 L 293.355 404.848 Q 293.355 408.926 292.371 412.459 L 292.371 412.459 L 292.371 412.459 Q 291.387 415.992 289.488 418.594 L 289.488 418.594 L 289.488 418.594 Q 287.59 421.195 284.795 422.672 L 284.795 422.672 L 284.795 422.672 Q 282 424.148 278.379 424.148 L 278.379 424.148 L 278.379 424.148 Q 274.723 424.148 272.033 422.848 L 272.033 422.848 L 272.033 422.848 Q 269.344 421.547 267.445 419.121 L 267.445 419.121 L 267.129 423.445 L 261.152 423.445 L 261.152 369.445 L 267.656 369.445 L 267.656 389.484 L 267.656 389.484 Q 269.52 387.164 272.156 385.934 L 272.156 385.934 L 272.156 385.934 Q 274.793 384.703 278.309 384.703 L 278.309 384.703 L 278.309 384.703 Q 281.965 384.703 284.777 386.145 L 284.777 386.145 L 284.777 386.145 Q 287.59 387.586 289.488 390.152 L 289.488 390.152 L 289.488 390.152 Q 291.387 392.719 292.371 396.287 L 292.371 396.287 L 292.371 396.287 Q 293.355 399.855 293.355 404.109 L 293.355 404.109 L 293.355 404.109 Z  M 286.852 404.848 L 286.852 404.109 L 286.852 404.109 Q 286.852 401.332 286.307 398.818 L 286.307 398.818 L 286.307 398.818 Q 285.762 396.305 284.566 394.389 L 284.566 394.389 L 284.566 394.389 Q 283.371 392.473 281.438 391.348 L 281.438 391.348 L 281.438 391.348 Q 279.504 390.223 276.691 390.223 L 276.691 390.223 L 276.691 390.223 Q 275.004 390.223 273.598 390.662 L 273.598 390.662 L 273.598 390.662 Q 272.191 391.102 271.084 391.893 L 271.084 391.893 L 271.084 391.893 Q 269.977 392.684 269.115 393.756 L 269.115 393.756 L 269.115 393.756 Q 268.254 394.828 267.656 396.094 L 267.656 396.094 L 267.656 412.723 L 267.656 412.723 Q 268.289 413.988 269.15 415.061 L 269.15 415.061 L 269.15 415.061 Q 270.012 416.133 271.137 416.941 L 271.137 416.941 L 271.137 416.941 Q 272.262 417.75 273.668 418.189 L 273.668 418.189 L 273.668 418.189 Q 275.074 418.629 276.762 418.629 L 276.762 418.629 L 276.762 418.629 Q 279.434 418.629 281.35 417.521 L 281.35 417.521 L 281.35 417.521 Q 283.266 416.414 284.479 414.516 L 284.479 414.516 L 284.479 414.516 Q 285.691 412.617 286.271 410.121 L 286.271 410.121 L 286.271 410.121 Q 286.852 407.625 286.852 404.848 L 286.852 404.848 L 286.852 404.848 Z  M 329.602 413.355 L 329.602 413.355 L 329.602 413.355 Q 329.602 412.195 329.145 411.264 L 329.145 411.264 L 329.145 411.264 Q 328.688 410.332 327.598 409.559 L 327.598 409.559 L 327.598 409.559 Q 326.508 408.785 324.715 408.135 L 324.715 408.135 L 324.715 408.135 Q 322.922 407.484 320.25 406.957 L 320.25 406.957 L 320.25 406.957 Q 316.98 406.289 314.291 405.34 L 314.291 405.34 L 314.291 405.34 Q 311.602 404.391 309.686 403.072 L 309.686 403.072 L 309.686 403.072 Q 307.77 401.754 306.715 399.979 L 306.715 399.979 L 306.715 399.979 Q 305.66 398.203 305.66 395.848 L 305.66 395.848 L 305.66 395.848 Q 305.66 393.527 306.75 391.506 L 306.75 391.506 L 306.75 391.506 Q 307.84 389.484 309.809 387.973 L 309.809 387.973 L 309.809 387.973 Q 311.777 386.461 314.502 385.582 L 314.502 385.582 L 314.502 385.582 Q 317.227 384.703 320.496 384.703 L 320.496 384.703 L 320.496 384.703 Q 324.012 384.703 326.824 385.617 L 326.824 385.617 L 326.824 385.617 Q 329.637 386.531 331.605 388.148 L 331.605 388.148 L 331.605 388.148 Q 333.574 389.766 334.646 391.928 L 334.646 391.928 L 334.646 391.928 Q 335.719 394.09 335.719 396.586 L 335.719 396.586 L 329.215 396.586 L 329.215 396.586 Q 329.215 395.355 328.582 394.178 L 328.582 394.178 L 328.582 394.178 Q 327.949 393 326.824 392.086 L 326.824 392.086 L 326.824 392.086 Q 325.699 391.172 324.1 390.609 L 324.1 390.609 L 324.1 390.609 Q 322.5 390.047 320.496 390.047 L 320.496 390.047 L 320.496 390.047 Q 318.422 390.047 316.857 390.504 L 316.857 390.504 L 316.857 390.504 Q 315.293 390.961 314.256 391.734 L 314.256 391.734 L 314.256 391.734 Q 313.219 392.508 312.691 393.527 L 312.691 393.527 L 312.691 393.527 Q 312.164 394.547 312.164 395.637 L 312.164 395.637 L 312.164 395.637 Q 312.164 396.762 312.586 397.641 L 312.586 397.641 L 312.586 397.641 Q 313.008 398.52 314.045 399.223 L 314.045 399.223 L 314.045 399.223 Q 315.082 399.926 316.822 400.488 L 316.822 400.488 L 316.822 400.488 Q 318.563 401.051 321.234 401.578 L 321.234 401.578 L 321.234 401.578 Q 324.75 402.316 327.527 403.283 L 327.527 403.283 L 327.527 403.283 Q 330.305 404.25 332.203 405.604 L 332.203 405.604 L 332.203 405.604 Q 334.102 406.957 335.104 408.75 L 335.104 408.75 L 335.104 408.75 Q 336.105 410.543 336.105 412.898 L 336.105 412.898 L 336.105 412.898 Q 336.105 415.43 334.963 417.504 L 334.963 417.504 L 334.963 417.504 Q 333.82 419.578 331.781 421.055 L 331.781 421.055 L 331.781 421.055 Q 329.742 422.531 326.895 423.34 L 326.895 423.34 L 326.895 423.34 Q 324.047 424.148 320.672 424.148 L 320.672 424.148 L 320.672 424.148 Q 316.805 424.148 313.781 423.111 L 313.781 423.111 L 313.781 423.111 Q 310.758 422.074 308.666 420.369 L 308.666 420.369 L 308.666 420.369 Q 306.574 418.664 305.467 416.414 L 305.467 416.414 L 305.467 416.414 Q 304.359 414.164 304.359 411.738 L 304.359 411.738 L 310.863 411.738 L 310.863 411.738 Q 311.004 413.742 311.936 415.113 L 311.936 415.113 L 311.936 415.113 Q 312.867 416.484 314.256 417.328 L 314.256 417.328 L 314.256 417.328 Q 315.645 418.172 317.332 418.523 L 317.332 418.523 L 317.332 418.523 Q 319.02 418.875 320.672 418.875 L 320.672 418.875 L 320.672 418.875 Q 324.785 418.875 327.176 417.363 L 327.176 417.363 L 327.176 417.363 Q 329.566 415.852 329.602 413.355 Z  M 346.301 404.848 L 346.301 404.109 L 346.301 404.109 Q 346.301 399.855 347.373 396.287 L 347.373 396.287 L 347.373 396.287 Q 348.445 392.719 350.432 390.152 L 350.432 390.152 L 350.432 390.152 Q 352.418 387.586 355.23 386.145 L 355.23 386.145 L 355.23 386.145 Q 358.043 384.703 361.523 384.703 L 361.523 384.703 L 361.523 384.703 Q 364.934 384.703 367.482 385.846 L 367.482 385.846 L 367.482 385.846 Q 370.031 386.988 371.895 389.168 L 371.895 389.168 L 371.895 369.445 L 378.398 369.445 L 378.398 423.445 L 372.422 423.445 L 372.141 419.438 L 372.141 419.438 Q 370.242 421.758 367.605 422.953 L 367.605 422.953 L 367.605 422.953 Q 364.969 424.148 361.453 424.148 L 361.453 424.148 L 361.453 424.148 Q 358.008 424.148 355.213 422.672 L 355.213 422.672 L 355.213 422.672 Q 352.418 421.195 350.449 418.594 L 350.449 418.594 L 350.449 418.594 Q 348.48 415.992 347.391 412.459 L 347.391 412.459 L 347.391 412.459 Q 346.301 408.926 346.301 404.848 L 346.301 404.848 L 346.301 404.848 Z  M 352.805 404.109 L 352.805 404.848 L 352.805 404.848 Q 352.805 407.625 353.402 410.121 L 353.402 410.121 L 353.402 410.121 Q 354 412.617 355.248 414.516 L 355.248 414.516 L 355.248 414.516 Q 356.496 416.414 358.43 417.521 L 358.43 417.521 L 358.43 417.521 Q 360.363 418.629 363.07 418.629 L 363.07 418.629 L 363.07 418.629 Q 364.723 418.629 366.059 418.242 L 366.059 418.242 L 366.059 418.242 Q 367.395 417.855 368.484 417.135 L 368.484 417.135 L 368.484 417.135 Q 369.574 416.414 370.418 415.412 L 370.418 415.412 L 370.418 415.412 Q 371.262 414.41 371.895 413.18 L 371.895 413.18 L 371.895 395.531 L 371.895 395.531 Q 370.629 393.211 368.484 391.717 L 368.484 391.717 L 368.484 391.717 Q 366.34 390.223 363.141 390.223 L 363.141 390.223 L 363.141 390.223 Q 360.398 390.223 358.447 391.348 L 358.447 391.348 L 358.447 391.348 Q 356.496 392.473 355.248 394.389 L 355.248 394.389 L 355.248 394.389 Q 354 396.305 353.402 398.818 L 353.402 398.818 L 353.402 398.818 Q 352.805 401.332 352.805 404.109 L 352.805 404.109 L 352.805 404.109 Z " fill-rule="evenodd" fill="rgb(255,255,225)"/></g></svg>