<?xml version="1.0" standalone="no"?><!-- Generator: Gravit.io --><svg xmlns="http://www.w3.org/2000/svg" xmlns:xlink="http://www.w3.org/1999/xlink" style="isolation:isolate" viewBox="0 0 512 512" width="512" height="512"><defs><clipPath id="_clipPath_wDY8DrjyLUNOctn3rLBnIR9NrlQA4tWK"><rect width="512" height="512"/></clipPath></defs><g clip-path="url(#_clipPath_wDY8DrjyLUNOctn3rLBnIR9NrlQA4tWK)"><rect x="0.318" y="0" width="512" height="512" transform="matrix(1,0,0,1,0,0)" fill="rgb(76,175,80)"/><path d=" M 226.948 98.039 L 226.948 311.32 L 199.995 311.32 L 114.595 146.965 L 114.595 311.32 L 87.642 311.32 L 87.642 98.039 L 114.595 98.039 L 200.288 263.127 L 200.288 98.039 L 226.948 98.039 L 226.948 98.039 Z  M 357.759 152.824 L 387.935 265.764 L 411.958 152.824 L 437.593 152.824 L 398.774 311.32 L 378.12 311.32 L 347.212 197.941 L 317.036 311.32 L 296.235 311.32 L 257.71 152.824 L 283.198 152.824 L 307.808 262.98 L 337.251 152.824 L 357.759 152.824 L 357.759 152.824 Z " fill-rule="evenodd" fill="rgb(255,255,225)"/><path d=" M 109.893 384.406 L 115.729 384.406 L 116.186 390.031 L 116.186 390.031 Q 118.26 387.078 121.283 385.408 L 121.283 385.408 L 121.283 385.408 Q 124.307 383.738 128.033 383.703 L 128.033 383.703 L 128.033 383.703 Q 131.021 383.703 133.465 384.547 L 133.465 384.547 L 133.465 384.547 Q 135.908 385.391 137.631 387.184 L 137.631 387.184 L 137.631 387.184 Q 139.354 388.977 140.285 391.736 L 140.285 391.736 L 140.285 391.736 Q 141.217 394.496 141.217 398.293 L 141.217 398.293 L 141.217 422.445 L 134.713 422.445 L 134.713 398.434 L 134.713 398.434 Q 134.713 395.902 134.15 394.145 L 134.15 394.145 L 134.15 394.145 Q 133.588 392.387 132.48 391.297 L 132.48 391.297 L 132.48 391.297 Q 131.373 390.207 129.773 389.715 L 129.773 389.715 L 129.773 389.715 Q 128.174 389.223 126.1 389.223 L 126.1 389.223 L 126.1 389.223 Q 122.83 389.223 120.352 390.857 L 120.352 390.857 L 120.352 390.857 Q 117.873 392.492 116.396 395.164 L 116.396 395.164 L 116.396 422.445 L 109.893 422.445 L 109.893 384.406 L 109.893 384.406 Z  M 169.904 423.148 L 169.904 423.148 L 169.904 423.148 Q 165.896 423.148 162.539 421.777 L 162.539 421.777 L 162.539 421.777 Q 159.182 420.406 156.791 417.945 L 156.791 417.945 L 156.791 417.945 Q 154.4 415.484 153.064 412.109 L 153.064 412.109 L 153.064 412.109 Q 151.729 408.734 151.729 404.762 L 151.729 404.762 L 151.729 403.285 L 151.729 403.285 Q 151.729 398.68 153.205 395.041 L 153.205 395.041 L 153.205 395.041 Q 154.682 391.402 157.125 388.889 L 157.125 388.889 L 157.125 388.889 Q 159.568 386.375 162.68 385.039 L 162.68 385.039 L 162.68 385.039 Q 165.791 383.703 169.061 383.703 L 169.061 383.703 L 169.061 383.703 Q 173.174 383.703 176.25 385.127 L 176.25 385.127 L 176.25 385.127 Q 179.326 386.551 181.365 389.064 L 181.365 389.064 L 181.365 389.064 Q 183.404 391.578 184.406 394.988 L 184.406 394.988 L 184.406 394.988 Q 185.408 398.398 185.408 402.371 L 185.408 402.371 L 185.408 405.289 L 158.232 405.289 L 158.232 405.289 Q 158.338 407.891 159.234 410.176 L 159.234 410.176 L 159.234 410.176 Q 160.131 412.461 161.695 414.166 L 161.695 414.166 L 161.695 414.166 Q 163.26 415.871 165.439 416.855 L 165.439 416.855 L 165.439 416.855 Q 167.619 417.84 170.256 417.84 L 170.256 417.84 L 170.256 417.84 Q 173.736 417.84 176.443 416.434 L 176.443 416.434 L 176.443 416.434 Q 179.15 415.027 180.943 412.707 L 180.943 412.707 L 184.916 415.801 L 184.916 415.801 Q 183.967 417.242 182.543 418.561 L 182.543 418.561 L 182.543 418.561 Q 181.119 419.879 179.256 420.898 L 179.256 420.898 L 179.256 420.898 Q 177.393 421.918 175.037 422.533 L 175.037 422.533 L 175.037 422.533 Q 172.682 423.148 169.904 423.148 Z  M 169.061 389.047 L 169.061 389.047 L 169.061 389.047 Q 167.092 389.047 165.334 389.768 L 165.334 389.768 L 165.334 389.768 Q 163.576 390.488 162.17 391.877 L 162.17 391.877 L 162.17 391.877 Q 160.764 393.266 159.797 395.287 L 159.797 395.287 L 159.797 395.287 Q 158.83 397.309 158.443 399.945 L 158.443 399.945 L 178.904 399.945 L 178.904 399.453 L 178.904 399.453 Q 178.799 397.555 178.184 395.691 L 178.184 395.691 L 178.184 395.691 Q 177.568 393.828 176.373 392.352 L 176.373 392.352 L 176.373 392.352 Q 175.178 390.875 173.367 389.961 L 173.367 389.961 L 173.367 389.961 Q 171.557 389.047 169.061 389.047 Z  M 205.166 375.195 L 211.705 375.195 L 211.705 384.406 L 226.189 384.406 L 226.189 389.434 L 211.705 389.434 L 211.705 410.105 L 211.705 410.105 Q 211.705 412.32 212.268 413.762 L 212.268 413.762 L 212.268 413.762 Q 212.83 415.203 213.814 416.064 L 213.814 416.064 L 213.814 416.064 Q 214.799 416.926 216.082 417.277 L 216.082 417.277 L 216.082 417.277 Q 217.365 417.629 218.807 417.629 L 218.807 417.629 L 218.807 417.629 Q 219.861 417.629 220.986 417.506 L 220.986 417.506 L 220.986 417.506 Q 222.111 417.383 223.184 417.207 L 223.184 417.207 L 223.184 417.207 Q 224.256 417.031 225.188 416.838 L 225.188 416.838 L 225.188 416.838 Q 226.119 416.645 226.717 416.504 L 226.717 416.504 L 227.631 421.109 L 227.631 421.109 Q 226.822 421.602 225.662 421.971 L 225.662 421.971 L 225.662 421.971 Q 224.502 422.34 223.131 422.604 L 223.131 422.604 L 223.131 422.604 Q 221.76 422.867 220.23 423.008 L 220.23 423.008 L 220.23 423.008 Q 218.701 423.148 217.189 423.148 L 217.189 423.148 L 217.189 423.148 Q 214.658 423.148 212.461 422.428 L 212.461 422.428 L 212.461 422.428 Q 210.264 421.707 208.646 420.143 L 208.646 420.143 L 208.646 420.143 Q 207.029 418.578 206.098 416.1 L 206.098 416.1 L 206.098 416.1 Q 205.166 413.621 205.166 410.105 L 205.166 410.105 L 205.166 389.434 L 195.182 389.434 L 195.182 384.406 L 205.166 384.406 L 205.166 375.195 L 205.166 375.195 Z  M 240.85 384.406 L 245.279 408.664 L 246.053 414.113 L 247.002 408.664 L 253.084 384.406 L 257.268 384.406 L 263.314 408.664 L 264.334 414.641 L 265.283 408.664 L 269.502 384.406 L 275.268 384.406 L 267.182 422.445 L 262.049 422.445 L 256.107 399.137 L 255.123 393.23 L 254.174 399.137 L 248.303 422.445 L 243.17 422.445 L 235.084 384.406 L 240.85 384.406 L 240.85 384.406 Z  M 280.893 403.848 L 280.893 403.074 L 280.893 403.074 Q 280.893 398.961 282.088 395.428 L 282.088 395.428 L 282.088 395.428 Q 283.283 391.895 285.516 389.293 L 285.516 389.293 L 285.516 389.293 Q 287.748 386.691 290.947 385.197 L 290.947 385.197 L 290.947 385.197 Q 294.146 383.703 298.154 383.703 L 298.154 383.703 L 298.154 383.703 Q 302.197 383.703 305.414 385.197 L 305.414 385.197 L 305.414 385.197 Q 308.631 386.691 310.863 389.293 L 310.863 389.293 L 310.863 389.293 Q 313.096 391.895 314.291 395.428 L 314.291 395.428 L 314.291 395.428 Q 315.486 398.961 315.486 403.074 L 315.486 403.074 L 315.486 403.848 L 315.486 403.848 Q 315.486 407.961 314.291 411.477 L 314.291 411.477 L 314.291 411.477 Q 313.096 414.992 310.863 417.594 L 310.863 417.594 L 310.863 417.594 Q 308.631 420.195 305.432 421.672 L 305.432 421.672 L 305.432 421.672 Q 302.232 423.148 298.225 423.148 L 298.225 423.148 L 298.225 423.148 Q 294.182 423.148 290.965 421.672 L 290.965 421.672 L 290.965 421.672 Q 287.748 420.195 285.516 417.594 L 285.516 417.594 L 285.516 417.594 Q 283.283 414.992 282.088 411.477 L 282.088 411.477 L 282.088 411.477 Q 280.893 407.961 280.893 403.848 L 280.893 403.848 L 280.893 403.848 Z  M 287.396 403.074 L 287.396 403.848 L 287.396 403.848 Q 287.396 406.66 288.064 409.209 L 288.064 409.209 L 288.064 409.209 Q 288.732 411.758 290.086 413.691 L 290.086 413.691 L 290.086 413.691 Q 291.439 415.625 293.479 416.75 L 293.479 416.75 L 293.479 416.75 Q 295.518 417.875 298.225 417.875 L 298.225 417.875 L 298.225 417.875 Q 300.896 417.875 302.918 416.75 L 302.918 416.75 L 302.918 416.75 Q 304.939 415.625 306.293 413.691 L 306.293 413.691 L 306.293 413.691 Q 307.646 411.758 308.314 409.209 L 308.314 409.209 L 308.314 409.209 Q 308.982 406.66 308.982 403.848 L 308.982 403.848 L 308.982 403.074 L 308.982 403.074 Q 308.982 400.297 308.297 397.748 L 308.297 397.748 L 308.297 397.748 Q 307.611 395.199 306.258 393.266 L 306.258 393.266 L 306.258 393.266 Q 304.904 391.332 302.883 390.189 L 302.883 390.189 L 302.883 390.189 Q 300.861 389.047 298.154 389.047 L 298.154 389.047 L 298.154 389.047 Q 295.447 389.047 293.443 390.189 L 293.443 390.189 L 293.443 390.189 Q 291.439 391.332 290.086 393.266 L 290.086 393.266 L 290.086 393.266 Q 288.732 395.199 288.064 397.748 L 288.064 397.748 L 288.064 397.748 Q 287.396 400.297 287.396 403.074 L 287.396 403.074 L 287.396 403.074 Z  M 350.854 383.703 L 350.854 383.703 L 350.854 383.703 Q 351.768 383.703 352.752 383.756 L 352.752 383.756 L 352.752 383.756 Q 353.736 383.809 354.633 383.932 L 354.633 383.932 L 354.633 383.932 Q 355.529 384.055 356.285 384.23 L 356.285 384.23 L 356.285 384.23 Q 357.041 384.406 357.533 384.617 L 357.533 384.617 L 356.654 390.98 L 356.654 390.98 Q 354.756 390.559 353.051 390.365 L 353.051 390.365 L 353.051 390.365 Q 351.346 390.172 349.482 390.172 L 349.482 390.172 L 349.482 390.172 Q 344.912 390.172 342.082 392.246 L 342.082 392.246 L 342.082 392.246 Q 339.252 394.32 337.916 398.047 L 337.916 398.047 L 337.916 422.445 L 331.377 422.445 L 331.377 384.406 L 337.564 384.406 L 337.881 390.453 L 337.881 390.453 Q 340.201 387.324 343.453 385.514 L 343.453 385.514 L 343.453 385.514 Q 346.705 383.703 350.854 383.703 Z  M 394.482 422.445 L 380.525 404.691 L 375.744 409.297 L 375.744 422.445 L 369.205 422.445 L 369.205 368.445 L 375.744 368.445 L 375.744 401.492 L 379.998 396.922 L 392.479 384.406 L 400.389 384.406 L 384.99 400.262 L 402.744 422.445 L 394.482 422.445 L 394.482 422.445 Z " fill-rule="evenodd" fill="rgb(255,255,225)"/></g></svg>