<?xml version="1.0" standalone="no"?><!-- Generator: Gravit.io --><svg xmlns="http://www.w3.org/2000/svg" xmlns:xlink="http://www.w3.org/1999/xlink" style="isolation:isolate" viewBox="0 0 512 512" width="512" height="512"><defs><clipPath id="_clipPath_gU6S8hmYjQREHD1ijtRHJIkH0fDGa6ww"><rect width="512" height="512"/></clipPath></defs><g clip-path="url(#_clipPath_gU6S8hmYjQREHD1ijtRHJIkH0fDGa6ww)"><rect x="0" y="0" width="512" height="512" transform="matrix(1,0,0,1,0,0)" fill="rgb(67,160,71)"/><path d=" M 220.942 257.414 L 220.942 257.414 L 220.942 257.414 Q 220.942 241.447 212.3 232.951 L 212.3 232.951 L 212.3 232.951 Q 203.657 224.455 181.099 216.398 L 181.099 216.398 L 181.099 216.398 Q 158.54 208.342 146.602 199.479 L 146.602 199.479 L 146.602 199.479 Q 134.663 190.617 128.73 179.265 L 128.73 179.265 L 128.73 179.265 Q 122.798 167.912 122.798 153.264 L 122.798 153.264 L 122.798 153.264 Q 122.798 127.922 139.717 111.516 L 139.717 111.516 L 139.717 111.516 Q 156.636 95.109 184.028 95.109 L 184.028 95.109 L 184.028 95.109 Q 202.778 95.109 217.427 103.532 L 217.427 103.532 L 217.427 103.532 Q 232.075 111.955 239.985 126.896 L 239.985 126.896 L 239.985 126.896 Q 247.896 141.838 247.896 159.709 L 247.896 159.709 L 220.942 159.709 L 220.942 159.709 Q 220.942 139.934 211.421 129.094 L 211.421 129.094 L 211.421 129.094 Q 201.899 118.254 184.028 118.254 L 184.028 118.254 L 184.028 118.254 Q 167.769 118.254 158.833 127.336 L 158.833 127.336 L 158.833 127.336 Q 149.897 136.418 149.897 152.824 L 149.897 152.824 L 149.897 152.824 Q 149.897 166.301 159.565 175.383 L 159.565 175.383 L 159.565 175.383 Q 169.233 184.465 189.448 191.643 L 189.448 191.643 L 189.448 191.643 Q 220.942 202.043 234.492 217.277 L 234.492 217.277 L 234.492 217.277 Q 248.042 232.512 248.042 257.121 L 248.042 257.121 L 248.042 257.121 Q 248.042 283.049 231.196 298.649 L 231.196 298.649 L 231.196 298.649 Q 214.351 314.25 185.347 314.25 L 185.347 314.25 L 185.347 314.25 Q 166.743 314.25 150.996 306.12 L 150.996 306.12 L 150.996 306.12 Q 135.249 297.99 126.24 283.269 L 126.24 283.269 L 126.24 283.269 Q 117.231 268.547 117.231 249.504 L 117.231 249.504 L 144.185 249.504 L 144.185 249.504 Q 144.185 269.279 155.244 280.266 L 155.244 280.266 L 155.244 280.266 Q 166.304 291.252 185.347 291.252 L 185.347 291.252 L 185.347 291.252 Q 203.071 291.252 212.007 282.17 L 212.007 282.17 L 212.007 282.17 Q 220.942 273.088 220.942 257.414 Z  M 360.981 311.32 L 360.396 297.404 L 360.396 297.404 Q 347.505 314.25 322.749 314.25 L 322.749 314.25 L 322.749 314.25 Q 301.216 314.25 290.229 299.382 L 290.229 299.382 L 290.229 299.382 Q 279.243 284.514 279.097 256.096 L 279.097 256.096 L 279.097 152.824 L 304.878 152.824 L 304.878 254.191 L 304.878 254.191 Q 304.878 291.252 327.144 291.252 L 327.144 291.252 L 327.144 291.252 Q 350.728 291.252 359.663 270.158 L 359.663 270.158 L 359.663 152.824 L 385.591 152.824 L 385.591 311.32 L 360.981 311.32 L 360.981 311.32 Z " fill-rule="evenodd" fill="rgb(255,255,225)"/><path d=" M 86.461 404.848 L 86.461 404.074 L 86.461 404.074 Q 86.461 399.961 87.656 396.428 L 87.656 396.428 L 87.656 396.428 Q 88.852 392.895 91.084 390.293 L 91.084 390.293 L 91.084 390.293 Q 93.316 387.691 96.516 386.197 L 96.516 386.197 L 96.516 386.197 Q 99.715 384.703 103.723 384.703 L 103.723 384.703 L 103.723 384.703 Q 107.766 384.703 110.982 386.197 L 110.982 386.197 L 110.982 386.197 Q 114.199 387.691 116.432 390.293 L 116.432 390.293 L 116.432 390.293 Q 118.664 392.895 119.859 396.428 L 119.859 396.428 L 119.859 396.428 Q 121.055 399.961 121.055 404.074 L 121.055 404.074 L 121.055 404.848 L 121.055 404.848 Q 121.055 408.961 119.859 412.477 L 119.859 412.477 L 119.859 412.477 Q 118.664 415.992 116.432 418.594 L 116.432 418.594 L 116.432 418.594 Q 114.199 421.195 111 422.672 L 111 422.672 L 111 422.672 Q 107.801 424.148 103.793 424.148 L 103.793 424.148 L 103.793 424.148 Q 99.75 424.148 96.533 422.672 L 96.533 422.672 L 96.533 422.672 Q 93.316 421.195 91.084 418.594 L 91.084 418.594 L 91.084 418.594 Q 88.852 415.992 87.656 412.477 L 87.656 412.477 L 87.656 412.477 Q 86.461 408.961 86.461 404.848 L 86.461 404.848 L 86.461 404.848 Z  M 92.965 404.074 L 92.965 404.848 L 92.965 404.848 Q 92.965 407.66 93.633 410.209 L 93.633 410.209 L 93.633 410.209 Q 94.301 412.758 95.654 414.691 L 95.654 414.691 L 95.654 414.691 Q 97.008 416.625 99.047 417.75 L 99.047 417.75 L 99.047 417.75 Q 101.086 418.875 103.793 418.875 L 103.793 418.875 L 103.793 418.875 Q 106.465 418.875 108.486 417.75 L 108.486 417.75 L 108.486 417.75 Q 110.508 416.625 111.861 414.691 L 111.861 414.691 L 111.861 414.691 Q 113.215 412.758 113.883 410.209 L 113.883 410.209 L 113.883 410.209 Q 114.551 407.66 114.551 404.848 L 114.551 404.848 L 114.551 404.074 L 114.551 404.074 Q 114.551 401.297 113.865 398.748 L 113.865 398.748 L 113.865 398.748 Q 113.18 396.199 111.826 394.266 L 111.826 394.266 L 111.826 394.266 Q 110.473 392.332 108.451 391.189 L 108.451 391.189 L 108.451 391.189 Q 106.43 390.047 103.723 390.047 L 103.723 390.047 L 103.723 390.047 Q 101.016 390.047 99.012 391.189 L 99.012 391.189 L 99.012 391.189 Q 97.008 392.332 95.654 394.266 L 95.654 394.266 L 95.654 394.266 Q 94.301 396.199 93.633 398.748 L 93.633 398.748 L 93.633 398.748 Q 92.965 401.297 92.965 404.074 L 92.965 404.074 L 92.965 404.074 Z  M 163.594 404.109 L 163.594 404.848 L 163.594 404.848 Q 163.594 408.926 162.609 412.459 L 162.609 412.459 L 162.609 412.459 Q 161.625 415.992 159.727 418.594 L 159.727 418.594 L 159.727 418.594 Q 157.828 421.195 155.033 422.672 L 155.033 422.672 L 155.033 422.672 Q 152.238 424.148 148.652 424.148 L 148.652 424.148 L 148.652 424.148 Q 145.172 424.148 142.518 423.023 L 142.518 423.023 L 142.518 423.023 Q 139.863 421.898 137.965 419.789 L 137.965 419.789 L 137.965 438.07 L 131.461 438.07 L 131.461 385.406 L 137.402 385.406 L 137.719 389.555 L 137.719 389.555 Q 139.617 387.199 142.307 385.951 L 142.307 385.951 L 142.307 385.951 Q 144.996 384.703 148.547 384.703 L 148.547 384.703 L 148.547 384.703 Q 152.203 384.703 155.016 386.145 L 155.016 386.145 L 155.016 386.145 Q 157.828 387.586 159.727 390.152 L 159.727 390.152 L 159.727 390.152 Q 161.625 392.719 162.609 396.287 L 162.609 396.287 L 162.609 396.287 Q 163.594 399.855 163.594 404.109 L 163.594 404.109 L 163.594 404.109 Z  M 157.09 404.848 L 157.09 404.109 L 157.09 404.109 Q 157.09 401.332 156.475 398.818 L 156.475 398.818 L 156.475 398.818 Q 155.859 396.305 154.576 394.389 L 154.576 394.389 L 154.576 394.389 Q 153.293 392.473 151.324 391.348 L 151.324 391.348 L 151.324 391.348 Q 149.355 390.223 146.613 390.223 L 146.613 390.223 L 146.613 390.223 Q 143.484 390.223 141.357 391.682 L 141.357 391.682 L 141.357 391.682 Q 139.23 393.141 137.965 395.426 L 137.965 395.426 L 137.965 413.742 L 137.965 413.742 Q 139.23 415.992 141.34 417.416 L 141.34 417.416 L 141.34 417.416 Q 143.449 418.84 146.684 418.84 L 146.684 418.84 L 146.684 418.84 Q 149.391 418.84 151.359 417.697 L 151.359 417.697 L 151.359 417.697 Q 153.328 416.555 154.594 414.621 L 154.594 414.621 L 154.594 414.621 Q 155.859 412.688 156.475 410.156 L 156.475 410.156 L 156.475 410.156 Q 157.09 407.625 157.09 404.848 L 157.09 404.848 L 157.09 404.848 Z  M 191.508 424.148 L 191.508 424.148 L 191.508 424.148 Q 187.5 424.148 184.143 422.777 L 184.143 422.777 L 184.143 422.777 Q 180.785 421.406 178.395 418.945 L 178.395 418.945 L 178.395 418.945 Q 176.004 416.484 174.668 413.109 L 174.668 413.109 L 174.668 413.109 Q 173.332 409.734 173.332 405.762 L 173.332 405.762 L 173.332 404.285 L 173.332 404.285 Q 173.332 399.68 174.809 396.041 L 174.809 396.041 L 174.809 396.041 Q 176.285 392.402 178.729 389.889 L 178.729 389.889 L 178.729 389.889 Q 181.172 387.375 184.283 386.039 L 184.283 386.039 L 184.283 386.039 Q 187.395 384.703 190.664 384.703 L 190.664 384.703 L 190.664 384.703 Q 194.777 384.703 197.854 386.127 L 197.854 386.127 L 197.854 386.127 Q 200.93 387.551 202.969 390.064 L 202.969 390.064 L 202.969 390.064 Q 205.008 392.578 206.01 395.988 L 206.01 395.988 L 206.01 395.988 Q 207.012 399.398 207.012 403.371 L 207.012 403.371 L 207.012 406.289 L 179.836 406.289 L 179.836 406.289 Q 179.941 408.891 180.838 411.176 L 180.838 411.176 L 180.838 411.176 Q 181.734 413.461 183.299 415.166 L 183.299 415.166 L 183.299 415.166 Q 184.863 416.871 187.043 417.855 L 187.043 417.855 L 187.043 417.855 Q 189.223 418.84 191.859 418.84 L 191.859 418.84 L 191.859 418.84 Q 195.34 418.84 198.047 417.434 L 198.047 417.434 L 198.047 417.434 Q 200.754 416.027 202.547 413.707 L 202.547 413.707 L 206.52 416.801 L 206.52 416.801 Q 205.57 418.242 204.146 419.561 L 204.146 419.561 L 204.146 419.561 Q 202.723 420.879 200.859 421.898 L 200.859 421.898 L 200.859 421.898 Q 198.996 422.918 196.641 423.533 L 196.641 423.533 L 196.641 423.533 Q 194.285 424.148 191.508 424.148 Z  M 190.664 390.047 L 190.664 390.047 L 190.664 390.047 Q 188.695 390.047 186.938 390.768 L 186.938 390.768 L 186.938 390.768 Q 185.18 391.488 183.773 392.877 L 183.773 392.877 L 183.773 392.877 Q 182.367 394.266 181.4 396.287 L 181.4 396.287 L 181.4 396.287 Q 180.434 398.309 180.047 400.945 L 180.047 400.945 L 200.508 400.945 L 200.508 400.453 L 200.508 400.453 Q 200.402 398.555 199.787 396.691 L 199.787 396.691 L 199.787 396.691 Q 199.172 394.828 197.977 393.352 L 197.977 393.352 L 197.977 393.352 Q 196.781 391.875 194.971 390.961 L 194.971 390.961 L 194.971 390.961 Q 193.16 390.047 190.664 390.047 Z  M 217.91 385.406 L 223.746 385.406 L 224.203 391.031 L 224.203 391.031 Q 226.277 388.078 229.301 386.408 L 229.301 386.408 L 229.301 386.408 Q 232.324 384.738 236.051 384.703 L 236.051 384.703 L 236.051 384.703 Q 239.039 384.703 241.482 385.547 L 241.482 385.547 L 241.482 385.547 Q 243.926 386.391 245.648 388.184 L 245.648 388.184 L 245.648 388.184 Q 247.371 389.977 248.303 392.736 L 248.303 392.736 L 248.303 392.736 Q 249.234 395.496 249.234 399.293 L 249.234 399.293 L 249.234 423.445 L 242.73 423.445 L 242.73 399.434 L 242.73 399.434 Q 242.73 396.902 242.168 395.145 L 242.168 395.145 L 242.168 395.145 Q 241.605 393.387 240.498 392.297 L 240.498 392.297 L 240.498 392.297 Q 239.391 391.207 237.791 390.715 L 237.791 390.715 L 237.791 390.715 Q 236.191 390.223 234.117 390.223 L 234.117 390.223 L 234.117 390.223 Q 230.848 390.223 228.369 391.857 L 228.369 391.857 L 228.369 391.857 Q 225.891 393.492 224.414 396.164 L 224.414 396.164 L 224.414 423.445 L 217.91 423.445 L 217.91 385.406 L 217.91 385.406 Z  M 286.395 413.355 L 286.395 413.355 L 286.395 413.355 Q 286.395 412.195 285.938 411.264 L 285.938 411.264 L 285.938 411.264 Q 285.48 410.332 284.391 409.559 L 284.391 409.559 L 284.391 409.559 Q 283.301 408.785 281.508 408.135 L 281.508 408.135 L 281.508 408.135 Q 279.715 407.484 277.043 406.957 L 277.043 406.957 L 277.043 406.957 Q 273.773 406.289 271.084 405.34 L 271.084 405.34 L 271.084 405.34 Q 268.395 404.391 266.479 403.072 L 266.479 403.072 L 266.479 403.072 Q 264.563 401.754 263.508 399.979 L 263.508 399.979 L 263.508 399.979 Q 262.453 398.203 262.453 395.848 L 262.453 395.848 L 262.453 395.848 Q 262.453 393.527 263.543 391.506 L 263.543 391.506 L 263.543 391.506 Q 264.633 389.484 266.602 387.973 L 266.602 387.973 L 266.602 387.973 Q 268.57 386.461 271.295 385.582 L 271.295 385.582 L 271.295 385.582 Q 274.02 384.703 277.289 384.703 L 277.289 384.703 L 277.289 384.703 Q 280.805 384.703 283.617 385.617 L 283.617 385.617 L 283.617 385.617 Q 286.43 386.531 288.398 388.148 L 288.398 388.148 L 288.398 388.148 Q 290.367 389.766 291.439 391.928 L 291.439 391.928 L 291.439 391.928 Q 292.512 394.09 292.512 396.586 L 292.512 396.586 L 286.008 396.586 L 286.008 396.586 Q 286.008 395.355 285.375 394.178 L 285.375 394.178 L 285.375 394.178 Q 284.742 393 283.617 392.086 L 283.617 392.086 L 283.617 392.086 Q 282.492 391.172 280.893 390.609 L 280.893 390.609 L 280.893 390.609 Q 279.293 390.047 277.289 390.047 L 277.289 390.047 L 277.289 390.047 Q 275.215 390.047 273.65 390.504 L 273.65 390.504 L 273.65 390.504 Q 272.086 390.961 271.049 391.734 L 271.049 391.734 L 271.049 391.734 Q 270.012 392.508 269.484 393.527 L 269.484 393.527 L 269.484 393.527 Q 268.957 394.547 268.957 395.637 L 268.957 395.637 L 268.957 395.637 Q 268.957 396.762 269.379 397.641 L 269.379 397.641 L 269.379 397.641 Q 269.801 398.52 270.838 399.223 L 270.838 399.223 L 270.838 399.223 Q 271.875 399.926 273.615 400.488 L 273.615 400.488 L 273.615 400.488 Q 275.355 401.051 278.027 401.578 L 278.027 401.578 L 278.027 401.578 Q 281.543 402.316 284.32 403.283 L 284.32 403.283 L 284.32 403.283 Q 287.098 404.25 288.996 405.604 L 288.996 405.604 L 288.996 405.604 Q 290.895 406.957 291.896 408.75 L 291.896 408.75 L 291.896 408.75 Q 292.898 410.543 292.898 412.898 L 292.898 412.898 L 292.898 412.898 Q 292.898 415.43 291.756 417.504 L 291.756 417.504 L 291.756 417.504 Q 290.613 419.578 288.574 421.055 L 288.574 421.055 L 288.574 421.055 Q 286.535 422.531 283.688 423.34 L 283.688 423.34 L 283.688 423.34 Q 280.84 424.148 277.465 424.148 L 277.465 424.148 L 277.465 424.148 Q 273.598 424.148 270.574 423.111 L 270.574 423.111 L 270.574 423.111 Q 267.551 422.074 265.459 420.369 L 265.459 420.369 L 265.459 420.369 Q 263.367 418.664 262.26 416.414 L 262.26 416.414 L 262.26 416.414 Q 261.152 414.164 261.152 411.738 L 261.152 411.738 L 267.656 411.738 L 267.656 411.738 Q 267.797 413.742 268.729 415.113 L 268.729 415.113 L 268.729 415.113 Q 269.66 416.484 271.049 417.328 L 271.049 417.328 L 271.049 417.328 Q 272.438 418.172 274.125 418.523 L 274.125 418.523 L 274.125 418.523 Q 275.813 418.875 277.465 418.875 L 277.465 418.875 L 277.465 418.875 Q 281.578 418.875 283.969 417.363 L 283.969 417.363 L 283.969 417.363 Q 286.359 415.852 286.395 413.355 Z  M 329.391 423.445 L 329.004 418.207 L 329.004 418.207 Q 327.105 421.02 324.258 422.584 L 324.258 422.584 L 324.258 422.584 Q 321.41 424.148 317.684 424.148 L 317.684 424.148 L 317.684 424.148 Q 314.695 424.148 312.27 423.217 L 312.27 423.217 L 312.27 423.217 Q 309.844 422.285 308.121 420.316 L 308.121 420.316 L 308.121 420.316 Q 306.398 418.348 305.467 415.307 L 305.467 415.307 L 305.467 415.307 Q 304.535 412.266 304.535 408.012 L 304.535 408.012 L 304.535 385.406 L 311.039 385.406 L 311.039 408.082 L 311.039 408.082 Q 311.039 411.176 311.531 413.215 L 311.531 413.215 L 311.531 413.215 Q 312.023 415.254 313.008 416.467 L 313.008 416.467 L 313.008 416.467 Q 313.992 417.68 315.416 418.172 L 315.416 418.172 L 315.416 418.172 Q 316.84 418.664 318.703 418.664 L 318.703 418.664 L 318.703 418.664 Q 322.676 418.664 325.119 417.047 L 325.119 417.047 L 325.119 417.047 Q 327.563 415.43 328.758 412.688 L 328.758 412.688 L 328.758 385.406 L 335.297 385.406 L 335.297 423.445 L 329.391 423.445 L 329.391 423.445 Z  M 372.809 413.355 L 372.809 413.355 L 372.809 413.355 Q 372.809 412.195 372.352 411.264 L 372.352 411.264 L 372.352 411.264 Q 371.895 410.332 370.805 409.559 L 370.805 409.559 L 370.805 409.559 Q 369.715 408.785 367.922 408.135 L 367.922 408.135 L 367.922 408.135 Q 366.129 407.484 363.457 406.957 L 363.457 406.957 L 363.457 406.957 Q 360.188 406.289 357.498 405.34 L 357.498 405.34 L 357.498 405.34 Q 354.809 404.391 352.893 403.072 L 352.893 403.072 L 352.893 403.072 Q 350.977 401.754 349.922 399.979 L 349.922 399.979 L 349.922 399.979 Q 348.867 398.203 348.867 395.848 L 348.867 395.848 L 348.867 395.848 Q 348.867 393.527 349.957 391.506 L 349.957 391.506 L 349.957 391.506 Q 351.047 389.484 353.016 387.973 L 353.016 387.973 L 353.016 387.973 Q 354.984 386.461 357.709 385.582 L 357.709 385.582 L 357.709 385.582 Q 360.434 384.703 363.703 384.703 L 363.703 384.703 L 363.703 384.703 Q 367.219 384.703 370.031 385.617 L 370.031 385.617 L 370.031 385.617 Q 372.844 386.531 374.813 388.148 L 374.813 388.148 L 374.813 388.148 Q 376.781 389.766 377.854 391.928 L 377.854 391.928 L 377.854 391.928 Q 378.926 394.09 378.926 396.586 L 378.926 396.586 L 372.422 396.586 L 372.422 396.586 Q 372.422 395.355 371.789 394.178 L 371.789 394.178 L 371.789 394.178 Q 371.156 393 370.031 392.086 L 370.031 392.086 L 370.031 392.086 Q 368.906 391.172 367.307 390.609 L 367.307 390.609 L 367.307 390.609 Q 365.707 390.047 363.703 390.047 L 363.703 390.047 L 363.703 390.047 Q 361.629 390.047 360.064 390.504 L 360.064 390.504 L 360.064 390.504 Q 358.5 390.961 357.463 391.734 L 357.463 391.734 L 357.463 391.734 Q 356.426 392.508 355.898 393.527 L 355.898 393.527 L 355.898 393.527 Q 355.371 394.547 355.371 395.637 L 355.371 395.637 L 355.371 395.637 Q 355.371 396.762 355.793 397.641 L 355.793 397.641 L 355.793 397.641 Q 356.215 398.52 357.252 399.223 L 357.252 399.223 L 357.252 399.223 Q 358.289 399.926 360.029 400.488 L 360.029 400.488 L 360.029 400.488 Q 361.77 401.051 364.441 401.578 L 364.441 401.578 L 364.441 401.578 Q 367.957 402.316 370.734 403.283 L 370.734 403.283 L 370.734 403.283 Q 373.512 404.25 375.41 405.604 L 375.41 405.604 L 375.41 405.604 Q 377.309 406.957 378.311 408.75 L 378.311 408.75 L 378.311 408.75 Q 379.313 410.543 379.313 412.898 L 379.313 412.898 L 379.313 412.898 Q 379.313 415.43 378.17 417.504 L 378.17 417.504 L 378.17 417.504 Q 377.027 419.578 374.988 421.055 L 374.988 421.055 L 374.988 421.055 Q 372.949 422.531 370.102 423.34 L 370.102 423.34 L 370.102 423.34 Q 367.254 424.148 363.879 424.148 L 363.879 424.148 L 363.879 424.148 Q 360.012 424.148 356.988 423.111 L 356.988 423.111 L 356.988 423.111 Q 353.965 422.074 351.873 420.369 L 351.873 420.369 L 351.873 420.369 Q 349.781 418.664 348.674 416.414 L 348.674 416.414 L 348.674 416.414 Q 347.566 414.164 347.566 411.738 L 347.566 411.738 L 354.07 411.738 L 354.07 411.738 Q 354.211 413.742 355.143 415.113 L 355.143 415.113 L 355.143 415.113 Q 356.074 416.484 357.463 417.328 L 357.463 417.328 L 357.463 417.328 Q 358.852 418.172 360.539 418.523 L 360.539 418.523 L 360.539 418.523 Q 362.227 418.875 363.879 418.875 L 363.879 418.875 L 363.879 418.875 Q 367.992 418.875 370.383 417.363 L 370.383 417.363 L 370.383 417.363 Q 372.773 415.852 372.809 413.355 Z  M 407.543 424.148 L 407.543 424.148 L 407.543 424.148 Q 403.535 424.148 400.178 422.777 L 400.178 422.777 L 400.178 422.777 Q 396.82 421.406 394.43 418.945 L 394.43 418.945 L 394.43 418.945 Q 392.039 416.484 390.703 413.109 L 390.703 413.109 L 390.703 413.109 Q 389.367 409.734 389.367 405.762 L 389.367 405.762 L 389.367 404.285 L 389.367 404.285 Q 389.367 399.68 390.844 396.041 L 390.844 396.041 L 390.844 396.041 Q 392.32 392.402 394.764 389.889 L 394.764 389.889 L 394.764 389.889 Q 397.207 387.375 400.318 386.039 L 400.318 386.039 L 400.318 386.039 Q 403.43 384.703 406.699 384.703 L 406.699 384.703 L 406.699 384.703 Q 410.813 384.703 413.889 386.127 L 413.889 386.127 L 413.889 386.127 Q 416.965 387.551 419.004 390.064 L 419.004 390.064 L 419.004 390.064 Q 421.043 392.578 422.045 395.988 L 422.045 395.988 L 422.045 395.988 Q 423.047 399.398 423.047 403.371 L 423.047 403.371 L 423.047 406.289 L 395.871 406.289 L 395.871 406.289 Q 395.977 408.891 396.873 411.176 L 396.873 411.176 L 396.873 411.176 Q 397.77 413.461 399.334 415.166 L 399.334 415.166 L 399.334 415.166 Q 400.898 416.871 403.078 417.855 L 403.078 417.855 L 403.078 417.855 Q 405.258 418.84 407.895 418.84 L 407.895 418.84 L 407.895 418.84 Q 411.375 418.84 414.082 417.434 L 414.082 417.434 L 414.082 417.434 Q 416.789 416.027 418.582 413.707 L 418.582 413.707 L 422.555 416.801 L 422.555 416.801 Q 421.605 418.242 420.182 419.561 L 420.182 419.561 L 420.182 419.561 Q 418.758 420.879 416.895 421.898 L 416.895 421.898 L 416.895 421.898 Q 415.031 422.918 412.676 423.533 L 412.676 423.533 L 412.676 423.533 Q 410.32 424.148 407.543 424.148 Z  M 406.699 390.047 L 406.699 390.047 L 406.699 390.047 Q 404.73 390.047 402.973 390.768 L 402.973 390.768 L 402.973 390.768 Q 401.215 391.488 399.809 392.877 L 399.809 392.877 L 399.809 392.877 Q 398.402 394.266 397.436 396.287 L 397.436 396.287 L 397.436 396.287 Q 396.469 398.309 396.082 400.945 L 396.082 400.945 L 416.543 400.945 L 416.543 400.453 L 416.543 400.453 Q 416.438 398.555 415.822 396.691 L 415.822 396.691 L 415.822 396.691 Q 415.207 394.828 414.012 393.352 L 414.012 393.352 L 414.012 393.352 Q 412.816 391.875 411.006 390.961 L 411.006 390.961 L 411.006 390.961 Q 409.195 390.047 406.699 390.047 Z " fill-rule="evenodd" fill="rgb(255,255,225)"/></g></svg>