<?xml version="1.0" standalone="no"?><!-- Generator: Gravit.io --><svg xmlns="http://www.w3.org/2000/svg" xmlns:xlink="http://www.w3.org/1999/xlink" style="isolation:isolate" viewBox="0 0 512 512" width="512" height="512"><defs><clipPath id="_clipPath_vnQjCFtIgEmLqYYy76re7kFtmPKKFwBn"><rect width="512" height="512"/></clipPath></defs><g clip-path="url(#_clipPath_vnQjCFtIgEmLqYYy76re7kFtmPKKFwBn)"><rect x="0" y="0" width="512" height="512" transform="matrix(1,0,0,1,0,0)" fill="rgb(239,108,0)"/><path d=" M 256.465 311.32 L 218.525 225.041 L 181.025 225.041 L 181.025 311.32 L 154.072 311.32 L 154.072 98.039 L 213.838 98.039 L 213.838 98.039 Q 245.186 98.039 261.299 114.372 L 261.299 114.372 L 261.299 114.372 Q 277.412 130.705 277.412 162.199 L 277.412 162.199 L 277.412 162.199 Q 277.412 181.975 268.696 196.696 L 268.696 196.696 L 268.696 196.696 Q 259.98 211.418 244.014 218.889 L 244.014 218.889 L 285.322 309.563 L 285.322 311.32 L 256.465 311.32 L 256.465 311.32 Z  M 181.025 121.184 L 181.025 202.043 L 213.545 202.043 L 213.545 202.043 Q 230.391 202.043 240.425 191.203 L 240.425 191.203 L 240.425 191.203 Q 250.459 180.363 250.459 162.199 L 250.459 162.199 L 250.459 162.199 Q 250.459 121.184 213.252 121.184 L 213.252 121.184 L 181.025 121.184 L 181.025 121.184 Z  M 317.842 114.445 L 343.623 114.445 L 343.623 152.824 L 367.5 152.824 L 367.5 173.771 L 343.623 173.771 L 343.623 272.063 L 343.623 272.063 Q 343.623 281.438 346.699 286.271 L 346.699 286.271 L 346.699 286.271 Q 349.775 291.105 357.246 291.105 L 357.246 291.105 L 357.246 291.105 Q 362.373 291.105 367.646 289.348 L 367.646 289.348 L 367.354 311.32 L 367.354 311.32 Q 358.564 314.25 349.336 314.25 L 349.336 314.25 L 349.336 314.25 Q 333.955 314.25 325.898 303.264 L 325.898 303.264 L 325.898 303.264 Q 317.842 292.277 317.842 272.209 L 317.842 272.209 L 317.842 173.771 L 293.672 173.771 L 293.672 152.824 L 317.842 152.824 L 317.842 114.445 L 317.842 114.445 Z " fill-rule="evenodd" fill="rgb(255,255,225)"/><path d=" M 178.008 384.703 L 178.008 384.703 L 178.008 384.703 Q 178.922 384.703 179.906 384.756 L 179.906 384.756 L 179.906 384.756 Q 180.891 384.809 181.787 384.932 L 181.787 384.932 L 181.787 384.932 Q 182.684 385.055 183.439 385.23 L 183.439 385.23 L 183.439 385.23 Q 184.195 385.406 184.688 385.617 L 184.688 385.617 L 183.809 391.98 L 183.809 391.98 Q 181.91 391.559 180.205 391.365 L 180.205 391.365 L 180.205 391.365 Q 178.5 391.172 176.637 391.172 L 176.637 391.172 L 176.637 391.172 Q 172.066 391.172 169.236 393.246 L 169.236 393.246 L 169.236 393.246 Q 166.406 395.32 165.07 399.047 L 165.07 399.047 L 165.07 423.445 L 158.531 423.445 L 158.531 385.406 L 164.719 385.406 L 165.035 391.453 L 165.035 391.453 Q 167.355 388.324 170.607 386.514 L 170.607 386.514 L 170.607 386.514 Q 173.859 384.703 178.008 384.703 Z  M 213.094 424.148 L 213.094 424.148 L 213.094 424.148 Q 209.086 424.148 205.729 422.777 L 205.729 422.777 L 205.729 422.777 Q 202.371 421.406 199.98 418.945 L 199.98 418.945 L 199.98 418.945 Q 197.59 416.484 196.254 413.109 L 196.254 413.109 L 196.254 413.109 Q 194.918 409.734 194.918 405.762 L 194.918 405.762 L 194.918 404.285 L 194.918 404.285 Q 194.918 399.68 196.395 396.041 L 196.395 396.041 L 196.395 396.041 Q 197.871 392.402 200.314 389.889 L 200.314 389.889 L 200.314 389.889 Q 202.758 387.375 205.869 386.039 L 205.869 386.039 L 205.869 386.039 Q 208.98 384.703 212.25 384.703 L 212.25 384.703 L 212.25 384.703 Q 216.363 384.703 219.439 386.127 L 219.439 386.127 L 219.439 386.127 Q 222.516 387.551 224.555 390.064 L 224.555 390.064 L 224.555 390.064 Q 226.594 392.578 227.596 395.988 L 227.596 395.988 L 227.596 395.988 Q 228.598 399.398 228.598 403.371 L 228.598 403.371 L 228.598 406.289 L 201.422 406.289 L 201.422 406.289 Q 201.527 408.891 202.424 411.176 L 202.424 411.176 L 202.424 411.176 Q 203.32 413.461 204.885 415.166 L 204.885 415.166 L 204.885 415.166 Q 206.449 416.871 208.629 417.855 L 208.629 417.855 L 208.629 417.855 Q 210.809 418.84 213.445 418.84 L 213.445 418.84 L 213.445 418.84 Q 216.926 418.84 219.633 417.434 L 219.633 417.434 L 219.633 417.434 Q 222.34 416.027 224.133 413.707 L 224.133 413.707 L 228.105 416.801 L 228.105 416.801 Q 227.156 418.242 225.732 419.561 L 225.732 419.561 L 225.732 419.561 Q 224.309 420.879 222.445 421.898 L 222.445 421.898 L 222.445 421.898 Q 220.582 422.918 218.227 423.533 L 218.227 423.533 L 218.227 423.533 Q 215.871 424.148 213.094 424.148 Z  M 212.25 390.047 L 212.25 390.047 L 212.25 390.047 Q 210.281 390.047 208.523 390.768 L 208.523 390.768 L 208.523 390.768 Q 206.766 391.488 205.359 392.877 L 205.359 392.877 L 205.359 392.877 Q 203.953 394.266 202.986 396.287 L 202.986 396.287 L 202.986 396.287 Q 202.02 398.309 201.633 400.945 L 201.633 400.945 L 222.094 400.945 L 222.094 400.453 L 222.094 400.453 Q 221.988 398.555 221.373 396.691 L 221.373 396.691 L 221.373 396.691 Q 220.758 394.828 219.563 393.352 L 219.563 393.352 L 219.563 393.352 Q 218.367 391.875 216.557 390.961 L 216.557 390.961 L 216.557 390.961 Q 214.746 390.047 212.25 390.047 Z  M 255.738 423.445 L 249.199 423.445 L 249.199 390.434 L 238.723 390.434 L 238.723 385.406 L 249.199 385.406 L 249.199 382.734 L 249.199 382.734 Q 249.199 379.078 250.271 376.318 L 250.271 376.318 L 250.271 376.318 Q 251.344 373.559 253.295 371.695 L 253.295 371.695 L 253.295 371.695 Q 255.246 369.832 257.988 368.883 L 257.988 368.883 L 257.988 368.883 Q 260.73 367.934 264.105 367.934 L 264.105 367.934 L 264.105 367.934 Q 266.426 367.934 268.623 368.32 L 268.623 368.32 L 268.623 368.32 Q 270.82 368.707 273.141 369.305 L 273.141 369.305 L 272.367 374.684 L 272.367 374.684 Q 270.926 374.191 269.01 373.822 L 269.01 373.822 L 269.01 373.822 Q 267.094 373.453 264.914 373.453 L 264.914 373.453 L 264.914 373.453 Q 260.344 373.488 258.041 375.773 L 258.041 375.773 L 258.041 375.773 Q 255.738 378.059 255.738 382.734 L 255.738 382.734 L 255.738 385.406 L 270.398 385.406 L 270.398 390.434 L 255.738 390.434 L 255.738 423.445 L 255.738 423.445 Z  M 283.758 391.066 L 283.758 385.406 L 303.199 385.406 L 303.199 417.82 L 315.609 417.82 L 315.609 423.445 L 283.758 423.445 L 283.758 417.82 L 296.695 417.82 L 296.695 391.066 L 283.758 391.066 L 283.758 391.066 Z  M 295.852 375.422 L 295.852 375.422 L 295.852 375.422 Q 295.852 373.805 296.818 372.697 L 296.818 372.697 L 296.818 372.697 Q 297.785 371.59 299.754 371.59 L 299.754 371.59 L 299.754 371.59 Q 301.688 371.59 302.672 372.697 L 302.672 372.697 L 302.672 372.697 Q 303.656 373.805 303.656 375.422 L 303.656 375.422 L 303.656 375.422 Q 303.656 377.004 302.672 378.059 L 302.672 378.059 L 302.672 378.059 Q 301.688 379.113 299.754 379.113 L 299.754 379.113 L 299.754 379.113 Q 297.785 379.113 296.818 378.059 L 296.818 378.059 L 296.818 378.059 Q 295.852 377.004 295.852 375.422 Z  M 334.805 376.195 L 341.344 376.195 L 341.344 385.406 L 355.828 385.406 L 355.828 390.434 L 341.344 390.434 L 341.344 411.105 L 341.344 411.105 Q 341.344 413.32 341.906 414.762 L 341.906 414.762 L 341.906 414.762 Q 342.469 416.203 343.453 417.064 L 343.453 417.064 L 343.453 417.064 Q 344.438 417.926 345.721 418.277 L 345.721 418.277 L 345.721 418.277 Q 347.004 418.629 348.445 418.629 L 348.445 418.629 L 348.445 418.629 Q 349.5 418.629 350.625 418.506 L 350.625 418.506 L 350.625 418.506 Q 351.75 418.383 352.822 418.207 L 352.822 418.207 L 352.822 418.207 Q 353.895 418.031 354.826 417.838 L 354.826 417.838 L 354.826 417.838 Q 355.758 417.645 356.355 417.504 L 356.355 417.504 L 357.27 422.109 L 357.27 422.109 Q 356.461 422.602 355.301 422.971 L 355.301 422.971 L 355.301 422.971 Q 354.141 423.34 352.77 423.604 L 352.77 423.604 L 352.77 423.604 Q 351.398 423.867 349.869 424.008 L 349.869 424.008 L 349.869 424.008 Q 348.34 424.148 346.828 424.148 L 346.828 424.148 L 346.828 424.148 Q 344.297 424.148 342.1 423.428 L 342.1 423.428 L 342.1 423.428 Q 339.902 422.707 338.285 421.143 L 338.285 421.143 L 338.285 421.143 Q 336.668 419.578 335.736 417.1 L 335.736 417.1 L 335.736 417.1 Q 334.805 414.621 334.805 411.105 L 334.805 411.105 L 334.805 390.434 L 324.82 390.434 L 324.82 385.406 L 334.805 385.406 L 334.805 376.195 L 334.805 376.195 Z " fill-rule="evenodd" fill="rgb(255,255,225)"/></g></svg>