<?xml version="1.0" standalone="no"?><!-- Generator: Gravit.io --><svg xmlns="http://www.w3.org/2000/svg" xmlns:xlink="http://www.w3.org/1999/xlink" style="isolation:isolate" viewBox="0 0 512 512" width="512" height="512"><defs><clipPath id="_clipPath_dUiCnHqJDadYWa2RLfjifFiGhUux06gL"><rect width="512" height="512"/></clipPath></defs><g clip-path="url(#_clipPath_dUiCnHqJDadYWa2RLfjifFiGhUux06gL)"><rect x="0" y="0" width="512" height="512" transform="matrix(1,0,0,1,0,0)" fill="rgb(255,0,0)"/><path d=" M 228.34 311.32 L 190.4 225.041 L 152.9 225.041 L 152.9 311.32 L 125.947 311.32 L 125.947 98.039 L 185.713 98.039 L 185.713 98.039 Q 217.061 98.039 233.174 114.372 L 233.174 114.372 L 233.174 114.372 Q 249.287 130.705 249.287 162.199 L 249.287 162.199 L 249.287 162.199 Q 249.287 181.975 240.571 196.696 L 240.571 196.696 L 240.571 196.696 Q 231.855 211.418 215.889 218.889 L 215.889 218.889 L 257.197 309.563 L 257.197 311.32 L 228.34 311.32 L 228.34 311.32 Z  M 152.9 121.184 L 152.9 202.043 L 185.42 202.043 L 185.42 202.043 Q 202.266 202.043 212.3 191.203 L 212.3 191.203 L 212.3 191.203 Q 222.334 180.363 222.334 162.199 L 222.334 162.199 L 222.334 162.199 Q 222.334 121.184 185.127 121.184 L 185.127 121.184 L 152.9 121.184 L 152.9 121.184 Z  M 307.441 86.32 L 307.441 169.084 L 307.441 169.084 Q 322.236 149.895 345.234 149.895 L 345.234 149.895 L 345.234 149.895 Q 387.275 149.895 387.861 205.998 L 387.861 205.998 L 387.861 311.32 L 362.08 311.32 L 362.08 207.17 L 362.08 207.17 Q 362.08 188.566 355.854 180.729 L 355.854 180.729 L 355.854 180.729 Q 349.629 172.893 337.178 172.893 L 337.178 172.893 L 337.178 172.893 Q 327.51 172.893 319.819 179.338 L 319.819 179.338 L 319.819 179.338 Q 312.129 185.783 307.441 196.184 L 307.441 196.184 L 307.441 311.32 L 281.514 311.32 L 281.514 86.32 L 307.441 86.32 L 307.441 86.32 Z " fill-rule="evenodd" fill="rgb(255,255,225)"/><path d=" M 289.225 369.445 L 289.225 391.066 L 289.225 391.066 Q 291.264 388.078 294.252 386.408 L 294.252 386.408 L 294.252 386.408 Q 297.24 384.738 300.967 384.703 L 300.967 384.703 L 300.967 384.703 Q 303.955 384.703 306.398 385.564 L 306.398 385.564 L 306.398 385.564 Q 308.842 386.426 310.564 388.254 L 310.564 388.254 L 310.564 388.254 Q 312.287 390.082 313.219 392.877 L 313.219 392.877 L 313.219 392.877 Q 314.15 395.672 314.15 399.504 L 314.15 399.504 L 314.15 423.445 L 307.646 423.445 L 307.646 399.434 L 307.646 399.434 Q 307.646 394.758 305.414 392.473 L 305.414 392.473 L 305.414 392.473 Q 303.182 390.188 299.033 390.223 L 299.033 390.223 L 299.033 390.223 Q 295.904 390.223 293.355 391.752 L 293.355 391.752 L 293.355 391.752 Q 290.807 393.281 289.225 395.813 L 289.225 395.813 L 289.225 423.445 L 282.721 423.445 L 282.721 369.445 L 289.225 369.445 L 289.225 369.445 Z  M 357.709 423.445 L 350.924 423.445 L 350.924 423.445 Q 350.537 422.707 350.309 421.6 L 350.309 421.6 L 350.309 421.6 Q 350.08 420.492 349.975 419.297 L 349.975 419.297 L 349.975 419.297 Q 348.99 420.281 347.777 421.16 L 347.777 421.16 L 347.777 421.16 Q 346.564 422.039 345.105 422.707 L 345.105 422.707 L 345.105 422.707 Q 343.646 423.375 341.994 423.762 L 341.994 423.762 L 341.994 423.762 Q 340.342 424.148 338.479 424.148 L 338.479 424.148 L 338.479 424.148 Q 335.455 424.148 333.012 423.27 L 333.012 423.27 L 333.012 423.27 Q 330.568 422.391 328.863 420.896 L 328.863 420.896 L 328.863 420.896 Q 327.158 419.402 326.227 417.346 L 326.227 417.346 L 326.227 417.346 Q 325.295 415.289 325.295 412.898 L 325.295 412.898 L 325.295 412.898 Q 325.295 409.77 326.543 407.414 L 326.543 407.414 L 326.543 407.414 Q 327.791 405.059 330.076 403.494 L 330.076 403.494 L 330.076 403.494 Q 332.361 401.93 335.578 401.156 L 335.578 401.156 L 335.578 401.156 Q 338.795 400.383 342.768 400.383 L 342.768 400.383 L 349.869 400.383 L 349.869 397.395 L 349.869 397.395 Q 349.869 395.672 349.236 394.301 L 349.236 394.301 L 349.236 394.301 Q 348.604 392.93 347.443 391.963 L 347.443 391.963 L 347.443 391.963 Q 346.283 390.996 344.613 390.469 L 344.613 390.469 L 344.613 390.469 Q 342.943 389.941 340.869 389.941 L 340.869 389.941 L 340.869 389.941 Q 338.936 389.941 337.406 390.434 L 337.406 390.434 L 337.406 390.434 Q 335.877 390.926 334.822 391.734 L 334.822 391.734 L 334.822 391.734 Q 333.768 392.543 333.188 393.65 L 333.188 393.65 L 333.188 393.65 Q 332.607 394.758 332.607 395.953 L 332.607 395.953 L 326.068 395.953 L 326.068 395.953 Q 326.104 393.879 327.141 391.875 L 327.141 391.875 L 327.141 391.875 Q 328.178 389.871 330.129 388.271 L 330.129 388.271 L 330.129 388.271 Q 332.08 386.672 334.875 385.688 L 334.875 385.688 L 334.875 385.688 Q 337.67 384.703 341.221 384.703 L 341.221 384.703 L 341.221 384.703 Q 344.455 384.703 347.232 385.494 L 347.232 385.494 L 347.232 385.494 Q 350.01 386.285 352.031 387.885 L 352.031 387.885 L 352.031 387.885 Q 354.053 389.484 355.213 391.875 L 355.213 391.875 L 355.213 391.875 Q 356.373 394.266 356.373 397.465 L 356.373 397.465 L 356.373 415.148 L 356.373 415.148 Q 356.373 417.047 356.725 419.174 L 356.725 419.174 L 356.725 419.174 Q 357.076 421.301 357.709 422.883 L 357.709 422.883 L 357.709 423.445 L 357.709 423.445 Z  M 339.428 418.488 L 339.428 418.488 L 339.428 418.488 Q 341.326 418.488 342.979 417.996 L 342.979 417.996 L 342.979 417.996 Q 344.631 417.504 345.984 416.695 L 345.984 416.695 L 345.984 416.695 Q 347.338 415.887 348.322 414.85 L 348.322 414.85 L 348.322 414.85 Q 349.307 413.813 349.869 412.688 L 349.869 412.688 L 349.869 404.988 L 343.822 404.988 L 343.822 404.988 Q 338.127 404.988 334.963 406.676 L 334.963 406.676 L 334.963 406.676 Q 331.799 408.363 331.799 411.984 L 331.799 411.984 L 331.799 411.984 Q 331.799 413.391 332.273 414.586 L 332.273 414.586 L 332.273 414.586 Q 332.748 415.781 333.697 416.643 L 333.697 416.643 L 333.697 416.643 Q 334.646 417.504 336.088 417.996 L 336.088 417.996 L 336.088 417.996 Q 337.529 418.488 339.428 418.488 Z  M 377.994 376.195 L 384.533 376.195 L 384.533 385.406 L 399.018 385.406 L 399.018 390.434 L 384.533 390.434 L 384.533 411.105 L 384.533 411.105 Q 384.533 413.32 385.096 414.762 L 385.096 414.762 L 385.096 414.762 Q 385.658 416.203 386.643 417.064 L 386.643 417.064 L 386.643 417.064 Q 387.627 417.926 388.91 418.277 L 388.91 418.277 L 388.91 418.277 Q 390.193 418.629 391.635 418.629 L 391.635 418.629 L 391.635 418.629 Q 392.689 418.629 393.814 418.506 L 393.814 418.506 L 393.814 418.506 Q 394.939 418.383 396.012 418.207 L 396.012 418.207 L 396.012 418.207 Q 397.084 418.031 398.016 417.838 L 398.016 417.838 L 398.016 417.838 Q 398.947 417.645 399.545 417.504 L 399.545 417.504 L 400.459 422.109 L 400.459 422.109 Q 399.65 422.602 398.49 422.971 L 398.49 422.971 L 398.49 422.971 Q 397.33 423.34 395.959 423.604 L 395.959 423.604 L 395.959 423.604 Q 394.588 423.867 393.059 424.008 L 393.059 424.008 L 393.059 424.008 Q 391.529 424.148 390.018 424.148 L 390.018 424.148 L 390.018 424.148 Q 387.486 424.148 385.289 423.428 L 385.289 423.428 L 385.289 423.428 Q 383.092 422.707 381.475 421.143 L 381.475 421.143 L 381.475 421.143 Q 379.857 419.578 378.926 417.1 L 378.926 417.1 L 378.926 417.1 Q 377.994 414.621 377.994 411.105 L 377.994 411.105 L 377.994 390.434 L 368.01 390.434 L 368.01 385.406 L 377.994 385.406 L 377.994 376.195 L 377.994 376.195 Z  M 134.818 384.703 L 134.818 384.703 L 134.818 384.703 Q 135.732 384.703 136.717 384.756 L 136.717 384.756 L 136.717 384.756 Q 137.701 384.809 138.598 384.932 L 138.598 384.932 L 138.598 384.932 Q 139.494 385.055 140.25 385.23 L 140.25 385.23 L 140.25 385.23 Q 141.006 385.406 141.498 385.617 L 141.498 385.617 L 140.619 391.98 L 140.619 391.98 Q 138.721 391.559 137.016 391.365 L 137.016 391.365 L 137.016 391.365 Q 135.311 391.172 133.447 391.172 L 133.447 391.172 L 133.447 391.172 Q 128.877 391.172 126.047 393.246 L 126.047 393.246 L 126.047 393.246 Q 123.217 395.32 121.881 399.047 L 121.881 399.047 L 121.881 423.445 L 115.342 423.445 L 115.342 385.406 L 121.529 385.406 L 121.846 391.453 L 121.846 391.453 Q 124.166 388.324 127.418 386.514 L 127.418 386.514 L 127.418 386.514 Q 130.67 384.703 134.818 384.703 Z  M 169.904 424.148 L 169.904 424.148 L 169.904 424.148 Q 165.896 424.148 162.539 422.777 L 162.539 422.777 L 162.539 422.777 Q 159.182 421.406 156.791 418.945 L 156.791 418.945 L 156.791 418.945 Q 154.4 416.484 153.064 413.109 L 153.064 413.109 L 153.064 413.109 Q 151.729 409.734 151.729 405.762 L 151.729 405.762 L 151.729 404.285 L 151.729 404.285 Q 151.729 399.68 153.205 396.041 L 153.205 396.041 L 153.205 396.041 Q 154.682 392.402 157.125 389.889 L 157.125 389.889 L 157.125 389.889 Q 159.568 387.375 162.68 386.039 L 162.68 386.039 L 162.68 386.039 Q 165.791 384.703 169.061 384.703 L 169.061 384.703 L 169.061 384.703 Q 173.174 384.703 176.25 386.127 L 176.25 386.127 L 176.25 386.127 Q 179.326 387.551 181.365 390.064 L 181.365 390.064 L 181.365 390.064 Q 183.404 392.578 184.406 395.988 L 184.406 395.988 L 184.406 395.988 Q 185.408 399.398 185.408 403.371 L 185.408 403.371 L 185.408 406.289 L 158.232 406.289 L 158.232 406.289 Q 158.338 408.891 159.234 411.176 L 159.234 411.176 L 159.234 411.176 Q 160.131 413.461 161.695 415.166 L 161.695 415.166 L 161.695 415.166 Q 163.26 416.871 165.439 417.855 L 165.439 417.855 L 165.439 417.855 Q 167.619 418.84 170.256 418.84 L 170.256 418.84 L 170.256 418.84 Q 173.736 418.84 176.443 417.434 L 176.443 417.434 L 176.443 417.434 Q 179.15 416.027 180.943 413.707 L 180.943 413.707 L 184.916 416.801 L 184.916 416.801 Q 183.967 418.242 182.543 419.561 L 182.543 419.561 L 182.543 419.561 Q 181.119 420.879 179.256 421.898 L 179.256 421.898 L 179.256 421.898 Q 177.393 422.918 175.037 423.533 L 175.037 423.533 L 175.037 423.533 Q 172.682 424.148 169.904 424.148 Z  M 169.061 390.047 L 169.061 390.047 L 169.061 390.047 Q 167.092 390.047 165.334 390.768 L 165.334 390.768 L 165.334 390.768 Q 163.576 391.488 162.17 392.877 L 162.17 392.877 L 162.17 392.877 Q 160.764 394.266 159.797 396.287 L 159.797 396.287 L 159.797 396.287 Q 158.83 398.309 158.443 400.945 L 158.443 400.945 L 178.904 400.945 L 178.904 400.453 L 178.904 400.453 Q 178.799 398.555 178.184 396.691 L 178.184 396.691 L 178.184 396.691 Q 177.568 394.828 176.373 393.352 L 176.373 393.352 L 176.373 393.352 Q 175.178 391.875 173.367 390.961 L 173.367 390.961 L 173.367 390.961 Q 171.557 390.047 169.061 390.047 Z  M 195.076 404.848 L 195.076 404.109 L 195.076 404.109 Q 195.076 399.855 196.148 396.287 L 196.148 396.287 L 196.148 396.287 Q 197.221 392.719 199.207 390.152 L 199.207 390.152 L 199.207 390.152 Q 201.193 387.586 204.006 386.145 L 204.006 386.145 L 204.006 386.145 Q 206.818 384.703 210.299 384.703 L 210.299 384.703 L 210.299 384.703 Q 213.709 384.703 216.258 385.846 L 216.258 385.846 L 216.258 385.846 Q 218.807 386.988 220.67 389.168 L 220.67 389.168 L 220.67 369.445 L 227.174 369.445 L 227.174 423.445 L 221.197 423.445 L 220.916 419.438 L 220.916 419.438 Q 219.018 421.758 216.381 422.953 L 216.381 422.953 L 216.381 422.953 Q 213.744 424.148 210.229 424.148 L 210.229 424.148 L 210.229 424.148 Q 206.783 424.148 203.988 422.672 L 203.988 422.672 L 203.988 422.672 Q 201.193 421.195 199.225 418.594 L 199.225 418.594 L 199.225 418.594 Q 197.256 415.992 196.166 412.459 L 196.166 412.459 L 196.166 412.459 Q 195.076 408.926 195.076 404.848 L 195.076 404.848 L 195.076 404.848 Z  M 201.58 404.109 L 201.58 404.848 L 201.58 404.848 Q 201.58 407.625 202.178 410.121 L 202.178 410.121 L 202.178 410.121 Q 202.775 412.617 204.023 414.516 L 204.023 414.516 L 204.023 414.516 Q 205.271 416.414 207.205 417.521 L 207.205 417.521 L 207.205 417.521 Q 209.139 418.629 211.846 418.629 L 211.846 418.629 L 211.846 418.629 Q 213.498 418.629 214.834 418.242 L 214.834 418.242 L 214.834 418.242 Q 216.17 417.855 217.26 417.135 L 217.26 417.135 L 217.26 417.135 Q 218.35 416.414 219.193 415.412 L 219.193 415.412 L 219.193 415.412 Q 220.037 414.41 220.67 413.18 L 220.67 413.18 L 220.67 395.531 L 220.67 395.531 Q 219.404 393.211 217.26 391.717 L 217.26 391.717 L 217.26 391.717 Q 215.115 390.223 211.916 390.223 L 211.916 390.223 L 211.916 390.223 Q 209.174 390.223 207.223 391.348 L 207.223 391.348 L 207.223 391.348 Q 205.271 392.473 204.023 394.389 L 204.023 394.389 L 204.023 394.389 Q 202.775 396.305 202.178 398.818 L 202.178 398.818 L 202.178 398.818 Q 201.58 401.332 201.58 404.109 L 201.58 404.109 L 201.58 404.109 Z " fill-rule="evenodd" fill="rgb(255,255,225)"/></g></svg>