<?xml version="1.0" standalone="no"?><!-- Generator: Gravit.io --><svg xmlns="http://www.w3.org/2000/svg" xmlns:xlink="http://www.w3.org/1999/xlink" style="isolation:isolate" viewBox="0 0 512 512" width="512" height="512"><defs><clipPath id="_clipPath_eD3IB5pq6Zy0RSUUN8tkrVzBlpY0cGBB"><rect width="512" height="512"/></clipPath></defs><g clip-path="url(#_clipPath_eD3IB5pq6Zy0RSUUN8tkrVzBlpY0cGBB)"><rect x="0" y="0" width="512" height="512" transform="matrix(1,0,0,1,0,0)" fill="rgb(171,71,188)"/><path d=" M 226.362 311.32 L 188.423 225.041 L 150.923 225.041 L 150.923 311.32 L 123.97 311.32 L 123.97 98.039 L 183.735 98.039 L 183.735 98.039 Q 215.083 98.039 231.196 114.372 L 231.196 114.372 L 231.196 114.372 Q 247.31 130.705 247.31 162.199 L 247.31 162.199 L 247.31 162.199 Q 247.31 181.975 238.594 196.696 L 238.594 196.696 L 238.594 196.696 Q 229.878 211.418 213.911 218.889 L 213.911 218.889 L 255.22 309.563 L 255.22 311.32 L 226.362 311.32 L 226.362 311.32 Z  M 150.923 121.184 L 150.923 202.043 L 183.442 202.043 L 183.442 202.043 Q 200.288 202.043 210.322 191.203 L 210.322 191.203 L 210.322 191.203 Q 220.356 180.363 220.356 162.199 L 220.356 162.199 L 220.356 162.199 Q 220.356 121.184 183.149 121.184 L 183.149 121.184 L 150.923 121.184 L 150.923 121.184 Z  M 274.116 241.154 L 274.116 224.895 L 274.116 224.895 Q 274.116 188.273 287.813 169.084 L 287.813 169.084 L 287.813 169.084 Q 301.509 149.895 327.144 149.895 L 327.144 149.895 L 327.144 149.895 Q 349.849 149.895 362.593 168.352 L 362.593 168.352 L 362.593 86.32 L 388.521 86.32 L 388.521 311.32 L 364.79 311.32 L 363.472 294.328 L 363.472 294.328 Q 350.728 314.25 326.997 314.25 L 326.997 314.25 L 326.997 314.25 Q 302.388 314.25 288.398 295.134 L 288.398 295.134 L 288.398 295.134 Q 274.409 276.018 274.116 241.154 L 274.116 241.154 L 274.116 241.154 Z  M 300.044 223.869 L 300.044 239.689 L 300.044 239.689 Q 300.044 266.35 307.954 278.874 L 307.954 278.874 L 307.954 278.874 Q 315.864 291.398 333.735 291.398 L 333.735 291.398 L 333.735 291.398 Q 353.071 291.398 362.593 271.916 L 362.593 271.916 L 362.593 191.936 L 362.593 191.936 Q 352.632 172.893 333.882 172.893 L 333.882 172.893 L 333.882 172.893 Q 316.011 172.893 308.101 185.417 L 308.101 185.417 L 308.101 185.417 Q 300.19 197.941 300.044 223.869 L 300.044 223.869 L 300.044 223.869 Z " fill-rule="evenodd" fill="rgb(255,255,225)"/><path d=" M 156.404 384.703 L 156.404 384.703 L 156.404 384.703 Q 157.318 384.703 158.303 384.756 L 158.303 384.756 L 158.303 384.756 Q 159.287 384.809 160.184 384.932 L 160.184 384.932 L 160.184 384.932 Q 161.08 385.055 161.836 385.23 L 161.836 385.23 L 161.836 385.23 Q 162.592 385.406 163.084 385.617 L 163.084 385.617 L 162.205 391.98 L 162.205 391.98 Q 160.307 391.559 158.602 391.365 L 158.602 391.365 L 158.602 391.365 Q 156.896 391.172 155.033 391.172 L 155.033 391.172 L 155.033 391.172 Q 150.463 391.172 147.633 393.246 L 147.633 393.246 L 147.633 393.246 Q 144.803 395.32 143.467 399.047 L 143.467 399.047 L 143.467 423.445 L 136.928 423.445 L 136.928 385.406 L 143.115 385.406 L 143.432 391.453 L 143.432 391.453 Q 145.752 388.324 149.004 386.514 L 149.004 386.514 L 149.004 386.514 Q 152.256 384.703 156.404 384.703 Z  M 191.49 424.148 L 191.49 424.148 L 191.49 424.148 Q 187.482 424.148 184.125 422.777 L 184.125 422.777 L 184.125 422.777 Q 180.768 421.406 178.377 418.945 L 178.377 418.945 L 178.377 418.945 Q 175.986 416.484 174.65 413.109 L 174.65 413.109 L 174.65 413.109 Q 173.314 409.734 173.314 405.762 L 173.314 405.762 L 173.314 404.285 L 173.314 404.285 Q 173.314 399.68 174.791 396.041 L 174.791 396.041 L 174.791 396.041 Q 176.268 392.402 178.711 389.889 L 178.711 389.889 L 178.711 389.889 Q 181.154 387.375 184.266 386.039 L 184.266 386.039 L 184.266 386.039 Q 187.377 384.703 190.646 384.703 L 190.646 384.703 L 190.646 384.703 Q 194.76 384.703 197.836 386.127 L 197.836 386.127 L 197.836 386.127 Q 200.912 387.551 202.951 390.064 L 202.951 390.064 L 202.951 390.064 Q 204.99 392.578 205.992 395.988 L 205.992 395.988 L 205.992 395.988 Q 206.994 399.398 206.994 403.371 L 206.994 403.371 L 206.994 406.289 L 179.818 406.289 L 179.818 406.289 Q 179.924 408.891 180.82 411.176 L 180.82 411.176 L 180.82 411.176 Q 181.717 413.461 183.281 415.166 L 183.281 415.166 L 183.281 415.166 Q 184.846 416.871 187.025 417.855 L 187.025 417.855 L 187.025 417.855 Q 189.205 418.84 191.842 418.84 L 191.842 418.84 L 191.842 418.84 Q 195.322 418.84 198.029 417.434 L 198.029 417.434 L 198.029 417.434 Q 200.736 416.027 202.529 413.707 L 202.529 413.707 L 206.502 416.801 L 206.502 416.801 Q 205.553 418.242 204.129 419.561 L 204.129 419.561 L 204.129 419.561 Q 202.705 420.879 200.842 421.898 L 200.842 421.898 L 200.842 421.898 Q 198.979 422.918 196.623 423.533 L 196.623 423.533 L 196.623 423.533 Q 194.268 424.148 191.49 424.148 Z  M 190.646 390.047 L 190.646 390.047 L 190.646 390.047 Q 188.678 390.047 186.92 390.768 L 186.92 390.768 L 186.92 390.768 Q 185.162 391.488 183.756 392.877 L 183.756 392.877 L 183.756 392.877 Q 182.35 394.266 181.383 396.287 L 181.383 396.287 L 181.383 396.287 Q 180.416 398.309 180.029 400.945 L 180.029 400.945 L 200.49 400.945 L 200.49 400.453 L 200.49 400.453 Q 200.385 398.555 199.77 396.691 L 199.77 396.691 L 199.77 396.691 Q 199.154 394.828 197.959 393.352 L 197.959 393.352 L 197.959 393.352 Q 196.764 391.875 194.953 390.961 L 194.953 390.961 L 194.953 390.961 Q 193.143 390.047 190.646 390.047 Z  M 234.135 423.445 L 227.596 423.445 L 227.596 390.434 L 217.119 390.434 L 217.119 385.406 L 227.596 385.406 L 227.596 382.734 L 227.596 382.734 Q 227.596 379.078 228.668 376.318 L 228.668 376.318 L 228.668 376.318 Q 229.74 373.559 231.691 371.695 L 231.691 371.695 L 231.691 371.695 Q 233.643 369.832 236.385 368.883 L 236.385 368.883 L 236.385 368.883 Q 239.127 367.934 242.502 367.934 L 242.502 367.934 L 242.502 367.934 Q 244.822 367.934 247.02 368.32 L 247.02 368.32 L 247.02 368.32 Q 249.217 368.707 251.537 369.305 L 251.537 369.305 L 250.764 374.684 L 250.764 374.684 Q 249.322 374.191 247.406 373.822 L 247.406 373.822 L 247.406 373.822 Q 245.49 373.453 243.311 373.453 L 243.311 373.453 L 243.311 373.453 Q 238.74 373.488 236.438 375.773 L 236.438 375.773 L 236.438 375.773 Q 234.135 378.059 234.135 382.734 L 234.135 382.734 L 234.135 385.406 L 248.795 385.406 L 248.795 390.434 L 234.135 390.434 L 234.135 423.445 L 234.135 423.445 Z  M 262.154 391.066 L 262.154 385.406 L 281.596 385.406 L 281.596 417.82 L 294.006 417.82 L 294.006 423.445 L 262.154 423.445 L 262.154 417.82 L 275.092 417.82 L 275.092 391.066 L 262.154 391.066 L 262.154 391.066 Z  M 274.248 375.422 L 274.248 375.422 L 274.248 375.422 Q 274.248 373.805 275.215 372.697 L 275.215 372.697 L 275.215 372.697 Q 276.182 371.59 278.15 371.59 L 278.15 371.59 L 278.15 371.59 Q 280.084 371.59 281.068 372.697 L 281.068 372.697 L 281.068 372.697 Q 282.053 373.805 282.053 375.422 L 282.053 375.422 L 282.053 375.422 Q 282.053 377.004 281.068 378.059 L 281.068 378.059 L 281.068 378.059 Q 280.084 379.113 278.15 379.113 L 278.15 379.113 L 278.15 379.113 Q 276.182 379.113 275.215 378.059 L 275.215 378.059 L 275.215 378.059 Q 274.248 377.004 274.248 375.422 Z  M 304.342 385.406 L 310.178 385.406 L 310.635 391.031 L 310.635 391.031 Q 312.709 388.078 315.732 386.408 L 315.732 386.408 L 315.732 386.408 Q 318.756 384.738 322.482 384.703 L 322.482 384.703 L 322.482 384.703 Q 325.471 384.703 327.914 385.547 L 327.914 385.547 L 327.914 385.547 Q 330.357 386.391 332.08 388.184 L 332.08 388.184 L 332.08 388.184 Q 333.803 389.977 334.734 392.736 L 334.734 392.736 L 334.734 392.736 Q 335.666 395.496 335.666 399.293 L 335.666 399.293 L 335.666 423.445 L 329.162 423.445 L 329.162 399.434 L 329.162 399.434 Q 329.162 396.902 328.6 395.145 L 328.6 395.145 L 328.6 395.145 Q 328.037 393.387 326.93 392.297 L 326.93 392.297 L 326.93 392.297 Q 325.822 391.207 324.223 390.715 L 324.223 390.715 L 324.223 390.715 Q 322.623 390.223 320.549 390.223 L 320.549 390.223 L 320.549 390.223 Q 317.279 390.223 314.801 391.857 L 314.801 391.857 L 314.801 391.857 Q 312.322 393.492 310.846 396.164 L 310.846 396.164 L 310.846 423.445 L 304.342 423.445 L 304.342 385.406 L 304.342 385.406 Z  M 346.318 404.848 L 346.318 404.109 L 346.318 404.109 Q 346.318 399.855 347.391 396.287 L 347.391 396.287 L 347.391 396.287 Q 348.463 392.719 350.449 390.152 L 350.449 390.152 L 350.449 390.152 Q 352.436 387.586 355.248 386.145 L 355.248 386.145 L 355.248 386.145 Q 358.061 384.703 361.541 384.703 L 361.541 384.703 L 361.541 384.703 Q 364.951 384.703 367.5 385.846 L 367.5 385.846 L 367.5 385.846 Q 370.049 386.988 371.912 389.168 L 371.912 389.168 L 371.912 369.445 L 378.416 369.445 L 378.416 423.445 L 372.439 423.445 L 372.158 419.438 L 372.158 419.438 Q 370.26 421.758 367.623 422.953 L 367.623 422.953 L 367.623 422.953 Q 364.986 424.148 361.471 424.148 L 361.471 424.148 L 361.471 424.148 Q 358.025 424.148 355.23 422.672 L 355.23 422.672 L 355.23 422.672 Q 352.436 421.195 350.467 418.594 L 350.467 418.594 L 350.467 418.594 Q 348.498 415.992 347.408 412.459 L 347.408 412.459 L 347.408 412.459 Q 346.318 408.926 346.318 404.848 L 346.318 404.848 L 346.318 404.848 Z  M 352.822 404.109 L 352.822 404.848 L 352.822 404.848 Q 352.822 407.625 353.42 410.121 L 353.42 410.121 L 353.42 410.121 Q 354.018 412.617 355.266 414.516 L 355.266 414.516 L 355.266 414.516 Q 356.514 416.414 358.447 417.521 L 358.447 417.521 L 358.447 417.521 Q 360.381 418.629 363.088 418.629 L 363.088 418.629 L 363.088 418.629 Q 364.74 418.629 366.076 418.242 L 366.076 418.242 L 366.076 418.242 Q 367.412 417.855 368.502 417.135 L 368.502 417.135 L 368.502 417.135 Q 369.592 416.414 370.436 415.412 L 370.436 415.412 L 370.436 415.412 Q 371.279 414.41 371.912 413.18 L 371.912 413.18 L 371.912 395.531 L 371.912 395.531 Q 370.646 393.211 368.502 391.717 L 368.502 391.717 L 368.502 391.717 Q 366.357 390.223 363.158 390.223 L 363.158 390.223 L 363.158 390.223 Q 360.416 390.223 358.465 391.348 L 358.465 391.348 L 358.465 391.348 Q 356.514 392.473 355.266 394.389 L 355.266 394.389 L 355.266 394.389 Q 354.018 396.305 353.42 398.818 L 353.42 398.818 L 353.42 398.818 Q 352.822 401.332 352.822 404.109 L 352.822 404.109 L 352.822 404.109 Z " fill-rule="evenodd" fill="rgb(255,255,225)"/></g></svg>