<?xml version="1.0" standalone="no"?><!-- Generator: Gravit.io --><svg xmlns="http://www.w3.org/2000/svg" xmlns:xlink="http://www.w3.org/1999/xlink" style="isolation:isolate" viewBox="0 0 512 512" width="512" height="512"><defs><clipPath id="_clipPath_HpsZCdpbxU78cKfyQmx42brhWU2qsyyx"><rect width="512" height="512"/></clipPath></defs><g clip-path="url(#_clipPath_HpsZCdpbxU78cKfyQmx42brhWU2qsyyx)"><rect x="0" y="0" width="512" height="512" transform="matrix(1,0,0,1,0,0)" fill="rgb(0,145,234)"/><path d=" M 259.102 257.414 L 259.102 257.414 L 259.102 257.414 Q 259.102 241.447 250.459 232.951 L 250.459 232.951 L 250.459 232.951 Q 241.816 224.455 219.258 216.398 L 219.258 216.398 L 219.258 216.398 Q 196.699 208.342 184.761 199.479 L 184.761 199.479 L 184.761 199.479 Q 172.822 190.617 166.89 179.265 L 166.89 179.265 L 166.89 179.265 Q 160.957 167.912 160.957 153.264 L 160.957 153.264 L 160.957 153.264 Q 160.957 127.922 177.876 111.516 L 177.876 111.516 L 177.876 111.516 Q 194.795 95.109 222.188 95.109 L 222.188 95.109 L 222.188 95.109 Q 240.938 95.109 255.586 103.532 L 255.586 103.532 L 255.586 103.532 Q 270.234 111.955 278.145 126.896 L 278.145 126.896 L 278.145 126.896 Q 286.055 141.838 286.055 159.709 L 286.055 159.709 L 259.102 159.709 L 259.102 159.709 Q 259.102 139.934 249.58 129.094 L 249.58 129.094 L 249.58 129.094 Q 240.059 118.254 222.188 118.254 L 222.188 118.254 L 222.188 118.254 Q 205.928 118.254 196.992 127.336 L 196.992 127.336 L 196.992 127.336 Q 188.057 136.418 188.057 152.824 L 188.057 152.824 L 188.057 152.824 Q 188.057 166.301 197.725 175.383 L 197.725 175.383 L 197.725 175.383 Q 207.393 184.465 227.607 191.643 L 227.607 191.643 L 227.607 191.643 Q 259.102 202.043 272.651 217.277 L 272.651 217.277 L 272.651 217.277 Q 286.201 232.512 286.201 257.121 L 286.201 257.121 L 286.201 257.121 Q 286.201 283.049 269.355 298.649 L 269.355 298.649 L 269.355 298.649 Q 252.51 314.25 223.506 314.25 L 223.506 314.25 L 223.506 314.25 Q 204.902 314.25 189.155 306.12 L 189.155 306.12 L 189.155 306.12 Q 173.408 297.99 164.399 283.269 L 164.399 283.269 L 164.399 283.269 Q 155.391 268.547 155.391 249.504 L 155.391 249.504 L 182.344 249.504 L 182.344 249.504 Q 182.344 269.279 193.403 280.266 L 193.403 280.266 L 193.403 280.266 Q 204.463 291.252 223.506 291.252 L 223.506 291.252 L 223.506 291.252 Q 241.23 291.252 250.166 282.17 L 250.166 282.17 L 250.166 282.17 Q 259.102 273.088 259.102 257.414 Z  M 345.674 86.32 L 345.674 311.32 L 319.746 311.32 L 319.746 86.32 L 345.674 86.32 L 345.674 86.32 Z " fill-rule="evenodd" fill="rgb(255,255,225)"/><path d=" M 91.963 413.355 L 91.963 413.355 L 91.963 413.355 Q 91.963 412.195 91.506 411.264 L 91.506 411.264 L 91.506 411.264 Q 91.049 410.332 89.959 409.559 L 89.959 409.559 L 89.959 409.559 Q 88.869 408.785 87.076 408.135 L 87.076 408.135 L 87.076 408.135 Q 85.283 407.484 82.611 406.957 L 82.611 406.957 L 82.611 406.957 Q 79.342 406.289 76.652 405.34 L 76.652 405.34 L 76.652 405.34 Q 73.963 404.391 72.047 403.072 L 72.047 403.072 L 72.047 403.072 Q 70.131 401.754 69.076 399.979 L 69.076 399.979 L 69.076 399.979 Q 68.021 398.203 68.021 395.848 L 68.021 395.848 L 68.021 395.848 Q 68.021 393.527 69.111 391.506 L 69.111 391.506 L 69.111 391.506 Q 70.201 389.484 72.17 387.973 L 72.17 387.973 L 72.17 387.973 Q 74.139 386.461 76.863 385.582 L 76.863 385.582 L 76.863 385.582 Q 79.588 384.703 82.857 384.703 L 82.857 384.703 L 82.857 384.703 Q 86.373 384.703 89.186 385.617 L 89.186 385.617 L 89.186 385.617 Q 91.998 386.531 93.967 388.148 L 93.967 388.148 L 93.967 388.148 Q 95.936 389.766 97.008 391.928 L 97.008 391.928 L 97.008 391.928 Q 98.08 394.09 98.08 396.586 L 98.08 396.586 L 91.576 396.586 L 91.576 396.586 Q 91.576 395.355 90.943 394.178 L 90.943 394.178 L 90.943 394.178 Q 90.311 393 89.186 392.086 L 89.186 392.086 L 89.186 392.086 Q 88.061 391.172 86.461 390.609 L 86.461 390.609 L 86.461 390.609 Q 84.861 390.047 82.857 390.047 L 82.857 390.047 L 82.857 390.047 Q 80.783 390.047 79.219 390.504 L 79.219 390.504 L 79.219 390.504 Q 77.654 390.961 76.617 391.734 L 76.617 391.734 L 76.617 391.734 Q 75.58 392.508 75.053 393.527 L 75.053 393.527 L 75.053 393.527 Q 74.525 394.547 74.525 395.637 L 74.525 395.637 L 74.525 395.637 Q 74.525 396.762 74.947 397.641 L 74.947 397.641 L 74.947 397.641 Q 75.369 398.52 76.406 399.223 L 76.406 399.223 L 76.406 399.223 Q 77.443 399.926 79.184 400.488 L 79.184 400.488 L 79.184 400.488 Q 80.924 401.051 83.596 401.578 L 83.596 401.578 L 83.596 401.578 Q 87.111 402.316 89.889 403.283 L 89.889 403.283 L 89.889 403.283 Q 92.666 404.25 94.564 405.604 L 94.564 405.604 L 94.564 405.604 Q 96.463 406.957 97.465 408.75 L 97.465 408.75 L 97.465 408.75 Q 98.467 410.543 98.467 412.898 L 98.467 412.898 L 98.467 412.898 Q 98.467 415.43 97.324 417.504 L 97.324 417.504 L 97.324 417.504 Q 96.182 419.578 94.143 421.055 L 94.143 421.055 L 94.143 421.055 Q 92.104 422.531 89.256 423.34 L 89.256 423.34 L 89.256 423.34 Q 86.408 424.148 83.033 424.148 L 83.033 424.148 L 83.033 424.148 Q 79.166 424.148 76.143 423.111 L 76.143 423.111 L 76.143 423.111 Q 73.119 422.074 71.027 420.369 L 71.027 420.369 L 71.027 420.369 Q 68.936 418.664 67.828 416.414 L 67.828 416.414 L 67.828 416.414 Q 66.721 414.164 66.721 411.738 L 66.721 411.738 L 73.225 411.738 L 73.225 411.738 Q 73.365 413.742 74.297 415.113 L 74.297 415.113 L 74.297 415.113 Q 75.229 416.484 76.617 417.328 L 76.617 417.328 L 76.617 417.328 Q 78.006 418.172 79.693 418.523 L 79.693 418.523 L 79.693 418.523 Q 81.381 418.875 83.033 418.875 L 83.033 418.875 L 83.033 418.875 Q 87.146 418.875 89.537 417.363 L 89.537 417.363 L 89.537 417.363 Q 91.928 415.852 91.963 413.355 Z  M 110.912 375.105 L 110.912 369.445 L 130.354 369.445 L 130.354 417.82 L 142.764 417.82 L 142.764 423.445 L 110.912 423.445 L 110.912 417.82 L 123.85 417.82 L 123.85 375.105 L 110.912 375.105 L 110.912 375.105 Z  M 184.881 423.445 L 178.096 423.445 L 178.096 423.445 Q 177.709 422.707 177.48 421.6 L 177.48 421.6 L 177.48 421.6 Q 177.252 420.492 177.146 419.297 L 177.146 419.297 L 177.146 419.297 Q 176.162 420.281 174.949 421.16 L 174.949 421.16 L 174.949 421.16 Q 173.736 422.039 172.277 422.707 L 172.277 422.707 L 172.277 422.707 Q 170.818 423.375 169.166 423.762 L 169.166 423.762 L 169.166 423.762 Q 167.514 424.148 165.65 424.148 L 165.65 424.148 L 165.65 424.148 Q 162.627 424.148 160.184 423.27 L 160.184 423.27 L 160.184 423.27 Q 157.74 422.391 156.035 420.896 L 156.035 420.896 L 156.035 420.896 Q 154.33 419.402 153.398 417.346 L 153.398 417.346 L 153.398 417.346 Q 152.467 415.289 152.467 412.898 L 152.467 412.898 L 152.467 412.898 Q 152.467 409.77 153.715 407.414 L 153.715 407.414 L 153.715 407.414 Q 154.963 405.059 157.248 403.494 L 157.248 403.494 L 157.248 403.494 Q 159.533 401.93 162.75 401.156 L 162.75 401.156 L 162.75 401.156 Q 165.967 400.383 169.939 400.383 L 169.939 400.383 L 177.041 400.383 L 177.041 397.395 L 177.041 397.395 Q 177.041 395.672 176.408 394.301 L 176.408 394.301 L 176.408 394.301 Q 175.775 392.93 174.615 391.963 L 174.615 391.963 L 174.615 391.963 Q 173.455 390.996 171.785 390.469 L 171.785 390.469 L 171.785 390.469 Q 170.115 389.941 168.041 389.941 L 168.041 389.941 L 168.041 389.941 Q 166.107 389.941 164.578 390.434 L 164.578 390.434 L 164.578 390.434 Q 163.049 390.926 161.994 391.734 L 161.994 391.734 L 161.994 391.734 Q 160.939 392.543 160.359 393.65 L 160.359 393.65 L 160.359 393.65 Q 159.779 394.758 159.779 395.953 L 159.779 395.953 L 153.24 395.953 L 153.24 395.953 Q 153.275 393.879 154.313 391.875 L 154.313 391.875 L 154.313 391.875 Q 155.35 389.871 157.301 388.271 L 157.301 388.271 L 157.301 388.271 Q 159.252 386.672 162.047 385.688 L 162.047 385.688 L 162.047 385.688 Q 164.842 384.703 168.393 384.703 L 168.393 384.703 L 168.393 384.703 Q 171.627 384.703 174.404 385.494 L 174.404 385.494 L 174.404 385.494 Q 177.182 386.285 179.203 387.885 L 179.203 387.885 L 179.203 387.885 Q 181.225 389.484 182.385 391.875 L 182.385 391.875 L 182.385 391.875 Q 183.545 394.266 183.545 397.465 L 183.545 397.465 L 183.545 415.148 L 183.545 415.148 Q 183.545 417.047 183.896 419.174 L 183.896 419.174 L 183.896 419.174 Q 184.248 421.301 184.881 422.883 L 184.881 422.883 L 184.881 423.445 L 184.881 423.445 Z  M 166.6 418.488 L 166.6 418.488 L 166.6 418.488 Q 168.498 418.488 170.15 417.996 L 170.15 417.996 L 170.15 417.996 Q 171.803 417.504 173.156 416.695 L 173.156 416.695 L 173.156 416.695 Q 174.51 415.887 175.494 414.85 L 175.494 414.85 L 175.494 414.85 Q 176.479 413.813 177.041 412.688 L 177.041 412.688 L 177.041 404.988 L 170.994 404.988 L 170.994 404.988 Q 165.299 404.988 162.135 406.676 L 162.135 406.676 L 162.135 406.676 Q 158.971 408.363 158.971 411.984 L 158.971 411.984 L 158.971 411.984 Q 158.971 413.391 159.445 414.586 L 159.445 414.586 L 159.445 414.586 Q 159.92 415.781 160.869 416.643 L 160.869 416.643 L 160.869 416.643 Q 161.818 417.504 163.26 417.996 L 163.26 417.996 L 163.26 417.996 Q 164.701 418.488 166.6 418.488 Z  M 212.514 418.875 L 212.514 418.875 L 212.514 418.875 Q 214.271 418.875 215.941 418.313 L 215.941 418.313 L 215.941 418.313 Q 217.611 417.75 218.912 416.748 L 218.912 416.748 L 218.912 416.748 Q 220.213 415.746 221.004 414.393 L 221.004 414.393 L 221.004 414.393 Q 221.795 413.039 221.83 411.457 L 221.83 411.457 L 227.982 411.457 L 227.982 411.457 Q 227.947 413.988 226.664 416.291 L 226.664 416.291 L 226.664 416.291 Q 225.381 418.594 223.236 420.334 L 223.236 420.334 L 223.236 420.334 Q 221.092 422.074 218.314 423.111 L 218.314 423.111 L 218.314 423.111 Q 215.537 424.148 212.514 424.148 L 212.514 424.148 L 212.514 424.148 Q 208.189 424.148 204.955 422.602 L 204.955 422.602 L 204.955 422.602 Q 201.721 421.055 199.559 418.436 L 199.559 418.436 L 199.559 418.436 Q 197.396 415.816 196.307 412.389 L 196.307 412.389 L 196.307 412.389 Q 195.217 408.961 195.217 405.164 L 195.217 405.164 L 195.217 403.688 L 195.217 403.688 Q 195.217 399.926 196.307 396.48 L 196.307 396.48 L 196.307 396.48 Q 197.396 393.035 199.559 390.416 L 199.559 390.416 L 199.559 390.416 Q 201.721 387.797 204.955 386.25 L 204.955 386.25 L 204.955 386.25 Q 208.189 384.703 212.514 384.703 L 212.514 384.703 L 212.514 384.703 Q 215.889 384.703 218.719 385.775 L 218.719 385.775 L 218.719 385.775 Q 221.549 386.848 223.605 388.693 L 223.605 388.693 L 223.605 388.693 Q 225.662 390.539 226.822 393.07 L 226.822 393.07 L 226.822 393.07 Q 227.982 395.602 227.982 398.484 L 227.982 398.484 L 221.83 398.484 L 221.83 398.484 Q 221.795 396.762 221.074 395.232 L 221.074 395.232 L 221.074 395.232 Q 220.354 393.703 219.123 392.543 L 219.123 392.543 L 219.123 392.543 Q 217.893 391.383 216.188 390.715 L 216.188 390.715 L 216.188 390.715 Q 214.482 390.047 212.514 390.047 L 212.514 390.047 L 212.514 390.047 Q 209.49 390.047 207.434 391.26 L 207.434 391.26 L 207.434 391.26 Q 205.377 392.473 204.111 394.424 L 204.111 394.424 L 204.111 394.424 Q 202.846 396.375 202.301 398.801 L 202.301 398.801 L 202.301 398.801 Q 201.756 401.227 201.756 403.688 L 201.756 403.688 L 201.756 405.164 L 201.756 405.164 Q 201.756 407.66 202.301 410.104 L 202.301 410.104 L 202.301 410.104 Q 202.846 412.547 204.094 414.498 L 204.094 414.498 L 204.094 414.498 Q 205.342 416.449 207.398 417.662 L 207.398 417.662 L 207.398 417.662 Q 209.455 418.875 212.514 418.875 Z  M 264.861 423.445 L 250.904 405.691 L 246.123 410.297 L 246.123 423.445 L 239.584 423.445 L 239.584 369.445 L 246.123 369.445 L 246.123 402.492 L 250.377 397.922 L 262.857 385.406 L 270.768 385.406 L 255.369 401.262 L 273.123 423.445 L 264.861 423.445 L 264.861 423.445 Z  M 284.057 385.406 L 288.486 409.664 L 289.26 415.113 L 290.209 409.664 L 296.291 385.406 L 300.475 385.406 L 306.521 409.664 L 307.541 415.641 L 308.49 409.664 L 312.709 385.406 L 318.475 385.406 L 310.389 423.445 L 305.256 423.445 L 299.314 400.137 L 298.33 394.23 L 297.381 400.137 L 291.51 423.445 L 286.377 423.445 L 278.291 385.406 L 284.057 385.406 L 284.057 385.406 Z  M 357.709 423.445 L 350.924 423.445 L 350.924 423.445 Q 350.537 422.707 350.309 421.6 L 350.309 421.6 L 350.309 421.6 Q 350.08 420.492 349.975 419.297 L 349.975 419.297 L 349.975 419.297 Q 348.99 420.281 347.777 421.16 L 347.777 421.16 L 347.777 421.16 Q 346.564 422.039 345.105 422.707 L 345.105 422.707 L 345.105 422.707 Q 343.646 423.375 341.994 423.762 L 341.994 423.762 L 341.994 423.762 Q 340.342 424.148 338.479 424.148 L 338.479 424.148 L 338.479 424.148 Q 335.455 424.148 333.012 423.27 L 333.012 423.27 L 333.012 423.27 Q 330.568 422.391 328.863 420.896 L 328.863 420.896 L 328.863 420.896 Q 327.158 419.402 326.227 417.346 L 326.227 417.346 L 326.227 417.346 Q 325.295 415.289 325.295 412.898 L 325.295 412.898 L 325.295 412.898 Q 325.295 409.77 326.543 407.414 L 326.543 407.414 L 326.543 407.414 Q 327.791 405.059 330.076 403.494 L 330.076 403.494 L 330.076 403.494 Q 332.361 401.93 335.578 401.156 L 335.578 401.156 L 335.578 401.156 Q 338.795 400.383 342.768 400.383 L 342.768 400.383 L 349.869 400.383 L 349.869 397.395 L 349.869 397.395 Q 349.869 395.672 349.236 394.301 L 349.236 394.301 L 349.236 394.301 Q 348.604 392.93 347.443 391.963 L 347.443 391.963 L 347.443 391.963 Q 346.283 390.996 344.613 390.469 L 344.613 390.469 L 344.613 390.469 Q 342.943 389.941 340.869 389.941 L 340.869 389.941 L 340.869 389.941 Q 338.936 389.941 337.406 390.434 L 337.406 390.434 L 337.406 390.434 Q 335.877 390.926 334.822 391.734 L 334.822 391.734 L 334.822 391.734 Q 333.768 392.543 333.188 393.65 L 333.188 393.65 L 333.188 393.65 Q 332.607 394.758 332.607 395.953 L 332.607 395.953 L 326.068 395.953 L 326.068 395.953 Q 326.104 393.879 327.141 391.875 L 327.141 391.875 L 327.141 391.875 Q 328.178 389.871 330.129 388.271 L 330.129 388.271 L 330.129 388.271 Q 332.08 386.672 334.875 385.688 L 334.875 385.688 L 334.875 385.688 Q 337.67 384.703 341.221 384.703 L 341.221 384.703 L 341.221 384.703 Q 344.455 384.703 347.232 385.494 L 347.232 385.494 L 347.232 385.494 Q 350.01 386.285 352.031 387.885 L 352.031 387.885 L 352.031 387.885 Q 354.053 389.484 355.213 391.875 L 355.213 391.875 L 355.213 391.875 Q 356.373 394.266 356.373 397.465 L 356.373 397.465 L 356.373 415.148 L 356.373 415.148 Q 356.373 417.047 356.725 419.174 L 356.725 419.174 L 356.725 419.174 Q 357.076 421.301 357.709 422.883 L 357.709 422.883 L 357.709 423.445 L 357.709 423.445 Z  M 339.428 418.488 L 339.428 418.488 L 339.428 418.488 Q 341.326 418.488 342.979 417.996 L 342.979 417.996 L 342.979 417.996 Q 344.631 417.504 345.984 416.695 L 345.984 416.695 L 345.984 416.695 Q 347.338 415.887 348.322 414.85 L 348.322 414.85 L 348.322 414.85 Q 349.307 413.813 349.869 412.688 L 349.869 412.688 L 349.869 404.988 L 343.822 404.988 L 343.822 404.988 Q 338.127 404.988 334.963 406.676 L 334.963 406.676 L 334.963 406.676 Q 331.799 408.363 331.799 411.984 L 331.799 411.984 L 331.799 411.984 Q 331.799 413.391 332.273 414.586 L 332.273 414.586 L 332.273 414.586 Q 332.748 415.781 333.697 416.643 L 333.697 416.643 L 333.697 416.643 Q 334.646 417.504 336.088 417.996 L 336.088 417.996 L 336.088 417.996 Q 337.529 418.488 339.428 418.488 Z  M 394.061 384.703 L 394.061 384.703 L 394.061 384.703 Q 394.975 384.703 395.959 384.756 L 395.959 384.756 L 395.959 384.756 Q 396.943 384.809 397.84 384.932 L 397.84 384.932 L 397.84 384.932 Q 398.736 385.055 399.492 385.23 L 399.492 385.23 L 399.492 385.23 Q 400.248 385.406 400.74 385.617 L 400.74 385.617 L 399.861 391.98 L 399.861 391.98 Q 397.963 391.559 396.258 391.365 L 396.258 391.365 L 396.258 391.365 Q 394.553 391.172 392.689 391.172 L 392.689 391.172 L 392.689 391.172 Q 388.119 391.172 385.289 393.246 L 385.289 393.246 L 385.289 393.246 Q 382.459 395.32 381.123 399.047 L 381.123 399.047 L 381.123 423.445 L 374.584 423.445 L 374.584 385.406 L 380.771 385.406 L 381.088 391.453 L 381.088 391.453 Q 383.408 388.324 386.66 386.514 L 386.66 386.514 L 386.66 386.514 Q 389.912 384.703 394.061 384.703 Z  M 429.146 424.148 L 429.146 424.148 L 429.146 424.148 Q 425.139 424.148 421.781 422.777 L 421.781 422.777 L 421.781 422.777 Q 418.424 421.406 416.033 418.945 L 416.033 418.945 L 416.033 418.945 Q 413.643 416.484 412.307 413.109 L 412.307 413.109 L 412.307 413.109 Q 410.971 409.734 410.971 405.762 L 410.971 405.762 L 410.971 404.285 L 410.971 404.285 Q 410.971 399.68 412.447 396.041 L 412.447 396.041 L 412.447 396.041 Q 413.924 392.402 416.367 389.889 L 416.367 389.889 L 416.367 389.889 Q 418.811 387.375 421.922 386.039 L 421.922 386.039 L 421.922 386.039 Q 425.033 384.703 428.303 384.703 L 428.303 384.703 L 428.303 384.703 Q 432.416 384.703 435.492 386.127 L 435.492 386.127 L 435.492 386.127 Q 438.568 387.551 440.607 390.064 L 440.607 390.064 L 440.607 390.064 Q 442.646 392.578 443.648 395.988 L 443.648 395.988 L 443.648 395.988 Q 444.65 399.398 444.65 403.371 L 444.65 403.371 L 444.65 406.289 L 417.475 406.289 L 417.475 406.289 Q 417.58 408.891 418.477 411.176 L 418.477 411.176 L 418.477 411.176 Q 419.373 413.461 420.938 415.166 L 420.938 415.166 L 420.938 415.166 Q 422.502 416.871 424.682 417.855 L 424.682 417.855 L 424.682 417.855 Q 426.861 418.84 429.498 418.84 L 429.498 418.84 L 429.498 418.84 Q 432.979 418.84 435.686 417.434 L 435.686 417.434 L 435.686 417.434 Q 438.393 416.027 440.186 413.707 L 440.186 413.707 L 444.158 416.801 L 444.158 416.801 Q 443.209 418.242 441.785 419.561 L 441.785 419.561 L 441.785 419.561 Q 440.361 420.879 438.498 421.898 L 438.498 421.898 L 438.498 421.898 Q 436.635 422.918 434.279 423.533 L 434.279 423.533 L 434.279 423.533 Q 431.924 424.148 429.146 424.148 Z  M 428.303 390.047 L 428.303 390.047 L 428.303 390.047 Q 426.334 390.047 424.576 390.768 L 424.576 390.768 L 424.576 390.768 Q 422.818 391.488 421.412 392.877 L 421.412 392.877 L 421.412 392.877 Q 420.006 394.266 419.039 396.287 L 419.039 396.287 L 419.039 396.287 Q 418.072 398.309 417.686 400.945 L 417.686 400.945 L 438.146 400.945 L 438.146 400.453 L 438.146 400.453 Q 438.041 398.555 437.426 396.691 L 437.426 396.691 L 437.426 396.691 Q 436.811 394.828 435.615 393.352 L 435.615 393.352 L 435.615 393.352 Q 434.42 391.875 432.609 390.961 L 432.609 390.961 L 432.609 390.961 Q 430.799 390.047 428.303 390.047 Z " fill-rule="evenodd" fill="rgb(255,255,225)"/></g></svg>