<?xml version="1.0" standalone="no"?><!-- Generator: Gravit.io --><svg xmlns="http://www.w3.org/2000/svg" xmlns:xlink="http://www.w3.org/1999/xlink" style="isolation:isolate" viewBox="0 0 512 512" width="512" height="512"><defs><clipPath id="_clipPath_U5vwBQpKOTTCh9SnVYP52aVHaARvH7Rw"><rect width="512" height="512"/></clipPath></defs><g clip-path="url(#_clipPath_U5vwBQpKOTTCh9SnVYP52aVHaARvH7Rw)"><rect x="0" y="0" width="512" height="512" transform="matrix(1,0,0,1,0,0)" fill="rgb(67,160,71)"/><path d=" M 220.942 257.414 L 220.942 257.414 L 220.942 257.414 Q 220.942 241.447 212.3 232.951 L 212.3 232.951 L 212.3 232.951 Q 203.657 224.455 181.099 216.398 L 181.099 216.398 L 181.099 216.398 Q 158.54 208.342 146.602 199.479 L 146.602 199.479 L 146.602 199.479 Q 134.663 190.617 128.73 179.265 L 128.73 179.265 L 128.73 179.265 Q 122.798 167.912 122.798 153.264 L 122.798 153.264 L 122.798 153.264 Q 122.798 127.922 139.717 111.516 L 139.717 111.516 L 139.717 111.516 Q 156.636 95.109 184.028 95.109 L 184.028 95.109 L 184.028 95.109 Q 202.778 95.109 217.427 103.532 L 217.427 103.532 L 217.427 103.532 Q 232.075 111.955 239.985 126.896 L 239.985 126.896 L 239.985 126.896 Q 247.896 141.838 247.896 159.709 L 247.896 159.709 L 220.942 159.709 L 220.942 159.709 Q 220.942 139.934 211.421 129.094 L 211.421 129.094 L 211.421 129.094 Q 201.899 118.254 184.028 118.254 L 184.028 118.254 L 184.028 118.254 Q 167.769 118.254 158.833 127.336 L 158.833 127.336 L 158.833 127.336 Q 149.897 136.418 149.897 152.824 L 149.897 152.824 L 149.897 152.824 Q 149.897 166.301 159.565 175.383 L 159.565 175.383 L 159.565 175.383 Q 169.233 184.465 189.448 191.643 L 189.448 191.643 L 189.448 191.643 Q 220.942 202.043 234.492 217.277 L 234.492 217.277 L 234.492 217.277 Q 248.042 232.512 248.042 257.121 L 248.042 257.121 L 248.042 257.121 Q 248.042 283.049 231.196 298.649 L 231.196 298.649 L 231.196 298.649 Q 214.351 314.25 185.347 314.25 L 185.347 314.25 L 185.347 314.25 Q 166.743 314.25 150.996 306.12 L 150.996 306.12 L 150.996 306.12 Q 135.249 297.99 126.24 283.269 L 126.24 283.269 L 126.24 283.269 Q 117.231 268.547 117.231 249.504 L 117.231 249.504 L 144.185 249.504 L 144.185 249.504 Q 144.185 269.279 155.244 280.266 L 155.244 280.266 L 155.244 280.266 Q 166.304 291.252 185.347 291.252 L 185.347 291.252 L 185.347 291.252 Q 203.071 291.252 212.007 282.17 L 212.007 282.17 L 212.007 282.17 Q 220.942 273.088 220.942 257.414 Z  M 360.981 311.32 L 360.396 297.404 L 360.396 297.404 Q 347.505 314.25 322.749 314.25 L 322.749 314.25 L 322.749 314.25 Q 301.216 314.25 290.229 299.382 L 290.229 299.382 L 290.229 299.382 Q 279.243 284.514 279.097 256.096 L 279.097 256.096 L 279.097 152.824 L 304.878 152.824 L 304.878 254.191 L 304.878 254.191 Q 304.878 291.252 327.144 291.252 L 327.144 291.252 L 327.144 291.252 Q 350.728 291.252 359.663 270.158 L 359.663 270.158 L 359.663 152.824 L 385.591 152.824 L 385.591 311.32 L 360.981 311.32 L 360.981 311.32 Z " fill-rule="evenodd" fill="rgb(255,255,225)"/><path d=" M 199.98 413.355 L 199.98 413.355 L 199.98 413.355 Q 199.98 412.195 199.523 411.264 L 199.523 411.264 L 199.523 411.264 Q 199.066 410.332 197.977 409.559 L 197.977 409.559 L 197.977 409.559 Q 196.887 408.785 195.094 408.135 L 195.094 408.135 L 195.094 408.135 Q 193.301 407.484 190.629 406.957 L 190.629 406.957 L 190.629 406.957 Q 187.359 406.289 184.67 405.34 L 184.67 405.34 L 184.67 405.34 Q 181.98 404.391 180.064 403.072 L 180.064 403.072 L 180.064 403.072 Q 178.148 401.754 177.094 399.979 L 177.094 399.979 L 177.094 399.979 Q 176.039 398.203 176.039 395.848 L 176.039 395.848 L 176.039 395.848 Q 176.039 393.527 177.129 391.506 L 177.129 391.506 L 177.129 391.506 Q 178.219 389.484 180.188 387.973 L 180.188 387.973 L 180.188 387.973 Q 182.156 386.461 184.881 385.582 L 184.881 385.582 L 184.881 385.582 Q 187.605 384.703 190.875 384.703 L 190.875 384.703 L 190.875 384.703 Q 194.391 384.703 197.203 385.617 L 197.203 385.617 L 197.203 385.617 Q 200.016 386.531 201.984 388.148 L 201.984 388.148 L 201.984 388.148 Q 203.953 389.766 205.025 391.928 L 205.025 391.928 L 205.025 391.928 Q 206.098 394.09 206.098 396.586 L 206.098 396.586 L 199.594 396.586 L 199.594 396.586 Q 199.594 395.355 198.961 394.178 L 198.961 394.178 L 198.961 394.178 Q 198.328 393 197.203 392.086 L 197.203 392.086 L 197.203 392.086 Q 196.078 391.172 194.479 390.609 L 194.479 390.609 L 194.479 390.609 Q 192.879 390.047 190.875 390.047 L 190.875 390.047 L 190.875 390.047 Q 188.801 390.047 187.236 390.504 L 187.236 390.504 L 187.236 390.504 Q 185.672 390.961 184.635 391.734 L 184.635 391.734 L 184.635 391.734 Q 183.598 392.508 183.07 393.527 L 183.07 393.527 L 183.07 393.527 Q 182.543 394.547 182.543 395.637 L 182.543 395.637 L 182.543 395.637 Q 182.543 396.762 182.965 397.641 L 182.965 397.641 L 182.965 397.641 Q 183.387 398.52 184.424 399.223 L 184.424 399.223 L 184.424 399.223 Q 185.461 399.926 187.201 400.488 L 187.201 400.488 L 187.201 400.488 Q 188.941 401.051 191.613 401.578 L 191.613 401.578 L 191.613 401.578 Q 195.129 402.316 197.906 403.283 L 197.906 403.283 L 197.906 403.283 Q 200.684 404.25 202.582 405.604 L 202.582 405.604 L 202.582 405.604 Q 204.48 406.957 205.482 408.75 L 205.482 408.75 L 205.482 408.75 Q 206.484 410.543 206.484 412.898 L 206.484 412.898 L 206.484 412.898 Q 206.484 415.43 205.342 417.504 L 205.342 417.504 L 205.342 417.504 Q 204.199 419.578 202.16 421.055 L 202.16 421.055 L 202.16 421.055 Q 200.121 422.531 197.273 423.34 L 197.273 423.34 L 197.273 423.34 Q 194.426 424.148 191.051 424.148 L 191.051 424.148 L 191.051 424.148 Q 187.184 424.148 184.16 423.111 L 184.16 423.111 L 184.16 423.111 Q 181.137 422.074 179.045 420.369 L 179.045 420.369 L 179.045 420.369 Q 176.953 418.664 175.846 416.414 L 175.846 416.414 L 175.846 416.414 Q 174.738 414.164 174.738 411.738 L 174.738 411.738 L 181.242 411.738 L 181.242 411.738 Q 181.383 413.742 182.314 415.113 L 182.314 415.113 L 182.314 415.113 Q 183.246 416.484 184.635 417.328 L 184.635 417.328 L 184.635 417.328 Q 186.023 418.172 187.711 418.523 L 187.711 418.523 L 187.711 418.523 Q 189.398 418.875 191.051 418.875 L 191.051 418.875 L 191.051 418.875 Q 195.164 418.875 197.555 417.363 L 197.555 417.363 L 197.555 417.363 Q 199.945 415.852 199.98 413.355 Z  M 242.977 423.445 L 242.59 418.207 L 242.59 418.207 Q 240.691 421.02 237.844 422.584 L 237.844 422.584 L 237.844 422.584 Q 234.996 424.148 231.27 424.148 L 231.27 424.148 L 231.27 424.148 Q 228.281 424.148 225.855 423.217 L 225.855 423.217 L 225.855 423.217 Q 223.43 422.285 221.707 420.316 L 221.707 420.316 L 221.707 420.316 Q 219.984 418.348 219.053 415.307 L 219.053 415.307 L 219.053 415.307 Q 218.121 412.266 218.121 408.012 L 218.121 408.012 L 218.121 385.406 L 224.625 385.406 L 224.625 408.082 L 224.625 408.082 Q 224.625 411.176 225.117 413.215 L 225.117 413.215 L 225.117 413.215 Q 225.609 415.254 226.594 416.467 L 226.594 416.467 L 226.594 416.467 Q 227.578 417.68 229.002 418.172 L 229.002 418.172 L 229.002 418.172 Q 230.426 418.664 232.289 418.664 L 232.289 418.664 L 232.289 418.664 Q 236.262 418.664 238.705 417.047 L 238.705 417.047 L 238.705 417.047 Q 241.148 415.43 242.344 412.688 L 242.344 412.688 L 242.344 385.406 L 248.883 385.406 L 248.883 423.445 L 242.977 423.445 L 242.977 423.445 Z  M 286.395 413.355 L 286.395 413.355 L 286.395 413.355 Q 286.395 412.195 285.938 411.264 L 285.938 411.264 L 285.938 411.264 Q 285.48 410.332 284.391 409.559 L 284.391 409.559 L 284.391 409.559 Q 283.301 408.785 281.508 408.135 L 281.508 408.135 L 281.508 408.135 Q 279.715 407.484 277.043 406.957 L 277.043 406.957 L 277.043 406.957 Q 273.773 406.289 271.084 405.34 L 271.084 405.34 L 271.084 405.34 Q 268.395 404.391 266.479 403.072 L 266.479 403.072 L 266.479 403.072 Q 264.563 401.754 263.508 399.979 L 263.508 399.979 L 263.508 399.979 Q 262.453 398.203 262.453 395.848 L 262.453 395.848 L 262.453 395.848 Q 262.453 393.527 263.543 391.506 L 263.543 391.506 L 263.543 391.506 Q 264.633 389.484 266.602 387.973 L 266.602 387.973 L 266.602 387.973 Q 268.57 386.461 271.295 385.582 L 271.295 385.582 L 271.295 385.582 Q 274.02 384.703 277.289 384.703 L 277.289 384.703 L 277.289 384.703 Q 280.805 384.703 283.617 385.617 L 283.617 385.617 L 283.617 385.617 Q 286.43 386.531 288.398 388.148 L 288.398 388.148 L 288.398 388.148 Q 290.367 389.766 291.439 391.928 L 291.439 391.928 L 291.439 391.928 Q 292.512 394.09 292.512 396.586 L 292.512 396.586 L 286.008 396.586 L 286.008 396.586 Q 286.008 395.355 285.375 394.178 L 285.375 394.178 L 285.375 394.178 Q 284.742 393 283.617 392.086 L 283.617 392.086 L 283.617 392.086 Q 282.492 391.172 280.893 390.609 L 280.893 390.609 L 280.893 390.609 Q 279.293 390.047 277.289 390.047 L 277.289 390.047 L 277.289 390.047 Q 275.215 390.047 273.65 390.504 L 273.65 390.504 L 273.65 390.504 Q 272.086 390.961 271.049 391.734 L 271.049 391.734 L 271.049 391.734 Q 270.012 392.508 269.484 393.527 L 269.484 393.527 L 269.484 393.527 Q 268.957 394.547 268.957 395.637 L 268.957 395.637 L 268.957 395.637 Q 268.957 396.762 269.379 397.641 L 269.379 397.641 L 269.379 397.641 Q 269.801 398.52 270.838 399.223 L 270.838 399.223 L 270.838 399.223 Q 271.875 399.926 273.615 400.488 L 273.615 400.488 L 273.615 400.488 Q 275.355 401.051 278.027 401.578 L 278.027 401.578 L 278.027 401.578 Q 281.543 402.316 284.32 403.283 L 284.32 403.283 L 284.32 403.283 Q 287.098 404.25 288.996 405.604 L 288.996 405.604 L 288.996 405.604 Q 290.895 406.957 291.896 408.75 L 291.896 408.75 L 291.896 408.75 Q 292.898 410.543 292.898 412.898 L 292.898 412.898 L 292.898 412.898 Q 292.898 415.43 291.756 417.504 L 291.756 417.504 L 291.756 417.504 Q 290.613 419.578 288.574 421.055 L 288.574 421.055 L 288.574 421.055 Q 286.535 422.531 283.688 423.34 L 283.688 423.34 L 283.688 423.34 Q 280.84 424.148 277.465 424.148 L 277.465 424.148 L 277.465 424.148 Q 273.598 424.148 270.574 423.111 L 270.574 423.111 L 270.574 423.111 Q 267.551 422.074 265.459 420.369 L 265.459 420.369 L 265.459 420.369 Q 263.367 418.664 262.26 416.414 L 262.26 416.414 L 262.26 416.414 Q 261.152 414.164 261.152 411.738 L 261.152 411.738 L 267.656 411.738 L 267.656 411.738 Q 267.797 413.742 268.729 415.113 L 268.729 415.113 L 268.729 415.113 Q 269.66 416.484 271.049 417.328 L 271.049 417.328 L 271.049 417.328 Q 272.438 418.172 274.125 418.523 L 274.125 418.523 L 274.125 418.523 Q 275.813 418.875 277.465 418.875 L 277.465 418.875 L 277.465 418.875 Q 281.578 418.875 283.969 417.363 L 283.969 417.363 L 283.969 417.363 Q 286.359 415.852 286.395 413.355 Z  M 321.129 424.148 L 321.129 424.148 L 321.129 424.148 Q 317.121 424.148 313.764 422.777 L 313.764 422.777 L 313.764 422.777 Q 310.406 421.406 308.016 418.945 L 308.016 418.945 L 308.016 418.945 Q 305.625 416.484 304.289 413.109 L 304.289 413.109 L 304.289 413.109 Q 302.953 409.734 302.953 405.762 L 302.953 405.762 L 302.953 404.285 L 302.953 404.285 Q 302.953 399.68 304.43 396.041 L 304.43 396.041 L 304.43 396.041 Q 305.906 392.402 308.35 389.889 L 308.35 389.889 L 308.35 389.889 Q 310.793 387.375 313.904 386.039 L 313.904 386.039 L 313.904 386.039 Q 317.016 384.703 320.285 384.703 L 320.285 384.703 L 320.285 384.703 Q 324.398 384.703 327.475 386.127 L 327.475 386.127 L 327.475 386.127 Q 330.551 387.551 332.59 390.064 L 332.59 390.064 L 332.59 390.064 Q 334.629 392.578 335.631 395.988 L 335.631 395.988 L 335.631 395.988 Q 336.633 399.398 336.633 403.371 L 336.633 403.371 L 336.633 406.289 L 309.457 406.289 L 309.457 406.289 Q 309.563 408.891 310.459 411.176 L 310.459 411.176 L 310.459 411.176 Q 311.355 413.461 312.92 415.166 L 312.92 415.166 L 312.92 415.166 Q 314.484 416.871 316.664 417.855 L 316.664 417.855 L 316.664 417.855 Q 318.844 418.84 321.48 418.84 L 321.48 418.84 L 321.48 418.84 Q 324.961 418.84 327.668 417.434 L 327.668 417.434 L 327.668 417.434 Q 330.375 416.027 332.168 413.707 L 332.168 413.707 L 336.141 416.801 L 336.141 416.801 Q 335.191 418.242 333.768 419.561 L 333.768 419.561 L 333.768 419.561 Q 332.344 420.879 330.48 421.898 L 330.48 421.898 L 330.48 421.898 Q 328.617 422.918 326.262 423.533 L 326.262 423.533 L 326.262 423.533 Q 323.906 424.148 321.129 424.148 Z  M 320.285 390.047 L 320.285 390.047 L 320.285 390.047 Q 318.316 390.047 316.559 390.768 L 316.559 390.768 L 316.559 390.768 Q 314.801 391.488 313.395 392.877 L 313.395 392.877 L 313.395 392.877 Q 311.988 394.266 311.021 396.287 L 311.021 396.287 L 311.021 396.287 Q 310.055 398.309 309.668 400.945 L 309.668 400.945 L 330.129 400.945 L 330.129 400.453 L 330.129 400.453 Q 330.023 398.555 329.408 396.691 L 329.408 396.691 L 329.408 396.691 Q 328.793 394.828 327.598 393.352 L 327.598 393.352 L 327.598 393.352 Q 326.402 391.875 324.592 390.961 L 324.592 390.961 L 324.592 390.961 Q 322.781 390.047 320.285 390.047 Z " fill-rule="evenodd" fill="rgb(255,255,225)"/></g></svg>