<?xml version="1.0" standalone="no"?><!-- Generator: Gravit.io --><svg xmlns="http://www.w3.org/2000/svg" xmlns:xlink="http://www.w3.org/1999/xlink" style="isolation:isolate" viewBox="0 0 512 512" width="512" height="512"><defs><clipPath id="_clipPath_6bAQ7o3d5pWkpc7Avkich9p1KdJ62nXj"><rect width="512" height="512"/></clipPath></defs><g clip-path="url(#_clipPath_6bAQ7o3d5pWkpc7Avkich9p1KdJ62nXj)"><rect x="0" y="0" width="512" height="512" transform="matrix(1,0,0,1,0,0)" fill="rgb(255,87,34)"/><path d=" M 219.99 98.039 L 246.943 98.039 L 246.943 249.65 L 246.943 249.65 Q 246.65 279.973 229.365 297.111 L 229.365 297.111 L 229.365 297.111 Q 212.08 314.25 181.172 314.25 L 181.172 314.25 L 181.172 314.25 Q 149.531 314.25 132.832 297.478 L 132.832 297.478 L 132.832 297.478 Q 116.133 280.705 115.84 249.65 L 115.84 249.65 L 115.84 98.039 L 142.5 98.039 L 142.5 248.625 L 142.5 248.625 Q 142.5 270.158 151.655 280.778 L 151.655 280.778 L 151.655 280.778 Q 160.811 291.398 181.172 291.398 L 181.172 291.398 L 181.172 291.398 Q 201.68 291.398 210.835 280.778 L 210.835 280.778 L 210.835 280.778 Q 219.99 270.158 219.99 248.625 L 219.99 248.625 L 219.99 98.039 L 219.99 98.039 Z  M 399.434 224.016 L 399.434 239.689 L 399.434 239.689 Q 399.434 276.75 386.104 295.5 L 386.104 295.5 L 386.104 295.5 Q 372.773 314.25 347.432 314.25 L 347.432 314.25 L 347.432 314.25 Q 322.236 314.25 309.639 292.57 L 309.639 292.57 L 308.32 311.32 L 284.736 311.32 L 284.736 86.32 L 310.518 86.32 L 310.518 170.256 L 310.518 170.256 Q 323.262 149.895 347.139 149.895 L 347.139 149.895 L 347.139 149.895 Q 373.213 149.895 386.25 168.352 L 386.25 168.352 L 386.25 168.352 Q 399.287 186.809 399.434 224.016 L 399.434 224.016 L 399.434 224.016 Z  M 373.652 240.861 L 373.652 224.895 L 373.652 224.895 Q 373.652 196.77 365.815 184.831 L 365.815 184.831 L 365.815 184.831 Q 357.979 172.893 340.4 172.893 L 340.4 172.893 L 340.4 172.893 Q 320.332 172.893 310.518 194.572 L 310.518 194.572 L 310.518 270.012 L 310.518 270.012 Q 320.186 291.398 340.693 291.398 L 340.693 291.398 L 340.693 291.398 Q 358.271 291.398 365.889 279.094 L 365.889 279.094 L 365.889 279.094 Q 373.506 266.789 373.652 240.861 L 373.652 240.861 L 373.652 240.861 Z " fill-rule="evenodd" fill="rgb(255,255,225)"/><path d=" M 140.355 376.195 L 146.895 376.195 L 146.895 385.406 L 161.379 385.406 L 161.379 390.434 L 146.895 390.434 L 146.895 411.105 L 146.895 411.105 Q 146.895 413.32 147.457 414.762 L 147.457 414.762 L 147.457 414.762 Q 148.02 416.203 149.004 417.064 L 149.004 417.064 L 149.004 417.064 Q 149.988 417.926 151.271 418.277 L 151.271 418.277 L 151.271 418.277 Q 152.555 418.629 153.996 418.629 L 153.996 418.629 L 153.996 418.629 Q 155.051 418.629 156.176 418.506 L 156.176 418.506 L 156.176 418.506 Q 157.301 418.383 158.373 418.207 L 158.373 418.207 L 158.373 418.207 Q 159.445 418.031 160.377 417.838 L 160.377 417.838 L 160.377 417.838 Q 161.309 417.645 161.906 417.504 L 161.906 417.504 L 162.82 422.109 L 162.82 422.109 Q 162.012 422.602 160.852 422.971 L 160.852 422.971 L 160.852 422.971 Q 159.691 423.34 158.32 423.604 L 158.32 423.604 L 158.32 423.604 Q 156.949 423.867 155.42 424.008 L 155.42 424.008 L 155.42 424.008 Q 153.891 424.148 152.379 424.148 L 152.379 424.148 L 152.379 424.148 Q 149.848 424.148 147.65 423.428 L 147.65 423.428 L 147.65 423.428 Q 145.453 422.707 143.836 421.143 L 143.836 421.143 L 143.836 421.143 Q 142.219 419.578 141.287 417.1 L 141.287 417.1 L 141.287 417.1 Q 140.355 414.621 140.355 411.105 L 140.355 411.105 L 140.355 390.434 L 130.371 390.434 L 130.371 385.406 L 140.355 385.406 L 140.355 376.195 L 140.355 376.195 Z  M 199.629 384.703 L 199.629 384.703 L 199.629 384.703 Q 200.543 384.703 201.527 384.756 L 201.527 384.756 L 201.527 384.756 Q 202.512 384.809 203.408 384.932 L 203.408 384.932 L 203.408 384.932 Q 204.305 385.055 205.061 385.23 L 205.061 385.23 L 205.061 385.23 Q 205.816 385.406 206.309 385.617 L 206.309 385.617 L 205.43 391.98 L 205.43 391.98 Q 203.531 391.559 201.826 391.365 L 201.826 391.365 L 201.826 391.365 Q 200.121 391.172 198.258 391.172 L 198.258 391.172 L 198.258 391.172 Q 193.688 391.172 190.857 393.246 L 190.857 393.246 L 190.857 393.246 Q 188.027 395.32 186.691 399.047 L 186.691 399.047 L 186.691 423.445 L 180.152 423.445 L 180.152 385.406 L 186.34 385.406 L 186.656 391.453 L 186.656 391.453 Q 188.977 388.324 192.229 386.514 L 192.229 386.514 L 192.229 386.514 Q 195.48 384.703 199.629 384.703 Z  M 242.977 423.445 L 242.59 418.207 L 242.59 418.207 Q 240.691 421.02 237.844 422.584 L 237.844 422.584 L 237.844 422.584 Q 234.996 424.148 231.27 424.148 L 231.27 424.148 L 231.27 424.148 Q 228.281 424.148 225.855 423.217 L 225.855 423.217 L 225.855 423.217 Q 223.43 422.285 221.707 420.316 L 221.707 420.316 L 221.707 420.316 Q 219.984 418.348 219.053 415.307 L 219.053 415.307 L 219.053 415.307 Q 218.121 412.266 218.121 408.012 L 218.121 408.012 L 218.121 385.406 L 224.625 385.406 L 224.625 408.082 L 224.625 408.082 Q 224.625 411.176 225.117 413.215 L 225.117 413.215 L 225.117 413.215 Q 225.609 415.254 226.594 416.467 L 226.594 416.467 L 226.594 416.467 Q 227.578 417.68 229.002 418.172 L 229.002 418.172 L 229.002 418.172 Q 230.426 418.664 232.289 418.664 L 232.289 418.664 L 232.289 418.664 Q 236.262 418.664 238.705 417.047 L 238.705 417.047 L 238.705 417.047 Q 241.148 415.43 242.344 412.688 L 242.344 412.688 L 242.344 385.406 L 248.883 385.406 L 248.883 423.445 L 242.977 423.445 L 242.977 423.445 Z  M 286.395 413.355 L 286.395 413.355 L 286.395 413.355 Q 286.395 412.195 285.938 411.264 L 285.938 411.264 L 285.938 411.264 Q 285.48 410.332 284.391 409.559 L 284.391 409.559 L 284.391 409.559 Q 283.301 408.785 281.508 408.135 L 281.508 408.135 L 281.508 408.135 Q 279.715 407.484 277.043 406.957 L 277.043 406.957 L 277.043 406.957 Q 273.773 406.289 271.084 405.34 L 271.084 405.34 L 271.084 405.34 Q 268.395 404.391 266.479 403.072 L 266.479 403.072 L 266.479 403.072 Q 264.563 401.754 263.508 399.979 L 263.508 399.979 L 263.508 399.979 Q 262.453 398.203 262.453 395.848 L 262.453 395.848 L 262.453 395.848 Q 262.453 393.527 263.543 391.506 L 263.543 391.506 L 263.543 391.506 Q 264.633 389.484 266.602 387.973 L 266.602 387.973 L 266.602 387.973 Q 268.57 386.461 271.295 385.582 L 271.295 385.582 L 271.295 385.582 Q 274.02 384.703 277.289 384.703 L 277.289 384.703 L 277.289 384.703 Q 280.805 384.703 283.617 385.617 L 283.617 385.617 L 283.617 385.617 Q 286.43 386.531 288.398 388.148 L 288.398 388.148 L 288.398 388.148 Q 290.367 389.766 291.439 391.928 L 291.439 391.928 L 291.439 391.928 Q 292.512 394.09 292.512 396.586 L 292.512 396.586 L 286.008 396.586 L 286.008 396.586 Q 286.008 395.355 285.375 394.178 L 285.375 394.178 L 285.375 394.178 Q 284.742 393 283.617 392.086 L 283.617 392.086 L 283.617 392.086 Q 282.492 391.172 280.893 390.609 L 280.893 390.609 L 280.893 390.609 Q 279.293 390.047 277.289 390.047 L 277.289 390.047 L 277.289 390.047 Q 275.215 390.047 273.65 390.504 L 273.65 390.504 L 273.65 390.504 Q 272.086 390.961 271.049 391.734 L 271.049 391.734 L 271.049 391.734 Q 270.012 392.508 269.484 393.527 L 269.484 393.527 L 269.484 393.527 Q 268.957 394.547 268.957 395.637 L 268.957 395.637 L 268.957 395.637 Q 268.957 396.762 269.379 397.641 L 269.379 397.641 L 269.379 397.641 Q 269.801 398.52 270.838 399.223 L 270.838 399.223 L 270.838 399.223 Q 271.875 399.926 273.615 400.488 L 273.615 400.488 L 273.615 400.488 Q 275.355 401.051 278.027 401.578 L 278.027 401.578 L 278.027 401.578 Q 281.543 402.316 284.32 403.283 L 284.32 403.283 L 284.32 403.283 Q 287.098 404.25 288.996 405.604 L 288.996 405.604 L 288.996 405.604 Q 290.895 406.957 291.896 408.75 L 291.896 408.75 L 291.896 408.75 Q 292.898 410.543 292.898 412.898 L 292.898 412.898 L 292.898 412.898 Q 292.898 415.43 291.756 417.504 L 291.756 417.504 L 291.756 417.504 Q 290.613 419.578 288.574 421.055 L 288.574 421.055 L 288.574 421.055 Q 286.535 422.531 283.688 423.34 L 283.688 423.34 L 283.688 423.34 Q 280.84 424.148 277.465 424.148 L 277.465 424.148 L 277.465 424.148 Q 273.598 424.148 270.574 423.111 L 270.574 423.111 L 270.574 423.111 Q 267.551 422.074 265.459 420.369 L 265.459 420.369 L 265.459 420.369 Q 263.367 418.664 262.26 416.414 L 262.26 416.414 L 262.26 416.414 Q 261.152 414.164 261.152 411.738 L 261.152 411.738 L 267.656 411.738 L 267.656 411.738 Q 267.797 413.742 268.729 415.113 L 268.729 415.113 L 268.729 415.113 Q 269.66 416.484 271.049 417.328 L 271.049 417.328 L 271.049 417.328 Q 272.438 418.172 274.125 418.523 L 274.125 418.523 L 274.125 418.523 Q 275.813 418.875 277.465 418.875 L 277.465 418.875 L 277.465 418.875 Q 281.578 418.875 283.969 417.363 L 283.969 417.363 L 283.969 417.363 Q 286.359 415.852 286.395 413.355 Z  M 313.184 376.195 L 319.723 376.195 L 319.723 385.406 L 334.207 385.406 L 334.207 390.434 L 319.723 390.434 L 319.723 411.105 L 319.723 411.105 Q 319.723 413.32 320.285 414.762 L 320.285 414.762 L 320.285 414.762 Q 320.848 416.203 321.832 417.064 L 321.832 417.064 L 321.832 417.064 Q 322.816 417.926 324.1 418.277 L 324.1 418.277 L 324.1 418.277 Q 325.383 418.629 326.824 418.629 L 326.824 418.629 L 326.824 418.629 Q 327.879 418.629 329.004 418.506 L 329.004 418.506 L 329.004 418.506 Q 330.129 418.383 331.201 418.207 L 331.201 418.207 L 331.201 418.207 Q 332.273 418.031 333.205 417.838 L 333.205 417.838 L 333.205 417.838 Q 334.137 417.645 334.734 417.504 L 334.734 417.504 L 335.648 422.109 L 335.648 422.109 Q 334.84 422.602 333.68 422.971 L 333.68 422.971 L 333.68 422.971 Q 332.52 423.34 331.148 423.604 L 331.148 423.604 L 331.148 423.604 Q 329.777 423.867 328.248 424.008 L 328.248 424.008 L 328.248 424.008 Q 326.719 424.148 325.207 424.148 L 325.207 424.148 L 325.207 424.148 Q 322.676 424.148 320.479 423.428 L 320.479 423.428 L 320.479 423.428 Q 318.281 422.707 316.664 421.143 L 316.664 421.143 L 316.664 421.143 Q 315.047 419.578 314.115 417.1 L 314.115 417.1 L 314.115 417.1 Q 313.184 414.621 313.184 411.105 L 313.184 411.105 L 313.184 390.434 L 303.199 390.434 L 303.199 385.406 L 313.184 385.406 L 313.184 376.195 L 313.184 376.195 Z  M 351.082 385.406 L 361.523 409.945 L 363.211 414.551 L 374.813 385.406 L 382.09 385.406 L 362.789 429.316 L 362.789 429.316 Q 362.121 430.793 361.084 432.445 L 361.084 432.445 L 361.084 432.445 Q 360.047 434.098 358.57 435.504 L 358.57 435.504 L 358.57 435.504 Q 357.094 436.91 355.125 437.859 L 355.125 437.859 L 355.125 437.859 Q 353.156 438.809 350.59 438.809 L 350.59 438.809 L 350.59 438.809 Q 350.133 438.809 349.57 438.756 L 349.57 438.756 L 349.57 438.756 Q 349.008 438.703 348.445 438.615 L 348.445 438.615 L 348.445 438.615 Q 347.883 438.527 347.391 438.422 L 347.391 438.422 L 347.391 438.422 Q 346.898 438.316 346.582 438.246 L 346.582 438.246 L 347.637 432.938 L 347.637 432.938 Q 347.883 432.938 348.305 432.973 L 348.305 432.973 L 348.305 432.973 Q 348.727 433.008 349.184 433.043 L 349.184 433.043 L 349.184 433.043 Q 349.641 433.078 350.063 433.096 L 350.063 433.096 L 350.063 433.096 Q 350.484 433.113 350.73 433.113 L 350.73 433.113 L 350.73 433.113 Q 352.066 433.113 353.174 432.375 L 353.174 432.375 L 353.174 432.375 Q 354.281 431.637 355.143 430.617 L 355.143 430.617 L 355.143 430.617 Q 356.004 429.598 356.619 428.508 L 356.619 428.508 L 356.619 428.508 Q 357.234 427.418 357.586 426.715 L 357.586 426.715 L 360.188 421.652 L 343.805 385.406 L 351.082 385.406 L 351.082 385.406 Z " fill-rule="evenodd" fill="rgb(255,255,225)"/></g></svg>