<?xml version="1.0" standalone="no"?><!-- Generator: Gravit.io --><svg xmlns="http://www.w3.org/2000/svg" xmlns:xlink="http://www.w3.org/1999/xlink" style="isolation:isolate" viewBox="0 0 512 512" width="512" height="512"><defs><clipPath id="_clipPath_1dhRJsEAhLRbJc5QbqjXmLwkd1PkhRN0"><rect width="512" height="512"/></clipPath></defs><g clip-path="url(#_clipPath_1dhRJsEAhLRbJc5QbqjXmLwkd1PkhRN0)"><rect x="0" y="0" width="512" height="512" transform="matrix(1,0,0,1,0,0)" fill="rgb(96,125,139)"/><path d=" M 248.921 184.611 L 248.921 223.43 L 248.921 223.43 Q 248.921 267.082 230.317 290.666 L 230.317 290.666 L 230.317 290.666 Q 211.714 314.25 177.437 314.25 L 177.437 314.25 L 177.437 314.25 Q 144.478 314.25 125.361 291.325 L 125.361 291.325 L 125.361 291.325 Q 106.245 268.4 105.513 226.506 L 105.513 226.506 L 105.513 186.369 L 105.513 186.369 Q 105.513 143.596 124.409 119.353 L 124.409 119.353 L 124.409 119.353 Q 143.306 95.109 177.144 95.109 L 177.144 95.109 L 177.144 95.109 Q 210.835 95.109 229.658 118.327 L 229.658 118.327 L 229.658 118.327 Q 248.481 141.545 248.921 184.611 L 248.921 184.611 L 248.921 184.611 Z  M 222.114 226.066 L 222.114 186.076 L 222.114 186.076 Q 222.114 152.238 211.055 135.759 L 211.055 135.759 L 211.055 135.759 Q 199.995 119.279 177.144 119.279 L 177.144 119.279 L 177.144 119.279 Q 155.024 119.279 143.672 135.979 L 143.672 135.979 L 143.672 135.979 Q 132.319 152.678 132.173 185.197 L 132.173 185.197 L 132.173 223.43 L 132.173 223.43 Q 132.173 256.096 143.525 273.234 L 143.525 273.234 L 143.525 273.234 Q 154.878 290.373 177.437 290.373 L 177.437 290.373 L 177.437 290.373 Q 199.995 290.373 210.835 274.553 L 210.835 274.553 L 210.835 274.553 Q 221.675 258.732 222.114 226.066 L 222.114 226.066 L 222.114 226.066 Z  M 383.54 257.414 L 383.54 257.414 L 383.54 257.414 Q 383.54 241.447 374.897 232.951 L 374.897 232.951 L 374.897 232.951 Q 366.255 224.455 343.696 216.398 L 343.696 216.398 L 343.696 216.398 Q 321.138 208.342 309.199 199.479 L 309.199 199.479 L 309.199 199.479 Q 297.261 190.617 291.328 179.265 L 291.328 179.265 L 291.328 179.265 Q 285.396 167.912 285.396 153.264 L 285.396 153.264 L 285.396 153.264 Q 285.396 127.922 302.314 111.516 L 302.314 111.516 L 302.314 111.516 Q 319.233 95.109 346.626 95.109 L 346.626 95.109 L 346.626 95.109 Q 365.376 95.109 380.024 103.532 L 380.024 103.532 L 380.024 103.532 Q 394.673 111.955 402.583 126.896 L 402.583 126.896 L 402.583 126.896 Q 410.493 141.838 410.493 159.709 L 410.493 159.709 L 383.54 159.709 L 383.54 159.709 Q 383.54 139.934 374.019 129.094 L 374.019 129.094 L 374.019 129.094 Q 364.497 118.254 346.626 118.254 L 346.626 118.254 L 346.626 118.254 Q 330.366 118.254 321.431 127.336 L 321.431 127.336 L 321.431 127.336 Q 312.495 136.418 312.495 152.824 L 312.495 152.824 L 312.495 152.824 Q 312.495 166.301 322.163 175.383 L 322.163 175.383 L 322.163 175.383 Q 331.831 184.465 352.046 191.643 L 352.046 191.643 L 352.046 191.643 Q 383.54 202.043 397.09 217.277 L 397.09 217.277 L 397.09 217.277 Q 410.64 232.512 410.64 257.121 L 410.64 257.121 L 410.64 257.121 Q 410.64 283.049 393.794 298.649 L 393.794 298.649 L 393.794 298.649 Q 376.948 314.25 347.944 314.25 L 347.944 314.25 L 347.944 314.25 Q 329.341 314.25 313.594 306.12 L 313.594 306.12 L 313.594 306.12 Q 297.847 297.99 288.838 283.269 L 288.838 283.269 L 288.838 283.269 Q 279.829 268.547 279.829 249.504 L 279.829 249.504 L 306.782 249.504 L 306.782 249.504 Q 306.782 269.279 317.842 280.266 L 317.842 280.266 L 317.842 280.266 Q 328.901 291.252 347.944 291.252 L 347.944 291.252 L 347.944 291.252 Q 365.669 291.252 374.604 282.17 L 374.604 282.17 L 374.604 282.17 Q 383.54 273.088 383.54 257.414 Z " fill-rule="evenodd" fill="rgb(255,255,225)"/><path d=" M 134.959 422.445 L 134.572 417.207 L 134.572 417.207 Q 132.674 420.02 129.826 421.584 L 129.826 421.584 L 129.826 421.584 Q 126.979 423.148 123.252 423.148 L 123.252 423.148 L 123.252 423.148 Q 120.264 423.148 117.838 422.217 L 117.838 422.217 L 117.838 422.217 Q 115.412 421.285 113.689 419.316 L 113.689 419.316 L 113.689 419.316 Q 111.967 417.348 111.035 414.307 L 111.035 414.307 L 111.035 414.307 Q 110.104 411.266 110.104 407.012 L 110.104 407.012 L 110.104 384.406 L 116.607 384.406 L 116.607 407.082 L 116.607 407.082 Q 116.607 410.176 117.1 412.215 L 117.1 412.215 L 117.1 412.215 Q 117.592 414.254 118.576 415.467 L 118.576 415.467 L 118.576 415.467 Q 119.561 416.68 120.984 417.172 L 120.984 417.172 L 120.984 417.172 Q 122.408 417.664 124.271 417.664 L 124.271 417.664 L 124.271 417.664 Q 128.244 417.664 130.688 416.047 L 130.688 416.047 L 130.688 416.047 Q 133.131 414.43 134.326 411.688 L 134.326 411.688 L 134.326 384.406 L 140.865 384.406 L 140.865 422.445 L 134.959 422.445 L 134.959 422.445 Z  M 153.1 384.406 L 158.936 384.406 L 159.393 390.031 L 159.393 390.031 Q 161.467 387.078 164.49 385.408 L 164.49 385.408 L 164.49 385.408 Q 167.514 383.738 171.24 383.703 L 171.24 383.703 L 171.24 383.703 Q 174.229 383.703 176.672 384.547 L 176.672 384.547 L 176.672 384.547 Q 179.115 385.391 180.838 387.184 L 180.838 387.184 L 180.838 387.184 Q 182.561 388.977 183.492 391.736 L 183.492 391.736 L 183.492 391.736 Q 184.424 394.496 184.424 398.293 L 184.424 398.293 L 184.424 422.445 L 177.92 422.445 L 177.92 398.434 L 177.92 398.434 Q 177.92 395.902 177.357 394.145 L 177.357 394.145 L 177.357 394.145 Q 176.795 392.387 175.688 391.297 L 175.688 391.297 L 175.688 391.297 Q 174.58 390.207 172.98 389.715 L 172.98 389.715 L 172.98 389.715 Q 171.381 389.223 169.307 389.223 L 169.307 389.223 L 169.307 389.223 Q 166.037 389.223 163.559 390.857 L 163.559 390.857 L 163.559 390.857 Q 161.08 392.492 159.604 395.164 L 159.604 395.164 L 159.604 422.445 L 153.1 422.445 L 153.1 384.406 L 153.1 384.406 Z  M 221.654 422.445 L 207.697 404.691 L 202.916 409.297 L 202.916 422.445 L 196.377 422.445 L 196.377 368.445 L 202.916 368.445 L 202.916 401.492 L 207.17 396.922 L 219.65 384.406 L 227.561 384.406 L 212.162 400.262 L 229.916 422.445 L 221.654 422.445 L 221.654 422.445 Z  M 239.514 384.406 L 245.35 384.406 L 245.807 390.031 L 245.807 390.031 Q 247.881 387.078 250.904 385.408 L 250.904 385.408 L 250.904 385.408 Q 253.928 383.738 257.654 383.703 L 257.654 383.703 L 257.654 383.703 Q 260.643 383.703 263.086 384.547 L 263.086 384.547 L 263.086 384.547 Q 265.529 385.391 267.252 387.184 L 267.252 387.184 L 267.252 387.184 Q 268.975 388.977 269.906 391.736 L 269.906 391.736 L 269.906 391.736 Q 270.838 394.496 270.838 398.293 L 270.838 398.293 L 270.838 422.445 L 264.334 422.445 L 264.334 398.434 L 264.334 398.434 Q 264.334 395.902 263.771 394.145 L 263.771 394.145 L 263.771 394.145 Q 263.209 392.387 262.102 391.297 L 262.102 391.297 L 262.102 391.297 Q 260.994 390.207 259.395 389.715 L 259.395 389.715 L 259.395 389.715 Q 257.795 389.223 255.721 389.223 L 255.721 389.223 L 255.721 389.223 Q 252.451 389.223 249.973 390.857 L 249.973 390.857 L 249.973 390.857 Q 247.494 392.492 246.018 395.164 L 246.018 395.164 L 246.018 422.445 L 239.514 422.445 L 239.514 384.406 L 239.514 384.406 Z  M 280.893 403.848 L 280.893 403.074 L 280.893 403.074 Q 280.893 398.961 282.088 395.428 L 282.088 395.428 L 282.088 395.428 Q 283.283 391.895 285.516 389.293 L 285.516 389.293 L 285.516 389.293 Q 287.748 386.691 290.947 385.197 L 290.947 385.197 L 290.947 385.197 Q 294.146 383.703 298.154 383.703 L 298.154 383.703 L 298.154 383.703 Q 302.197 383.703 305.414 385.197 L 305.414 385.197 L 305.414 385.197 Q 308.631 386.691 310.863 389.293 L 310.863 389.293 L 310.863 389.293 Q 313.096 391.895 314.291 395.428 L 314.291 395.428 L 314.291 395.428 Q 315.486 398.961 315.486 403.074 L 315.486 403.074 L 315.486 403.848 L 315.486 403.848 Q 315.486 407.961 314.291 411.477 L 314.291 411.477 L 314.291 411.477 Q 313.096 414.992 310.863 417.594 L 310.863 417.594 L 310.863 417.594 Q 308.631 420.195 305.432 421.672 L 305.432 421.672 L 305.432 421.672 Q 302.232 423.148 298.225 423.148 L 298.225 423.148 L 298.225 423.148 Q 294.182 423.148 290.965 421.672 L 290.965 421.672 L 290.965 421.672 Q 287.748 420.195 285.516 417.594 L 285.516 417.594 L 285.516 417.594 Q 283.283 414.992 282.088 411.477 L 282.088 411.477 L 282.088 411.477 Q 280.893 407.961 280.893 403.848 L 280.893 403.848 L 280.893 403.848 Z  M 287.396 403.074 L 287.396 403.848 L 287.396 403.848 Q 287.396 406.66 288.064 409.209 L 288.064 409.209 L 288.064 409.209 Q 288.732 411.758 290.086 413.691 L 290.086 413.691 L 290.086 413.691 Q 291.439 415.625 293.479 416.75 L 293.479 416.75 L 293.479 416.75 Q 295.518 417.875 298.225 417.875 L 298.225 417.875 L 298.225 417.875 Q 300.896 417.875 302.918 416.75 L 302.918 416.75 L 302.918 416.75 Q 304.939 415.625 306.293 413.691 L 306.293 413.691 L 306.293 413.691 Q 307.646 411.758 308.314 409.209 L 308.314 409.209 L 308.314 409.209 Q 308.982 406.66 308.982 403.848 L 308.982 403.848 L 308.982 403.074 L 308.982 403.074 Q 308.982 400.297 308.297 397.748 L 308.297 397.748 L 308.297 397.748 Q 307.611 395.199 306.258 393.266 L 306.258 393.266 L 306.258 393.266 Q 304.904 391.332 302.883 390.189 L 302.883 390.189 L 302.883 390.189 Q 300.861 389.047 298.154 389.047 L 298.154 389.047 L 298.154 389.047 Q 295.447 389.047 293.443 390.189 L 293.443 390.189 L 293.443 390.189 Q 291.439 391.332 290.086 393.266 L 290.086 393.266 L 290.086 393.266 Q 288.732 395.199 288.064 397.748 L 288.064 397.748 L 288.064 397.748 Q 287.396 400.297 287.396 403.074 L 287.396 403.074 L 287.396 403.074 Z  M 327.264 384.406 L 331.693 408.664 L 332.467 414.113 L 333.416 408.664 L 339.498 384.406 L 343.682 384.406 L 349.729 408.664 L 350.748 414.641 L 351.697 408.664 L 355.916 384.406 L 361.682 384.406 L 353.596 422.445 L 348.463 422.445 L 342.521 399.137 L 341.537 393.23 L 340.588 399.137 L 334.717 422.445 L 329.584 422.445 L 321.498 384.406 L 327.264 384.406 L 327.264 384.406 Z  M 369.135 384.406 L 374.971 384.406 L 375.428 390.031 L 375.428 390.031 Q 377.502 387.078 380.525 385.408 L 380.525 385.408 L 380.525 385.408 Q 383.549 383.738 387.275 383.703 L 387.275 383.703 L 387.275 383.703 Q 390.264 383.703 392.707 384.547 L 392.707 384.547 L 392.707 384.547 Q 395.15 385.391 396.873 387.184 L 396.873 387.184 L 396.873 387.184 Q 398.596 388.977 399.527 391.736 L 399.527 391.736 L 399.527 391.736 Q 400.459 394.496 400.459 398.293 L 400.459 398.293 L 400.459 422.445 L 393.955 422.445 L 393.955 398.434 L 393.955 398.434 Q 393.955 395.902 393.393 394.145 L 393.393 394.145 L 393.393 394.145 Q 392.83 392.387 391.723 391.297 L 391.723 391.297 L 391.723 391.297 Q 390.615 390.207 389.016 389.715 L 389.016 389.715 L 389.016 389.715 Q 387.416 389.223 385.342 389.223 L 385.342 389.223 L 385.342 389.223 Q 382.072 389.223 379.594 390.857 L 379.594 390.857 L 379.594 390.857 Q 377.115 392.492 375.639 395.164 L 375.639 395.164 L 375.639 422.445 L 369.135 422.445 L 369.135 384.406 L 369.135 384.406 Z " fill-rule="evenodd" fill="rgb(255,255,225)"/></g></svg>