<?xml version="1.0" standalone="no"?><!-- Generator: Gravit.io --><svg xmlns="http://www.w3.org/2000/svg" xmlns:xlink="http://www.w3.org/1999/xlink" style="isolation:isolate" viewBox="0 0 512 512" width="512" height="512"><defs><clipPath id="_clipPath_JKsSWS9ex0VbHjG4Pvb2nS0V8ZW6e9vT"><rect width="512" height="512"/></clipPath></defs><g clip-path="url(#_clipPath_JKsSWS9ex0VbHjG4Pvb2nS0V8ZW6e9vT)"><rect x="0" y="0" width="512" height="512" transform="matrix(1,0,0,1,0,0)" fill="rgb(49,27,146)"/><path d=" M 143.599 98.039 L 170.112 244.084 L 172.896 267.961 L 177.144 246.867 L 211.274 98.039 L 233.687 98.039 L 266.792 246.867 L 271.04 268.547 L 274.116 243.938 L 300.19 98.039 L 326.997 98.039 L 284.517 311.32 L 260.347 311.32 L 224.751 155.9 L 222.554 143.303 L 220.356 155.9 L 183.442 311.32 L 159.126 311.32 L 116.792 98.039 L 143.599 98.039 L 143.599 98.039 Z  M 382.222 152.824 L 382.222 311.32 L 356.294 311.32 L 356.294 152.824 L 382.222 152.824 L 382.222 152.824 Z  M 384.272 110.783 L 384.272 110.783 L 384.272 110.783 Q 384.272 117.375 380.61 121.77 L 380.61 121.77 L 380.61 121.77 Q 376.948 126.164 369.478 126.164 L 369.478 126.164 L 369.478 126.164 Q 362.153 126.164 358.491 121.77 L 358.491 121.77 L 358.491 121.77 Q 354.829 117.375 354.829 110.783 L 354.829 110.783 L 354.829 110.783 Q 354.829 104.191 358.491 99.65 L 358.491 99.65 L 358.491 99.65 Q 362.153 95.109 369.478 95.109 L 369.478 95.109 L 369.478 95.109 Q 376.802 95.109 380.537 99.724 L 380.537 99.724 L 380.537 99.724 Q 384.272 104.338 384.272 110.783 Z " fill-rule="evenodd" fill="rgb(255,255,225)"/><path d=" M 111.229 385.406 L 115.658 409.664 L 116.432 415.113 L 117.381 409.664 L 123.463 385.406 L 127.646 385.406 L 133.693 409.664 L 134.713 415.641 L 135.662 409.664 L 139.881 385.406 L 145.646 385.406 L 137.561 423.445 L 132.428 423.445 L 126.486 400.137 L 125.502 394.23 L 124.553 400.137 L 118.682 423.445 L 113.549 423.445 L 105.463 385.406 L 111.229 385.406 L 111.229 385.406 Z  M 154.119 391.066 L 154.119 385.406 L 173.561 385.406 L 173.561 417.82 L 185.971 417.82 L 185.971 423.445 L 154.119 423.445 L 154.119 417.82 L 167.057 417.82 L 167.057 391.066 L 154.119 391.066 L 154.119 391.066 Z  M 166.213 375.422 L 166.213 375.422 L 166.213 375.422 Q 166.213 373.805 167.18 372.697 L 167.18 372.697 L 167.18 372.697 Q 168.146 371.59 170.115 371.59 L 170.115 371.59 L 170.115 371.59 Q 172.049 371.59 173.033 372.697 L 173.033 372.697 L 173.033 372.697 Q 174.018 373.805 174.018 375.422 L 174.018 375.422 L 174.018 375.422 Q 174.018 377.004 173.033 378.059 L 173.033 378.059 L 173.033 378.059 Q 172.049 379.113 170.115 379.113 L 170.115 379.113 L 170.115 379.113 Q 168.146 379.113 167.18 378.059 L 167.18 378.059 L 167.18 378.059 Q 166.213 377.004 166.213 375.422 Z  M 196.307 385.406 L 202.143 385.406 L 202.6 391.031 L 202.6 391.031 Q 204.674 388.078 207.697 386.408 L 207.697 386.408 L 207.697 386.408 Q 210.721 384.738 214.447 384.703 L 214.447 384.703 L 214.447 384.703 Q 217.436 384.703 219.879 385.547 L 219.879 385.547 L 219.879 385.547 Q 222.322 386.391 224.045 388.184 L 224.045 388.184 L 224.045 388.184 Q 225.768 389.977 226.699 392.736 L 226.699 392.736 L 226.699 392.736 Q 227.631 395.496 227.631 399.293 L 227.631 399.293 L 227.631 423.445 L 221.127 423.445 L 221.127 399.434 L 221.127 399.434 Q 221.127 396.902 220.564 395.145 L 220.564 395.145 L 220.564 395.145 Q 220.002 393.387 218.895 392.297 L 218.895 392.297 L 218.895 392.297 Q 217.787 391.207 216.188 390.715 L 216.188 390.715 L 216.188 390.715 Q 214.588 390.223 212.514 390.223 L 212.514 390.223 L 212.514 390.223 Q 209.244 390.223 206.766 391.857 L 206.766 391.857 L 206.766 391.857 Q 204.287 393.492 202.811 396.164 L 202.811 396.164 L 202.811 423.445 L 196.307 423.445 L 196.307 385.406 L 196.307 385.406 Z  M 238.283 404.848 L 238.283 404.109 L 238.283 404.109 Q 238.283 399.855 239.355 396.287 L 239.355 396.287 L 239.355 396.287 Q 240.428 392.719 242.414 390.152 L 242.414 390.152 L 242.414 390.152 Q 244.4 387.586 247.213 386.145 L 247.213 386.145 L 247.213 386.145 Q 250.025 384.703 253.506 384.703 L 253.506 384.703 L 253.506 384.703 Q 256.916 384.703 259.465 385.846 L 259.465 385.846 L 259.465 385.846 Q 262.014 386.988 263.877 389.168 L 263.877 389.168 L 263.877 369.445 L 270.381 369.445 L 270.381 423.445 L 264.404 423.445 L 264.123 419.438 L 264.123 419.438 Q 262.225 421.758 259.588 422.953 L 259.588 422.953 L 259.588 422.953 Q 256.951 424.148 253.436 424.148 L 253.436 424.148 L 253.436 424.148 Q 249.99 424.148 247.195 422.672 L 247.195 422.672 L 247.195 422.672 Q 244.4 421.195 242.432 418.594 L 242.432 418.594 L 242.432 418.594 Q 240.463 415.992 239.373 412.459 L 239.373 412.459 L 239.373 412.459 Q 238.283 408.926 238.283 404.848 L 238.283 404.848 L 238.283 404.848 Z  M 244.787 404.109 L 244.787 404.848 L 244.787 404.848 Q 244.787 407.625 245.385 410.121 L 245.385 410.121 L 245.385 410.121 Q 245.982 412.617 247.23 414.516 L 247.23 414.516 L 247.23 414.516 Q 248.479 416.414 250.412 417.521 L 250.412 417.521 L 250.412 417.521 Q 252.346 418.629 255.053 418.629 L 255.053 418.629 L 255.053 418.629 Q 256.705 418.629 258.041 418.242 L 258.041 418.242 L 258.041 418.242 Q 259.377 417.855 260.467 417.135 L 260.467 417.135 L 260.467 417.135 Q 261.557 416.414 262.4 415.412 L 262.4 415.412 L 262.4 415.412 Q 263.244 414.41 263.877 413.18 L 263.877 413.18 L 263.877 395.531 L 263.877 395.531 Q 262.611 393.211 260.467 391.717 L 260.467 391.717 L 260.467 391.717 Q 258.322 390.223 255.123 390.223 L 255.123 390.223 L 255.123 390.223 Q 252.381 390.223 250.43 391.348 L 250.43 391.348 L 250.43 391.348 Q 248.479 392.473 247.23 394.389 L 247.23 394.389 L 247.23 394.389 Q 245.982 396.305 245.385 398.818 L 245.385 398.818 L 245.385 398.818 Q 244.787 401.332 244.787 404.109 L 244.787 404.109 L 244.787 404.109 Z  M 280.893 404.848 L 280.893 404.074 L 280.893 404.074 Q 280.893 399.961 282.088 396.428 L 282.088 396.428 L 282.088 396.428 Q 283.283 392.895 285.516 390.293 L 285.516 390.293 L 285.516 390.293 Q 287.748 387.691 290.947 386.197 L 290.947 386.197 L 290.947 386.197 Q 294.146 384.703 298.154 384.703 L 298.154 384.703 L 298.154 384.703 Q 302.197 384.703 305.414 386.197 L 305.414 386.197 L 305.414 386.197 Q 308.631 387.691 310.863 390.293 L 310.863 390.293 L 310.863 390.293 Q 313.096 392.895 314.291 396.428 L 314.291 396.428 L 314.291 396.428 Q 315.486 399.961 315.486 404.074 L 315.486 404.074 L 315.486 404.848 L 315.486 404.848 Q 315.486 408.961 314.291 412.477 L 314.291 412.477 L 314.291 412.477 Q 313.096 415.992 310.863 418.594 L 310.863 418.594 L 310.863 418.594 Q 308.631 421.195 305.432 422.672 L 305.432 422.672 L 305.432 422.672 Q 302.232 424.148 298.225 424.148 L 298.225 424.148 L 298.225 424.148 Q 294.182 424.148 290.965 422.672 L 290.965 422.672 L 290.965 422.672 Q 287.748 421.195 285.516 418.594 L 285.516 418.594 L 285.516 418.594 Q 283.283 415.992 282.088 412.477 L 282.088 412.477 L 282.088 412.477 Q 280.893 408.961 280.893 404.848 L 280.893 404.848 L 280.893 404.848 Z  M 287.396 404.074 L 287.396 404.848 L 287.396 404.848 Q 287.396 407.66 288.064 410.209 L 288.064 410.209 L 288.064 410.209 Q 288.732 412.758 290.086 414.691 L 290.086 414.691 L 290.086 414.691 Q 291.439 416.625 293.479 417.75 L 293.479 417.75 L 293.479 417.75 Q 295.518 418.875 298.225 418.875 L 298.225 418.875 L 298.225 418.875 Q 300.896 418.875 302.918 417.75 L 302.918 417.75 L 302.918 417.75 Q 304.939 416.625 306.293 414.691 L 306.293 414.691 L 306.293 414.691 Q 307.646 412.758 308.314 410.209 L 308.314 410.209 L 308.314 410.209 Q 308.982 407.66 308.982 404.848 L 308.982 404.848 L 308.982 404.074 L 308.982 404.074 Q 308.982 401.297 308.297 398.748 L 308.297 398.748 L 308.297 398.748 Q 307.611 396.199 306.258 394.266 L 306.258 394.266 L 306.258 394.266 Q 304.904 392.332 302.883 391.189 L 302.883 391.189 L 302.883 391.189 Q 300.861 390.047 298.154 390.047 L 298.154 390.047 L 298.154 390.047 Q 295.447 390.047 293.443 391.189 L 293.443 391.189 L 293.443 391.189 Q 291.439 392.332 290.086 394.266 L 290.086 394.266 L 290.086 394.266 Q 288.732 396.199 288.064 398.748 L 288.064 398.748 L 288.064 398.748 Q 287.396 401.297 287.396 404.074 L 287.396 404.074 L 287.396 404.074 Z  M 327.264 385.406 L 331.693 409.664 L 332.467 415.113 L 333.416 409.664 L 339.498 385.406 L 343.682 385.406 L 349.729 409.664 L 350.748 415.641 L 351.697 409.664 L 355.916 385.406 L 361.682 385.406 L 353.596 423.445 L 348.463 423.445 L 342.521 400.137 L 341.537 394.23 L 340.588 400.137 L 334.717 423.445 L 329.584 423.445 L 321.498 385.406 L 327.264 385.406 L 327.264 385.406 Z  M 394.412 413.355 L 394.412 413.355 L 394.412 413.355 Q 394.412 412.195 393.955 411.264 L 393.955 411.264 L 393.955 411.264 Q 393.498 410.332 392.408 409.559 L 392.408 409.559 L 392.408 409.559 Q 391.318 408.785 389.525 408.135 L 389.525 408.135 L 389.525 408.135 Q 387.732 407.484 385.061 406.957 L 385.061 406.957 L 385.061 406.957 Q 381.791 406.289 379.102 405.34 L 379.102 405.34 L 379.102 405.34 Q 376.412 404.391 374.496 403.072 L 374.496 403.072 L 374.496 403.072 Q 372.58 401.754 371.525 399.979 L 371.525 399.979 L 371.525 399.979 Q 370.471 398.203 370.471 395.848 L 370.471 395.848 L 370.471 395.848 Q 370.471 393.527 371.561 391.506 L 371.561 391.506 L 371.561 391.506 Q 372.65 389.484 374.619 387.973 L 374.619 387.973 L 374.619 387.973 Q 376.588 386.461 379.313 385.582 L 379.313 385.582 L 379.313 385.582 Q 382.037 384.703 385.307 384.703 L 385.307 384.703 L 385.307 384.703 Q 388.822 384.703 391.635 385.617 L 391.635 385.617 L 391.635 385.617 Q 394.447 386.531 396.416 388.148 L 396.416 388.148 L 396.416 388.148 Q 398.385 389.766 399.457 391.928 L 399.457 391.928 L 399.457 391.928 Q 400.529 394.09 400.529 396.586 L 400.529 396.586 L 394.025 396.586 L 394.025 396.586 Q 394.025 395.355 393.393 394.178 L 393.393 394.178 L 393.393 394.178 Q 392.76 393 391.635 392.086 L 391.635 392.086 L 391.635 392.086 Q 390.51 391.172 388.91 390.609 L 388.91 390.609 L 388.91 390.609 Q 387.311 390.047 385.307 390.047 L 385.307 390.047 L 385.307 390.047 Q 383.232 390.047 381.668 390.504 L 381.668 390.504 L 381.668 390.504 Q 380.104 390.961 379.066 391.734 L 379.066 391.734 L 379.066 391.734 Q 378.029 392.508 377.502 393.527 L 377.502 393.527 L 377.502 393.527 Q 376.975 394.547 376.975 395.637 L 376.975 395.637 L 376.975 395.637 Q 376.975 396.762 377.396 397.641 L 377.396 397.641 L 377.396 397.641 Q 377.818 398.52 378.855 399.223 L 378.855 399.223 L 378.855 399.223 Q 379.893 399.926 381.633 400.488 L 381.633 400.488 L 381.633 400.488 Q 383.373 401.051 386.045 401.578 L 386.045 401.578 L 386.045 401.578 Q 389.561 402.316 392.338 403.283 L 392.338 403.283 L 392.338 403.283 Q 395.115 404.25 397.014 405.604 L 397.014 405.604 L 397.014 405.604 Q 398.912 406.957 399.914 408.75 L 399.914 408.75 L 399.914 408.75 Q 400.916 410.543 400.916 412.898 L 400.916 412.898 L 400.916 412.898 Q 400.916 415.43 399.773 417.504 L 399.773 417.504 L 399.773 417.504 Q 398.631 419.578 396.592 421.055 L 396.592 421.055 L 396.592 421.055 Q 394.553 422.531 391.705 423.34 L 391.705 423.34 L 391.705 423.34 Q 388.857 424.148 385.482 424.148 L 385.482 424.148 L 385.482 424.148 Q 381.615 424.148 378.592 423.111 L 378.592 423.111 L 378.592 423.111 Q 375.568 422.074 373.477 420.369 L 373.477 420.369 L 373.477 420.369 Q 371.385 418.664 370.277 416.414 L 370.277 416.414 L 370.277 416.414 Q 369.17 414.164 369.17 411.738 L 369.17 411.738 L 375.674 411.738 L 375.674 411.738 Q 375.814 413.742 376.746 415.113 L 376.746 415.113 L 376.746 415.113 Q 377.678 416.484 379.066 417.328 L 379.066 417.328 L 379.066 417.328 Q 380.455 418.172 382.143 418.523 L 382.143 418.523 L 382.143 418.523 Q 383.83 418.875 385.482 418.875 L 385.482 418.875 L 385.482 418.875 Q 389.596 418.875 391.986 417.363 L 391.986 417.363 L 391.986 417.363 Q 394.377 415.852 394.412 413.355 Z " fill-rule="evenodd" fill="rgb(255,255,225)"/></g></svg>