<?xml version="1.0" standalone="no"?><!-- Generator: Gravit.io --><svg xmlns="http://www.w3.org/2000/svg" xmlns:xlink="http://www.w3.org/1999/xlink" style="isolation:isolate" viewBox="0 0 512 512" width="512" height="512"><defs><clipPath id="_clipPath_pw6Jd5TFLBpK4hLKIhuBb7x0fO1Z9mUn"><rect width="512" height="512"/></clipPath></defs><g clip-path="url(#_clipPath_pw6Jd5TFLBpK4hLKIhuBb7x0fO1Z9mUn)"><rect x="0" y="0" width="512" height="512" transform="matrix(1,0,0,1,0,0)" fill="rgb(255,87,34)"/><path d=" M 219.99 98.039 L 246.943 98.039 L 246.943 249.65 L 246.943 249.65 Q 246.65 279.973 229.365 297.111 L 229.365 297.111 L 229.365 297.111 Q 212.08 314.25 181.172 314.25 L 181.172 314.25 L 181.172 314.25 Q 149.531 314.25 132.832 297.478 L 132.832 297.478 L 132.832 297.478 Q 116.133 280.705 115.84 249.65 L 115.84 249.65 L 115.84 98.039 L 142.5 98.039 L 142.5 248.625 L 142.5 248.625 Q 142.5 270.158 151.655 280.778 L 151.655 280.778 L 151.655 280.778 Q 160.811 291.398 181.172 291.398 L 181.172 291.398 L 181.172 291.398 Q 201.68 291.398 210.835 280.778 L 210.835 280.778 L 210.835 280.778 Q 219.99 270.158 219.99 248.625 L 219.99 248.625 L 219.99 98.039 L 219.99 98.039 Z  M 399.434 224.016 L 399.434 239.689 L 399.434 239.689 Q 399.434 276.75 386.104 295.5 L 386.104 295.5 L 386.104 295.5 Q 372.773 314.25 347.432 314.25 L 347.432 314.25 L 347.432 314.25 Q 322.236 314.25 309.639 292.57 L 309.639 292.57 L 308.32 311.32 L 284.736 311.32 L 284.736 86.32 L 310.518 86.32 L 310.518 170.256 L 310.518 170.256 Q 323.262 149.895 347.139 149.895 L 347.139 149.895 L 347.139 149.895 Q 373.213 149.895 386.25 168.352 L 386.25 168.352 L 386.25 168.352 Q 399.287 186.809 399.434 224.016 L 399.434 224.016 L 399.434 224.016 Z  M 373.652 240.861 L 373.652 224.895 L 373.652 224.895 Q 373.652 196.77 365.815 184.831 L 365.815 184.831 L 365.815 184.831 Q 357.979 172.893 340.4 172.893 L 340.4 172.893 L 340.4 172.893 Q 320.332 172.893 310.518 194.572 L 310.518 194.572 L 310.518 270.012 L 310.518 270.012 Q 320.186 291.398 340.693 291.398 L 340.693 291.398 L 340.693 291.398 Q 358.271 291.398 365.889 279.094 L 365.889 279.094 L 365.889 279.094 Q 373.506 266.789 373.652 240.861 L 373.652 240.861 L 373.652 240.861 Z " fill-rule="evenodd" fill="rgb(255,255,225)"/><path d=" M 137.156 385.406 L 147.211 399.504 L 157.371 385.406 L 165 385.406 L 150.832 404.215 L 165.387 423.445 L 157.863 423.445 L 147.352 408.961 L 136.84 423.445 L 129.246 423.445 L 143.801 404.215 L 129.633 385.406 L 137.156 385.406 L 137.156 385.406 Z  M 191.508 424.148 L 191.508 424.148 L 191.508 424.148 Q 187.5 424.148 184.143 422.777 L 184.143 422.777 L 184.143 422.777 Q 180.785 421.406 178.395 418.945 L 178.395 418.945 L 178.395 418.945 Q 176.004 416.484 174.668 413.109 L 174.668 413.109 L 174.668 413.109 Q 173.332 409.734 173.332 405.762 L 173.332 405.762 L 173.332 404.285 L 173.332 404.285 Q 173.332 399.68 174.809 396.041 L 174.809 396.041 L 174.809 396.041 Q 176.285 392.402 178.729 389.889 L 178.729 389.889 L 178.729 389.889 Q 181.172 387.375 184.283 386.039 L 184.283 386.039 L 184.283 386.039 Q 187.395 384.703 190.664 384.703 L 190.664 384.703 L 190.664 384.703 Q 194.777 384.703 197.854 386.127 L 197.854 386.127 L 197.854 386.127 Q 200.93 387.551 202.969 390.064 L 202.969 390.064 L 202.969 390.064 Q 205.008 392.578 206.01 395.988 L 206.01 395.988 L 206.01 395.988 Q 207.012 399.398 207.012 403.371 L 207.012 403.371 L 207.012 406.289 L 179.836 406.289 L 179.836 406.289 Q 179.941 408.891 180.838 411.176 L 180.838 411.176 L 180.838 411.176 Q 181.734 413.461 183.299 415.166 L 183.299 415.166 L 183.299 415.166 Q 184.863 416.871 187.043 417.855 L 187.043 417.855 L 187.043 417.855 Q 189.223 418.84 191.859 418.84 L 191.859 418.84 L 191.859 418.84 Q 195.34 418.84 198.047 417.434 L 198.047 417.434 L 198.047 417.434 Q 200.754 416.027 202.547 413.707 L 202.547 413.707 L 206.52 416.801 L 206.52 416.801 Q 205.57 418.242 204.146 419.561 L 204.146 419.561 L 204.146 419.561 Q 202.723 420.879 200.859 421.898 L 200.859 421.898 L 200.859 421.898 Q 198.996 422.918 196.641 423.533 L 196.641 423.533 L 196.641 423.533 Q 194.285 424.148 191.508 424.148 Z  M 190.664 390.047 L 190.664 390.047 L 190.664 390.047 Q 188.695 390.047 186.938 390.768 L 186.938 390.768 L 186.938 390.768 Q 185.18 391.488 183.773 392.877 L 183.773 392.877 L 183.773 392.877 Q 182.367 394.266 181.4 396.287 L 181.4 396.287 L 181.4 396.287 Q 180.434 398.309 180.047 400.945 L 180.047 400.945 L 200.508 400.945 L 200.508 400.453 L 200.508 400.453 Q 200.402 398.555 199.787 396.691 L 199.787 396.691 L 199.787 396.691 Q 199.172 394.828 197.977 393.352 L 197.977 393.352 L 197.977 393.352 Q 196.781 391.875 194.971 390.961 L 194.971 390.961 L 194.971 390.961 Q 193.16 390.047 190.664 390.047 Z  M 217.91 385.406 L 223.746 385.406 L 224.203 391.031 L 224.203 391.031 Q 226.277 388.078 229.301 386.408 L 229.301 386.408 L 229.301 386.408 Q 232.324 384.738 236.051 384.703 L 236.051 384.703 L 236.051 384.703 Q 239.039 384.703 241.482 385.547 L 241.482 385.547 L 241.482 385.547 Q 243.926 386.391 245.648 388.184 L 245.648 388.184 L 245.648 388.184 Q 247.371 389.977 248.303 392.736 L 248.303 392.736 L 248.303 392.736 Q 249.234 395.496 249.234 399.293 L 249.234 399.293 L 249.234 423.445 L 242.73 423.445 L 242.73 399.434 L 242.73 399.434 Q 242.73 396.902 242.168 395.145 L 242.168 395.145 L 242.168 395.145 Q 241.605 393.387 240.498 392.297 L 240.498 392.297 L 240.498 392.297 Q 239.391 391.207 237.791 390.715 L 237.791 390.715 L 237.791 390.715 Q 236.191 390.223 234.117 390.223 L 234.117 390.223 L 234.117 390.223 Q 230.848 390.223 228.369 391.857 L 228.369 391.857 L 228.369 391.857 Q 225.891 393.492 224.414 396.164 L 224.414 396.164 L 224.414 423.445 L 217.91 423.445 L 217.91 385.406 L 217.91 385.406 Z  M 262.137 391.066 L 262.137 385.406 L 281.578 385.406 L 281.578 417.82 L 293.988 417.82 L 293.988 423.445 L 262.137 423.445 L 262.137 417.82 L 275.074 417.82 L 275.074 391.066 L 262.137 391.066 L 262.137 391.066 Z  M 274.23 375.422 L 274.23 375.422 L 274.23 375.422 Q 274.23 373.805 275.197 372.697 L 275.197 372.697 L 275.197 372.697 Q 276.164 371.59 278.133 371.59 L 278.133 371.59 L 278.133 371.59 Q 280.066 371.59 281.051 372.697 L 281.051 372.697 L 281.051 372.697 Q 282.035 373.805 282.035 375.422 L 282.035 375.422 L 282.035 375.422 Q 282.035 377.004 281.051 378.059 L 281.051 378.059 L 281.051 378.059 Q 280.066 379.113 278.133 379.113 L 278.133 379.113 L 278.133 379.113 Q 276.164 379.113 275.197 378.059 L 275.197 378.059 L 275.197 378.059 Q 274.23 377.004 274.23 375.422 Z  M 336.105 423.445 L 329.32 423.445 L 329.32 423.445 Q 328.934 422.707 328.705 421.6 L 328.705 421.6 L 328.705 421.6 Q 328.477 420.492 328.371 419.297 L 328.371 419.297 L 328.371 419.297 Q 327.387 420.281 326.174 421.16 L 326.174 421.16 L 326.174 421.16 Q 324.961 422.039 323.502 422.707 L 323.502 422.707 L 323.502 422.707 Q 322.043 423.375 320.391 423.762 L 320.391 423.762 L 320.391 423.762 Q 318.738 424.148 316.875 424.148 L 316.875 424.148 L 316.875 424.148 Q 313.852 424.148 311.408 423.27 L 311.408 423.27 L 311.408 423.27 Q 308.965 422.391 307.26 420.896 L 307.26 420.896 L 307.26 420.896 Q 305.555 419.402 304.623 417.346 L 304.623 417.346 L 304.623 417.346 Q 303.691 415.289 303.691 412.898 L 303.691 412.898 L 303.691 412.898 Q 303.691 409.77 304.939 407.414 L 304.939 407.414 L 304.939 407.414 Q 306.188 405.059 308.473 403.494 L 308.473 403.494 L 308.473 403.494 Q 310.758 401.93 313.975 401.156 L 313.975 401.156 L 313.975 401.156 Q 317.191 400.383 321.164 400.383 L 321.164 400.383 L 328.266 400.383 L 328.266 397.395 L 328.266 397.395 Q 328.266 395.672 327.633 394.301 L 327.633 394.301 L 327.633 394.301 Q 327 392.93 325.84 391.963 L 325.84 391.963 L 325.84 391.963 Q 324.68 390.996 323.01 390.469 L 323.01 390.469 L 323.01 390.469 Q 321.34 389.941 319.266 389.941 L 319.266 389.941 L 319.266 389.941 Q 317.332 389.941 315.803 390.434 L 315.803 390.434 L 315.803 390.434 Q 314.273 390.926 313.219 391.734 L 313.219 391.734 L 313.219 391.734 Q 312.164 392.543 311.584 393.65 L 311.584 393.65 L 311.584 393.65 Q 311.004 394.758 311.004 395.953 L 311.004 395.953 L 304.465 395.953 L 304.465 395.953 Q 304.5 393.879 305.537 391.875 L 305.537 391.875 L 305.537 391.875 Q 306.574 389.871 308.525 388.271 L 308.525 388.271 L 308.525 388.271 Q 310.477 386.672 313.271 385.688 L 313.271 385.688 L 313.271 385.688 Q 316.066 384.703 319.617 384.703 L 319.617 384.703 L 319.617 384.703 Q 322.852 384.703 325.629 385.494 L 325.629 385.494 L 325.629 385.494 Q 328.406 386.285 330.428 387.885 L 330.428 387.885 L 330.428 387.885 Q 332.449 389.484 333.609 391.875 L 333.609 391.875 L 333.609 391.875 Q 334.77 394.266 334.77 397.465 L 334.77 397.465 L 334.77 415.148 L 334.77 415.148 Q 334.77 417.047 335.121 419.174 L 335.121 419.174 L 335.121 419.174 Q 335.473 421.301 336.105 422.883 L 336.105 422.883 L 336.105 423.445 L 336.105 423.445 Z  M 317.824 418.488 L 317.824 418.488 L 317.824 418.488 Q 319.723 418.488 321.375 417.996 L 321.375 417.996 L 321.375 417.996 Q 323.027 417.504 324.381 416.695 L 324.381 416.695 L 324.381 416.695 Q 325.734 415.887 326.719 414.85 L 326.719 414.85 L 326.719 414.85 Q 327.703 413.813 328.266 412.688 L 328.266 412.688 L 328.266 404.988 L 322.219 404.988 L 322.219 404.988 Q 316.523 404.988 313.359 406.676 L 313.359 406.676 L 313.359 406.676 Q 310.195 408.363 310.195 411.984 L 310.195 411.984 L 310.195 411.984 Q 310.195 413.391 310.67 414.586 L 310.67 414.586 L 310.67 414.586 Q 311.145 415.781 312.094 416.643 L 312.094 416.643 L 312.094 416.643 Q 313.043 417.504 314.484 417.996 L 314.484 417.996 L 314.484 417.996 Q 315.926 418.488 317.824 418.488 Z  M 348.551 375.105 L 348.551 369.445 L 367.992 369.445 L 367.992 417.82 L 380.402 417.82 L 380.402 423.445 L 348.551 423.445 L 348.551 417.82 L 361.488 417.82 L 361.488 375.105 L 348.551 375.105 L 348.551 375.105 Z " fill-rule="evenodd" fill="rgb(255,255,225)"/></g></svg>