<?xml version="1.0" standalone="no"?><!-- Generator: Gravit.io --><svg xmlns="http://www.w3.org/2000/svg" xmlns:xlink="http://www.w3.org/1999/xlink" style="isolation:isolate" viewBox="0 0 512 512" width="512" height="512"><defs><clipPath id="_clipPath_FnbbCTlT7i1zHLCuCF6adFzAs7PfXJ2Z"><rect width="512" height="512"/></clipPath></defs><g clip-path="url(#_clipPath_FnbbCTlT7i1zHLCuCF6adFzAs7PfXJ2Z)"><rect x="0" y="0" width="512" height="512" transform="matrix(1,0,0,1,0,0)" fill="rgb(255,87,34)"/><path d=" M 219.99 98.039 L 246.943 98.039 L 246.943 249.65 L 246.943 249.65 Q 246.65 279.973 229.365 297.111 L 229.365 297.111 L 229.365 297.111 Q 212.08 314.25 181.172 314.25 L 181.172 314.25 L 181.172 314.25 Q 149.531 314.25 132.832 297.478 L 132.832 297.478 L 132.832 297.478 Q 116.133 280.705 115.84 249.65 L 115.84 249.65 L 115.84 98.039 L 142.5 98.039 L 142.5 248.625 L 142.5 248.625 Q 142.5 270.158 151.655 280.778 L 151.655 280.778 L 151.655 280.778 Q 160.811 291.398 181.172 291.398 L 181.172 291.398 L 181.172 291.398 Q 201.68 291.398 210.835 280.778 L 210.835 280.778 L 210.835 280.778 Q 219.99 270.158 219.99 248.625 L 219.99 248.625 L 219.99 98.039 L 219.99 98.039 Z  M 399.434 224.016 L 399.434 239.689 L 399.434 239.689 Q 399.434 276.75 386.104 295.5 L 386.104 295.5 L 386.104 295.5 Q 372.773 314.25 347.432 314.25 L 347.432 314.25 L 347.432 314.25 Q 322.236 314.25 309.639 292.57 L 309.639 292.57 L 308.32 311.32 L 284.736 311.32 L 284.736 86.32 L 310.518 86.32 L 310.518 170.256 L 310.518 170.256 Q 323.262 149.895 347.139 149.895 L 347.139 149.895 L 347.139 149.895 Q 373.213 149.895 386.25 168.352 L 386.25 168.352 L 386.25 168.352 Q 399.287 186.809 399.434 224.016 L 399.434 224.016 L 399.434 224.016 Z  M 373.652 240.861 L 373.652 224.895 L 373.652 224.895 Q 373.652 196.77 365.815 184.831 L 365.815 184.831 L 365.815 184.831 Q 357.979 172.893 340.4 172.893 L 340.4 172.893 L 340.4 172.893 Q 320.332 172.893 310.518 194.572 L 310.518 194.572 L 310.518 270.012 L 310.518 270.012 Q 320.186 291.398 340.693 291.398 L 340.693 291.398 L 340.693 291.398 Q 358.271 291.398 365.889 279.094 L 365.889 279.094 L 365.889 279.094 Q 373.506 266.789 373.652 240.861 L 373.652 240.861 L 373.652 240.861 Z " fill-rule="evenodd" fill="rgb(255,255,225)"/><path d=" M 183.861 390.012 L 160.904 418.137 L 185.127 418.137 L 185.127 423.445 L 152.607 423.445 L 152.607 418.664 L 175.318 390.785 L 152.924 390.785 L 152.924 385.406 L 183.861 385.406 L 183.861 390.012 L 183.861 390.012 Z  M 213.111 424.148 L 213.111 424.148 L 213.111 424.148 Q 209.104 424.148 205.746 422.777 L 205.746 422.777 L 205.746 422.777 Q 202.389 421.406 199.998 418.945 L 199.998 418.945 L 199.998 418.945 Q 197.607 416.484 196.271 413.109 L 196.271 413.109 L 196.271 413.109 Q 194.936 409.734 194.936 405.762 L 194.936 405.762 L 194.936 404.285 L 194.936 404.285 Q 194.936 399.68 196.412 396.041 L 196.412 396.041 L 196.412 396.041 Q 197.889 392.402 200.332 389.889 L 200.332 389.889 L 200.332 389.889 Q 202.775 387.375 205.887 386.039 L 205.887 386.039 L 205.887 386.039 Q 208.998 384.703 212.268 384.703 L 212.268 384.703 L 212.268 384.703 Q 216.381 384.703 219.457 386.127 L 219.457 386.127 L 219.457 386.127 Q 222.533 387.551 224.572 390.064 L 224.572 390.064 L 224.572 390.064 Q 226.611 392.578 227.613 395.988 L 227.613 395.988 L 227.613 395.988 Q 228.615 399.398 228.615 403.371 L 228.615 403.371 L 228.615 406.289 L 201.439 406.289 L 201.439 406.289 Q 201.545 408.891 202.441 411.176 L 202.441 411.176 L 202.441 411.176 Q 203.338 413.461 204.902 415.166 L 204.902 415.166 L 204.902 415.166 Q 206.467 416.871 208.646 417.855 L 208.646 417.855 L 208.646 417.855 Q 210.826 418.84 213.463 418.84 L 213.463 418.84 L 213.463 418.84 Q 216.943 418.84 219.65 417.434 L 219.65 417.434 L 219.65 417.434 Q 222.357 416.027 224.15 413.707 L 224.15 413.707 L 228.123 416.801 L 228.123 416.801 Q 227.174 418.242 225.75 419.561 L 225.75 419.561 L 225.75 419.561 Q 224.326 420.879 222.463 421.898 L 222.463 421.898 L 222.463 421.898 Q 220.6 422.918 218.244 423.533 L 218.244 423.533 L 218.244 423.533 Q 215.889 424.148 213.111 424.148 Z  M 212.268 390.047 L 212.268 390.047 L 212.268 390.047 Q 210.299 390.047 208.541 390.768 L 208.541 390.768 L 208.541 390.768 Q 206.783 391.488 205.377 392.877 L 205.377 392.877 L 205.377 392.877 Q 203.971 394.266 203.004 396.287 L 203.004 396.287 L 203.004 396.287 Q 202.037 398.309 201.65 400.945 L 201.65 400.945 L 222.111 400.945 L 222.111 400.453 L 222.111 400.453 Q 222.006 398.555 221.391 396.691 L 221.391 396.691 L 221.391 396.691 Q 220.775 394.828 219.58 393.352 L 219.58 393.352 L 219.58 393.352 Q 218.385 391.875 216.574 390.961 L 216.574 390.961 L 216.574 390.961 Q 214.764 390.047 212.268 390.047 Z  M 264.791 413.355 L 264.791 413.355 L 264.791 413.355 Q 264.791 412.195 264.334 411.264 L 264.334 411.264 L 264.334 411.264 Q 263.877 410.332 262.787 409.559 L 262.787 409.559 L 262.787 409.559 Q 261.697 408.785 259.904 408.135 L 259.904 408.135 L 259.904 408.135 Q 258.111 407.484 255.439 406.957 L 255.439 406.957 L 255.439 406.957 Q 252.17 406.289 249.48 405.34 L 249.48 405.34 L 249.48 405.34 Q 246.791 404.391 244.875 403.072 L 244.875 403.072 L 244.875 403.072 Q 242.959 401.754 241.904 399.979 L 241.904 399.979 L 241.904 399.979 Q 240.85 398.203 240.85 395.848 L 240.85 395.848 L 240.85 395.848 Q 240.85 393.527 241.939 391.506 L 241.939 391.506 L 241.939 391.506 Q 243.029 389.484 244.998 387.973 L 244.998 387.973 L 244.998 387.973 Q 246.967 386.461 249.691 385.582 L 249.691 385.582 L 249.691 385.582 Q 252.416 384.703 255.686 384.703 L 255.686 384.703 L 255.686 384.703 Q 259.201 384.703 262.014 385.617 L 262.014 385.617 L 262.014 385.617 Q 264.826 386.531 266.795 388.148 L 266.795 388.148 L 266.795 388.148 Q 268.764 389.766 269.836 391.928 L 269.836 391.928 L 269.836 391.928 Q 270.908 394.09 270.908 396.586 L 270.908 396.586 L 264.404 396.586 L 264.404 396.586 Q 264.404 395.355 263.771 394.178 L 263.771 394.178 L 263.771 394.178 Q 263.139 393 262.014 392.086 L 262.014 392.086 L 262.014 392.086 Q 260.889 391.172 259.289 390.609 L 259.289 390.609 L 259.289 390.609 Q 257.689 390.047 255.686 390.047 L 255.686 390.047 L 255.686 390.047 Q 253.611 390.047 252.047 390.504 L 252.047 390.504 L 252.047 390.504 Q 250.482 390.961 249.445 391.734 L 249.445 391.734 L 249.445 391.734 Q 248.408 392.508 247.881 393.527 L 247.881 393.527 L 247.881 393.527 Q 247.354 394.547 247.354 395.637 L 247.354 395.637 L 247.354 395.637 Q 247.354 396.762 247.775 397.641 L 247.775 397.641 L 247.775 397.641 Q 248.197 398.52 249.234 399.223 L 249.234 399.223 L 249.234 399.223 Q 250.271 399.926 252.012 400.488 L 252.012 400.488 L 252.012 400.488 Q 253.752 401.051 256.424 401.578 L 256.424 401.578 L 256.424 401.578 Q 259.939 402.316 262.717 403.283 L 262.717 403.283 L 262.717 403.283 Q 265.494 404.25 267.393 405.604 L 267.393 405.604 L 267.393 405.604 Q 269.291 406.957 270.293 408.75 L 270.293 408.75 L 270.293 408.75 Q 271.295 410.543 271.295 412.898 L 271.295 412.898 L 271.295 412.898 Q 271.295 415.43 270.152 417.504 L 270.152 417.504 L 270.152 417.504 Q 269.01 419.578 266.971 421.055 L 266.971 421.055 L 266.971 421.055 Q 264.932 422.531 262.084 423.34 L 262.084 423.34 L 262.084 423.34 Q 259.236 424.148 255.861 424.148 L 255.861 424.148 L 255.861 424.148 Q 251.994 424.148 248.971 423.111 L 248.971 423.111 L 248.971 423.111 Q 245.947 422.074 243.855 420.369 L 243.855 420.369 L 243.855 420.369 Q 241.764 418.664 240.656 416.414 L 240.656 416.414 L 240.656 416.414 Q 239.549 414.164 239.549 411.738 L 239.549 411.738 L 246.053 411.738 L 246.053 411.738 Q 246.193 413.742 247.125 415.113 L 247.125 415.113 L 247.125 415.113 Q 248.057 416.484 249.445 417.328 L 249.445 417.328 L 249.445 417.328 Q 250.834 418.172 252.521 418.523 L 252.521 418.523 L 252.521 418.523 Q 254.209 418.875 255.861 418.875 L 255.861 418.875 L 255.861 418.875 Q 259.975 418.875 262.365 417.363 L 262.365 417.363 L 262.365 417.363 Q 264.756 415.852 264.791 413.355 Z  M 291.58 376.195 L 298.119 376.195 L 298.119 385.406 L 312.604 385.406 L 312.604 390.434 L 298.119 390.434 L 298.119 411.105 L 298.119 411.105 Q 298.119 413.32 298.682 414.762 L 298.682 414.762 L 298.682 414.762 Q 299.244 416.203 300.229 417.064 L 300.229 417.064 L 300.229 417.064 Q 301.213 417.926 302.496 418.277 L 302.496 418.277 L 302.496 418.277 Q 303.779 418.629 305.221 418.629 L 305.221 418.629 L 305.221 418.629 Q 306.275 418.629 307.4 418.506 L 307.4 418.506 L 307.4 418.506 Q 308.525 418.383 309.598 418.207 L 309.598 418.207 L 309.598 418.207 Q 310.67 418.031 311.602 417.838 L 311.602 417.838 L 311.602 417.838 Q 312.533 417.645 313.131 417.504 L 313.131 417.504 L 314.045 422.109 L 314.045 422.109 Q 313.236 422.602 312.076 422.971 L 312.076 422.971 L 312.076 422.971 Q 310.916 423.34 309.545 423.604 L 309.545 423.604 L 309.545 423.604 Q 308.174 423.867 306.645 424.008 L 306.645 424.008 L 306.645 424.008 Q 305.115 424.148 303.604 424.148 L 303.604 424.148 L 303.604 424.148 Q 301.072 424.148 298.875 423.428 L 298.875 423.428 L 298.875 423.428 Q 296.678 422.707 295.061 421.143 L 295.061 421.143 L 295.061 421.143 Q 293.443 419.578 292.512 417.1 L 292.512 417.1 L 292.512 417.1 Q 291.58 414.621 291.58 411.105 L 291.58 411.105 L 291.58 390.434 L 281.596 390.434 L 281.596 385.406 L 291.58 385.406 L 291.58 376.195 L 291.58 376.195 Z  M 329.479 385.406 L 339.92 409.945 L 341.607 414.551 L 353.209 385.406 L 360.486 385.406 L 341.186 429.316 L 341.186 429.316 Q 340.518 430.793 339.48 432.445 L 339.48 432.445 L 339.48 432.445 Q 338.443 434.098 336.967 435.504 L 336.967 435.504 L 336.967 435.504 Q 335.49 436.91 333.521 437.859 L 333.521 437.859 L 333.521 437.859 Q 331.553 438.809 328.986 438.809 L 328.986 438.809 L 328.986 438.809 Q 328.529 438.809 327.967 438.756 L 327.967 438.756 L 327.967 438.756 Q 327.404 438.703 326.842 438.615 L 326.842 438.615 L 326.842 438.615 Q 326.279 438.527 325.787 438.422 L 325.787 438.422 L 325.787 438.422 Q 325.295 438.316 324.979 438.246 L 324.979 438.246 L 326.033 432.938 L 326.033 432.938 Q 326.279 432.938 326.701 432.973 L 326.701 432.973 L 326.701 432.973 Q 327.123 433.008 327.58 433.043 L 327.58 433.043 L 327.58 433.043 Q 328.037 433.078 328.459 433.096 L 328.459 433.096 L 328.459 433.096 Q 328.881 433.113 329.127 433.113 L 329.127 433.113 L 329.127 433.113 Q 330.463 433.113 331.57 432.375 L 331.57 432.375 L 331.57 432.375 Q 332.678 431.637 333.539 430.617 L 333.539 430.617 L 333.539 430.617 Q 334.4 429.598 335.016 428.508 L 335.016 428.508 L 335.016 428.508 Q 335.631 427.418 335.982 426.715 L 335.982 426.715 L 338.584 421.652 L 322.201 385.406 L 329.479 385.406 L 329.479 385.406 Z " fill-rule="evenodd" fill="rgb(255,255,225)"/></g></svg>