<?xml version="1.0" standalone="no"?><!-- Generator: Gravit.io --><svg xmlns="http://www.w3.org/2000/svg" xmlns:xlink="http://www.w3.org/1999/xlink" style="isolation:isolate" viewBox="0 0 128 128" width="128" height="128"><defs><clipPath id="_clipPath_dZfaCfl5cJIlzZqh8WAAoXvaRM8LKBmy"><rect width="128" height="128"/></clipPath></defs><g clip-path="url(#_clipPath_dZfaCfl5cJIlzZqh8WAAoXvaRM8LKBmy)"><rect width="128" height="128" style="fill:rgb(233,30,99)"/><path d=" M 63.707 72.438 L 46.891 72.438 L 46.891 106.656 L 36.051 106.656 L 36.051 21.344 L 63.707 21.344 L 63.707 21.344 Q 69.449 21.461 74.576 23.16 L 74.576 23.16 L 74.576 23.16 Q 79.703 24.859 83.57 28.082 L 83.57 28.082 L 83.57 28.082 Q 87.438 31.305 89.693 36.051 L 89.693 36.051 L 89.693 36.051 Q 91.949 40.797 91.949 46.949 L 91.949 46.949 L 91.949 46.949 Q 91.949 53.102 89.693 57.818 L 89.693 57.818 L 89.693 57.818 Q 87.438 62.535 83.57 65.758 L 83.57 65.758 L 83.57 65.758 Q 79.703 68.98 74.576 70.68 L 74.576 70.68 L 74.576 70.68 Q 69.449 72.379 63.707 72.438 L 63.707 72.438 Z  M 46.891 30.25 L 46.891 63.531 L 63.707 63.531 L 63.707 63.531 Q 67.457 63.473 70.621 62.33 L 70.621 62.33 L 70.621 62.33 Q 73.785 61.188 76.129 59.078 L 76.129 59.078 L 76.129 59.078 Q 78.473 56.969 79.791 53.951 L 79.791 53.951 L 79.791 53.951 Q 81.109 50.934 81.109 47.066 L 81.109 47.066 L 81.109 47.066 Q 81.109 43.199 79.791 40.094 L 79.791 40.094 L 79.791 40.094 Q 78.473 36.988 76.158 34.82 L 76.158 34.82 L 76.158 34.82 Q 73.844 32.652 70.65 31.48 L 70.65 31.48 L 70.65 31.48 Q 67.457 30.309 63.707 30.25 L 63.707 30.25 L 46.891 30.25 Z " fill-rule="evenodd" fill="rgb(255,255,255)"/></g></svg>