<?xml version="1.0" standalone="no"?><!-- Generator: Gravit.io --><svg xmlns="http://www.w3.org/2000/svg" xmlns:xlink="http://www.w3.org/1999/xlink" style="isolation:isolate" viewBox="0 0 128 128" width="128" height="128"><defs><clipPath id="_clipPath_WA2kV5SLHRGWOeppOAlRn5M2bE2Ryct2"><rect width="128" height="128"/></clipPath></defs><g clip-path="url(#_clipPath_WA2kV5SLHRGWOeppOAlRn5M2bE2Ryct2)"><rect width="128" height="128" style="fill:rgb(124,179,66)"/><path d=" M 93.59 53.688 L 93.59 61.188 L 93.59 61.188 Q 93.531 65.934 92.77 70.738 L 92.77 70.738 L 92.77 70.738 Q 92.008 75.543 90.455 79.996 L 90.455 79.996 L 90.455 79.996 Q 88.902 84.449 86.471 88.346 L 86.471 88.346 L 86.471 88.346 Q 84.039 92.242 80.641 95.113 L 80.641 95.113 L 95.348 107.359 L 87.906 114.449 L 71.031 100.152 L 71.031 100.152 Q 67.398 101.207 63.18 101.207 L 63.18 101.207 L 63.18 101.207 Q 57.73 101.207 53.395 99.537 L 53.395 99.537 L 53.395 99.537 Q 49.059 97.867 45.689 94.996 L 45.689 94.996 L 45.689 94.996 Q 42.32 92.125 39.859 88.229 L 39.859 88.229 L 39.859 88.229 Q 37.398 84.332 35.816 79.879 L 35.816 79.879 L 35.816 79.879 Q 34.234 75.426 33.473 70.65 L 33.473 70.65 L 33.473 70.65 Q 32.711 65.875 32.652 61.188 L 32.652 61.188 L 32.652 53.688 L 32.652 53.688 Q 32.711 49 33.473 44.195 L 33.473 44.195 L 33.473 44.195 Q 34.234 39.391 35.816 34.938 L 35.816 34.938 L 35.816 34.938 Q 37.398 30.484 39.801 26.588 L 39.801 26.588 L 39.801 26.588 Q 42.203 22.691 45.572 19.791 L 45.572 19.791 L 45.572 19.791 Q 48.941 16.891 53.307 15.221 L 53.307 15.221 L 53.307 15.221 Q 57.672 13.551 63.121 13.551 L 63.121 13.551 L 63.121 13.551 Q 68.57 13.551 72.936 15.221 L 72.936 15.221 L 72.936 15.221 Q 77.301 16.891 80.67 19.762 L 80.67 19.762 L 80.67 19.762 Q 84.039 22.633 86.471 26.529 L 86.471 26.529 L 86.471 26.529 Q 88.902 30.426 90.455 34.879 L 90.455 34.879 L 90.455 34.879 Q 92.008 39.332 92.77 44.166 L 92.77 44.166 L 92.77 44.166 Q 93.531 49 93.59 53.688 L 93.59 53.688 Z  M 82.809 61.188 L 82.809 53.57 L 82.809 53.57 Q 82.75 50.348 82.428 46.861 L 82.428 46.861 L 82.428 46.861 Q 82.105 43.375 81.256 40.006 L 81.256 40.006 L 81.256 40.006 Q 80.406 36.637 78.971 33.59 L 78.971 33.59 L 78.971 33.59 Q 77.535 30.543 75.367 28.229 L 75.367 28.229 L 75.367 28.229 Q 73.199 25.914 70.182 24.566 L 70.182 24.566 L 70.182 24.566 Q 67.164 23.219 63.121 23.219 L 63.121 23.219 L 63.121 23.219 Q 59.137 23.219 56.148 24.596 L 56.148 24.596 L 56.148 24.596 Q 53.16 25.973 50.992 28.287 L 50.992 28.287 L 50.992 28.287 Q 48.824 30.602 47.389 33.648 L 47.389 33.648 L 47.389 33.648 Q 45.953 36.695 45.074 40.064 L 45.074 40.064 L 45.074 40.064 Q 44.195 43.434 43.814 46.92 L 43.814 46.92 L 43.814 46.92 Q 43.434 50.406 43.434 53.57 L 43.434 53.57 L 43.434 61.188 L 43.434 61.188 Q 43.434 64.352 43.814 67.838 L 43.814 67.838 L 43.814 67.838 Q 44.195 71.324 45.074 74.723 L 45.074 74.723 L 45.074 74.723 Q 45.953 78.121 47.389 81.168 L 47.389 81.168 L 47.389 81.168 Q 48.824 84.215 50.992 86.559 L 50.992 86.559 L 50.992 86.559 Q 53.16 88.902 56.178 90.279 L 56.178 90.279 L 56.178 90.279 Q 59.195 91.656 63.18 91.656 L 63.18 91.656 L 63.18 91.656 Q 67.223 91.656 70.24 90.279 L 70.24 90.279 L 70.24 90.279 Q 73.258 88.902 75.426 86.588 L 75.426 86.588 L 75.426 86.588 Q 77.594 84.273 79 81.227 L 79 81.227 L 79 81.227 Q 80.406 78.18 81.256 74.781 L 81.256 74.781 L 81.256 74.781 Q 82.105 71.383 82.428 67.896 L 82.428 67.896 L 82.428 67.896 Q 82.75 64.41 82.809 61.188 L 82.809 61.188 Z " fill-rule="evenodd" fill="rgb(255,255,255)"/></g></svg>