<?xml version="1.0" standalone="no"?><!-- Generator: Gravit.io --><svg xmlns="http://www.w3.org/2000/svg" xmlns:xlink="http://www.w3.org/1999/xlink" style="isolation:isolate" viewBox="0 0 128 128" width="128" height="128"><defs><clipPath id="_clipPath_nrzd5zO8lKPsG1UoRJV5prQruKO7DFCu"><rect width="128" height="128"/></clipPath></defs><g clip-path="url(#_clipPath_nrzd5zO8lKPsG1UoRJV5prQruKO7DFCu)"><rect width="128" height="128" style="fill:rgb(100,221,23)"/><path d=" M 81.256 20.758 L 91.744 20.758 L 91.861 78.531 L 91.861 78.531 Q 91.744 84.508 89.693 89.723 L 89.693 89.723 L 89.693 89.723 Q 87.643 94.938 83.951 98.834 L 83.951 98.834 L 83.951 98.834 Q 80.26 102.73 75.162 104.986 L 75.162 104.986 L 75.162 104.986 Q 70.064 107.242 63.971 107.242 L 63.971 107.242 L 63.971 107.242 Q 57.76 107.242 52.662 105.016 L 52.662 105.016 L 52.662 105.016 Q 47.564 102.789 43.932 98.893 L 43.932 98.893 L 43.932 98.893 Q 40.299 94.996 38.248 89.752 L 38.248 89.752 L 38.248 89.752 Q 36.197 84.508 36.139 78.531 L 36.139 78.531 L 36.256 20.758 L 46.568 20.758 L 46.803 78.531 L 46.803 78.531 Q 46.861 82.34 48.004 85.855 L 48.004 85.855 L 48.004 85.855 Q 49.146 89.371 51.285 92.066 L 51.285 92.066 L 51.285 92.066 Q 53.424 94.762 56.617 96.402 L 56.617 96.402 L 56.617 96.402 Q 59.811 98.043 63.971 98.043 L 63.971 98.043 L 63.971 98.043 Q 68.131 98.043 71.295 96.432 L 71.295 96.432 L 71.295 96.432 Q 74.459 94.82 76.598 92.096 L 76.598 92.096 L 76.598 92.096 Q 78.736 89.371 79.85 85.855 L 79.85 85.855 L 79.85 85.855 Q 80.963 82.34 81.08 78.531 L 81.08 78.531 L 81.256 20.758 Z " fill="rgb(255,255,255)"/></g></svg>