<?xml version="1.0" standalone="no"?><!-- Generator: Gravit.io --><svg xmlns="http://www.w3.org/2000/svg" xmlns:xlink="http://www.w3.org/1999/xlink" style="isolation:isolate" viewBox="0 0 64 64" width="64" height="64"><defs><clipPath id="_clipPath_nHYlZIMQvOq3AM2n7GmsX4bhAjcjSAhS"><rect width="64" height="64"/></clipPath></defs><g clip-path="url(#_clipPath_nHYlZIMQvOq3AM2n7GmsX4bhAjcjSAhS)"><path d=" M 38.846 50.855 L 38.846 53.287 L 38.846 53.287 Q 38.846 56.148 37.493 57.73 L 37.493 57.73 L 37.493 57.73 Q 36.141 59.313 33.738 59.313 L 33.738 59.313 L 33.738 59.313 Q 31.346 59.313 29.979 57.745 L 29.979 57.745 L 29.979 57.745 Q 28.611 56.178 28.592 53.355 L 28.592 53.355 L 28.592 50.924 L 28.592 50.924 Q 28.592 47.994 29.949 46.349 L 29.949 46.349 L 29.949 46.349 Q 31.307 44.703 33.719 44.703 L 33.719 44.703 L 33.719 44.703 Q 36.092 44.703 37.459 46.319 L 37.459 46.319 L 37.459 46.319 Q 38.826 47.936 38.846 50.855 L 38.846 50.855 L 38.846 50.855 Z  M 35.965 53.375 L 35.965 50.904 L 35.965 50.904 Q 35.965 48.98 35.418 48.043 L 35.418 48.043 L 35.418 48.043 Q 34.871 47.105 33.719 47.105 L 33.719 47.105 L 33.719 47.105 Q 32.576 47.105 32.029 48.009 L 32.029 48.009 L 32.029 48.009 Q 31.482 48.912 31.463 50.758 L 31.463 50.758 L 31.463 53.287 L 31.463 53.287 Q 31.463 55.152 32.02 56.036 L 32.02 56.036 L 32.02 56.036 Q 32.576 56.92 33.738 56.92 L 33.738 56.92 L 33.738 56.92 Q 34.861 56.92 35.408 56.056 L 35.408 56.056 L 35.408 56.056 Q 35.955 55.191 35.965 53.375 L 35.965 53.375 L 35.965 53.375 Z  M 45.691 54.117 L 43.777 54.117 L 43.777 59.117 L 40.906 59.117 L 40.906 44.898 L 45.75 44.898 L 45.75 44.898 Q 47.859 44.898 49.114 46.207 L 49.114 46.207 L 49.114 46.207 Q 50.369 47.516 50.369 49.605 L 50.369 49.605 L 50.369 49.605 Q 50.369 51.695 49.129 52.906 L 49.129 52.906 L 49.129 52.906 Q 47.889 54.117 45.691 54.117 L 45.691 54.117 L 45.691 54.117 Z  M 43.777 47.291 L 43.777 51.725 L 45.75 51.725 L 45.75 51.725 Q 46.57 51.725 47.02 51.188 L 47.02 51.188 L 47.02 51.188 Q 47.469 50.65 47.469 49.625 L 47.469 49.625 L 47.469 49.625 Q 47.469 48.561 47.01 47.931 L 47.01 47.931 L 47.01 47.931 Q 46.551 47.301 45.779 47.291 L 45.779 47.291 L 43.777 47.291 L 43.777 47.291 Z  M 61.492 44.898 L 61.492 47.291 L 57.977 47.291 L 57.977 59.117 L 55.096 59.117 L 55.096 47.291 L 51.639 47.291 L 51.639 44.898 L 61.492 44.898 L 61.492 44.898 Z " fill-rule="evenodd" fill="rgb(255,255,255)"/></g></svg>