<?xml version="1.0" standalone="no"?><!-- Generator: Gravit.io --><svg xmlns="http://www.w3.org/2000/svg" xmlns:xlink="http://www.w3.org/1999/xlink" style="isolation:isolate" viewBox="0 0 64 64" width="64" height="64"><defs><clipPath id="_clipPath_8g75teFZ69XiVUqjGta5Oca1rTxiI8IT"><rect width="64" height="64"/></clipPath></defs><g clip-path="url(#_clipPath_8g75teFZ69XiVUqjGta5Oca1rTxiI8IT)"><path d=" M 38.621 50.65 L 38.621 52.965 L 34.148 52.965 L 34.148 56.734 L 39.441 56.734 L 39.441 59.117 L 31.277 59.117 L 31.277 44.898 L 39.422 44.898 L 39.422 47.291 L 34.148 47.291 L 34.148 50.65 L 38.621 50.65 L 38.621 50.65 Z  M 43.631 44.898 L 45.545 49.781 L 47.459 44.898 L 50.75 44.898 L 47.41 51.949 L 50.828 59.117 L 47.498 59.117 L 45.545 54.146 L 43.602 59.117 L 40.271 59.117 L 43.689 51.949 L 40.34 44.898 L 43.631 44.898 L 43.631 44.898 Z  M 61.492 44.898 L 61.492 47.291 L 57.977 47.291 L 57.977 59.117 L 55.096 59.117 L 55.096 47.291 L 51.639 47.291 L 51.639 44.898 L 61.492 44.898 L 61.492 44.898 Z " fill-rule="evenodd" fill="rgb(255,255,255)"/></g></svg>