<?xml version="1.0" standalone="no"?><!-- Generator: Gravit.io --><svg xmlns="http://www.w3.org/2000/svg" xmlns:xlink="http://www.w3.org/1999/xlink" style="isolation:isolate" viewBox="0 0 64 64" width="64" height="64"><defs><clipPath id="_clipPath_US8CDC0b8NplGonKxSIzQBEGLBRh9ypN"><rect width="64" height="64"/></clipPath></defs><g clip-path="url(#_clipPath_US8CDC0b8NplGonKxSIzQBEGLBRh9ypN)"><path d=" M 37.625 44.898 L 37.625 59.117 L 34.754 59.117 L 34.754 44.898 L 37.625 44.898 L 37.625 44.898 Z  M 49.979 44.898 L 49.979 59.117 L 47.107 59.117 L 42.908 49.791 L 42.908 59.117 L 40.037 59.117 L 40.037 44.898 L 42.908 44.898 L 47.117 54.234 L 47.117 44.898 L 49.979 44.898 L 49.979 44.898 Z  M 61.492 44.898 L 61.492 47.291 L 57.977 47.291 L 57.977 59.117 L 55.096 59.117 L 55.096 47.291 L 51.639 47.291 L 51.639 44.898 L 61.492 44.898 L 61.492 44.898 Z " fill-rule="evenodd" fill="rgb(255,255,255)"/></g></svg>