<?xml version="1.0" standalone="no"?><!-- Generator: Gravit.io --><svg xmlns="http://www.w3.org/2000/svg" xmlns:xlink="http://www.w3.org/1999/xlink" style="isolation:isolate" viewBox="0 0 64 64" width="64" height="64"><defs><clipPath id="_clipPath_260RMvPt6cSSYy2IPsne8oq5gNNI6F20"><rect width="64" height="64"/></clipPath></defs><g clip-path="url(#_clipPath_260RMvPt6cSSYy2IPsne8oq5gNNI6F20)"><path d=" M 40.164 44.898 L 40.164 59.117 L 37.293 59.117 L 33.094 49.791 L 33.094 59.117 L 30.223 59.117 L 30.223 44.898 L 33.094 44.898 L 37.303 54.234 L 37.303 44.898 L 40.164 44.898 L 40.164 44.898 Z  M 49.813 50.65 L 49.813 52.965 L 45.34 52.965 L 45.34 56.734 L 50.633 56.734 L 50.633 59.117 L 42.469 59.117 L 42.469 44.898 L 50.613 44.898 L 50.613 47.291 L 45.34 47.291 L 45.34 50.65 L 49.813 50.65 L 49.813 50.65 Z  M 61.492 44.898 L 61.492 47.291 L 57.977 47.291 L 57.977 59.117 L 55.096 59.117 L 55.096 47.291 L 51.639 47.291 L 51.639 44.898 L 61.492 44.898 L 61.492 44.898 Z " fill-rule="evenodd" fill="rgb(255,255,255)"/></g></svg>