<?xml version="1.0" standalone="no"?><!-- Generator: Gravit.io --><svg xmlns="http://www.w3.org/2000/svg" xmlns:xlink="http://www.w3.org/1999/xlink" style="isolation:isolate" viewBox="0 0 512 512" width="512" height="512"><defs><clipPath id="_clipPath_jq5Hi9voKaOPXt9WIEZC0Thr5yqqxEN9"><rect width="512" height="512"/></clipPath></defs><g clip-path="url(#_clipPath_jq5Hi9voKaOPXt9WIEZC0Thr5yqqxEN9)"><rect x="0" y="0" width="512" height="512" transform="matrix(1,0,0,1,0,0)" fill="rgb(124,179,66)"/><path d=" M 181.099 98.039 L 208.052 98.039 L 208.052 249.65 L 208.052 249.65 Q 207.759 279.973 190.474 297.111 L 190.474 297.111 L 190.474 297.111 Q 173.188 314.25 142.28 314.25 L 142.28 314.25 L 142.28 314.25 Q 110.64 314.25 93.94 297.478 L 93.94 297.478 L 93.94 297.478 Q 77.241 280.705 76.948 249.65 L 76.948 249.65 L 76.948 98.039 L 103.608 98.039 L 103.608 248.625 L 103.608 248.625 Q 103.608 270.158 112.764 280.778 L 112.764 280.778 L 112.764 280.778 Q 121.919 291.398 142.28 291.398 L 142.28 291.398 L 142.28 291.398 Q 162.788 291.398 171.943 280.778 L 171.943 280.778 L 171.943 280.778 Q 181.099 270.158 181.099 248.625 L 181.099 248.625 L 181.099 98.039 L 181.099 98.039 Z  M 245.845 152.824 L 270.161 152.824 L 270.747 167.473 L 270.747 167.473 Q 285.249 149.895 308.979 149.895 L 308.979 149.895 L 308.979 149.895 Q 335.493 149.895 346.04 172.893 L 346.04 172.893 L 346.04 172.893 Q 360.981 149.895 387.642 149.895 L 387.642 149.895 L 387.642 149.895 Q 431.44 149.895 432.466 204.533 L 432.466 204.533 L 432.466 311.32 L 406.685 311.32 L 406.685 207.023 L 406.685 207.023 Q 406.685 189.738 400.532 181.315 L 400.532 181.315 L 400.532 181.315 Q 394.38 172.893 379.731 172.893 L 379.731 172.893 L 379.731 172.893 Q 368.013 172.893 360.688 181.975 L 360.688 181.975 L 360.688 181.975 Q 353.364 191.057 352.192 205.119 L 352.192 205.119 L 352.192 311.32 L 326.118 311.32 L 326.118 205.852 L 326.118 205.852 Q 325.679 172.893 299.312 172.893 L 299.312 172.893 L 299.312 172.893 Q 279.683 172.893 271.626 192.521 L 271.626 192.521 L 271.626 311.32 L 245.845 311.32 L 245.845 152.824 L 245.845 152.824 Z " fill-rule="evenodd" fill="rgb(255,255,225)"/><path d=" M 258.27 385.406 L 264.105 385.406 L 264.281 388.992 L 264.281 388.992 Q 265.441 386.988 267.322 385.863 L 267.322 385.863 L 267.322 385.863 Q 269.203 384.738 271.875 384.703 L 271.875 384.703 L 271.875 384.703 Q 277.113 384.703 278.871 388.781 L 278.871 388.781 L 278.871 388.781 Q 279.996 386.953 281.842 385.846 L 281.842 385.846 L 281.842 385.846 Q 283.688 384.738 286.324 384.703 L 286.324 384.703 L 286.324 384.703 Q 290.508 384.703 292.758 387.27 L 292.758 387.27 L 292.758 387.27 Q 295.008 389.836 295.008 395.039 L 295.008 395.039 L 295.008 423.445 L 288.82 423.445 L 288.82 394.969 L 288.82 394.969 Q 288.82 390.188 284.426 390.223 L 284.426 390.223 L 284.426 390.223 Q 283.266 390.223 282.422 390.539 L 282.422 390.539 L 282.422 390.539 Q 281.578 390.855 281.016 391.4 L 281.016 391.4 L 281.016 391.4 Q 280.453 391.945 280.137 392.666 L 280.137 392.666 L 280.137 392.666 Q 279.82 393.387 279.715 394.16 L 279.715 394.16 L 279.715 423.445 L 273.527 423.445 L 273.527 394.934 L 273.527 394.934 Q 273.527 392.648 272.508 391.418 L 272.508 391.418 L 272.508 391.418 Q 271.488 390.188 269.273 390.223 L 269.273 390.223 L 269.273 390.223 Q 267.234 390.223 266.109 391.031 L 266.109 391.031 L 266.109 391.031 Q 264.984 391.84 264.457 393.176 L 264.457 393.176 L 264.457 423.445 L 258.27 423.445 L 258.27 385.406 L 258.27 385.406 Z  M 336.105 423.445 L 329.32 423.445 L 329.32 423.445 Q 328.934 422.707 328.705 421.6 L 328.705 421.6 L 328.705 421.6 Q 328.477 420.492 328.371 419.297 L 328.371 419.297 L 328.371 419.297 Q 327.387 420.281 326.174 421.16 L 326.174 421.16 L 326.174 421.16 Q 324.961 422.039 323.502 422.707 L 323.502 422.707 L 323.502 422.707 Q 322.043 423.375 320.391 423.762 L 320.391 423.762 L 320.391 423.762 Q 318.738 424.148 316.875 424.148 L 316.875 424.148 L 316.875 424.148 Q 313.852 424.148 311.408 423.27 L 311.408 423.27 L 311.408 423.27 Q 308.965 422.391 307.26 420.896 L 307.26 420.896 L 307.26 420.896 Q 305.555 419.402 304.623 417.346 L 304.623 417.346 L 304.623 417.346 Q 303.691 415.289 303.691 412.898 L 303.691 412.898 L 303.691 412.898 Q 303.691 409.77 304.939 407.414 L 304.939 407.414 L 304.939 407.414 Q 306.188 405.059 308.473 403.494 L 308.473 403.494 L 308.473 403.494 Q 310.758 401.93 313.975 401.156 L 313.975 401.156 L 313.975 401.156 Q 317.191 400.383 321.164 400.383 L 321.164 400.383 L 328.266 400.383 L 328.266 397.395 L 328.266 397.395 Q 328.266 395.672 327.633 394.301 L 327.633 394.301 L 327.633 394.301 Q 327 392.93 325.84 391.963 L 325.84 391.963 L 325.84 391.963 Q 324.68 390.996 323.01 390.469 L 323.01 390.469 L 323.01 390.469 Q 321.34 389.941 319.266 389.941 L 319.266 389.941 L 319.266 389.941 Q 317.332 389.941 315.803 390.434 L 315.803 390.434 L 315.803 390.434 Q 314.273 390.926 313.219 391.734 L 313.219 391.734 L 313.219 391.734 Q 312.164 392.543 311.584 393.65 L 311.584 393.65 L 311.584 393.65 Q 311.004 394.758 311.004 395.953 L 311.004 395.953 L 304.465 395.953 L 304.465 395.953 Q 304.5 393.879 305.537 391.875 L 305.537 391.875 L 305.537 391.875 Q 306.574 389.871 308.525 388.271 L 308.525 388.271 L 308.525 388.271 Q 310.477 386.672 313.271 385.688 L 313.271 385.688 L 313.271 385.688 Q 316.066 384.703 319.617 384.703 L 319.617 384.703 L 319.617 384.703 Q 322.852 384.703 325.629 385.494 L 325.629 385.494 L 325.629 385.494 Q 328.406 386.285 330.428 387.885 L 330.428 387.885 L 330.428 387.885 Q 332.449 389.484 333.609 391.875 L 333.609 391.875 L 333.609 391.875 Q 334.77 394.266 334.77 397.465 L 334.77 397.465 L 334.77 415.148 L 334.77 415.148 Q 334.77 417.047 335.121 419.174 L 335.121 419.174 L 335.121 419.174 Q 335.473 421.301 336.105 422.883 L 336.105 422.883 L 336.105 423.445 L 336.105 423.445 Z  M 317.824 418.488 L 317.824 418.488 L 317.824 418.488 Q 319.723 418.488 321.375 417.996 L 321.375 417.996 L 321.375 417.996 Q 323.027 417.504 324.381 416.695 L 324.381 416.695 L 324.381 416.695 Q 325.734 415.887 326.719 414.85 L 326.719 414.85 L 326.719 414.85 Q 327.703 413.813 328.266 412.688 L 328.266 412.688 L 328.266 404.988 L 322.219 404.988 L 322.219 404.988 Q 316.523 404.988 313.359 406.676 L 313.359 406.676 L 313.359 406.676 Q 310.195 408.363 310.195 411.984 L 310.195 411.984 L 310.195 411.984 Q 310.195 413.391 310.67 414.586 L 310.67 414.586 L 310.67 414.586 Q 311.145 415.781 312.094 416.643 L 312.094 416.643 L 312.094 416.643 Q 313.043 417.504 314.484 417.996 L 314.484 417.996 L 314.484 417.996 Q 315.926 418.488 317.824 418.488 Z  M 356.391 376.195 L 362.93 376.195 L 362.93 385.406 L 377.414 385.406 L 377.414 390.434 L 362.93 390.434 L 362.93 411.105 L 362.93 411.105 Q 362.93 413.32 363.492 414.762 L 363.492 414.762 L 363.492 414.762 Q 364.055 416.203 365.039 417.064 L 365.039 417.064 L 365.039 417.064 Q 366.023 417.926 367.307 418.277 L 367.307 418.277 L 367.307 418.277 Q 368.59 418.629 370.031 418.629 L 370.031 418.629 L 370.031 418.629 Q 371.086 418.629 372.211 418.506 L 372.211 418.506 L 372.211 418.506 Q 373.336 418.383 374.408 418.207 L 374.408 418.207 L 374.408 418.207 Q 375.48 418.031 376.412 417.838 L 376.412 417.838 L 376.412 417.838 Q 377.344 417.645 377.941 417.504 L 377.941 417.504 L 378.855 422.109 L 378.855 422.109 Q 378.047 422.602 376.887 422.971 L 376.887 422.971 L 376.887 422.971 Q 375.727 423.34 374.355 423.604 L 374.355 423.604 L 374.355 423.604 Q 372.984 423.867 371.455 424.008 L 371.455 424.008 L 371.455 424.008 Q 369.926 424.148 368.414 424.148 L 368.414 424.148 L 368.414 424.148 Q 365.883 424.148 363.686 423.428 L 363.686 423.428 L 363.686 423.428 Q 361.488 422.707 359.871 421.143 L 359.871 421.143 L 359.871 421.143 Q 358.254 419.578 357.322 417.1 L 357.322 417.1 L 357.322 417.1 Q 356.391 414.621 356.391 411.105 L 356.391 411.105 L 356.391 390.434 L 346.406 390.434 L 346.406 385.406 L 356.391 385.406 L 356.391 376.195 L 356.391 376.195 Z  M 407.543 424.148 L 407.543 424.148 L 407.543 424.148 Q 403.535 424.148 400.178 422.777 L 400.178 422.777 L 400.178 422.777 Q 396.82 421.406 394.43 418.945 L 394.43 418.945 L 394.43 418.945 Q 392.039 416.484 390.703 413.109 L 390.703 413.109 L 390.703 413.109 Q 389.367 409.734 389.367 405.762 L 389.367 405.762 L 389.367 404.285 L 389.367 404.285 Q 389.367 399.68 390.844 396.041 L 390.844 396.041 L 390.844 396.041 Q 392.32 392.402 394.764 389.889 L 394.764 389.889 L 394.764 389.889 Q 397.207 387.375 400.318 386.039 L 400.318 386.039 L 400.318 386.039 Q 403.43 384.703 406.699 384.703 L 406.699 384.703 L 406.699 384.703 Q 410.813 384.703 413.889 386.127 L 413.889 386.127 L 413.889 386.127 Q 416.965 387.551 419.004 390.064 L 419.004 390.064 L 419.004 390.064 Q 421.043 392.578 422.045 395.988 L 422.045 395.988 L 422.045 395.988 Q 423.047 399.398 423.047 403.371 L 423.047 403.371 L 423.047 406.289 L 395.871 406.289 L 395.871 406.289 Q 395.977 408.891 396.873 411.176 L 396.873 411.176 L 396.873 411.176 Q 397.77 413.461 399.334 415.166 L 399.334 415.166 L 399.334 415.166 Q 400.898 416.871 403.078 417.855 L 403.078 417.855 L 403.078 417.855 Q 405.258 418.84 407.895 418.84 L 407.895 418.84 L 407.895 418.84 Q 411.375 418.84 414.082 417.434 L 414.082 417.434 L 414.082 417.434 Q 416.789 416.027 418.582 413.707 L 418.582 413.707 L 422.555 416.801 L 422.555 416.801 Q 421.605 418.242 420.182 419.561 L 420.182 419.561 L 420.182 419.561 Q 418.758 420.879 416.895 421.898 L 416.895 421.898 L 416.895 421.898 Q 415.031 422.918 412.676 423.533 L 412.676 423.533 L 412.676 423.533 Q 410.32 424.148 407.543 424.148 Z  M 406.699 390.047 L 406.699 390.047 L 406.699 390.047 Q 404.73 390.047 402.973 390.768 L 402.973 390.768 L 402.973 390.768 Q 401.215 391.488 399.809 392.877 L 399.809 392.877 L 399.809 392.877 Q 398.402 394.266 397.436 396.287 L 397.436 396.287 L 397.436 396.287 Q 396.469 398.309 396.082 400.945 L 396.082 400.945 L 416.543 400.945 L 416.543 400.453 L 416.543 400.453 Q 416.438 398.555 415.822 396.691 L 415.822 396.691 L 415.822 396.691 Q 415.207 394.828 414.012 393.352 L 414.012 393.352 L 414.012 393.352 Q 412.816 391.875 411.006 390.961 L 411.006 390.961 L 411.006 390.961 Q 409.195 390.047 406.699 390.047 Z  M 113.355 423.445 L 112.969 418.207 L 112.969 418.207 Q 111.07 421.02 108.223 422.584 L 108.223 422.584 L 108.223 422.584 Q 105.375 424.148 101.648 424.148 L 101.648 424.148 L 101.648 424.148 Q 98.66 424.148 96.234 423.217 L 96.234 423.217 L 96.234 423.217 Q 93.809 422.285 92.086 420.316 L 92.086 420.316 L 92.086 420.316 Q 90.363 418.348 89.432 415.307 L 89.432 415.307 L 89.432 415.307 Q 88.5 412.266 88.5 408.012 L 88.5 408.012 L 88.5 385.406 L 95.004 385.406 L 95.004 408.082 L 95.004 408.082 Q 95.004 411.176 95.496 413.215 L 95.496 413.215 L 95.496 413.215 Q 95.988 415.254 96.973 416.467 L 96.973 416.467 L 96.973 416.467 Q 97.957 417.68 99.381 418.172 L 99.381 418.172 L 99.381 418.172 Q 100.805 418.664 102.668 418.664 L 102.668 418.664 L 102.668 418.664 Q 106.641 418.664 109.084 417.047 L 109.084 417.047 L 109.084 417.047 Q 111.527 415.43 112.723 412.688 L 112.723 412.688 L 112.723 385.406 L 119.262 385.406 L 119.262 423.445 L 113.355 423.445 L 113.355 423.445 Z  M 163.734 404.109 L 163.734 404.848 L 163.734 404.848 Q 163.734 408.926 162.75 412.459 L 162.75 412.459 L 162.75 412.459 Q 161.766 415.992 159.867 418.594 L 159.867 418.594 L 159.867 418.594 Q 157.969 421.195 155.174 422.672 L 155.174 422.672 L 155.174 422.672 Q 152.379 424.148 148.758 424.148 L 148.758 424.148 L 148.758 424.148 Q 145.102 424.148 142.412 422.848 L 142.412 422.848 L 142.412 422.848 Q 139.723 421.547 137.824 419.121 L 137.824 419.121 L 137.508 423.445 L 131.531 423.445 L 131.531 369.445 L 138.035 369.445 L 138.035 389.484 L 138.035 389.484 Q 139.898 387.164 142.535 385.934 L 142.535 385.934 L 142.535 385.934 Q 145.172 384.703 148.688 384.703 L 148.688 384.703 L 148.688 384.703 Q 152.344 384.703 155.156 386.145 L 155.156 386.145 L 155.156 386.145 Q 157.969 387.586 159.867 390.152 L 159.867 390.152 L 159.867 390.152 Q 161.766 392.719 162.75 396.287 L 162.75 396.287 L 162.75 396.287 Q 163.734 399.855 163.734 404.109 L 163.734 404.109 L 163.734 404.109 Z  M 157.23 404.848 L 157.23 404.109 L 157.23 404.109 Q 157.23 401.332 156.686 398.818 L 156.686 398.818 L 156.686 398.818 Q 156.141 396.305 154.945 394.389 L 154.945 394.389 L 154.945 394.389 Q 153.75 392.473 151.816 391.348 L 151.816 391.348 L 151.816 391.348 Q 149.883 390.223 147.07 390.223 L 147.07 390.223 L 147.07 390.223 Q 145.383 390.223 143.977 390.662 L 143.977 390.662 L 143.977 390.662 Q 142.57 391.102 141.463 391.893 L 141.463 391.893 L 141.463 391.893 Q 140.355 392.684 139.494 393.756 L 139.494 393.756 L 139.494 393.756 Q 138.633 394.828 138.035 396.094 L 138.035 396.094 L 138.035 412.723 L 138.035 412.723 Q 138.668 413.988 139.529 415.061 L 139.529 415.061 L 139.529 415.061 Q 140.391 416.133 141.516 416.941 L 141.516 416.941 L 141.516 416.941 Q 142.641 417.75 144.047 418.189 L 144.047 418.189 L 144.047 418.189 Q 145.453 418.629 147.141 418.629 L 147.141 418.629 L 147.141 418.629 Q 149.813 418.629 151.729 417.521 L 151.729 417.521 L 151.729 417.521 Q 153.645 416.414 154.857 414.516 L 154.857 414.516 L 154.857 414.516 Q 156.07 412.617 156.65 410.121 L 156.65 410.121 L 156.65 410.121 Q 157.23 407.625 157.23 404.848 L 157.23 404.848 L 157.23 404.848 Z  M 186.023 419.227 L 186.023 419.227 L 186.023 419.227 Q 186.023 418.172 186.357 417.258 L 186.357 417.258 L 186.357 417.258 Q 186.691 416.344 187.324 415.658 L 187.324 415.658 L 187.324 415.658 Q 187.957 414.973 188.906 414.586 L 188.906 414.586 L 188.906 414.586 Q 189.855 414.199 191.121 414.199 L 191.121 414.199 L 191.121 414.199 Q 192.387 414.199 193.354 414.586 L 193.354 414.586 L 193.354 414.586 Q 194.32 414.973 194.971 415.658 L 194.971 415.658 L 194.971 415.658 Q 195.621 416.344 195.955 417.258 L 195.955 417.258 L 195.955 417.258 Q 196.289 418.172 196.289 419.227 L 196.289 419.227 L 196.289 419.227 Q 196.289 420.246 195.955 421.143 L 195.955 421.143 L 195.955 421.143 Q 195.621 422.039 194.971 422.707 L 194.971 422.707 L 194.971 422.707 Q 194.32 423.375 193.354 423.744 L 193.354 423.744 L 193.354 423.744 Q 192.387 424.113 191.121 424.113 L 191.121 424.113 L 191.121 424.113 Q 189.855 424.113 188.906 423.744 L 188.906 423.744 L 188.906 423.744 Q 187.957 423.375 187.324 422.707 L 187.324 422.707 L 187.324 422.707 Q 186.691 422.039 186.357 421.143 L 186.357 421.143 L 186.357 421.143 Q 186.023 420.246 186.023 419.227 Z " fill-rule="evenodd" fill="rgb(255,255,225)"/></g></svg>